<?xml version="1.0" encoding="UTF-8" standalone="no"?>
<!-- Created with Inkscape (http://www.inkscape.org/) -->

<svg
   xmlns:dc="http://purl.org/dc/elements/1.1/"
   xmlns:cc="http://creativecommons.org/ns#"
   xmlns:rdf="http://www.w3.org/1999/02/22-rdf-syntax-ns#"
   xmlns:svg="http://www.w3.org/2000/svg"
   xmlns="http://www.w3.org/2000/svg"
   xmlns:sodipodi="http://sodipodi.sourceforge.net/DTD/sodipodi-0.dtd"
   xmlns:inkscape="http://www.inkscape.org/namespaces/inkscape"
   width="100"
   height="100"
   id="svg2"
   version="1.1"
   inkscape:version="0.47 r22583"
   sodipodi:docname="ba.svg">
  <title
     id="title2813">Aksara Dompu - Mbojo</title>
  <defs
     id="defs4">
    <inkscape:perspective
       sodipodi:type="inkscape:persp3d"
       inkscape:vp_x="0 : 526.18109 : 1"
       inkscape:vp_y="0 : 1000 : 0"
       inkscape:vp_z="744.09448 : 526.18109 : 1"
       inkscape:persp3d-origin="372.04724 : 350.78739 : 1"
       id="perspective10" />
  </defs>
  <sodipodi:namedview
     id="base"
     pagecolor="#ffffff"
     bordercolor="#666666"
     borderopacity="1.0"
     inkscape:pageopacity="0.0"
     inkscape:pageshadow="2"
     inkscape:zoom="1"
     inkscape:cx="-64"
     inkscape:cy="28.139785"
     inkscape:document-units="px"
     inkscape:current-layer="layer1"
     showgrid="false"
     inkscape:window-width="1024"
     inkscape:window-height="538"
     inkscape:window-x="0"
     inkscape:window-y="24"
     inkscape:window-maximized="1" />
  <metadata
     id="metadata7">
    <rdf:RDF>
      <cc:Work
         rdf:about="">
        <dc:format>image/svg+xml</dc:format>
        <dc:type
           rdf:resource="http://purl.org/dc/dcmitype/StillImage" />
        <dc:title>Aksara Dompu - Mbojo</dc:title>
        <dc:creator>
          <cc:Agent>
            <dc:title>Farhan Perdana (Black_Claw)</dc:title>
          </cc:Agent>
        </dc:creator>
        <dc:contributor>
          <cc:Agent>
            <dc:title>Farhan Perdana blackdramon@gmail.com</dc:title>
          </cc:Agent>
        </dc:contributor>
      </cc:Work>
    </rdf:RDF>
  </metadata>
  <g
     inkscape:label="Layer 1"
     inkscape:groupmode="layer"
     id="layer1"
     transform="translate(0,-952.36218)">
    <path
       style="fill:#000000"
       id="path3769"
       d="m 6.4733193,954.03487 c 1.0525699,0.0485 2.113041,0.47439 2.9769209,1.31405 0.318959,0.31001 0.5994398,0.68698 0.8991628,1.03047 9.548578,12.60857 13.864414,28.43107 10.519363,45.75361 -0.759592,3.2791 -1.306009,4.5056 -2.422802,7.6359 -1.73439,4.8663 -4.100961,9.245 -5.978495,13.9993 -1.078385,2.7306 -1.154508,3.1827 -1.990223,5.9646 -0.6994207,3.0101 -1.7354563,6.7422 -0.904015,9.9217 0.09912,0.3791 0.2746393,0.713 0.4119559,1.0694 0.6362751,0.7889 0.8363511,1.1678 1.6676831,1.6352 0.90621,0.5097 2.20951,0.8211 3.146631,0.9909 9.633347,-1.0381 9.419208,-1.757 14.131539,-4.0243 4.38784,-2.4898 8.754069,-5.0406 12.952641,-8.0811 1.107114,-0.8018 2.2241,-1.5865 3.282927,-2.5004 0.149127,-0.1287 -0.651294,0.2835 -0.523085,0.1185 0.693188,-0.8923 1.515142,-1.5803 2.272719,-2.3706 2.199453,-2.5369 4.143579,-5.4931 5.570711,-8.9125 0.77232,-1.8504 0.872616,-2.4325 1.414219,-4.3824 0.375178,-1.8654 1.20522,-5.0228 0.139537,-6.7919 -0.105514,-0.1752 -0.261828,-0.2803 -0.392746,-0.4205 -0.659227,-0.4291 -1.269122,-0.1329 -1.924396,0.2099 -0.380692,0.1991 -1.459539,0.976 -1.120573,0.668 0.73173,-0.6649 1.461457,-1.4134 2.30736,-1.7463 0.597366,-0.2352 -1.022327,0.9611 -1.533486,1.4417 -2.673412,2.9045 -4.92047,6.4234 -6.588583,10.4857 -0.913392,2.2243 -1.312614,3.7207 -2.021912,6.05 -0.962095,3.5272 -1.459615,7.2522 -0.842429,10.9762 0.340486,2.0546 0.658765,2.6616 1.333121,4.5336 1.073712,2.2469 2.501839,4.1749 4.354752,5.2054 1.204072,0.6695 1.528024,0.6094 2.833821,0.8496 3.211195,-0.2933 6.16008,-2.0708 8.947207,-4.1389 0.361039,-0.2679 -1.412704,1.1049 -1.114655,0.7201 0.625356,-0.8075 1.413473,-1.3457 2.12021,-2.0185 1.493916,-1.6245 2.983474,-3.3279 4.085498,-5.4787 0.296045,-0.5778 0.648502,-1.4064 0.732558,-2.1484 0.02002,-0.1771 -0.02573,-0.3568 -0.03857,-0.5351 -0.04782,-0.058 -0.08145,-0.1514 -0.143362,-0.1752 -0.167619,-0.064 -0.394293,0.1593 -0.510942,0.2431 1.16633,-0.8532 2.286429,-1.8345 3.499011,-2.5597 0.262059,-0.1566 -0.421757,0.5291 -0.604067,0.8286 -0.242868,0.3991 -0.445088,0.8406 -0.667629,1.2608 -1.075882,2.588 -1.929788,5.4658 -2.136584,8.4503 -0.03197,0.4616 -0.02259,0.9267 -0.03389,1.3901 0.07129,0.7492 0.06883,1.3908 0.351193,2.0618 0.725434,1.7239 2.819958,1.4206 3.962578,1.4905 4.914282,-0.182 9.838032,-0.75 14.688321,-1.8616 3.58835,-0.8225 5.264516,-1.4368 8.772564,-2.5589 1.210599,-0.4851 2.421206,-0.9703 3.631805,-1.4555 0,0 -2.938867,3.0676 -2.938867,3.0676 l 0,0 c -1.171937,0.4347 -2.343866,0.8693 -3.515803,1.3039 -3.303669,1.0132 -5.39307,1.7124 -8.763218,2.4995 -5.030334,1.1747 -10.13174,1.8617 -15.223268,2.2851 -1.252498,-0.018 -2.238695,0.1851 -3.390103,-0.4225 -1.149244,-0.6063 -1.423171,-2.2529 -1.491598,-3.7293 0.01528,-0.491 0.0091,-0.9841 0.04596,-1.473 0.22849,-3.0275 1.059424,-5.962 2.039144,-8.6718 1.576098,-3.5179 1.432781,-2.7847 5.416623,-5.6334 0.422604,-0.3021 0.889175,0.3879 1.027795,0.8149 0.02067,0.2654 0.08868,0.5318 0.06188,0.7962 -0.08283,0.8174 -0.537816,1.8499 -0.857417,2.4642 -1.168288,2.2454 -2.726716,4.0389 -4.285697,5.7603 -3.418978,3.2995 -2.66929,2.6943 -7.813802,6.6444 -2.26356,1.738 -4.803518,3.1837 -7.369176,3.8452 -0.646551,0.1667 -1.310047,0.1734 -1.965076,0.2601 -1.323166,-0.2803 -1.750122,-0.2448 -2.964566,-0.9747 -1.89677,-1.1397 -3.303337,-3.2633 -4.384649,-5.6006 -0.712789,-1.9767 -1.023174,-2.5344 -1.368539,-4.7119 -0.608039,-3.8337 -0.192822,-7.6898 0.847341,-11.3083 0.766928,-2.4981 1.1016,-3.7685 2.071737,-6.1728 1.622645,-4.0214 3.748074,-7.59 6.316857,-10.5731 2.723058,-2.7082 1.940558,-2.0403 6.521484,-5.4203 0.800171,-0.5904 2.00799,-1.2254 2.944816,-0.8513 0.194588,0.077 0.356539,0.2624 0.534812,0.3937 0.14998,0.2078 0.328317,0.384 0.44994,0.6236 1.072011,2.1111 0.253054,5.2287 -0.21084,7.3973 -0.527681,1.9276 -0.676826,2.6882 -1.425405,4.5176 -1.452588,3.5496 -3.478807,6.5978 -5.745915,9.2205 -0.779715,0.8163 -1.516208,1.7148 -2.339138,2.4489 -4.10759,3.6646 -8.419937,7.0072 -12.876409,9.8369 -5.808515,4.3339 -11.531844,8.0883 -18.074554,10.0135 -2.664842,0.7842 -6.65036,0.2614 -9.2743038,-1.2444 -0.856948,-0.4918 -1.1802652,-1.0522 -1.8372268,-1.8912 -0.1477144,-0.4084 -0.3378549,-0.7932 -0.4431305,-1.225 -0.805902,-3.3053 0.3194918,-7.3243 1.0805736,-10.4229 0.8936295,-2.898 0.9416781,-3.2472 2.0769114,-6.0958 1.9008721,-4.7696 4.3229681,-9.1278 6.0753561,-14.0159 1.04067,-2.9446 1.654551,-4.4112 2.38295,-7.4958 3.616745,-17.69469 -1.245894,-32.57961 -10.6653967,-44.90091 -0.3036317,-0.29652 -0.5905819,-0.62731 -0.9109081,-0.88959 -0.8753176,-0.71668 -1.9354484,-1.07165 -2.9481532,-0.85926 0,0 3.6754484,-3.74817 3.6754484,-3.74817 z"
       sodipodi:nodetypes="cscccscscsccssscscscssscscscscsscsscscsscscscscccccscscscscsscsscscscscsscscscscsscscscccscc" />
  </g>
</svg>
