<?xml version="1.0" encoding="UTF-8" standalone="no"?>
<!-- Created with Inkscape (http://www.inkscape.org/) -->

<svg
   xmlns:dc="http://purl.org/dc/elements/1.1/"
   xmlns:cc="http://creativecommons.org/ns#"
   xmlns:rdf="http://www.w3.org/1999/02/22-rdf-syntax-ns#"
   xmlns:svg="http://www.w3.org/2000/svg"
   xmlns="http://www.w3.org/2000/svg"
   xmlns:sodipodi="http://sodipodi.sourceforge.net/DTD/sodipodi-0.dtd"
   xmlns:inkscape="http://www.inkscape.org/namespaces/inkscape"
   width="100"
   height="100"
   id="svg2"
   version="1.1"
   inkscape:version="0.47 r22583"
   sodipodi:docname="ba.svg">
  <title
     id="title2813">Aksara Dompu - Mbojo</title>
  <defs
     id="defs4">
    <inkscape:perspective
       sodipodi:type="inkscape:persp3d"
       inkscape:vp_x="0 : 526.18109 : 1"
       inkscape:vp_y="0 : 1000 : 0"
       inkscape:vp_z="744.09448 : 526.18109 : 1"
       inkscape:persp3d-origin="372.04724 : 350.78739 : 1"
       id="perspective10" />
    <inkscape:perspective
       id="perspective10-9"
       inkscape:persp3d-origin="372.04724 : 350.78739 : 1"
       inkscape:vp_z="744.09448 : 526.18109 : 1"
       inkscape:vp_y="0 : 1000 : 0"
       inkscape:vp_x="0 : 526.18109 : 1"
       sodipodi:type="inkscape:persp3d" />
  </defs>
  <sodipodi:namedview
     id="base"
     pagecolor="#ffffff"
     bordercolor="#666666"
     borderopacity="1.0"
     inkscape:pageopacity="0.0"
     inkscape:pageshadow="2"
     inkscape:zoom="1"
     inkscape:cx="-64"
     inkscape:cy="28.139785"
     inkscape:document-units="px"
     inkscape:current-layer="layer1"
     showgrid="false"
     inkscape:window-width="1024"
     inkscape:window-height="538"
     inkscape:window-x="0"
     inkscape:window-y="24"
     inkscape:window-maximized="1" />
  <metadata
     id="metadata7">
    <rdf:RDF>
      <cc:Work
         rdf:about="">
        <dc:format>image/svg+xml</dc:format>
        <dc:type
           rdf:resource="http://purl.org/dc/dcmitype/StillImage" />
        <dc:title>Aksara Dompu - Mbojo</dc:title>
        <dc:creator>
          <cc:Agent>
            <dc:title>Farhan Perdana (Black_Claw)</dc:title>
          </cc:Agent>
        </dc:creator>
        <dc:contributor>
          <cc:Agent>
            <dc:title>Farhan Perdana blackdramon@gmail.com</dc:title>
          </cc:Agent>
        </dc:contributor>
      </cc:Work>
    </rdf:RDF>
  </metadata>
  <g
     inkscape:label="Layer 1"
     inkscape:groupmode="layer"
     id="layer1"
     transform="translate(0,-952.36218)">
    <g
       id="layer1-5"
       inkscape:label="Layer 1"
       transform="translate(-0.21228,-0.4492002)">
      <path
         sodipodi:nodetypes="ccssscccccsscccscscscccscscccsscscscccccsscscscssccccccscsssscsccsssccccscccccc"
         d="m 29.44763,1003.8771 c -2.630068,0.5996 -11.61445,2.789 -14.030908,4.0671 -0.505125,0.2689 -1.015265,0.5253 -1.51537,0.8067 -1.451723,0.8167 -1.698203,0.9722 -3.033036,2.0119 -0.457128,0.356 -1.764447,1.5322 -1.349648,1.1072 8.225341,-8.4259 5.418339,-5.3443 3.697606,-3.4236 -1.871855,2.1891 -2.157947,5.2031 -2.139314,8.3327 0.107789,2.664 0.317663,5.0323 1.826756,7.1788 1.522767,1.7101 3.454037,1.8075 5.332726,1.7991 2.823367,0.094 5.262094,-1.1295 7.637271,-2.6868 3.814045,-3.4272 -2.081227,2.2546 -3.217405,3.2313 -0.459482,0.3951 0.80022,-0.964 1.172731,-1.4782 1.073907,-1.4819 1.922587,-3.1189 2.745745,-4.8262 1.7349,-3.7012 3.000952,-7.7081 4.563618,-11.5226 3.030716,-7.0724 6.01277,-14.1751 8.958382,-21.30609 2.1724,-4.65155 3.82247,-9.67085 5.956781,-14.34841 1.02809,-2.25309 1.274143,-2.57118 2.449627,-4.60973 2.599633,-3.90929 5.892489,-6.73697 9.272014,-9.69718 1.018039,-0.89175 3.741195,-1.34578 4.978501,-1.58464 2.043379,-0.1013 4.086717,-0.32176 6.140286,0.26203 2.594141,0.73746 4.935194,2.18691 7.289718,3.74615 4.514437,3.55252 7.727203,8.77114 10.519456,14.27519 2.107189,4.3119 3.608912,8.95209 4.975101,13.62892 0.62724,2.38535 1.299084,4.79836 1.614491,7.26164 0.196404,1.53383 0.216451,2.53452 0.293827,4.07472 -0.06941,4.4892 -0.978402,8.7771 -2.453443,12.7579 -0.452002,1.2197 -0.977614,2.3914 -1.4664,3.5872 -2.736927,6.8361 -6.040291,13.284 -9.516361,19.5431 -3.175497,5.2015 -7.17425,10.132 -12.193616,12.5556 -0.703075,0.1204 -1.370735,0.3152 -2.102141,0.1096 -1.187686,-0.3338 -2.49128,-1.3963 -3.288078,-2.5468 -0.408491,-0.5898 -0.718362,-1.2699 -1.077532,-1.9048 -1.399273,-3.414 -3.19918,-7.039 -3.357145,-10.8861 -0.02257,-0.5496 0.04627,-1.0918 0.06942,-1.6376 0.239491,-1.3477 0.636966,-2.7167 1.523048,-3.6015 3.835099,-3.83 5.028095,-5.7565 8.667777,-7.45 1.369911,-0.5849 15.821066,-3.8188 17.280427,-3.9887 0,0 -0.838167,2.705 -0.838167,2.705 l -4.523011,6.7798 c -2.352805,-10.3031 -15.808775,0.6198 -17.116168,1.2754 -2.961278,1.6232 -4.664807,4.0298 3.142507,-3.9442 0.260411,-0.2659 -0.554124,0.4867 -0.789963,0.7851 -0.6914,0.8748 -0.688658,1.169 -1.075259,2.3024 -0.0674,0.5008 -0.184027,0.9913 -0.202197,1.5025 -0.131216,3.6925 1.622513,7.2969 3.036932,10.5034 0.345411,0.5486 0.649933,1.139 1.036212,1.6456 1.331492,1.7457 3.078135,2.311 4.792132,1.5809 2.474734,-1.4328 5.881882,-5.0158 -2.774692,3.4433 -0.386257,0.3775 0.75013,-0.7886 1.104291,-1.2105 1.234156,-1.4702 1.31202,-1.7154 2.435086,-3.4536 3.6358,-6.1931 7.052031,-12.635 9.758971,-19.5684 2.055462,-5.1197 3.658177,-9.7506 3.802641,-15.6788 -0.153787,-3.775 -0.716098,-7.47676 -1.770858,-11.11321 -1.281163,-4.65859 -2.683036,-9.29046 -4.693869,-13.6123 -2.687448,-5.37741 -5.836094,-10.44326 -10.242463,-13.86952 -0.74643,-0.49056 -1.472252,-1.0384 -2.239276,-1.47168 -3.538308,-1.99868 -7.227991,-2.55686 -10.933523,-1.93552 -1.498012,0.37892 -2.08582,0.4374 -3.475004,1.1293 -0.467233,0.23272 -1.709605,1.25111 -1.35068,0.82373 1.427415,-1.69968 3.058417,-3.12297 4.59004,-4.68093 0.419619,-0.42685 -0.859859,0.82582 -1.254035,1.28751 -0.454817,0.53273 -0.859204,1.12727 -1.288806,1.69088 -1.189716,1.92196 -1.593536,2.47216 -2.638781,4.60611 -2.274187,4.64285 -3.964566,9.70555 -6.113239,14.43898 -2.895585,7.02588 -5.866571,13.99831 -8.664377,21.09035 -0.321231,0.7513 -0.673998,1.4816 -0.963702,2.254 -0.500356,1.3342 -0.858568,2.7534 -1.351936,4.092 -0.683131,1.8532 -0.688915,1.6665 -1.419766,3.412 -0.236601,0.5651 -0.458124,1.1406 -0.687195,1.7108 -2.935086,6.4163 -6.763869,10.748 -12.168153,14.5621 -2.542119,1.5315 -5.043615,2.5532 -7.991165,2.4622 -2.115287,-0.092 -4.190232,-0.4669 -5.838198,-2.4326 -0.220944,-0.3238 -0.469582,-0.6227 -0.662832,-0.9712 -1.1211052,-2.0219 -1.3009759,-4.5423 -1.4477867,-6.834 -0.079594,-3.2402 0.029578,-6.5647 1.8076777,-9.0111 4.085615,-4.8313 8.517043,-9.1475 13.849502,-11.7212 2.526211,-1.29379 14.1155,-4.6032 16.810722,-5.37795 0,0 -4.456289,4.25905 -4.456289,4.25905 l -3.42026,3.7064 z"
         id="path3744"
         style="fill:#000000" />
    </g>
  </g>
</svg>
