<?xml version="1.0" encoding="UTF-8" standalone="no"?>
<!-- Created with Inkscape (http://www.inkscape.org/) -->

<svg
   xmlns:dc="http://purl.org/dc/elements/1.1/"
   xmlns:cc="http://creativecommons.org/ns#"
   xmlns:rdf="http://www.w3.org/1999/02/22-rdf-syntax-ns#"
   xmlns:svg="http://www.w3.org/2000/svg"
   xmlns="http://www.w3.org/2000/svg"
   xmlns:sodipodi="http://sodipodi.sourceforge.net/DTD/sodipodi-0.dtd"
   xmlns:inkscape="http://www.inkscape.org/namespaces/inkscape"
   width="100"
   height="100"
   id="svg2"
   version="1.1"
   inkscape:version="0.47 r22583"
   sodipodi:docname="da.svg">
  <title
     id="title2813">Aksara Dompu - Mbojo</title>
  <defs
     id="defs4">
    <inkscape:perspective
       sodipodi:type="inkscape:persp3d"
       inkscape:vp_x="0 : 526.18109 : 1"
       inkscape:vp_y="0 : 1000 : 0"
       inkscape:vp_z="744.09448 : 526.18109 : 1"
       inkscape:persp3d-origin="372.04724 : 350.78739 : 1"
       id="perspective10" />
    <inkscape:perspective
       id="perspective10-9"
       inkscape:persp3d-origin="372.04724 : 350.78739 : 1"
       inkscape:vp_z="744.09448 : 526.18109 : 1"
       inkscape:vp_y="0 : 1000 : 0"
       inkscape:vp_x="0 : 526.18109 : 1"
       sodipodi:type="inkscape:persp3d" />
    <inkscape:perspective
       id="perspective10-7"
       inkscape:persp3d-origin="372.04724 : 350.78739 : 1"
       inkscape:vp_z="744.09448 : 526.18109 : 1"
       inkscape:vp_y="0 : 1000 : 0"
       inkscape:vp_x="0 : 526.18109 : 1"
       sodipodi:type="inkscape:persp3d" />
  </defs>
  <sodipodi:namedview
     id="base"
     pagecolor="#ffffff"
     bordercolor="#666666"
     borderopacity="1.0"
     inkscape:pageopacity="0.0"
     inkscape:pageshadow="2"
     inkscape:zoom="1"
     inkscape:cx="-64"
     inkscape:cy="28.139785"
     inkscape:document-units="px"
     inkscape:current-layer="layer1"
     showgrid="false"
     inkscape:window-width="1024"
     inkscape:window-height="538"
     inkscape:window-x="0"
     inkscape:window-y="24"
     inkscape:window-maximized="1" />
  <metadata
     id="metadata7">
    <rdf:RDF>
      <cc:Work
         rdf:about="">
        <dc:format>image/svg+xml</dc:format>
        <dc:type
           rdf:resource="http://purl.org/dc/dcmitype/StillImage" />
        <dc:title>Aksara Dompu - Mbojo</dc:title>
        <dc:creator>
          <cc:Agent>
            <dc:title>Farhan Perdana (Black_Claw)</dc:title>
          </cc:Agent>
        </dc:creator>
        <dc:contributor>
          <cc:Agent>
            <dc:title>Farhan Perdana blackdramon@gmail.com</dc:title>
          </cc:Agent>
        </dc:contributor>
      </cc:Work>
    </rdf:RDF>
  </metadata>
  <g
     inkscape:label="Layer 1"
     inkscape:groupmode="layer"
     id="layer1"
     transform="translate(0,-952.36218)">
    <g
       id="layer1-1"
       inkscape:label="Layer 1"
       transform="translate(-0.61681,1.207039)">
      <path
         sodipodi:nodetypes="ccscscsscsscsscscssssccsscssccsscsscscccscsscssccsscssccsssscscsscsscsscsscsccccc"
         d="m 28.477972,954.75129 c -3.0169,1.79575 -4.983972,4.71187 -6.831309,7.60878 -2.541585,4.58584 -4.190256,9.62751 -5.13674,14.77569 -0.219946,1.19633 -0.372204,2.40414 -0.558309,3.60618 -0.564691,5.25136 -0.298647,10.56442 1.333,15.62086 1.002173,3.1058 1.529815,3.7006 3.110684,6.4371 2.215137,3.1812 5.174517,5.5879 8.760649,7.0569 0.725071,0.297 1.460177,0.5882 2.225108,0.758 0.796969,0.1769 1.622319,0.1841 2.433481,0.2761 3.658417,-0.225 6.9825,-1.5209 10.107517,-3.404 0.141469,-0.085 -0.61244,0.06 -0.492626,-0.053 13.784421,-13.08071 -5.232964,6.3447 8.520184,-7.9347 1.206118,-1.5319 2.489666,-3.00576 3.618352,-4.59544 3.275372,-4.61329 6.367224,-10.42912 7.639132,-15.99378 0.191339,-0.83711 0.248034,-1.69936 0.372053,-2.54905 0.0017,-1.65815 -0.0052,-3.92618 -1.683005,-4.89543 -0.472966,-0.27325 -0.964139,-0.23293 -1.480378,-0.25661 -0.225375,0.0683 -0.466529,0.0975 -0.676121,0.20498 -0.20202,0.10357 -0.740312,0.52055 -0.538213,0.4172 1.677953,-0.85804 3.168444,-2.14946 4.975056,-2.68612 0.484161,-0.14381 -0.447649,0.90909 -0.606583,1.38853 -0.679178,2.04868 -0.845817,3.75322 -1.214383,5.9505 -1.754446,13.12749 -2.085609,26.39542 -2.244694,39.62262 -0.06742,5.2658 -0.05326,10.5323 0.03456,15.7977 0.02981,1.7878 0.132901,4.5003 0.06462,6.3683 -0.02524,0.6903 -0.109417,1.3772 -0.164124,2.0658 -0.214144,1.0205 -0.281472,1.79 -0.790785,2.6989 -0.319359,0.57 -0.972977,1.2795 -1.536208,1.6246 -5.789275,3.5467 -4.210314,2.8773 -7.36365,4.0949 -1.872968,0.639 -3.764842,0.9145 -5.733556,0.7603 -0.34821,-0.1463 -0.731853,-0.227 -1.044625,-0.4387 -2.213681,-1.498 -4.878908,-5.878 -5.904338,-8.2204 -0.519582,-1.1868 -0.859303,-2.4446 -1.28895,-3.6668 -1.395807,-4.5633 -1.48575,-7.7705 -0.149801,-12.3913 0.424968,-1.4699 0.908203,-2.9383 1.604073,-4.3011 1.902072,-3.7249 3.828657,-5.5132 6.579975,-8.6617 9.055435,-8.7006 20.372226,-14.40123 30.754684,-21.28247 2.046847,-1.35659 4.031201,-2.80522 6.046802,-4.20781 6.266446,-4.83616 6.780513,-4.73558 8.834986,-8.81005 -1.46166,-12.41847 9.12588,-2.18864 -4.403346,7.06593 -2.042776,1.42068 -4.053883,2.88803 -6.128334,4.26206 -10.227738,6.77443 -21.377722,12.37874 -30.300261,20.94474 -2.662804,3.0386 -4.544865,4.7908 -6.403534,8.3745 -0.693101,1.3365 -1.193595,2.7719 -1.622299,4.2151 -1.332156,4.4843 -1.171691,7.6056 0.15135,12.0376 0.452954,1.1732 0.817301,2.3846 1.358872,3.5196 1.119716,2.3467 3.714921,6.3039 6.15581,7.547 0.299867,0.1527 0.649093,0.1779 0.973637,0.2668 1.90505,0.05 3.751687,-0.2725 5.532002,-0.9721 2.360346,-1.0956 2.021576,-0.9751 -3.575425,2.2194 -0.311534,0.1778 0.618471,-0.368 0.898613,-0.592 1.0972,-0.8775 1.544413,-2.0341 1.869401,-3.3759 0.11521,-0.7007 0.265188,-1.3965 0.345629,-2.1021 0.251449,-2.2055 0.267117,-4.3241 0.333647,-6.5488 0.159879,-5.3464 0.293794,-10.6937 0.428029,-16.0409 0.425719,-13.1183 0.745437,-26.24281 1.570551,-39.34408 0.279045,-3.7848 0.07544,-2.78894 0.666902,-5.81139 0.101017,-0.51621 -0.06936,-1.20072 0.329925,-1.54308 1.812308,-1.55403 3.981316,-2.63701 6.010921,-3.89402 0.199048,-0.12326 0.430873,-0.19397 0.660813,-0.23806 0.253879,-0.0487 0.516415,-0.0248 0.77462,-0.0372 0.283481,0.0608 0.578832,0.0812 0.850447,0.18263 2.444952,0.91326 2.561883,3.89095 2.414238,6.06606 -0.172986,0.9027 -0.279799,1.82062 -0.518962,2.70807 -1.559783,5.78784 -4.682524,11.56117 -8.119833,16.42612 -1.133122,1.60372 -2.412343,3.09909 -3.618516,4.64863 -2.604321,2.78392 -5.090608,5.74952 -8.251816,7.95502 -2.842427,1.983 -5.843655,3.7319 -8.840669,5.4725 -3.337913,1.9386 -6.813389,3.2576 -10.693011,3.4153 -0.846473,-0.1212 -1.710787,-0.1525 -2.53941,-0.3637 -0.765718,-0.1951 -1.493592,-0.5226 -2.213837,-0.8476 -3.604139,-1.6264 -6.583667,-4.165 -8.760033,-7.4715 -1.47693,-2.7165 -2.118794,-3.6011 -3.074864,-6.6338 -0.586441,-1.86027 -1.418856,-6.03046 -1.597202,-7.94211 -0.241921,-2.59318 -0.02613,-5.25079 0.09669,-7.83985 0.168485,-1.20599 0.301682,-2.41748 0.505454,-3.61802 0.872689,-5.14156 2.438883,-10.19025 4.795002,-14.84657 1.713595,-2.81836 3.476681,-5.76442 6.256726,-7.66028 0,0 6.105548,-2.38896 6.105548,-2.38896 l 10e-6,3e-5 -7e-6,-5.5e-4 z"
         id="path3203"
         style="fill:#000000" />
    </g>
  </g>
</svg>
