<?xml version="1.0" encoding="UTF-8" standalone="no"?>
<!-- Created with Inkscape (http://www.inkscape.org/) -->

<svg
   xmlns:dc="http://purl.org/dc/elements/1.1/"
   xmlns:cc="http://creativecommons.org/ns#"
   xmlns:rdf="http://www.w3.org/1999/02/22-rdf-syntax-ns#"
   xmlns:svg="http://www.w3.org/2000/svg"
   xmlns="http://www.w3.org/2000/svg"
   xmlns:sodipodi="http://sodipodi.sourceforge.net/DTD/sodipodi-0.dtd"
   xmlns:inkscape="http://www.inkscape.org/namespaces/inkscape"
   width="100"
   height="100"
   id="svg2"
   version="1.1"
   inkscape:version="0.47 r22583"
   sodipodi:docname="dl.svg">
  <title
     id="title2813">Aksara Dompu - Mbojo</title>
  <defs
     id="defs4">
    <inkscape:perspective
       sodipodi:type="inkscape:persp3d"
       inkscape:vp_x="0 : 526.18109 : 1"
       inkscape:vp_y="0 : 1000 : 0"
       inkscape:vp_z="744.09448 : 526.18109 : 1"
       inkscape:persp3d-origin="372.04724 : 350.78739 : 1"
       id="perspective10" />
    <inkscape:perspective
       id="perspective10-9"
       inkscape:persp3d-origin="372.04724 : 350.78739 : 1"
       inkscape:vp_z="744.09448 : 526.18109 : 1"
       inkscape:vp_y="0 : 1000 : 0"
       inkscape:vp_x="0 : 526.18109 : 1"
       sodipodi:type="inkscape:persp3d" />
    <inkscape:perspective
       id="perspective10-7"
       inkscape:persp3d-origin="372.04724 : 350.78739 : 1"
       inkscape:vp_z="744.09448 : 526.18109 : 1"
       inkscape:vp_y="0 : 1000 : 0"
       inkscape:vp_x="0 : 526.18109 : 1"
       sodipodi:type="inkscape:persp3d" />
    <inkscape:perspective
       id="perspective10-0"
       inkscape:persp3d-origin="372.04724 : 350.78739 : 1"
       inkscape:vp_z="744.09448 : 526.18109 : 1"
       inkscape:vp_y="0 : 1000 : 0"
       inkscape:vp_x="0 : 526.18109 : 1"
       sodipodi:type="inkscape:persp3d" />
  </defs>
  <sodipodi:namedview
     id="base"
     pagecolor="#ffffff"
     bordercolor="#666666"
     borderopacity="1.0"
     inkscape:pageopacity="0.0"
     inkscape:pageshadow="2"
     inkscape:zoom="1"
     inkscape:cx="-64"
     inkscape:cy="28.139785"
     inkscape:document-units="px"
     inkscape:current-layer="layer1"
     showgrid="false"
     inkscape:window-width="1024"
     inkscape:window-height="538"
     inkscape:window-x="0"
     inkscape:window-y="24"
     inkscape:window-maximized="1" />
  <metadata
     id="metadata7">
    <rdf:RDF>
      <cc:Work
         rdf:about="">
        <dc:format>image/svg+xml</dc:format>
        <dc:type
           rdf:resource="http://purl.org/dc/dcmitype/StillImage" />
        <dc:title>Aksara Dompu - Mbojo</dc:title>
        <dc:creator>
          <cc:Agent>
            <dc:title>Farhan Perdana (Black_Claw)</dc:title>
          </cc:Agent>
        </dc:creator>
        <dc:contributor>
          <cc:Agent>
            <dc:title>Farhan Perdana blackdramon@gmail.com</dc:title>
          </cc:Agent>
        </dc:contributor>
      </cc:Work>
    </rdf:RDF>
  </metadata>
  <g
     inkscape:label="Layer 1"
     inkscape:groupmode="layer"
     id="layer1"
     transform="translate(0,-952.36218)">
    <g
       id="layer1-1"
       inkscape:label="Layer 1"
       transform="translate(2.5517,-0.495908)">
      <path
         d="m 26.190971,959.1477 c 0.82399,2.6515 2.291742,5.1478 3.865893,7.5676 1.723097,2.0047 3.248273,4.2208 5.627152,5.8101 0.329672,0.2202 0.697242,0.4026 1.045867,0.604 1.19283,0.5837 2.538063,1.1241 3.965655,1.2268 0.721334,0.052 1.18376,-0.056 1.88536,-0.1589 3.313888,-1.285 -2.618769,1.3061 -4.014065,1.8308 -0.438512,0.1648 0.771499,-0.4684 1.119786,-0.7353 1.175598,-0.901 2.053076,-1.9686 2.910544,-3.0582 1.814268,-2.7666 0.78886,-2.3225 7.464392,-3.658 0.321372,-0.064 -0.04856,0.5212 -0.06536,0.7821 -0.02059,0.3197 -0.03131,0.6398 -0.04694,0.9597 -0.0391,1.6484 0.282227,3.3535 1.604571,4.692 0.214971,0.2175 0.482534,0.3995 0.723806,0.5992 0.989095,0.5938 2.192742,1.0646 3.472079,1.0427 0.405529,-0.01 1.488648,-0.1994 1.870745,-0.2618 0.363238,-0.1225 1.428966,-0.5268 1.089712,-0.3673 -1.562376,0.7346 -3.111115,1.5005 -4.766203,2.0959 -0.545742,0.1963 0.962233,-0.5673 1.404618,-0.8866 0.584354,-0.4218 1.123199,-0.8813 1.670485,-1.3328 2.1198,-1.7491 1.70531,-1.4281 3.66331,-3.3483 3.332368,-3.4144 5.416604,-7.4312 7.006532,-11.5187 0.129645,-0.4379 0.269608,-0.8738 0.388939,-1.3134 0.696501,-2.566 -0.847432,-2.5895 6.646108,-3.2603 0.65582,-0.059 -0.15659,1.033 -0.209518,1.5514 -0.07676,0.7518 -0.119651,1.5054 -0.179475,2.2582 -1.016367,9.6114 -1.940312,19.2279 -3.125007,28.8279 -1.033097,11.0586 -4.296097,21.8593 -7.884302,32.546 -2.264028,6.8517 -5.980485,13.315 -10.200255,19.5401 -1.122012,1.3724 -2.18069,3.0657 -4.064934,3.9174 -6.853927,3.0982 -4.411595,2.7405 -7.988171,3.1243 -2.370227,0.1109 -4.650476,-0.5253 -6.461345,-1.7396 -0.577722,-0.3875 -1.071815,-0.8462 -1.607721,-1.2693 -0.543498,-0.5954 -1.1731,-1.1475 -1.630497,-1.7862 -0.650362,-0.9082 -1.174887,-1.8706 -1.678702,-2.8349 -1.825316,-3.4936 -3.006373,-7.1829 -3.687146,-10.9201 -0.224919,-1.2347 -0.315481,-2.4823 -0.473219,-3.7235 -0.08947,-3.3505 -0.08154,-6.7596 1.019166,-10.0272 0.674832,-2.0033 1.761105,-3.9556 3.018703,-5.7705 0.552545,-0.7973 1.210037,-1.5467 1.815052,-2.32 2.837411,-3.2207 6.202508,-5.5316 10.419068,-7.5459 3.237809,-1.5337 6.451723,-3.138 10.006673,-4.1705 0.692683,-0.2012 1.460706,-0.4227 2.216667,-0.43 0.286092,-0.01 0.565538,0.069 0.848308,0.1031 0.207097,0.1102 0.452318,0.1854 0.621295,0.3305 1.021449,0.8767 0.162111,2.1873 -0.4214,3.0285 -0.803094,0.867 -1.798695,1.6963 -2.990552,2.2414 -6.880306,3.1466 -4.295785,2.8909 -7.724358,3.1088 -0.233919,-0.064 -0.467833,-0.128 -0.701747,-0.192 0,0 5.875365,-3.2049 5.875365,-3.2049 l 0,0 c 0.169493,0.01 0.338987,0.019 0.508484,0.029 2.584827,-0.5605 1.103167,-0.2899 -4.502565,2.2871 -0.304369,0.14 0.594128,-0.2991 0.882132,-0.459 0.8059,-0.4477 1.566345,-0.9459 2.185736,-1.5546 0.295734,-0.345 1.477229,-1.7961 0.887602,-2.2186 -0.11046,-0.079 -0.271947,-0.097 -0.407917,-0.1458 -0.2298,-0.01 -0.4612,-0.029 -0.689397,-0.01 -2.551207,0.2401 -9.572319,3.61 -0.223897,-0.6768 -1.28985,0.5802 -2.192893,0.9533 -3.414324,1.6463 -2.853456,1.6191 -5.370148,3.5963 -7.501313,5.7948 -1.648388,1.9718 -2.461031,2.7693 -3.686957,4.9844 -2.264107,4.0909 -2.77076,8.5309 -2.632978,12.9485 0.13693,1.2336 0.197289,2.4738 0.410794,3.7006 0.806074,4.6316 2.422547,9.3892 5.698952,13.3409 0.492274,0.5937 1.126035,1.1066 1.68905,1.6599 0.537113,0.383 1.03206,0.8063 1.611334,1.149 1.831544,1.0837 4.096344,1.5383 6.35148,1.2916 2.821,-0.5603 1.182245,-0.3094 -4.157496,2.2442 -0.345127,0.1651 0.711617,-0.3054 1.034046,-0.4969 1.483492,-0.8807 2.514885,-2.1214 3.532589,-3.3196 4.639802,-6.228 8.722238,-12.7558 11.139325,-19.7512 0.592106,-1.6761 1.21774,-3.3451 1.776313,-5.0282 2.995875,-9.0277 5.314283,-18.2082 6.319551,-27.5151 1.039661,-9.4452 1.996081,-18.907 2.112017,-28.3924 -0.011,-0.7251 -0.0066,-1.4505 -0.03302,-2.1754 -0.01734,-0.4732 -0.553291,-1.1085 -0.09872,-1.418 8.489392,-5.7811 6.546942,-3.4521 5.440747,-0.2471 -1.077269,2.6793 -2.365867,5.267 -3.974615,7.7798 -0.453313,0.7081 -0.898506,1.4216 -1.422885,2.0985 -0.500079,0.6455 -1.096808,1.2414 -1.645209,1.8621 -4.166836,4.2754 -7.646174,7.4952 -14.7368,9.2214 -2.384276,0.2709 -3.851259,0.01 -5.714735,-1.2559 -0.255803,-0.2308 -0.537561,-0.4452 -0.767409,-0.6924 -1.337499,-1.4386 -1.77005,-3.2242 -1.796551,-4.9721 -0.0025,-0.312 10e-4,-0.6242 -0.008,-0.9363 -0.0069,-0.2428 -0.291985,-0.5893 -0.03896,-0.7281 8.783703,-4.82 7.091785,-3.8093 5.243547,-1.1151 -2.872264,3.8293 -5.888239,6.148 -11.976268,7.4885 -0.337179,0.022 -0.673258,0.066 -1.011548,0.065 -1.863066,-0.01 -3.591132,-0.7184 -5.082044,-1.5329 -0.349871,-0.2277 -0.718936,-0.4382 -1.049616,-0.683 -2.313037,-1.7128 -3.839313,-3.9678 -5.59815,-6.0164 -1.595279,-2.4382 -3.091719,-4.9209 -4.270107,-7.5047 0,0 6.27285,-2.7025 6.27285,-2.7025 z"
         id="path2815"
         style="fill:#000000" />
    </g>
  </g>
</svg>
