<?xml version="1.0" encoding="UTF-8" standalone="no"?>
<!-- Created with Inkscape (http://www.inkscape.org/) -->

<svg
   xmlns:dc="http://purl.org/dc/elements/1.1/"
   xmlns:cc="http://creativecommons.org/ns#"
   xmlns:rdf="http://www.w3.org/1999/02/22-rdf-syntax-ns#"
   xmlns:svg="http://www.w3.org/2000/svg"
   xmlns="http://www.w3.org/2000/svg"
   xmlns:sodipodi="http://sodipodi.sourceforge.net/DTD/sodipodi-0.dtd"
   xmlns:inkscape="http://www.inkscape.org/namespaces/inkscape"
   width="100"
   height="100"
   id="svg2"
   version="1.1"
   inkscape:version="0.47 r22583"
   sodipodi:docname="kh.svg">
  <title
     id="title2813">Aksara Dompu - Mbojo</title>
  <defs
     id="defs4">
    <inkscape:perspective
       sodipodi:type="inkscape:persp3d"
       inkscape:vp_x="0 : 526.18109 : 1"
       inkscape:vp_y="0 : 1000 : 0"
       inkscape:vp_z="744.09448 : 526.18109 : 1"
       inkscape:persp3d-origin="372.04724 : 350.78739 : 1"
       id="perspective10" />
    <inkscape:perspective
       id="perspective10-9"
       inkscape:persp3d-origin="372.04724 : 350.78739 : 1"
       inkscape:vp_z="744.09448 : 526.18109 : 1"
       inkscape:vp_y="0 : 1000 : 0"
       inkscape:vp_x="0 : 526.18109 : 1"
       sodipodi:type="inkscape:persp3d" />
    <inkscape:perspective
       id="perspective10-7"
       inkscape:persp3d-origin="372.04724 : 350.78739 : 1"
       inkscape:vp_z="744.09448 : 526.18109 : 1"
       inkscape:vp_y="0 : 1000 : 0"
       inkscape:vp_x="0 : 526.18109 : 1"
       sodipodi:type="inkscape:persp3d" />
    <inkscape:perspective
       id="perspective10-0"
       inkscape:persp3d-origin="372.04724 : 350.78739 : 1"
       inkscape:vp_z="744.09448 : 526.18109 : 1"
       inkscape:vp_y="0 : 1000 : 0"
       inkscape:vp_x="0 : 526.18109 : 1"
       sodipodi:type="inkscape:persp3d" />
    <inkscape:perspective
       id="perspective10-2"
       inkscape:persp3d-origin="372.04724 : 350.78739 : 1"
       inkscape:vp_z="744.09448 : 526.18109 : 1"
       inkscape:vp_y="0 : 1000 : 0"
       inkscape:vp_x="0 : 526.18109 : 1"
       sodipodi:type="inkscape:persp3d" />
  </defs>
  <sodipodi:namedview
     id="base"
     pagecolor="#ffffff"
     bordercolor="#666666"
     borderopacity="1.0"
     inkscape:pageopacity="0.0"
     inkscape:pageshadow="2"
     inkscape:zoom="1"
     inkscape:cx="-64"
     inkscape:cy="28.139785"
     inkscape:document-units="px"
     inkscape:current-layer="layer1"
     showgrid="false"
     inkscape:window-width="1024"
     inkscape:window-height="538"
     inkscape:window-x="0"
     inkscape:window-y="24"
     inkscape:window-maximized="1" />
  <metadata
     id="metadata7">
    <rdf:RDF>
      <cc:Work
         rdf:about="">
        <dc:format>image/svg+xml</dc:format>
        <dc:type
           rdf:resource="http://purl.org/dc/dcmitype/StillImage" />
        <dc:title>Aksara Dompu - Mbojo</dc:title>
        <dc:creator>
          <cc:Agent>
            <dc:title>Farhan Perdana (Black_Claw)</dc:title>
          </cc:Agent>
        </dc:creator>
        <dc:contributor>
          <cc:Agent>
            <dc:title>Farhan Perdana blackdramon@gmail.com</dc:title>
          </cc:Agent>
        </dc:contributor>
      </cc:Work>
    </rdf:RDF>
  </metadata>
  <g
     inkscape:label="Layer 1"
     inkscape:groupmode="layer"
     id="layer1"
     transform="translate(0,-952.36218)">
    <g
       id="layer1-5"
       inkscape:label="Layer 1"
       transform="translate(2.46485,0.12618)">
      <path
         d="m 95.722647,958.47872 c -7.143105,1.76933 -14.195093,3.97471 -21.033199,6.70142 -1.636401,0.65252 -3.244691,1.37344 -4.867041,2.06014 -3.478198,1.67826 -7.058575,3.28143 -10.163217,5.62018 -0.889543,0.67015 -2.146658,1.77206 -2.721548,2.81387 -0.200014,0.36252 -0.244092,0.79121 -0.366136,1.18684 0.0346,0.35144 -0.0016,0.71731 0.103909,1.05432 0.628596,2.00701 3.543509,3.56605 5.272218,4.42914 2.761181,1.38813 5.772369,1.64343 8.801819,1.78467 -13.069212,0.21514 -3.901774,-0.11713 -0.863199,-0.28846 4.990016,-0.39728 17.608431,0.1274 3.082408,-0.10903 -0.351276,-0.006 0.702546,-0.032 1.051394,-0.0737 0.902714,-0.10776 0.803027,-0.11575 1.547622,-0.40405 0.09807,-0.0809 0.223664,-0.13687 0.294165,-0.24267 0.181582,-0.27248 -0.579278,-0.84311 -0.670064,-0.90934 -0.886349,-0.64687 -1.342194,-0.71806 -2.482217,-1.1739 -2.935305,-0.75868 -2.831848,-0.865 -6.307219,-1.03937 -1.586338,-0.0796 -3.199878,-0.30885 -4.764851,-0.0373 -0.289128,0.05 0.640143,0.6925 0.367152,0.80015 -2.39716,0.94518 -5.014757,1.20893 -7.467281,1.99945 -2.523559,0.81341 -4.961799,1.87098 -7.442701,2.80641 -2.550242,1.31851 -5.178003,2.49677 -7.650721,3.95545 -7.082385,4.178 -13.958149,9.70202 -19.344205,15.93736 -3.979431,4.6069 -4.539974,6.1993 -7.380207,11.3207 -0.635377,1.661 -1.437265,3.2675 -1.906143,4.9829 -1.1059386,4.046 -0.8490053,8.3278 1.407024,11.9527 1.784202,2.8668 3.992162,4.5301 6.466285,6.7733 7.343141,4.8981 14.679967,6.903 23.445881,7.4714 6.678715,0.4329 5.012739,1.1589 7.670692,-0.1961 5.29656,-0.5122 10.607003,-1.3771 15.453445,-3.6939 2.33087,-1.1141 4.476171,-2.477 6.082171,-4.5415 0.628446,-0.8079 0.987634,-1.7929 1.481449,-2.6895 0.30764,-2.3649 0.709495,-3.2954 -0.08551,-5.6269 -1.568162,-4.5987 -6.386669,-8.1601 -10.061538,-10.9992 -1.094337,-0.6886 -2.188664,-1.377 -3.283002,-2.0655 0,0 6.960868,-0.7181 6.960868,-0.7181 l 0,0 c 1.07672,0.7115 2.153441,1.4229 3.230161,2.1343 3.700765,2.9267 8.861965,6.8467 10.398513,11.516 0.793774,2.412 0.334212,3.6626 0.0053,6.0997 -0.533512,0.9648 -0.921412,2.0259 -1.600501,2.8945 -1.692575,2.1647 -3.982471,3.6102 -6.424736,4.7833 -5.009278,2.4062 -10.484794,3.3273 -15.9695,3.8361 -8.946777,0.2509 -18.135314,0.9858 -27.021775,-0.6647 -6.130391,-1.1385 -11.80229,-3.4669 -16.960382,-6.9604 -2.4473971,-2.2062 -5.0234506,-4.1837 -6.7704633,-7.055 -2.3009383,-3.7816 -2.3213667,-8.3779 -1.024385,-12.4852 0.5523012,-1.7491 1.4432069,-3.3726 2.1648078,-5.0588 3.0402309,-5.1654 3.6880135,-6.7969 7.8067315,-11.4555 1.792359,-2.0273 3.740988,-3.9168 5.739862,-5.74079 6.366517,-5.80961 13.460482,-10.69251 21.247073,-14.40566 3.44414,-1.34316 10.700589,-4.40395 14.489653,-4.99897 5.661587,-0.88907 15.421315,-1.54158 21.778281,-0.45622 0.921993,0.15743 1.808112,0.47976 2.712163,0.71966 1.169514,0.4922 4.183971,1.54216 3.544776,3.50902 -0.07007,0.21574 -0.251615,0.37737 -0.377444,0.56605 -0.234546,0.13699 -0.452598,0.30726 -0.703637,0.41097 -0.682245,0.2818 -1.275383,0.34623 -2.008504,0.36102 -2.887,0.0582 -5.776458,0.005 -8.662047,0.11138 -2.198573,0.0819 4.400105,-0.0292 6.600195,-0.0346 0.340815,0 -0.6815,0.0138 -1.022244,0.0207 -1.063608,0.10297 -2.115459,0.0747 -3.179662,0.15179 -3.715417,0.26913 -7.380884,0.38945 -11.150621,0.18607 -3.047631,-0.20566 -6.032274,-0.6646 -8.773187,-2.11625 -2.005767,-1.10613 -4.858123,-2.75594 -5.423798,-5.20011 -0.100785,-0.43546 -0.03562,-0.89327 -0.05344,-1.3399 0.158338,-0.48577 0.222189,-1.01333 0.475007,-1.45736 0.64634,-1.13556 2.097165,-2.31852 3.092933,-3.02374 3.312072,-2.34567 7.081416,-3.94699 10.724106,-5.68235 8.136552,-3.43833 16.417146,-6.52534 24.908968,-8.97902 0,0 7.579409,0.97233 7.579409,0.97233 z"
         id="path3454"
         style="fill:#000000" />
    </g>
  </g>
</svg>
