<?xml version="1.0" encoding="UTF-8" standalone="no"?>
<!-- Created with Inkscape (http://www.inkscape.org/) -->

<svg
   xmlns:dc="http://purl.org/dc/elements/1.1/"
   xmlns:cc="http://creativecommons.org/ns#"
   xmlns:rdf="http://www.w3.org/1999/02/22-rdf-syntax-ns#"
   xmlns:svg="http://www.w3.org/2000/svg"
   xmlns="http://www.w3.org/2000/svg"
   xmlns:sodipodi="http://sodipodi.sourceforge.net/DTD/sodipodi-0.dtd"
   xmlns:inkscape="http://www.inkscape.org/namespaces/inkscape"
   width="100"
   height="100"
   id="svg2"
   version="1.1"
   inkscape:version="0.47 r22583"
   sodipodi:docname="mb.svg">
  <title
     id="title2813">Aksara Dompu - Mbojo</title>
  <defs
     id="defs4">
    <inkscape:perspective
       sodipodi:type="inkscape:persp3d"
       inkscape:vp_x="0 : 526.18109 : 1"
       inkscape:vp_y="0 : 1000 : 0"
       inkscape:vp_z="744.09448 : 526.18109 : 1"
       inkscape:persp3d-origin="372.04724 : 350.78739 : 1"
       id="perspective10" />
    <inkscape:perspective
       id="perspective10-9"
       inkscape:persp3d-origin="372.04724 : 350.78739 : 1"
       inkscape:vp_z="744.09448 : 526.18109 : 1"
       inkscape:vp_y="0 : 1000 : 0"
       inkscape:vp_x="0 : 526.18109 : 1"
       sodipodi:type="inkscape:persp3d" />
    <inkscape:perspective
       id="perspective10-7"
       inkscape:persp3d-origin="372.04724 : 350.78739 : 1"
       inkscape:vp_z="744.09448 : 526.18109 : 1"
       inkscape:vp_y="0 : 1000 : 0"
       inkscape:vp_x="0 : 526.18109 : 1"
       sodipodi:type="inkscape:persp3d" />
    <inkscape:perspective
       id="perspective10-0"
       inkscape:persp3d-origin="372.04724 : 350.78739 : 1"
       inkscape:vp_z="744.09448 : 526.18109 : 1"
       inkscape:vp_y="0 : 1000 : 0"
       inkscape:vp_x="0 : 526.18109 : 1"
       sodipodi:type="inkscape:persp3d" />
    <inkscape:perspective
       id="perspective10-2"
       inkscape:persp3d-origin="372.04724 : 350.78739 : 1"
       inkscape:vp_z="744.09448 : 526.18109 : 1"
       inkscape:vp_y="0 : 1000 : 0"
       inkscape:vp_x="0 : 526.18109 : 1"
       sodipodi:type="inkscape:persp3d" />
    <inkscape:perspective
       id="perspective10-01"
       inkscape:persp3d-origin="372.04724 : 350.78739 : 1"
       inkscape:vp_z="744.09448 : 526.18109 : 1"
       inkscape:vp_y="0 : 1000 : 0"
       inkscape:vp_x="0 : 526.18109 : 1"
       sodipodi:type="inkscape:persp3d" />
  </defs>
  <sodipodi:namedview
     id="base"
     pagecolor="#ffffff"
     bordercolor="#666666"
     borderopacity="1.0"
     inkscape:pageopacity="0.0"
     inkscape:pageshadow="2"
     inkscape:zoom="1"
     inkscape:cx="-64"
     inkscape:cy="28.139785"
     inkscape:document-units="px"
     inkscape:current-layer="layer1"
     showgrid="false"
     inkscape:window-width="1024"
     inkscape:window-height="538"
     inkscape:window-x="0"
     inkscape:window-y="24"
     inkscape:window-maximized="1" />
  <metadata
     id="metadata7">
    <rdf:RDF>
      <cc:Work
         rdf:about="">
        <dc:format>image/svg+xml</dc:format>
        <dc:type
           rdf:resource="http://purl.org/dc/dcmitype/StillImage" />
        <dc:title>Aksara Dompu - Mbojo</dc:title>
        <dc:creator>
          <cc:Agent>
            <dc:title>Farhan Perdana (Black_Claw)</dc:title>
          </cc:Agent>
        </dc:creator>
        <dc:contributor>
          <cc:Agent>
            <dc:title>Farhan Perdana blackdramon@gmail.com</dc:title>
          </cc:Agent>
        </dc:contributor>
      </cc:Work>
    </rdf:RDF>
  </metadata>
  <g
     inkscape:label="Layer 1"
     inkscape:groupmode="layer"
     id="layer1"
     transform="translate(0,-952.36218)">
    <g
       id="layer1-7"
       inkscape:label="Layer 1"
       transform="translate(1.53385,1.554644)">
      <path
         sodipodi:nodetypes="ccscsscsscssscssscscssscssscsscscscssscsscsscsscsscccsscsscsscsscsscsscscssscsscscscssscssscsscsscsccc"
         d="m 7.5926636,979.14103 c 4.3276794,-2.75592 8.5194064,-5.87324 12.8879904,-8.51193 0.628811,-0.27334 3.193508,-1.79895 3.863828,-0.47628 0.793688,1.56608 -0.255626,5.4474 -0.541216,6.88762 -0.819245,3.71749 -1.54248,7.47428 -2.216131,11.24553 -0.347737,1.94672 -0.694487,3.84228 -0.889305,5.82849 -0.06571,0.66993 -0.07742,1.34768 -0.116124,2.02154 0.05093,0.48658 0.101567,1.97135 0.485103,2.41767 0.520352,0.60547 2.311637,0.16995 2.537123,0.12566 2.447672,-0.48044 3.744617,-1.09363 6.247402,-2.0181 1.402443,-0.63876 2.818911,-1.22269 4.207332,-1.91631 1.588121,-0.79329 3.150607,-1.67952 4.719063,-2.54278 4.906348,-2.70028 9.723188,-5.58397 14.370295,-9.05077 1.481697,-1.10537 2.921948,-2.31136 4.382922,-3.46703 0.190079,-0.29949 0.349224,-0.64163 0.570241,-0.89847 0.985791,-1.1456 2.063137,-2.13966 3.040872,-3.29806 2.02083,-2.39426 3.826786,-5.13868 5.281996,-8.20811 0.305542,-0.64447 0.561068,-1.33069 0.841599,-1.99604 0.344832,-1.21436 1.096994,-3.20277 0.269155,-4.41742 -0.255834,-0.37537 -0.548652,-0.44448 -0.887047,-0.60328 -0.209825,-0.0236 -0.418943,-0.0699 -0.62948,-0.0707 -0.778178,-0.003 -1.631443,0.21324 -2.347541,0.62776 -0.370324,0.21438 -1.431116,1.00396 -1.072277,0.7558 0.78231,-0.541 1.561803,-1.08957 2.342701,-1.63434 -0.753285,0.88565 -1.547486,1.71025 -2.259858,2.65696 -2.169603,2.88328 -3.590582,5.35618 -5.338128,8.81613 -1.987718,3.93547 -3.942983,8.45928 -5.413443,12.78067 -0.86699,2.54792 -1.552818,5.20371 -2.329228,7.80557 -0.605896,2.58291 -1.287786,5.13487 -1.817689,7.74881 -1.221307,6.02458 -2.159942,12.95098 -2.37118,19.22218 -0.120135,3.5666 0.05382,4.75 0.312912,8.1153 0.338931,2.7464 1.015884,5.5277 2.820344,7.1225 0.900708,0.796 1.594595,0.9036 2.635212,1.2711 0.717104,0.092 1.43136,0.2475 2.151315,0.2745 5.649768,0.211 11.60282,-3.2779 16.772324,-5.9838 4.417184,-2.7133 4.775065,-2.7819 9.062074,-6.0373 0.352673,-0.2678 0.66528,-0.6241 0.993903,-0.9438 2.81853,-2.7429 4.071434,-3.7064 6.412361,-7.0787 0.78872,-1.1363 1.446097,-2.4299 2.169144,-3.645 0.519535,-1.1658 1.136449,-2.2605 1.558595,-3.4977 0.905957,-2.6549 1.16854,-5.7734 0.558871,-8.59979 -0.356381,-1.65221 -0.703292,-2.05585 -1.420984,-3.35457 -1.552672,-1.79015 -3.14097,-2.31533 -5.164401,-1.95115 -0.753431,0.13556 -1.510627,0.31012 -2.231119,0.64023 -0.917037,0.42011 -1.770205,1.06558 -2.655303,1.59838 0.127887,-0.046 0.484002,-0.25571 0.383651,-0.13807 -4.747188,5.56537 -2.69782,2.13736 -7.404738,9.03847 -3.733906,5.4745 -6.788243,11.607 -9.854712,17.7761 -3.097155,6.8561 -1.748053,3.7436 -4.403275,10.0547 -0.480996,1.1433 -0.91407,2.3266 -1.441169,3.4313 -0.357751,0.7497 -4.353721,8.7834 -4.756081,9.4898 0,0 -9.247372,2.6074 -9.247372,2.6074 l 1.172448,-1.6585 c 6.603317,-4.2669 7.8626,-7.6095 8.29015,-8.395 0.61488,-1.1296 1.857516,-2.1139 2.404109,-3.3073 6.171571,-13.4749 -2.467437,5.1802 4.709263,-10.2729 2.013247,-4.0047 4.109097,-8.3068 6.306645,-12.127 2.021155,-3.5136 4.782588,-7.8088 7.181154,-10.883 3.69135,-4.73125 4.910595,-5.07469 9.919419,-9.13651 0.945225,-0.54671 1.858924,-1.20902 2.835663,-1.64016 0.772653,-0.34107 1.580822,-0.5306 2.386827,-0.66517 2.228138,-0.37193 3.874541,0.30117 5.504135,2.36495 0.708533,1.42426 1.078419,1.92767 1.41473,3.68634 0.576907,3.01695 0.267803,6.35285 -0.703376,9.15645 -0.445,1.2847 -1.093752,2.4181 -1.640625,3.6272 -0.750784,1.2588 -1.434191,2.5986 -2.252346,3.7765 -1.912652,2.7537 -4.249217,5.2645 -6.588001,7.287 -5.241199,4.5324 -10.693272,8.6491 -16.418943,11.9246 -3.512274,1.8669 -4.979317,2.7531 -8.500687,4.236 -2.410919,1.0152 -4.097981,1.6853 -6.543921,1.9981 -1.773022,0.2267 -2.910994,0.015 -4.676067,-0.1599 -1.173136,-0.4257 -1.843003,-0.5012 -2.834507,-1.4513 -1.862873,-1.7851 -2.446191,-4.8619 -2.660288,-7.7713 -0.131024,-3.5506 -0.250744,-4.6922 -0.01957,-8.4339 0.24532,-3.9707 0.817894,-8.3599 1.440281,-12.2236 0.397912,-2.4701 0.815343,-4.937 1.323413,-7.3692 0.548948,-2.62787 1.230395,-5.20065 1.845592,-7.80099 0.738241,-2.59442 1.393137,-5.23595 2.214718,-7.78318 1.551557,-4.8104 3.041813,-8.33403 5.123134,-12.68717 1.976968,-4.13489 4.146232,-8.06356 6.906759,-11.28965 1.796772,-1.50167 3.571157,-3.0545 5.390316,-4.505 1.335177,-1.06459 2.915404,-1.48543 4.422495,-1.01157 0.19052,0.12747 0.396058,0.21963 0.571565,0.38242 1.488079,1.38034 0.764707,3.99561 0.166042,5.7748 -0.310174,0.70337 -0.594595,1.42916 -0.930522,2.11011 -1.57943,3.20155 -3.51072,6.0725 -5.651841,8.58747 -1.016897,1.19445 -2.046213,2.38053 -3.156863,3.40748 -2.249019,2.07953 -4.605753,3.93295 -6.908631,5.89943 -1.446554,1.12974 -2.873636,2.30731 -4.339657,3.38922 -4.672737,3.44847 -9.505677,6.32095 -14.421728,9.04659 -1.616693,0.89635 -3.224247,1.82588 -4.859064,2.65868 -1.435961,0.73146 -2.900162,1.35507 -4.350243,2.03261 -2.263648,0.89765 -4.363254,1.88105 -6.694237,2.32535 -0.952128,0.1815 -2.274944,0.5845 -3.072196,-0.5654 -0.41076,-0.5925 -0.401141,-2.17421 -0.442242,-2.80982 0.06831,-0.71394 0.112233,-1.433 0.204904,-2.14179 0.271338,-2.07537 0.66107,-3.92884 1.055355,-5.97588 0.715287,-3.71359 1.426967,-7.4284 2.093587,-11.15907 0.09806,-0.59982 0.943781,-5.04043 0.533112,-5.87775 -0.477329,-0.97323 -2.949595,0.38983 -3.310862,0.55121 -4.51879,2.68696 -8.8321945,5.93542 -13.248008,8.91694 0,0 3.7380762,-4.05801 3.7380762,-4.05801 z"
         id="path3559"
         style="fill:#000000" />
    </g>
  </g>
</svg>
