<?xml version="1.0" encoding="UTF-8" standalone="no"?>
<!-- Created with Inkscape (http://www.inkscape.org/) -->

<svg
   xmlns:dc="http://purl.org/dc/elements/1.1/"
   xmlns:cc="http://creativecommons.org/ns#"
   xmlns:rdf="http://www.w3.org/1999/02/22-rdf-syntax-ns#"
   xmlns:svg="http://www.w3.org/2000/svg"
   xmlns="http://www.w3.org/2000/svg"
   xmlns:sodipodi="http://sodipodi.sourceforge.net/DTD/sodipodi-0.dtd"
   xmlns:inkscape="http://www.inkscape.org/namespaces/inkscape"
   width="100"
   height="100"
   id="svg2"
   version="1.1"
   inkscape:version="0.47 r22583"
   sodipodi:docname="mp.svg">
  <title
     id="title2813">Aksara Dompu - Mbojo</title>
  <defs
     id="defs4">
    <inkscape:perspective
       sodipodi:type="inkscape:persp3d"
       inkscape:vp_x="0 : 526.18109 : 1"
       inkscape:vp_y="0 : 1000 : 0"
       inkscape:vp_z="744.09448 : 526.18109 : 1"
       inkscape:persp3d-origin="372.04724 : 350.78739 : 1"
       id="perspective10" />
    <inkscape:perspective
       id="perspective10-9"
       inkscape:persp3d-origin="372.04724 : 350.78739 : 1"
       inkscape:vp_z="744.09448 : 526.18109 : 1"
       inkscape:vp_y="0 : 1000 : 0"
       inkscape:vp_x="0 : 526.18109 : 1"
       sodipodi:type="inkscape:persp3d" />
    <inkscape:perspective
       id="perspective10-7"
       inkscape:persp3d-origin="372.04724 : 350.78739 : 1"
       inkscape:vp_z="744.09448 : 526.18109 : 1"
       inkscape:vp_y="0 : 1000 : 0"
       inkscape:vp_x="0 : 526.18109 : 1"
       sodipodi:type="inkscape:persp3d" />
    <inkscape:perspective
       id="perspective10-0"
       inkscape:persp3d-origin="372.04724 : 350.78739 : 1"
       inkscape:vp_z="744.09448 : 526.18109 : 1"
       inkscape:vp_y="0 : 1000 : 0"
       inkscape:vp_x="0 : 526.18109 : 1"
       sodipodi:type="inkscape:persp3d" />
    <inkscape:perspective
       id="perspective10-2"
       inkscape:persp3d-origin="372.04724 : 350.78739 : 1"
       inkscape:vp_z="744.09448 : 526.18109 : 1"
       inkscape:vp_y="0 : 1000 : 0"
       inkscape:vp_x="0 : 526.18109 : 1"
       sodipodi:type="inkscape:persp3d" />
    <inkscape:perspective
       id="perspective10-01"
       inkscape:persp3d-origin="372.04724 : 350.78739 : 1"
       inkscape:vp_z="744.09448 : 526.18109 : 1"
       inkscape:vp_y="0 : 1000 : 0"
       inkscape:vp_x="0 : 526.18109 : 1"
       sodipodi:type="inkscape:persp3d" />
    <inkscape:perspective
       id="perspective10-28"
       inkscape:persp3d-origin="372.04724 : 350.78739 : 1"
       inkscape:vp_z="744.09448 : 526.18109 : 1"
       inkscape:vp_y="0 : 1000 : 0"
       inkscape:vp_x="0 : 526.18109 : 1"
       sodipodi:type="inkscape:persp3d" />
  </defs>
  <sodipodi:namedview
     id="base"
     pagecolor="#ffffff"
     bordercolor="#666666"
     borderopacity="1.0"
     inkscape:pageopacity="0.0"
     inkscape:pageshadow="2"
     inkscape:zoom="1"
     inkscape:cx="-64"
     inkscape:cy="28.139785"
     inkscape:document-units="px"
     inkscape:current-layer="layer1"
     showgrid="false"
     inkscape:window-width="1024"
     inkscape:window-height="538"
     inkscape:window-x="0"
     inkscape:window-y="24"
     inkscape:window-maximized="1" />
  <metadata
     id="metadata7">
    <rdf:RDF>
      <cc:Work
         rdf:about="">
        <dc:format>image/svg+xml</dc:format>
        <dc:type
           rdf:resource="http://purl.org/dc/dcmitype/StillImage" />
        <dc:title>Aksara Dompu - Mbojo</dc:title>
        <dc:creator>
          <cc:Agent>
            <dc:title>Farhan Perdana (Black_Claw)</dc:title>
          </cc:Agent>
        </dc:creator>
        <dc:contributor>
          <cc:Agent>
            <dc:title>Farhan Perdana blackdramon@gmail.com</dc:title>
          </cc:Agent>
        </dc:contributor>
      </cc:Work>
    </rdf:RDF>
  </metadata>
  <g
     inkscape:label="Layer 1"
     inkscape:groupmode="layer"
     id="layer1"
     transform="translate(0,-952.36218)">
    <g
       id="layer1-0"
       inkscape:label="Layer 1"
       transform="translate(1.13026,1.347096)">
      <path
         d="m 8.4948137,1017.2525 c 5.1479543,1.2535 10.3693563,-0.5175 15.3008873,-1.9666 1.627057,-0.6429 3.272316,-1.2352 4.881176,-1.9283 0.647116,-0.2787 1.261559,-0.6384 1.879602,-0.9845 1.887084,-1.0567 3.799504,-2.0671 5.634884,-3.2232 3.756706,-2.3663 7.414317,-5.1029 10.779289,-8.068 1.651421,-1.45517 3.191015,-3.04964 4.786523,-4.57441 5.304012,-5.46562 9.876274,-11.71134 13.064108,-18.8384 1.387974,-3.10311 1.673044,-4.40257 2.617259,-7.56719 0.573937,-2.38781 0.948394,-4.85835 0.807067,-7.33273 -0.04034,-0.70608 -0.170968,-1.76954 -0.565672,-2.40824 -0.143463,-0.23215 -0.388199,-0.37073 -0.582299,-0.5561 -0.271791,-0.0907 -0.531646,-0.2467 -0.815369,-0.27214 -0.483423,-0.0433 -0.971226,0.0171 -1.453936,0.0687 -2.477868,0.2649 -4.988528,1.06463 -7.242356,2.18493 -0.188973,0.094 0.415906,-0.0291 0.62386,-0.0436 -7.855206,4.74928 -14.152124,11.78863 -19.588294,19.39702 -1.312624,1.83705 -2.527503,3.7517 -3.791262,5.62764 -4.588304,7.62765 -8.294215,15.91582 -10.289888,24.76042 -1.050634,4.6564 -0.962454,5.4391 -1.322382,9.9811 0.06424,1.3138 0.04198,2.6357 0.192696,3.9413 0.346401,3.0009 1.322538,6.4566 3.425519,8.6263 0.305996,0.3158 0.678297,0.5486 1.017446,0.8229 2.006305,1.258 4.222865,1.0037 6.432957,0.6215 2.826526,-0.4888 2.943657,-0.6323 5.785922,-1.5196 1.032589,-0.4228 2.076298,-0.8158 3.097773,-1.2684 0.425352,-0.1885 -1.661016,0.7911 -1.307816,0.4753 0.693639,-0.6203 1.596663,-0.911 2.36502,-1.4205 1.394911,-0.9254 2.421251,-1.7421 3.558548,-2.9901 0.430566,-0.4727 0.795701,-1.0086 1.193557,-1.5128 0.691681,-1.1366 2.182289,-3.5654 1.007666,-4.9207 -0.119603,-0.1381 -0.29188,-0.2103 -0.437817,-0.3154 0.216322,-0.4284 -1.597102,0.386 -1.216198,0.2205 6.194016,-2.6923 4.594189,-2.3635 3.03688,-0.9424 -1.157418,1.0562 -1.25274,1.3333 -2.293662,2.7124 -2.106462,3.7196 -4.57498,7.8468 -5.10262,12.2546 -0.08463,0.7069 -0.04367,1.4247 -0.06551,2.1371 0.117268,0.6116 0.15458,1.2471 0.351816,1.8347 0.643578,1.9172 2.430558,3.6117 4.279884,4.1017 0.579722,0.1536 1.186062,0.1517 1.779132,0.227 0.818001,-0.032 1.639733,-0.01 2.454003,-0.095 2.467298,-0.2706 4.103419,-0.7645 6.536965,-1.5156 2.531846,-0.7815 5.301874,-1.762 7.75312,-2.7832 1.370744,-0.5711 2.713794,-1.2154 4.070694,-1.823 0.07726,-0.079 0.137942,-0.1816 0.231769,-0.2359 3.967476,-2.296 3.691363,-1.8794 7.441975,-4.2949 2.214415,-1.4263 3.769801,-2.5751 5.775019,-4.2738 0.74807,-0.6337 1.457763,-1.3176 2.186646,-1.9763 1.377301,-1.3582 2.840379,-2.6093 4.27704,-3.8932 0,0 4.82471,-1.4873 4.82471,-1.4873 l 0,0 c -1.554659,1.3187 -3.159644,2.5696 -4.633002,3.9951 -1.982955,1.765 -2.845856,2.6074 -5.026892,4.2178 -5.789364,4.2747 -12.255248,7.4002 -18.676672,10.394 -1.375934,0.6113 -2.738288,1.2589 -4.127816,1.8339 -2.555544,1.0578 -5.226868,1.9947 -7.860059,2.8082 -2.665788,0.8237 -4.187648,1.3087 -6.868194,1.6013 -0.877944,0.096 -1.763653,0.074 -2.645478,0.1108 -0.64454,-0.1025 -1.306555,-0.1195 -1.933589,-0.3094 -1.967043,-0.5957 -3.771266,-2.5491 -4.406536,-4.6024 -0.196108,-0.634 -0.224473,-1.3137 -0.336709,-1.9705 0.03058,-0.7484 -0.0028,-1.5029 0.09171,-2.2452 0.576354,-4.5221 3.030576,-8.4759 4.955708,-12.4368 0.366267,-0.5614 0.700697,-1.1483 1.098806,-1.6845 1.911441,-2.5743 4.242781,-3.2237 7.287367,-4.555 0.235003,-0.1025 0.50793,-0.092 0.759785,-0.058 0.245087,0.033 0.467489,0.1712 0.701234,0.2569 0.170233,0.1725 0.372113,0.3152 0.510698,0.5176 1.222526,1.7847 -0.178458,4.1323 -1.087618,5.6435 -1.134774,1.4619 -1.428706,1.9812 -2.869031,3.2147 -1.184987,1.0149 -3.158262,2.324 -4.49718,3.0118 -5.794628,2.977 -5.559315,2.7982 -10.130248,4.6218 -2.902451,0.8883 -3.080396,1.0479 -5.964441,1.544 -1.962427,0.3375 -3.977563,0.6444 -5.879372,-0.1867 -0.366109,-0.16 -0.680551,-0.4311 -1.020826,-0.6466 -0.338364,-0.3192 -0.715241,-0.5969 -1.015089,-0.9573 -1.952535,-2.3472 -2.794121,-6.1326 -3.0239,-9.1546 -0.102678,-1.3504 -0.03981,-2.7093 -0.05972,-4.064 0.178934,-1.5766 0.283888,-3.165 0.53684,-4.7299 0.574718,-3.5556 1.68832,-8.1551 2.805071,-11.5118 0.708169,-2.1286 1.543514,-4.2081 2.404423,-6.2715 0.911565,-2.18467 1.857298,-4.35622 2.910656,-6.46679 1.048823,-2.10145 2.26026,-4.10539 3.390391,-6.15805 2.750153,-4.12389 4.613503,-7.10047 7.6697,-10.96564 4.314028,-5.45597 9.210722,-10.46002 15.015347,-14.06065 3.773195,-1.89756 6.752667,-3.66968 10.539011,-4.98264 1.721974,-0.59712 4.471457,-1.38769 6.351253,-1.0248 0.337754,0.0652 0.619716,0.31557 0.929582,0.47335 0.208901,0.26271 0.473915,0.48447 0.62671,0.78813 0.38538,0.7659 0.455491,1.84617 0.457295,2.67259 0.0059,2.59355 -0.508859,5.15394 -1.171546,7.6339 -1.065213,3.257 -1.390483,4.56356 -2.893687,7.75505 -3.381668,7.17963 -8.012777,13.55021 -13.424773,19.10939 -4.383192,4.20737 -5.180735,5.21496 -10.01842,8.87866 -7.684583,5.8198 -16.270576,10.1117 -25.147631,13.4103 -2.918631,0.8744 -5.418253,1.7247 -8.39705,2.2529 -2.6047461,0.4618 -5.3207419,0.5008 -7.928918,0.07 0,0 4.6264774,-2.7363 4.6264774,-2.7363 z"
         id="path2950"
         style="fill:#000000" />
    </g>
  </g>
</svg>
