<?xml version="1.0" encoding="UTF-8" standalone="no"?>
<!-- Created with Inkscape (http://www.inkscape.org/) -->

<svg
   xmlns:dc="http://purl.org/dc/elements/1.1/"
   xmlns:cc="http://creativecommons.org/ns#"
   xmlns:rdf="http://www.w3.org/1999/02/22-rdf-syntax-ns#"
   xmlns:svg="http://www.w3.org/2000/svg"
   xmlns="http://www.w3.org/2000/svg"
   xmlns:sodipodi="http://sodipodi.sourceforge.net/DTD/sodipodi-0.dtd"
   xmlns:inkscape="http://www.inkscape.org/namespaces/inkscape"
   width="100"
   height="100"
   id="svg2"
   version="1.1"
   inkscape:version="0.47 r22583"
   sodipodi:docname="ng.svg">
  <title
     id="title2813">Aksara Dompu - Mbojo</title>
  <defs
     id="defs4">
    <inkscape:perspective
       sodipodi:type="inkscape:persp3d"
       inkscape:vp_x="0 : 526.18109 : 1"
       inkscape:vp_y="0 : 1000 : 0"
       inkscape:vp_z="744.09448 : 526.18109 : 1"
       inkscape:persp3d-origin="372.04724 : 350.78739 : 1"
       id="perspective10" />
    <inkscape:perspective
       id="perspective10-9"
       inkscape:persp3d-origin="372.04724 : 350.78739 : 1"
       inkscape:vp_z="744.09448 : 526.18109 : 1"
       inkscape:vp_y="0 : 1000 : 0"
       inkscape:vp_x="0 : 526.18109 : 1"
       sodipodi:type="inkscape:persp3d" />
    <inkscape:perspective
       id="perspective10-7"
       inkscape:persp3d-origin="372.04724 : 350.78739 : 1"
       inkscape:vp_z="744.09448 : 526.18109 : 1"
       inkscape:vp_y="0 : 1000 : 0"
       inkscape:vp_x="0 : 526.18109 : 1"
       sodipodi:type="inkscape:persp3d" />
    <inkscape:perspective
       id="perspective10-0"
       inkscape:persp3d-origin="372.04724 : 350.78739 : 1"
       inkscape:vp_z="744.09448 : 526.18109 : 1"
       inkscape:vp_y="0 : 1000 : 0"
       inkscape:vp_x="0 : 526.18109 : 1"
       sodipodi:type="inkscape:persp3d" />
    <inkscape:perspective
       id="perspective10-2"
       inkscape:persp3d-origin="372.04724 : 350.78739 : 1"
       inkscape:vp_z="744.09448 : 526.18109 : 1"
       inkscape:vp_y="0 : 1000 : 0"
       inkscape:vp_x="0 : 526.18109 : 1"
       sodipodi:type="inkscape:persp3d" />
    <inkscape:perspective
       id="perspective10-01"
       inkscape:persp3d-origin="372.04724 : 350.78739 : 1"
       inkscape:vp_z="744.09448 : 526.18109 : 1"
       inkscape:vp_y="0 : 1000 : 0"
       inkscape:vp_x="0 : 526.18109 : 1"
       sodipodi:type="inkscape:persp3d" />
    <inkscape:perspective
       id="perspective10-28"
       inkscape:persp3d-origin="372.04724 : 350.78739 : 1"
       inkscape:vp_z="744.09448 : 526.18109 : 1"
       inkscape:vp_y="0 : 1000 : 0"
       inkscape:vp_x="0 : 526.18109 : 1"
       sodipodi:type="inkscape:persp3d" />
    <inkscape:perspective
       id="perspective10-5"
       inkscape:persp3d-origin="372.04724 : 350.78739 : 1"
       inkscape:vp_z="744.09448 : 526.18109 : 1"
       inkscape:vp_y="0 : 1000 : 0"
       inkscape:vp_x="0 : 526.18109 : 1"
       sodipodi:type="inkscape:persp3d" />
  </defs>
  <sodipodi:namedview
     id="base"
     pagecolor="#ffffff"
     bordercolor="#666666"
     borderopacity="1.0"
     inkscape:pageopacity="0.0"
     inkscape:pageshadow="2"
     inkscape:zoom="1"
     inkscape:cx="-64"
     inkscape:cy="28.139785"
     inkscape:document-units="px"
     inkscape:current-layer="layer1"
     showgrid="false"
     inkscape:window-width="1024"
     inkscape:window-height="538"
     inkscape:window-x="0"
     inkscape:window-y="24"
     inkscape:window-maximized="1" />
  <metadata
     id="metadata7">
    <rdf:RDF>
      <cc:Work
         rdf:about="">
        <dc:format>image/svg+xml</dc:format>
        <dc:type
           rdf:resource="http://purl.org/dc/dcmitype/StillImage" />
        <dc:title>Aksara Dompu - Mbojo</dc:title>
        <dc:creator>
          <cc:Agent>
            <dc:title>Farhan Perdana (Black_Claw)</dc:title>
          </cc:Agent>
        </dc:creator>
        <dc:contributor>
          <cc:Agent>
            <dc:title>Farhan Perdana blackdramon@gmail.com</dc:title>
          </cc:Agent>
        </dc:contributor>
      </cc:Work>
    </rdf:RDF>
  </metadata>
  <g
     inkscape:label="Layer 1"
     inkscape:groupmode="layer"
     id="layer1"
     transform="translate(0,-952.36218)">
    <g
       id="layer1-2"
       inkscape:label="Layer 1"
       transform="translate(0.64218,-1.976403)">
      <path
         d="m 7.000279,1023.5677 c 0.037245,2.6808 1.027447,5.1216 1.9445559,7.4322 0.9785352,2.0705 2.0615891,4.6058 3.6286521,5.9973 0.197552,0.1755 0.418775,0.2976 0.628153,0.4464 0.259415,0.049 0.516936,0.1527 0.778069,0.1487 0.999665,-0.034 2.271688,-0.4835 3.196,-0.7983 0.784395,-0.2669 1.562976,-0.564 2.344018,-0.8483 0.197395,-0.073 -0.784347,0.3081 -0.593059,0.2112 0.869548,-0.441 1.753457,-0.8296 2.630185,-1.2443 2.289996,-1.0233 4.505177,-2.3104 6.752912,-3.4818 0.468589,-0.2443 0.933684,-0.5044 1.413713,-0.7047 4.520903,-1.8877 2.989622,-1.8854 5.300333,-1.7111 0.176871,0.1942 0.399492,0.332 0.530632,0.583 0.200447,0.3838 0.291312,0.8515 0.440111,1.2754 0.261927,0.7462 1.040901,2.9464 1.31143,3.565 0.912606,2.0856 1.027172,2.0188 2.327993,3.8262 3.030615,3.0826 6.587221,5.1917 10.387931,5.8325 3.106997,0.5237 4.134943,0.1259 7.264809,-0.3167 1.36091,-0.478 2.754032,-0.8147 4.082732,-1.4341 0.686344,-0.3201 1.280605,-0.9209 1.926246,-1.3675 4.562473,-3.157 4.648967,-2.8812 8.91691,-6.9253 3.719802,-3.5247 4.527149,-4.7332 7.878962,-8.7756 4.02163,-5.4624 7.592087,-11.6283 9.920623,-18.6861 1.212909,-3.6762 1.356392,-5.0452 2.080359,-8.83403 0.105151,-1.37871 0.291062,-2.75064 0.31543,-4.13614 0.08226,-4.67682 -0.811042,-10.39428 -2.907907,-14.23881 -0.565883,-1.03752 -1.279211,-1.91535 -1.918817,-2.87303 -2.163678,-2.67294 -4.604823,-4.87781 -7.222002,-6.67276 -0.840773,-0.57663 -1.68708,-1.15035 -2.571445,-1.59499 -1.841866,-0.92608 -3.414888,-1.24936 -5.325802,-1.76702 -2.660367,-0.004 -3.26653,-0.20346 -5.913418,0.62423 -0.965895,0.30205 -1.939576,0.6363 -2.837055,1.20173 -0.173688,0.10939 0.687001,0.0653 0.546994,0.24109 -0.636408,0.79915 -1.506816,1.18402 -2.219127,1.85867 -0.633897,0.60039 -1.208141,1.30638 -1.812213,1.95955 -1.098728,1.44159 -2.225787,2.9633 -2.823954,4.90503 -0.139341,0.45232 -0.301581,1.24525 -0.175296,1.77266 0.04376,0.18274 0.17172,0.30734 0.257584,0.46099 0,0 -3.668099,1.68923 -3.668099,1.68923 l 0,0 c -0.0983,-0.2436 -0.245949,-0.46178 -0.294908,-0.73079 -0.118891,-0.65324 0.07333,-1.51522 0.26521,-2.08046 0.691445,-2.03681 1.91941,-3.63188 3.090346,-5.16998 1.200148,-1.29864 2.71102,-3.08689 4.124082,-3.95258 1.826424,-1.11899 3.730776,-1.99789 5.623258,-2.89884 2.03369,-0.9682 3.729722,-1.51939 5.896133,-1.71229 0.9957,-0.0885 1.995671,0.0304 2.993507,0.0454 1.903692,0.56135 3.481606,0.92823 5.315933,1.88368 0.882931,0.45989 1.727897,1.04471 2.566468,1.63495 2.624515,1.84726 5.074429,4.10319 7.250542,6.80481 0.679424,0.97572 1.449935,1.85061 2.038273,2.92717 0.505329,0.92466 0.875455,1.97611 1.215839,3.02729 1.139603,3.51935 1.683912,7.70187 1.606211,11.52791 -0.02866,1.41335 -0.23244,2.81055 -0.348655,4.21582 -0.729283,3.53751 -1.040992,5.55621 -2.193244,8.96521 -0.53334,1.5779 -1.164812,3.0954 -1.817546,4.5907 -2.302127,5.274 -5.147592,10.019 -8.387384,14.3169 -1.261189,1.5195 -2.480485,3.1041 -3.783581,4.559 -2.402888,2.683 -5.801069,6.027 -8.498924,8.1579 -4.925931,3.8904 -10.373445,6.5615 -15.942988,8.2277 -3.167265,0.4197 -4.286739,0.8176 -7.436453,0.2756 -1.076674,-0.1853 -2.134707,-0.5481 -3.180047,-0.9395 -2.786739,-1.0504 -5.241848,-2.6794 -7.567174,-4.9767 -1.51057,-2.0244 -1.383932,-1.6119 -2.453387,-3.9107 -0.01761,-0.039 -1.367108,-3.251 -1.473223,-3.4915 -0.151262,-0.343 -0.277656,-0.7134 -0.474853,-1.0118 -0.104263,-0.1576 -0.270954,-0.2139 -0.40643,-0.3206 -1.562959,0 -0.722587,0.1019 1.748606,-1.1621 0.50818,-0.2599 -1.031675,0.4632 -1.541743,0.7162 -2.317815,1.15 -4.583612,2.485 -6.929692,3.5347 -3.666764,1.7588 -3.52158,1.7328 -8.32815,3.711 -0.8168,0.3361 -1.643207,0.6304 -2.471528,0.9115 -1.041875,0.3536 -2.405374,0.8288 -3.523658,0.7724 -0.29297,-0.015 -0.5682679,-0.1942 -0.8522296,-0.2925 -0.2071987,-0.1809 -0.426762,-0.3386 -0.6215931,-0.5425 -1.5451783,-1.6182 -2.4901991,-4.0803 -3.5254287,-6.2432 -0.9724629,-2.3657 -2.0051419,-4.7781 -2.2989814,-7.4911 0,0 3.7998882,-1.4971 3.7998882,-1.4971 z"
         id="path3596"
         style="fill:#000000" />
    </g>
  </g>
</svg>
