<?xml version="1.0" encoding="UTF-8" standalone="no"?>
<!-- Created with Inkscape (http://www.inkscape.org/) -->

<svg
   xmlns:dc="http://purl.org/dc/elements/1.1/"
   xmlns:cc="http://creativecommons.org/ns#"
   xmlns:rdf="http://www.w3.org/1999/02/22-rdf-syntax-ns#"
   xmlns:svg="http://www.w3.org/2000/svg"
   xmlns="http://www.w3.org/2000/svg"
   xmlns:sodipodi="http://sodipodi.sourceforge.net/DTD/sodipodi-0.dtd"
   xmlns:inkscape="http://www.inkscape.org/namespaces/inkscape"
   width="100"
   height="100"
   id="svg2"
   version="1.1"
   inkscape:version="0.47 r22583"
   sodipodi:docname="nj.svg">
  <title
     id="title2813">Aksara Dompu - Mbojo</title>
  <defs
     id="defs4">
    <inkscape:perspective
       sodipodi:type="inkscape:persp3d"
       inkscape:vp_x="0 : 526.18109 : 1"
       inkscape:vp_y="0 : 1000 : 0"
       inkscape:vp_z="744.09448 : 526.18109 : 1"
       inkscape:persp3d-origin="372.04724 : 350.78739 : 1"
       id="perspective10" />
    <inkscape:perspective
       id="perspective10-9"
       inkscape:persp3d-origin="372.04724 : 350.78739 : 1"
       inkscape:vp_z="744.09448 : 526.18109 : 1"
       inkscape:vp_y="0 : 1000 : 0"
       inkscape:vp_x="0 : 526.18109 : 1"
       sodipodi:type="inkscape:persp3d" />
    <inkscape:perspective
       id="perspective10-7"
       inkscape:persp3d-origin="372.04724 : 350.78739 : 1"
       inkscape:vp_z="744.09448 : 526.18109 : 1"
       inkscape:vp_y="0 : 1000 : 0"
       inkscape:vp_x="0 : 526.18109 : 1"
       sodipodi:type="inkscape:persp3d" />
    <inkscape:perspective
       id="perspective10-0"
       inkscape:persp3d-origin="372.04724 : 350.78739 : 1"
       inkscape:vp_z="744.09448 : 526.18109 : 1"
       inkscape:vp_y="0 : 1000 : 0"
       inkscape:vp_x="0 : 526.18109 : 1"
       sodipodi:type="inkscape:persp3d" />
    <inkscape:perspective
       id="perspective10-2"
       inkscape:persp3d-origin="372.04724 : 350.78739 : 1"
       inkscape:vp_z="744.09448 : 526.18109 : 1"
       inkscape:vp_y="0 : 1000 : 0"
       inkscape:vp_x="0 : 526.18109 : 1"
       sodipodi:type="inkscape:persp3d" />
    <inkscape:perspective
       id="perspective10-01"
       inkscape:persp3d-origin="372.04724 : 350.78739 : 1"
       inkscape:vp_z="744.09448 : 526.18109 : 1"
       inkscape:vp_y="0 : 1000 : 0"
       inkscape:vp_x="0 : 526.18109 : 1"
       sodipodi:type="inkscape:persp3d" />
    <inkscape:perspective
       id="perspective10-28"
       inkscape:persp3d-origin="372.04724 : 350.78739 : 1"
       inkscape:vp_z="744.09448 : 526.18109 : 1"
       inkscape:vp_y="0 : 1000 : 0"
       inkscape:vp_x="0 : 526.18109 : 1"
       sodipodi:type="inkscape:persp3d" />
    <inkscape:perspective
       id="perspective10-5"
       inkscape:persp3d-origin="372.04724 : 350.78739 : 1"
       inkscape:vp_z="744.09448 : 526.18109 : 1"
       inkscape:vp_y="0 : 1000 : 0"
       inkscape:vp_x="0 : 526.18109 : 1"
       sodipodi:type="inkscape:persp3d" />
    <inkscape:perspective
       id="perspective10-91"
       inkscape:persp3d-origin="372.04724 : 350.78739 : 1"
       inkscape:vp_z="744.09448 : 526.18109 : 1"
       inkscape:vp_y="0 : 1000 : 0"
       inkscape:vp_x="0 : 526.18109 : 1"
       sodipodi:type="inkscape:persp3d" />
  </defs>
  <sodipodi:namedview
     id="base"
     pagecolor="#ffffff"
     bordercolor="#666666"
     borderopacity="1.0"
     inkscape:pageopacity="0.0"
     inkscape:pageshadow="2"
     inkscape:zoom="1"
     inkscape:cx="-64"
     inkscape:cy="28.139785"
     inkscape:document-units="px"
     inkscape:current-layer="layer1"
     showgrid="false"
     inkscape:window-width="1024"
     inkscape:window-height="538"
     inkscape:window-x="0"
     inkscape:window-y="24"
     inkscape:window-maximized="1" />
  <metadata
     id="metadata7">
    <rdf:RDF>
      <cc:Work
         rdf:about="">
        <dc:format>image/svg+xml</dc:format>
        <dc:type
           rdf:resource="http://purl.org/dc/dcmitype/StillImage" />
        <dc:title>Aksara Dompu - Mbojo</dc:title>
        <dc:creator>
          <cc:Agent>
            <dc:title>Farhan Perdana (Black_Claw)</dc:title>
          </cc:Agent>
        </dc:creator>
        <dc:contributor>
          <cc:Agent>
            <dc:title>Farhan Perdana blackdramon@gmail.com</dc:title>
          </cc:Agent>
        </dc:contributor>
      </cc:Work>
    </rdf:RDF>
  </metadata>
  <g
     inkscape:label="Layer 1"
     inkscape:groupmode="layer"
     id="layer1"
     transform="translate(0,-952.36218)">
    <g
       id="layer1-5"
       inkscape:label="Layer 1"
       transform="translate(1.69289,1.789347)">
      <path
         sodipodi:nodetypes="csscssscscsscsscsscsscscscscccssscsscsscssccccscssscsscsccccscscsscsscscssscscsscsscc"
         d="m 20.770656,955.70115 c 2.361865,3.51999 4.98801,6.88375 7.117374,10.5572 1.187731,2.049 2.291693,4.14852 3.313731,6.28499 2.800575,5.85438 4.015167,9.41489 6.33908,15.50032 1.905047,6.19873 3.110186,9.59127 4.424756,15.90044 0.506311,2.43 0.879037,4.8872 1.220851,7.3458 0.512729,3.6878 0.959888,8.3157 0.884525,12.0868 -0.034,1.7016 -0.268845,3.3932 -0.403268,5.0899 -1.075965,4.8867 -2.287775,10.0811 -5.768563,13.8865 -1.617632,1.7686 -2.091619,1.8565 -4.070461,3.013 -3.699981,1.3063 -3.009352,1.1762 -8.869982,2.0299 -0.636186,0.093 -1.289471,0.036 -1.928369,-0.035 -2.118281,-0.2374 -4.075783,-1.0853 -6.012763,-1.9088 -1.782656,-0.9353 -2.049565,-0.9334 -3.563866,-2.3032 -0.517247,-0.4678 -1.065434,-0.9287 -1.442973,-1.5151 -1.972842,-3.0645 -1.750634,-6.468 -1.794558,-9.9187 0.195279,-4.4338 0.949789,-8.8301 2.473506,-13.0091 0.464836,-1.2749 0.978152,-2.5391 1.619962,-3.7347 1.639673,-3.0545 2.393925,-3.5325 4.728434,-6.0089 1.159854,-0.8018 2.275258,-1.6721 3.479563,-2.4055 4.250755,-2.5885 9.001557,-4.2742 13.694993,-5.8461 3.961089,-1.32673 7.59297,-2.36008 11.609848,-3.54882 7.646479,-2.27039 15.35331,-4.65197 22.38992,-8.4902 3.61058,-1.96946 4.404949,-2.72961 7.559609,-5.09697 2.459203,-2.33216 5.856133,-4.96792 6.581384,-8.52525 0.05615,-0.27537 0.03648,-0.56088 0.05472,-0.84129 -0.05626,-0.20703 -0.07787,-0.42674 -0.168768,-0.62108 -0.446347,-0.9542 -1.76223,-1.3093 -2.657746,-1.63319 -1.822198,-0.68024 -3.748914,-0.99447 -5.656583,-1.33386 -2.70915,-0.52469 -5.441989,-0.85934 -8.188818,-1.10137 -1.502849,-0.17188 -3.030586,-0.14166 -4.529669,0.0622 -0.685354,0.0932 -2.41626,-0.22209 -2.043442,0.36049 0.383845,0.5998 2.600293,-0.76446 2.123286,-0.23572 -0.698836,0.77462 -1.948064,0.74744 -2.922096,1.12116 -1.10131,0.58515 -2.245685,1.09562 -3.303927,1.75548 -5.600799,3.49239 -9.955474,8.89423 -12.004408,15.19793 -0.686351,2.11216 -0.980571,4.3322 -1.470861,6.49829 -0.197256,2.25371 -0.554985,4.499 -0.591771,6.761 -0.1223,7.5201 1.464033,15.5353 4.70516,22.3449 0.576108,1.2103 1.307489,2.3405 1.961231,3.5108 1.78035,2.8494 3.904695,5.4836 6.531965,7.5944 0.302597,0.2431 2.019929,1.8368 4.212847,2.3471 26.011705,6.0539 29.125539,4.8025 29.993544,5.2357 0,0 -2.62415,1.2322 -2.62415,1.2322 l -6.657812,-0.599 c -24.20138,-1.5437 -27.023896,-4.6236 -27.792185,-5.2204 -0.697223,-0.5348 -1.387148,-1.0421 -2.036697,-1.6381 -2.457491,-2.255 -4.372696,-5.0069 -6.008979,-7.8974 -1.701271,-3.4118 -2.277017,-4.2356 -3.433629,-8.0554 -1.096634,-3.6216 -1.83902,-7.6352 -2.212358,-11.3848 -0.224697,-2.2567 -0.403815,-4.5255 -0.375027,-6.7933 0.02888,-2.27398 0.365058,-4.53371 0.547586,-6.80058 1.014378,-5.29084 0.956247,-7.25366 3.434921,-11.95735 0.790385,-1.49991 1.82725,-2.8635 2.881709,-4.19109 2.678536,-3.37237 5.702317,-5.67635 9.510295,-7.61719 0.943175,-0.38517 1.85146,-0.87034 2.829527,-1.15551 4.590581,-1.33843 9.350723,-2.67342 14.172252,-2.18423 2.761279,0.25564 5.500334,0.65194 8.231402,1.1335 1.964913,0.34579 3.943659,0.65747 5.812236,1.38795 1.421519,0.5698 2.778191,1.23743 2.946638,2.93493 -0.03625,0.32469 -0.03099,0.65674 -0.108771,0.97404 -0.904715,3.69108 -4.690282,6.52798 -7.324847,8.91677 -3.181754,2.31911 -4.27852,3.27153 -7.866555,5.20301 -7.11396,3.82953 -14.864984,6.2926 -22.580714,8.56806 -5.570518,1.6722 -11.181212,3.26129 -16.605884,5.37679 -2.648407,1.0329 -5.706043,2.3766 -8.167315,3.8471 -1.172631,0.7005 -2.259257,1.5359 -3.388891,2.3039 -2.350741,2.3909 -3.143749,2.8875 -4.823362,5.8625 -2.088715,3.6996 -3.275122,8.0005 -3.823317,12.1881 -0.189024,1.444 -0.213263,2.9047 -0.319899,4.357 0.180833,3.0395 0.01003,4.4293 1.036748,7.2156 1.057497,2.8699 3.443587,4.6393 6.119852,5.8744 1.954555,0.7905 3.881209,1.543 6.010765,1.7033 0.623122,0.047 2.369529,-0.4022 1.874545,-0.021 -0.773025,0.5956 -1.867047,0.5882 -2.828447,0.7558 -0.720109,0.1256 1.400515,-0.4193 2.100773,-0.6291 2.077891,-1.0776 2.514652,-1.1133 4.249062,-2.8423 3.678394,-3.6671 5.135681,-8.8046 6.326285,-13.704 0.183133,-1.6905 0.458765,-3.3735 0.549405,-5.0714 0.100542,-1.8833 0.08993,-3.7732 0.02339,-5.6581 -0.358548,-10.1534 -2.500928,-20.10665 -5.810163,-29.69586 -1.036404,-2.64338 -1.978666,-5.32561 -3.109209,-7.93015 -2.243963,-5.16955 -4.198163,-8.9273 -7.236447,-13.59966 -2.386577,-3.67014 -5.226993,-6.9895 -8.142275,-10.23999 0,0 4.99216,-1.32039 4.99216,-1.32039 z"
         id="path3087"
         style="fill:#000000" />
    </g>
  </g>
</svg>
