<?xml version="1.0" encoding="UTF-8" standalone="no"?>
<!-- Created with Inkscape (http://www.inkscape.org/) -->

<svg
   xmlns:dc="http://purl.org/dc/elements/1.1/"
   xmlns:cc="http://creativecommons.org/ns#"
   xmlns:rdf="http://www.w3.org/1999/02/22-rdf-syntax-ns#"
   xmlns:svg="http://www.w3.org/2000/svg"
   xmlns="http://www.w3.org/2000/svg"
   xmlns:sodipodi="http://sodipodi.sourceforge.net/DTD/sodipodi-0.dtd"
   xmlns:inkscape="http://www.inkscape.org/namespaces/inkscape"
   width="100"
   height="100"
   id="svg2"
   version="1.1"
   inkscape:version="0.47 r22583"
   sodipodi:docname="ny.svg">
  <title
     id="title2813">Aksara Dompu - Mbojo</title>
  <defs
     id="defs4">
    <inkscape:perspective
       sodipodi:type="inkscape:persp3d"
       inkscape:vp_x="0 : 526.18109 : 1"
       inkscape:vp_y="0 : 1000 : 0"
       inkscape:vp_z="744.09448 : 526.18109 : 1"
       inkscape:persp3d-origin="372.04724 : 350.78739 : 1"
       id="perspective10" />
    <inkscape:perspective
       id="perspective10-9"
       inkscape:persp3d-origin="372.04724 : 350.78739 : 1"
       inkscape:vp_z="744.09448 : 526.18109 : 1"
       inkscape:vp_y="0 : 1000 : 0"
       inkscape:vp_x="0 : 526.18109 : 1"
       sodipodi:type="inkscape:persp3d" />
    <inkscape:perspective
       id="perspective10-7"
       inkscape:persp3d-origin="372.04724 : 350.78739 : 1"
       inkscape:vp_z="744.09448 : 526.18109 : 1"
       inkscape:vp_y="0 : 1000 : 0"
       inkscape:vp_x="0 : 526.18109 : 1"
       sodipodi:type="inkscape:persp3d" />
    <inkscape:perspective
       id="perspective10-0"
       inkscape:persp3d-origin="372.04724 : 350.78739 : 1"
       inkscape:vp_z="744.09448 : 526.18109 : 1"
       inkscape:vp_y="0 : 1000 : 0"
       inkscape:vp_x="0 : 526.18109 : 1"
       sodipodi:type="inkscape:persp3d" />
    <inkscape:perspective
       id="perspective10-2"
       inkscape:persp3d-origin="372.04724 : 350.78739 : 1"
       inkscape:vp_z="744.09448 : 526.18109 : 1"
       inkscape:vp_y="0 : 1000 : 0"
       inkscape:vp_x="0 : 526.18109 : 1"
       sodipodi:type="inkscape:persp3d" />
    <inkscape:perspective
       id="perspective10-01"
       inkscape:persp3d-origin="372.04724 : 350.78739 : 1"
       inkscape:vp_z="744.09448 : 526.18109 : 1"
       inkscape:vp_y="0 : 1000 : 0"
       inkscape:vp_x="0 : 526.18109 : 1"
       sodipodi:type="inkscape:persp3d" />
    <inkscape:perspective
       id="perspective10-28"
       inkscape:persp3d-origin="372.04724 : 350.78739 : 1"
       inkscape:vp_z="744.09448 : 526.18109 : 1"
       inkscape:vp_y="0 : 1000 : 0"
       inkscape:vp_x="0 : 526.18109 : 1"
       sodipodi:type="inkscape:persp3d" />
    <inkscape:perspective
       id="perspective10-5"
       inkscape:persp3d-origin="372.04724 : 350.78739 : 1"
       inkscape:vp_z="744.09448 : 526.18109 : 1"
       inkscape:vp_y="0 : 1000 : 0"
       inkscape:vp_x="0 : 526.18109 : 1"
       sodipodi:type="inkscape:persp3d" />
    <inkscape:perspective
       id="perspective10-91"
       inkscape:persp3d-origin="372.04724 : 350.78739 : 1"
       inkscape:vp_z="744.09448 : 526.18109 : 1"
       inkscape:vp_y="0 : 1000 : 0"
       inkscape:vp_x="0 : 526.18109 : 1"
       sodipodi:type="inkscape:persp3d" />
    <inkscape:perspective
       id="perspective10-09"
       inkscape:persp3d-origin="372.04724 : 350.78739 : 1"
       inkscape:vp_z="744.09448 : 526.18109 : 1"
       inkscape:vp_y="0 : 1000 : 0"
       inkscape:vp_x="0 : 526.18109 : 1"
       sodipodi:type="inkscape:persp3d" />
  </defs>
  <sodipodi:namedview
     id="base"
     pagecolor="#ffffff"
     bordercolor="#666666"
     borderopacity="1.0"
     inkscape:pageopacity="0.0"
     inkscape:pageshadow="2"
     inkscape:zoom="1"
     inkscape:cx="-64"
     inkscape:cy="28.139785"
     inkscape:document-units="px"
     inkscape:current-layer="layer1"
     showgrid="false"
     inkscape:window-width="1024"
     inkscape:window-height="538"
     inkscape:window-x="0"
     inkscape:window-y="24"
     inkscape:window-maximized="1" />
  <metadata
     id="metadata7">
    <rdf:RDF>
      <cc:Work
         rdf:about="">
        <dc:format>image/svg+xml</dc:format>
        <dc:type
           rdf:resource="http://purl.org/dc/dcmitype/StillImage" />
        <dc:title>Aksara Dompu - Mbojo</dc:title>
        <dc:creator>
          <cc:Agent>
            <dc:title>Farhan Perdana (Black_Claw)</dc:title>
          </cc:Agent>
        </dc:creator>
        <dc:contributor>
          <cc:Agent>
            <dc:title>Farhan Perdana blackdramon@gmail.com</dc:title>
          </cc:Agent>
        </dc:contributor>
      </cc:Work>
    </rdf:RDF>
  </metadata>
  <g
     inkscape:label="Layer 1"
     inkscape:groupmode="layer"
     id="layer1"
     transform="translate(0,-952.36218)">
    <g
       id="layer1-2"
       inkscape:label="Layer 1"
       transform="translate(-0.82691,-0.933901)">
      <path
         sodipodi:nodetypes="csscssssccsscssscscsscsscsscsssscsscsscscscscssscccccccsssscscscscsscsscssscsscscssscscsscsccssscssccc"
         d="m 17.285385,984.71102 c -13.6159135,7.01114 -6.535905,3.10091 -7.9421846,3.61743 -0.4024968,0.14785 0.5852264,-0.62329 0.8608116,-0.94959 0.93523,-1.10737 13.283971,-8.53693 14.035213,-9.77029 0.352502,-0.75748 0.549543,-1.02598 0.682876,-1.80858 0.02729,-0.16022 0.03193,-0.32671 0.0077,-0.48741 -0.004,-0.0265 -0.102544,0.0333 -0.07786,0.0223 1.548667,-0.68502 2.964013,-1.86964 4.65053,-2.04496 0.587123,-0.0611 -0.439391,1.08667 -0.659088,1.63002 -2.040606,6.34141 -3.236681,12.91194 -4.237224,19.48204 -0.255695,2.08821 -0.651405,4.21656 -0.408771,6.32992 0.07295,0.6355 0.213205,1.2996 0.624013,1.8169 0.125589,0.1582 0.314561,0.2546 0.471839,0.3819 1.065373,0.079 2.035224,-0.4574 2.94726,-0.943 0.609961,-0.3248 1.422946,-0.4558 1.79635,-1.034 0.363673,-0.5631 -2.318737,1.3622 -1.763406,0.983 1.008483,-0.6888 2.083977,-1.2757 3.125967,-1.9136 4.67938,-3.13559 9.527056,-6.064 13.999586,-9.49436 2.360204,-1.81022 3.002017,-2.46841 5.128511,-4.40068 0.562693,-0.58413 1.132633,-1.16152 1.688077,-1.75247 1.946721,-2.07112 3.508544,-4.71218 7.278138,-3.97829 0.825804,0.16077 -0.261455,1.64873 -0.392184,2.47312 -0.412845,2.8113 -0.929359,5.60728 -1.331052,8.42023 -2.51542,17.61495 1.316158,-7.88411 -1.614851,11.98365 -0.954786,6.472 -1.07753,6.9085 -2.211591,13.356 -1.36332,6.2802 -2.844388,12.5442 -4.70302,18.7012 -0.789194,2.6143 -1.740107,5.4557 -2.809414,7.9944 -0.363004,0.8618 -0.797403,1.6923 -1.196102,2.5385 -0.368971,0.5645 -0.654603,1.1921 -1.106911,1.6934 -0.34218,0.3792 -0.773948,0.6908 -1.238792,0.9064 -1.980186,0.9185 -3.924088,2.0306 -6.062644,2.4801 -0.609062,0.128 -1.14891,-0.4987 -1.655614,-0.8574 -1.819986,-1.2886 -2.183289,-2.1334 -3.546548,-3.9814 -1.726578,-3.0421 -3.118302,-6.2437 -3.946056,-9.644 -0.526594,-2.1632 -0.818072,-3.9968 -0.648,-6.2209 0.0689,-0.9008 0.323809,-1.7782 0.485709,-2.6674 0.375182,-0.8069 0.644285,-1.671 1.125539,-2.4205 1.920613,-2.9909 5.071562,-5.2697 7.909271,-7.305 3.101931,-2.2246 4.660711,-3.1791 7.954482,-5.3201 6.522356,-4.395 13.291,-8.4667 19.402669,-13.43312 3.755101,-3.05141 4.436925,-3.88363 7.839993,-7.24244 3.892602,-4.24348 7.294645,-9.01805 9.211192,-14.47693 0.987455,-2.81256 0.96445,-3.61595 1.386653,-6.51532 0.194062,-2.63464 0.02887,-5.27104 -0.458363,-7.86553 -0.269149,-1.43324 -0.665645,-2.8533 -0.996866,-4.27424 0.644992,0.0387 -0.42797,-0.69692 -0.17388,-0.80856 1.697022,-0.74567 3.381982,-1.59315 5.194743,-1.98887 0.274273,-0.0599 0.153004,0.5363 0.211938,0.80859 0.340577,1.57354 0.390298,2.16673 0.640675,3.8897 0.953707,9.39806 1.258461,18.84289 1.659034,28.27576 0.317267,4.79136 0.143557,2.56715 0.500283,6.67416 0,0 -4.378735,2.2368 -4.378735,2.2368 l 0,0 c -0.02124,-4.26681 -0.003,-1.96513 -0.06083,-6.90493 -0.205601,-9.32924 -0.491474,-18.71657 -2.204695,-27.91499 -0.483998,-2.19926 -0.330506,-1.81483 -0.945086,-3.65375 -0.08246,-0.24673 -0.476333,-0.57132 -0.270457,-0.73221 1.477315,-1.1545 3.272815,-1.84303 4.855496,-2.85091 0.0687,-0.0437 -0.184785,-0.16972 -0.223832,-0.0986 -0.0892,0.1624 -0.01758,0.36944 -0.02634,0.55416 0.158926,1.49959 0.491166,2.95213 0.712409,4.44209 0.39833,2.68256 0.502797,5.39825 0.289342,8.10295 -0.454284,3.13587 -0.370437,3.63439 -1.460032,6.68104 -1.991961,5.56979 -5.488086,10.44357 -9.471682,14.78121 -3.436707,3.39966 -4.130678,4.24864 -7.928095,7.33606 -6.071216,4.93608 -12.791859,8.98138 -19.236294,13.40148 -2.977687,1.9581 -4.881962,3.1641 -7.729982,5.2032 -2.733193,1.9569 -5.736023,4.1334 -7.657297,6.9527 -0.489331,0.7181 -0.795449,1.5434 -1.193177,2.3151 -0.200351,0.8711 -0.499179,1.7256 -0.601062,2.6133 -0.484579,4.2224 0.944255,8.8664 2.784661,12.6242 0.496892,1.0146 1.109563,1.9692 1.664343,2.9538 1.402591,1.6794 1.836094,2.5339 3.67414,3.6187 0.491731,0.2902 1.846385,0.1179 1.595645,0.6279 -0.586557,1.1933 -2.197023,1.5431 -3.130552,2.4944 -0.865965,0.8826 5.016547,-2.9913 2.76285,-2.4779 0.475774,-0.8674 0.992708,-1.714 1.427318,-2.6025 3.061518,-6.259 5.101122,-13.4033 6.741049,-20.1389 0.548921,-2.2545 1.000637,-4.5311 1.500957,-6.7967 0.943611,-5.3728 1.451223,-7.8973 2.145073,-13.3019 0.850112,-6.62161 1.353331,-13.28678 2.007729,-19.92868 0.107959,-4.11935 -0.576057,-1.80348 5.006622,-5.17084 0.170933,-0.10311 -0.366685,0.16999 -0.519588,0.29793 -0.314667,0.26332 -0.584466,0.57527 -0.872534,0.86699 -4.956528,5.01922 3.261752,-3.24974 -3.164497,3.20641 -2.169865,1.94828 -2.930116,2.70173 -5.315525,4.52979 -4.443867,3.40555 -9.264023,6.30424 -13.87092,9.4806 -4.832453,3.0353 -2.760608,1.78 -9.774487,5.8288 -1.206862,0.6967 -3.099716,1.9788 -4.614298,1.9023 -0.28831,-0.015 -0.549474,-0.1757 -0.824209,-0.2637 -0.177986,-0.1906 -0.394739,-0.3518 -0.533959,-0.5719 -1.331612,-2.1049 -0.102544,-6.46926 0.163419,-8.69718 1.146862,-6.48596 2.360008,-12.9662 3.86544,-19.38071 0.115991,-0.53777 -0.07592,-1.25871 0.347974,-1.61331 1.540901,-1.28902 3.411296,-2.14397 5.213776,-3.03932 0.120797,-0.06 0.165109,0.22462 0.186318,0.35693 0.146251,0.91233 -0.420505,1.85306 -0.768683,2.6336 -0.73998,1.24637 -1.517145,2.43177 -2.399041,3.58525 -0.250306,0.32738 -0.429538,0.73059 -0.765482,0.97105 -2.71537,1.94353 -18.6004342,9.79267 -9.302537,4.36834 0,0 3.064511,-1.40728 3.064511,-1.40728 l -2.403783,1.71931 z"
         id="path3619"
         style="fill:#000000" />
    </g>
  </g>
</svg>
