<?xml version="1.0" encoding="UTF-8" standalone="no"?>
<!-- Created with Inkscape (http://www.inkscape.org/) -->

<svg
   xmlns:dc="http://purl.org/dc/elements/1.1/"
   xmlns:cc="http://creativecommons.org/ns#"
   xmlns:rdf="http://www.w3.org/1999/02/22-rdf-syntax-ns#"
   xmlns:svg="http://www.w3.org/2000/svg"
   xmlns="http://www.w3.org/2000/svg"
   xmlns:sodipodi="http://sodipodi.sourceforge.net/DTD/sodipodi-0.dtd"
   xmlns:inkscape="http://www.inkscape.org/namespaces/inkscape"
   width="100"
   height="100"
   id="svg2"
   version="1.1"
   inkscape:version="0.47 r22583"
   sodipodi:docname="ph.svg">
  <title
     id="title2813">Aksara Dompu - Mbojo</title>
  <defs
     id="defs4">
    <inkscape:perspective
       sodipodi:type="inkscape:persp3d"
       inkscape:vp_x="0 : 526.18109 : 1"
       inkscape:vp_y="0 : 1000 : 0"
       inkscape:vp_z="744.09448 : 526.18109 : 1"
       inkscape:persp3d-origin="372.04724 : 350.78739 : 1"
       id="perspective10" />
    <inkscape:perspective
       id="perspective10-9"
       inkscape:persp3d-origin="372.04724 : 350.78739 : 1"
       inkscape:vp_z="744.09448 : 526.18109 : 1"
       inkscape:vp_y="0 : 1000 : 0"
       inkscape:vp_x="0 : 526.18109 : 1"
       sodipodi:type="inkscape:persp3d" />
    <inkscape:perspective
       id="perspective10-7"
       inkscape:persp3d-origin="372.04724 : 350.78739 : 1"
       inkscape:vp_z="744.09448 : 526.18109 : 1"
       inkscape:vp_y="0 : 1000 : 0"
       inkscape:vp_x="0 : 526.18109 : 1"
       sodipodi:type="inkscape:persp3d" />
    <inkscape:perspective
       id="perspective10-0"
       inkscape:persp3d-origin="372.04724 : 350.78739 : 1"
       inkscape:vp_z="744.09448 : 526.18109 : 1"
       inkscape:vp_y="0 : 1000 : 0"
       inkscape:vp_x="0 : 526.18109 : 1"
       sodipodi:type="inkscape:persp3d" />
    <inkscape:perspective
       id="perspective10-2"
       inkscape:persp3d-origin="372.04724 : 350.78739 : 1"
       inkscape:vp_z="744.09448 : 526.18109 : 1"
       inkscape:vp_y="0 : 1000 : 0"
       inkscape:vp_x="0 : 526.18109 : 1"
       sodipodi:type="inkscape:persp3d" />
    <inkscape:perspective
       id="perspective10-01"
       inkscape:persp3d-origin="372.04724 : 350.78739 : 1"
       inkscape:vp_z="744.09448 : 526.18109 : 1"
       inkscape:vp_y="0 : 1000 : 0"
       inkscape:vp_x="0 : 526.18109 : 1"
       sodipodi:type="inkscape:persp3d" />
    <inkscape:perspective
       id="perspective10-28"
       inkscape:persp3d-origin="372.04724 : 350.78739 : 1"
       inkscape:vp_z="744.09448 : 526.18109 : 1"
       inkscape:vp_y="0 : 1000 : 0"
       inkscape:vp_x="0 : 526.18109 : 1"
       sodipodi:type="inkscape:persp3d" />
    <inkscape:perspective
       id="perspective10-5"
       inkscape:persp3d-origin="372.04724 : 350.78739 : 1"
       inkscape:vp_z="744.09448 : 526.18109 : 1"
       inkscape:vp_y="0 : 1000 : 0"
       inkscape:vp_x="0 : 526.18109 : 1"
       sodipodi:type="inkscape:persp3d" />
    <inkscape:perspective
       id="perspective10-91"
       inkscape:persp3d-origin="372.04724 : 350.78739 : 1"
       inkscape:vp_z="744.09448 : 526.18109 : 1"
       inkscape:vp_y="0 : 1000 : 0"
       inkscape:vp_x="0 : 526.18109 : 1"
       sodipodi:type="inkscape:persp3d" />
    <inkscape:perspective
       id="perspective10-09"
       inkscape:persp3d-origin="372.04724 : 350.78739 : 1"
       inkscape:vp_z="744.09448 : 526.18109 : 1"
       inkscape:vp_y="0 : 1000 : 0"
       inkscape:vp_x="0 : 526.18109 : 1"
       sodipodi:type="inkscape:persp3d" />
    <inkscape:perspective
       id="perspective10-6"
       inkscape:persp3d-origin="372.04724 : 350.78739 : 1"
       inkscape:vp_z="744.09448 : 526.18109 : 1"
       inkscape:vp_y="0 : 1000 : 0"
       inkscape:vp_x="0 : 526.18109 : 1"
       sodipodi:type="inkscape:persp3d" />
  </defs>
  <sodipodi:namedview
     id="base"
     pagecolor="#ffffff"
     bordercolor="#666666"
     borderopacity="1.0"
     inkscape:pageopacity="0.0"
     inkscape:pageshadow="2"
     inkscape:zoom="1"
     inkscape:cx="-64"
     inkscape:cy="28.139785"
     inkscape:document-units="px"
     inkscape:current-layer="layer1"
     showgrid="false"
     inkscape:window-width="1024"
     inkscape:window-height="538"
     inkscape:window-x="0"
     inkscape:window-y="24"
     inkscape:window-maximized="1" />
  <metadata
     id="metadata7">
    <rdf:RDF>
      <cc:Work
         rdf:about="">
        <dc:format>image/svg+xml</dc:format>
        <dc:type
           rdf:resource="http://purl.org/dc/dcmitype/StillImage" />
        <dc:title>Aksara Dompu - Mbojo</dc:title>
        <dc:creator>
          <cc:Agent>
            <dc:title>Farhan Perdana (Black_Claw)</dc:title>
          </cc:Agent>
        </dc:creator>
        <dc:contributor>
          <cc:Agent>
            <dc:title>Farhan Perdana blackdramon@gmail.com</dc:title>
          </cc:Agent>
        </dc:contributor>
      </cc:Work>
    </rdf:RDF>
  </metadata>
  <g
     inkscape:label="Layer 1"
     inkscape:groupmode="layer"
     id="layer1"
     transform="translate(0,-952.36218)">
    <g
       id="layer1-7"
       inkscape:label="Layer 1"
       transform="translate(2.16802,-2.153174)">
      <g
         transform="matrix(0.38068377,0,0,0.38068377,-155.33738,580.3795)"
         id="g3142">
        <path
           style="fill:#000000"
           id="path3130"
           d="m 427.78405,48.735068 c 11.1973,0.375318 22.34707,2.865208 32.91313,6.536402 4.53793,1.576709 9.07997,3.208277 13.39125,5.327625 5.06135,2.488072 9.76893,5.63908 14.65339,8.45862 4.83959,3.480998 9.92235,6.646706 14.51878,10.442994 7.86697,6.49749 20.37017,19.17641 26.58575,27.284121 4.00681,5.22656 7.47858,10.85175 10.88726,16.48666 3.26363,5.39514 6.41846,10.87582 9.1133,16.57641 2.68591,5.68171 4.66584,11.67107 6.99877,17.50661 6.76355,20.88737 11.198,42.5034 12.35976,64.44988 0.49986,9.44251 0.16058,13.07277 -0.20466,22.204 -1.01307,7.69677 -1.18915,16.82412 -6.57669,23.08627 -4.07293,4.73412 -17.57014,10.52064 -18.98499,11.2854 -8.02641,0.84664 -15.9674,-0.48129 -23.73482,-2.46803 -3.70405,-0.94742 -7.42084,-1.90793 -10.99596,-3.26294 -9.95642,-3.77359 -14.92727,-7.1091 -24.19497,-12.40223 -14.89739,-10.98671 -29.52592,-23.95863 -34.50266,-42.57395 -1.00528,-3.7602 -1.62943,-7.6848 -1.53199,-11.57583 0.0951,-3.79916 1.40167,-7.47034 2.1025,-11.20551 1.75442,-3.50331 3.05885,-7.27083 5.26326,-10.50992 7.76883,-11.41527 22.05417,-20.88235 33.67603,-27.86412 17.27852,-10.37998 22.13163,-12.69672 37.92141,-20.95478 12.33244,-6.20173 24.81931,-12.06844 37.14941,-18.27359 0,0 -9.40718,7.51965 -9.40718,7.51965 l 0,0 c -12.0687,5.88965 -24.26991,11.49679 -36.24397,17.58059 -12.07978,6.33115 -21.22397,10.74786 -32.36792,18.70357 -7.39996,5.28286 -14.47455,10.80476 -19.75629,18.33739 -2.19727,3.13368 -3.54987,6.78161 -5.32481,10.17241 -0.78152,3.63405 -2.14559,7.19034 -2.34455,10.90214 -0.95651,17.84478 10.42012,33.43979 23.17625,44.57688 3.71083,3.23983 7.85532,5.94652 11.78297,8.91978 4.05982,2.24433 8.0007,4.71874 12.17945,6.73297 8.61402,4.15212 14.4337,6.07507 23.61814,8.04896 5.83422,1.25387 12.20374,2.15699 18.21942,1.89073 2.09408,-0.0927 4.14812,-0.60667 6.22219,-0.91 -2.65375,1.73672 -5.25781,3.55183 -7.96124,5.21014 -1.15319,0.70739 2.33551,-1.41177 3.30586,-2.35447 1.05431,-1.02426 1.94608,-2.22408 2.70364,-3.48377 3.5558,-5.91273 4.45451,-12.91744 5.5491,-19.57762 0.7487,-9.19252 1.26166,-12.96661 1.11081,-22.49646 -0.3486,-22.02175 -4.34662,-43.79718 -11.11903,-64.73244 -2.30748,-5.80397 -4.2899,-11.74796 -6.92244,-17.41189 -4.9074,-10.55834 -12.74538,-23.7056 -19.85077,-32.87961 -7.03048,-9.0773 -17.75538,-19.768155 -26.71024,-26.931863 -4.64841,-3.71864 -9.7621,-6.815092 -14.64315,-10.222637 -5.03126,-2.659407 -9.89971,-5.65279 -15.09378,-7.978222 -4.44757,-1.991214 -9.10058,-3.509889 -13.75913,-4.939476 -11.25205,-3.452962 -23.13183,-5.421219 -34.91094,-4.70098 0,0 11.74035,-8.529864 11.74035,-8.529864 z"
           transform="translate(0,952.36218)" />
        <path
           style="fill:#000000"
           id="path3140"
           d="m 560.01792,1177.0613 c -0.68649,-15.8657 -1.97455,-31.703 -2.35868,-47.5826 -0.13093,-5.4124 -0.13087,-10.8272 -0.19631,-16.2408 0.0217,-5.3817 -0.15193,-10.7678 0.065,-16.1452 0.2161,-5.3567 0.64629,-10.707 1.23323,-16.0359 1.14621,-10.4064 2.5135,-19.4442 6.20547,-29.2939 4.2,-11.205 7.41725,-14.9381 13.86815,-24.753 2.89341,-3.1545 5.55108,-6.5428 8.68023,-9.4636 2.86535,-2.6746 5.9332,-5.1698 9.24421,-7.2676 12.17085,-7.7114 24.09625,-14.31729 38.18158,-17.19962 2.35691,-0.48231 4.76495,-0.6677 7.14743,-1.00155 4.43288,-0.0803 13.53617,-0.65782 14.47611,5.67773 0.10601,0.71454 -0.0447,1.44404 -0.067,2.16605 -0.65155,2.74849 -1.94088,5.27269 -3.12342,7.81669 0,0 -12.91542,5.8957 -12.91542,5.8957 l 0,0 c 1.07991,-2.3874 2.16706,-4.7733 3.04912,-7.2435 0.0949,-0.5499 0.29287,-1.0917 0.28473,-1.6496 -0.0755,-5.1724 -9.2298,-4.75227 -12.29209,-4.75189 -6.56634,0.84519 -8.23508,0.77719 -14.93783,2.98859 -3.13709,1.035 -6.0835,2.5973 -9.22069,3.632 -0.29723,0.098 0.79409,-0.9502 0.53907,-0.7688 -11.45451,8.1496 -8.51774,6.0961 -18.55357,16.5801 -6.65343,9.7872 -9.83509,13.3041 -14.20634,24.5241 -5.49875,14.114 -7.2531,30.1945 -7.89125,45.2101 -0.22809,5.3667 -0.0511,10.7431 -0.0767,16.1146 0.81188,20.7516 -1.67413,44.0074 2.25537,64.4423 0,0 -9.39043,4.3496 -9.39043,4.3496 l 3e-5,0 z"
           sodipodi:nodetypes="cscssscssscscccccscssscsscccc" />
      </g>
    </g>
  </g>
</svg>
