<?xml version="1.0" encoding="UTF-8" standalone="no"?>
<!-- Created with Inkscape (http://www.inkscape.org/) -->

<svg
   xmlns:dc="http://purl.org/dc/elements/1.1/"
   xmlns:cc="http://creativecommons.org/ns#"
   xmlns:rdf="http://www.w3.org/1999/02/22-rdf-syntax-ns#"
   xmlns:svg="http://www.w3.org/2000/svg"
   xmlns="http://www.w3.org/2000/svg"
   xmlns:sodipodi="http://sodipodi.sourceforge.net/DTD/sodipodi-0.dtd"
   xmlns:inkscape="http://www.inkscape.org/namespaces/inkscape"
   width="100"
   height="100"
   id="svg2"
   version="1.1"
   inkscape:version="0.47 r22583"
   sodipodi:docname="th.svg">
  <title
     id="title2813">Aksara Dompu - Mbojo</title>
  <defs
     id="defs4">
    <inkscape:perspective
       sodipodi:type="inkscape:persp3d"
       inkscape:vp_x="0 : 526.18109 : 1"
       inkscape:vp_y="0 : 1000 : 0"
       inkscape:vp_z="744.09448 : 526.18109 : 1"
       inkscape:persp3d-origin="372.04724 : 350.78739 : 1"
       id="perspective10" />
    <inkscape:perspective
       id="perspective10-9"
       inkscape:persp3d-origin="372.04724 : 350.78739 : 1"
       inkscape:vp_z="744.09448 : 526.18109 : 1"
       inkscape:vp_y="0 : 1000 : 0"
       inkscape:vp_x="0 : 526.18109 : 1"
       sodipodi:type="inkscape:persp3d" />
    <inkscape:perspective
       id="perspective10-7"
       inkscape:persp3d-origin="372.04724 : 350.78739 : 1"
       inkscape:vp_z="744.09448 : 526.18109 : 1"
       inkscape:vp_y="0 : 1000 : 0"
       inkscape:vp_x="0 : 526.18109 : 1"
       sodipodi:type="inkscape:persp3d" />
    <inkscape:perspective
       id="perspective10-0"
       inkscape:persp3d-origin="372.04724 : 350.78739 : 1"
       inkscape:vp_z="744.09448 : 526.18109 : 1"
       inkscape:vp_y="0 : 1000 : 0"
       inkscape:vp_x="0 : 526.18109 : 1"
       sodipodi:type="inkscape:persp3d" />
    <inkscape:perspective
       id="perspective10-2"
       inkscape:persp3d-origin="372.04724 : 350.78739 : 1"
       inkscape:vp_z="744.09448 : 526.18109 : 1"
       inkscape:vp_y="0 : 1000 : 0"
       inkscape:vp_x="0 : 526.18109 : 1"
       sodipodi:type="inkscape:persp3d" />
    <inkscape:perspective
       id="perspective10-01"
       inkscape:persp3d-origin="372.04724 : 350.78739 : 1"
       inkscape:vp_z="744.09448 : 526.18109 : 1"
       inkscape:vp_y="0 : 1000 : 0"
       inkscape:vp_x="0 : 526.18109 : 1"
       sodipodi:type="inkscape:persp3d" />
    <inkscape:perspective
       id="perspective10-28"
       inkscape:persp3d-origin="372.04724 : 350.78739 : 1"
       inkscape:vp_z="744.09448 : 526.18109 : 1"
       inkscape:vp_y="0 : 1000 : 0"
       inkscape:vp_x="0 : 526.18109 : 1"
       sodipodi:type="inkscape:persp3d" />
    <inkscape:perspective
       id="perspective10-5"
       inkscape:persp3d-origin="372.04724 : 350.78739 : 1"
       inkscape:vp_z="744.09448 : 526.18109 : 1"
       inkscape:vp_y="0 : 1000 : 0"
       inkscape:vp_x="0 : 526.18109 : 1"
       sodipodi:type="inkscape:persp3d" />
    <inkscape:perspective
       id="perspective10-91"
       inkscape:persp3d-origin="372.04724 : 350.78739 : 1"
       inkscape:vp_z="744.09448 : 526.18109 : 1"
       inkscape:vp_y="0 : 1000 : 0"
       inkscape:vp_x="0 : 526.18109 : 1"
       sodipodi:type="inkscape:persp3d" />
    <inkscape:perspective
       id="perspective10-09"
       inkscape:persp3d-origin="372.04724 : 350.78739 : 1"
       inkscape:vp_z="744.09448 : 526.18109 : 1"
       inkscape:vp_y="0 : 1000 : 0"
       inkscape:vp_x="0 : 526.18109 : 1"
       sodipodi:type="inkscape:persp3d" />
    <inkscape:perspective
       id="perspective10-6"
       inkscape:persp3d-origin="372.04724 : 350.78739 : 1"
       inkscape:vp_z="744.09448 : 526.18109 : 1"
       inkscape:vp_y="0 : 1000 : 0"
       inkscape:vp_x="0 : 526.18109 : 1"
       sodipodi:type="inkscape:persp3d" />
    <inkscape:perspective
       sodipodi:type="inkscape:persp3d"
       inkscape:vp_x="0 : 526.18109 : 1"
       inkscape:vp_y="0 : 1000 : 0"
       inkscape:vp_z="744.09448 : 526.18109 : 1"
       inkscape:persp3d-origin="372.04724 : 350.78739 : 1"
       id="perspective10-97" />
    <inkscape:perspective
       id="perspective10-8"
       inkscape:persp3d-origin="372.04724 : 350.78739 : 1"
       inkscape:vp_z="744.09448 : 526.18109 : 1"
       inkscape:vp_y="0 : 1000 : 0"
       inkscape:vp_x="0 : 526.18109 : 1"
       sodipodi:type="inkscape:persp3d" />
    <inkscape:perspective
       id="perspective10-9-7"
       inkscape:persp3d-origin="372.04724 : 350.78739 : 1"
       inkscape:vp_z="744.09448 : 526.18109 : 1"
       inkscape:vp_y="0 : 1000 : 0"
       inkscape:vp_x="0 : 526.18109 : 1"
       sodipodi:type="inkscape:persp3d" />
    <inkscape:perspective
       id="perspective10-66"
       inkscape:persp3d-origin="372.04724 : 350.78739 : 1"
       inkscape:vp_z="744.09448 : 526.18109 : 1"
       inkscape:vp_y="0 : 1000 : 0"
       inkscape:vp_x="0 : 526.18109 : 1"
       sodipodi:type="inkscape:persp3d" />
  </defs>
  <sodipodi:namedview
     id="base"
     pagecolor="#ffffff"
     bordercolor="#666666"
     borderopacity="1.0"
     inkscape:pageopacity="0.0"
     inkscape:pageshadow="2"
     inkscape:zoom="1"
     inkscape:cx="-64"
     inkscape:cy="28.139785"
     inkscape:document-units="px"
     inkscape:current-layer="layer1"
     showgrid="false"
     inkscape:window-width="1024"
     inkscape:window-height="538"
     inkscape:window-x="0"
     inkscape:window-y="24"
     inkscape:window-maximized="1" />
  <metadata
     id="metadata7">
    <rdf:RDF>
      <cc:Work
         rdf:about="">
        <dc:format>image/svg+xml</dc:format>
        <dc:type
           rdf:resource="http://purl.org/dc/dcmitype/StillImage" />
        <dc:title>Aksara Dompu - Mbojo</dc:title>
        <dc:creator>
          <cc:Agent>
            <dc:title>Farhan Perdana (Black_Claw)</dc:title>
          </cc:Agent>
        </dc:creator>
        <dc:contributor>
          <cc:Agent>
            <dc:title>Farhan Perdana blackdramon@gmail.com</dc:title>
          </cc:Agent>
        </dc:contributor>
      </cc:Work>
    </rdf:RDF>
  </metadata>
  <g
     inkscape:label="Layer 1"
     inkscape:groupmode="layer"
     id="layer1"
     transform="translate(0,-952.36218)">
    <g
       id="layer1-6"
       inkscape:label="Layer 1"
       transform="translate(0.78058,-2.556439)">
      <path
         d="m 19.829853,960.84152 c -0.184888,3.11891 -0.546251,6.22259 -0.746158,9.34157 -0.28102,3.74741 -0.05631,6.7134 1.846773,10.00858 2.112755,2.74595 5.126273,2.99823 8.32353,2.53292 3.431301,-0.52615 6.763731,-1.51108 9.819938,-3.16173 -17.413606,9.976 -9.720363,6.43226 -6.823286,2.81489 1.182492,-1.4765 1.950638,-3.0578 2.676115,-4.78776 0.105879,-0.50783 0.248224,-1.00939 0.317637,-1.52346 0.04943,-0.36617 0.04868,-0.73851 0.03764,-1.10783 -0.0053,-0.17336 -0.255604,-0.54914 -0.08606,-0.51292 0.179078,0.0382 -0.01091,0.60735 0.153807,0.5274 11.441366,-5.55212 11.093026,-10.31663 11.224404,-5.28718 0.390327,2.9349 1.954686,5.2404 4.102676,7.18157 2.666114,1.95544 5.925599,2.28864 9.120379,2.52671 5.229803,0.12259 10.029236,-1.88046 14.685883,-4.02158 3.624,-1.58824 14.712806,-7.64865 -1.677141,1.33442 -0.855997,0.46917 1.674965,-1.00362 2.495171,-1.53287 2.16781,-1.3988 2.114466,-1.43072 4.068536,-2.97986 2.094991,-1.97529 1.135757,-0.95315 2.895749,-3.04937 0,0 11.524821,-4.93023 11.524821,-4.93023 l 0,0 c -1.730955,2.30888 -0.775808,1.19203 -2.883727,3.33488 -2.12204,1.79041 -4.275083,3.34706 -6.675981,4.75461 -6.340366,3.71706 -12.595037,7.72928 -19.352709,10.68458 -4.878142,2.12499 -9.936316,4.05918 -15.357762,3.73395 -3.435896,-0.35332 -6.850699,-0.94368 -9.605183,-3.20292 -2.294859,-2.16994 -3.965825,-4.72014 -4.694117,-7.83303 -1.293389,-5.1562 -0.705579,-1.54511 11.01921,-7.86167 1.195876,-0.64428 -0.440495,5.97736 0.107797,4.47018 -3.187567,8.8095 -7.971332,10.21398 -17.145587,15.15171 -3.213147,1.42477 -6.586584,2.42115 -10.092632,2.79877 -3.837341,0.1991 -6.708278,-0.5316 -9.105592,-3.74941 -1.9992022,-3.50154 -2.4781592,-6.65277 -2.1845482,-10.65826 0.1683572,-3.04553 0.5352133,-6.09372 0.5157563,-9.13985 0,0 11.4946509,-5.85681 11.4946509,-5.85681 z"
         id="path2816"
         style="fill:#000000" />
      <path
         d="m 49.375243,984.44554 c -1.092438,4.7876 -2.000013,9.6175 -2.817212,14.45907 -1.366664,9.91349 -1.642518,19.93169 -1.736818,29.92489 -0.297692,3.6922 -0.0066,8.4074 -2.947548,11.2249 -0.371872,0.3561 -0.831169,0.6082 -1.246754,0.9123 -4.645205,2.4726 -12.243439,9.1741 -18.915787,6.9631 -0.51349,-0.1693 -0.982221,-0.4536 -1.473329,-0.6803 -3.200755,-1.5891 -4.469819,-4.4975 -5.211754,-7.8038 -0.415792,-3.8297 0.744364,-6.5358 2.999477,-9.5287 4.753308,-4.3989 10.500841,-8.0581 16.667682,-10.0832 6.359857,-2.0884 -1.635993,0.9115 4.999785,-1.6612 1.081579,-0.3314 2.170993,-0.6383 3.244737,-0.9943 1.213118,-0.4022 2.398906,-0.8844 3.614271,-1.2798 5.974557,-1.9435 12.133613,-3.3871 18.255505,-4.7758 5.674822,-1.3032 2.912816,-0.6888 8.284637,-1.8493 0,0 -9.604234,7.2874 -9.604234,7.2874 l 0,0 c -5.233076,1.0747 -2.534403,0.5 -8.0943,1.7322 -8.618303,2.0109 -17.142326,4.3516 -25.424979,7.4951 -1.7026,0.6244 -3.440064,1.1573 -5.117877,1.8456 -0.610764,0.2505 -2.343575,1.2122 -1.779602,0.869 17.01033,-10.3494 10.105851,-6.1572 6.58362,-3.5251 -2.251071,2.4239 -3.68472,5.089 -3.481198,8.4862 0.611067,2.9547 1.640912,5.4835 4.605247,6.7402 1.299305,0.463 1.362287,0.5933 2.807417,0.6395 4.980558,0.1599 13.261765,-5.884 -4.788811,4.6662 0.462644,-0.2046 0.95662,-0.3496 1.38793,-0.614 3.519007,-2.157 3.413299,-7.0593 3.887208,-10.6261 0.446279,-10.0279 0.933091,-20.0573 1.728603,-30.0644 0.473558,-4.72985 1.22518,-9.40541 1.986255,-14.09443 0,0 11.587829,-5.66523 11.587829,-5.66523 z"
         id="path2826"
         style="fill:#000000" />
      <path
         d="m 26.485074,1000.2772 c 2.9074,-0.2078 4.280954,1.7427 6.435911,5.1341 4.703293,7.4724 9.58236,14.594 15.227295,19.5899 1.531365,1.3551 3.129362,2.4442 4.694044,3.6664 1.675445,0.9777 3.321051,2.1456 5.026339,2.9334 6.699616,3.0949 14.175168,3.6054 21.00851,1.8068 1.506148,-0.3964 2.984199,-1.0904 4.476284,-1.6357 4.892886,-3.0498 2.582648,-1.3062 6.952466,-5.1343 0,0 -5.722914,8.2943 -5.722914,8.2943 l 0,0 c -4.311461,3.4678 -2.036284,1.9104 -6.845246,4.5753 -1.47838,0.4721 -2.945162,1.0872 -4.435149,1.4162 -6.950749,1.5358 -14.299512,0.8757 -21.087934,-2.309 -1.728733,-0.8111 -3.399048,-1.991 -5.098572,-2.9862 -4.01334,-3.1236 -5.457408,-3.9813 -9.218735,-7.9484 -4.059979,-4.2819 -7.742463,-9.6774 -11.4759,-14.8157 -2.445231,-3.2283 -3.481316,-4.3241 -6.484421,-3.9108 0,0 6.548022,-8.6763 6.548022,-8.6763 z"
         id="path2906"
         style="fill:#000000" />
      <g
         transform="matrix(0.97645584,0,0,0.97645584,129.31357,34.768485)"
         id="g3634">
        <path
           style="fill:#000000"
           id="path3618"
           d="m 14.274179,958.31144 c -0.86654,1.94391 -1.477646,3.99226 -2.042427,6.04015 -0.506977,1.83828 -0.948199,3.42502 -1.112197,5.33427 -0.0704,0.81958 -0.01126,1.64515 -0.01688,2.46772 0.192805,1.75521 0.453612,3.56743 1.608694,4.98654 0.291603,0.35825 0.599185,0.74082 1.013483,0.94509 1.295863,0.63894 2.455314,0.23694 3.803449,0.0605 1.002496,-0.33376 2.084683,-0.48666 3.007467,-1.0013 0.581839,-0.32449 -2.469683,0.8377 -1.955195,0.41445 1.161554,-0.95555 2.689732,-1.35006 3.99691,-2.09406 3.986834,-2.26915 7.642362,-4.96963 11.321095,-7.6933 2.707839,-2.14286 1.732759,-1.34716 3.963076,-3.18526 0.310914,-0.25624 0.615848,-0.51983 0.931241,-0.77053 0.151134,-0.12014 0.282646,-0.28676 0.467778,-0.34155 6.944135,-2.05544 6.717377,-4.05351 6.667859,-0.96769 -0.47278,1.58338 -1.131481,3.54858 -0.515262,5.19107 0.123865,0.33015 0.365914,0.60289 0.548871,0.90433 0.419912,0.28524 0.804861,0.63039 1.259738,0.85573 2.855484,1.41457 6.655588,1.4562 9.733994,1.2648 5.050662,-0.31404 7.770961,-1.05977 12.894028,-2.07881 6.497794,-1.67715 9.191244,-2.15728 15.496999,-4.67362 0.999399,-0.39881 1.877915,-1.05143 2.827591,-1.55736 2.166086,-1.15395 4.383795,-2.21246 6.519294,-3.42208 4.49155,-2.54418 6.353415,-3.95303 10.500255,-6.81182 1.28121,-1.01841 2.56242,-2.03681 3.84364,-3.05522 0,0 5.53495,-1.20316 5.53495,-1.20316 l 0,0 c -1.35643,1.04682 -2.71285,2.09363 -4.06927,3.14045 -4.24545,2.87219 -6.29291,4.37509 -10.85743,6.94691 -7.166461,4.03784 -9.90556,4.99681 -18.544688,8.25303 -2.608457,0.98316 -5.245222,1.89797 -7.915136,2.69936 -2.571639,0.77189 -5.198871,1.34473 -7.798307,2.0171 -6.130763,1.27556 -11.982992,2.68311 -18.292781,2.34175 -2.216476,-0.11992 -3.946254,-0.3159 -5.875566,-1.31965 -0.540924,-0.28143 -0.988816,-0.71375 -1.483224,-1.07063 -0.212271,-0.37378 -0.487326,-0.71831 -0.636813,-1.12133 -0.602165,-1.62343 -0.12893,-3.74946 0.2942,-5.362 1.523567,-1.95304 0.152792,-0.26981 6.515933,-2.30903 0.225987,-0.0724 -0.449754,0.16132 -0.652642,0.28442 -1.975772,1.1987 -3.639866,2.87876 -5.586219,4.11718 -3.742782,2.68148 -7.428284,5.44414 -11.397048,7.79128 -1.264836,0.74803 -2.518879,1.53177 -3.86655,2.11757 -3.032173,1.31801 -6.143344,2.44879 -9.248835,3.58336 -1.077364,0.39361 -2.19529,0.66579 -3.29293,0.99869 -1.761716,0.0986 -2.6829427,0.45413 -4.2365466,-0.48411 -0.4379807,-0.2645 -0.7567454,-0.69901 -1.0558517,-1.11414 -1.1380122,-1.57944 -1.3367833,-3.51681 -1.4858358,-5.39352 0.015643,-0.85609 -0.025746,-1.71513 0.046948,-2.56828 0.3251431,-3.81602 1.7251065,-7.67259 2.6321393,-11.39059 0,0 6.5080038,-1.76673 6.5080038,-1.76673 z" />
        <path
           style="fill:#000000"
           id="path3622"
           d="m 42.858179,974.74889 c -1.047595,8.97965 -2.67574,17.87772 -4.392622,26.74951 -2.018449,10.8292 -5.939577,21.1653 -10.7488,31.038 -1.462455,2.6189 -2.915136,5.4383 -5.339296,7.3214 -0.334687,0.2599 -0.675018,0.532 -1.068911,0.6883 -2.377474,0.9437 -4.812889,1.7344 -7.219327,2.6016 -1.763929,0.2622 -3.543789,0.1114 -5.0542653,-0.9186 -0.3562517,-0.2429 -0.6654704,-0.5485 -0.9982047,-0.8228 -0.312793,-0.4747 -0.7392796,-0.8916 -0.9383693,-1.424 -0.7536448,-2.0157 -0.8099502,-4.5029 -0.7183781,-6.583 0.1362196,-3.0944 0.6527364,-6.0234 1.521594,-8.9989 0.4582374,-1.5694 1.0929377,-3.0817 1.6394076,-4.6225 0.8416228,-1.5193 1.5543718,-3.1175 2.5248748,-4.5579 4.486721,-6.6591 11.025758,-11.5706 17.759161,-15.76091 1.715241,-1.06742 3.501567,-2.01612 5.252347,-3.02418 6.726714,-3.57167 13.593591,-6.95414 20.770227,-9.53834 2.735556,-0.98503 5.485862,-1.92861 8.228793,-2.89291 2.45305,-0.89597 5.022088,-1.3711 7.568245,-1.9093 0,0 -5.874258,3.07696 -5.874258,3.07696 l 0,0 c -2.431141,0.50889 -4.878529,0.97412 -7.223831,1.81633 1.105662,-0.40241 2.201545,-0.83278 3.316987,-1.20723 1.054944,-0.35414 -2.097377,0.74533 -3.135432,1.14628 -4.487296,1.73324 -8.869,3.65137 -13.176463,5.79345 -1.736503,0.86355 -3.454858,1.76312 -5.182287,2.64469 -1.759823,0.99727 -3.55581,1.93326 -5.27947,2.9918 -6.654486,4.08666 -13.151451,8.89076 -17.572762,15.44826 -0.948951,1.4074 -1.652411,2.9656 -2.478616,4.4485 -0.540525,1.5149 -1.177844,2.9988 -1.62159,4.5449 -0.795904,2.773 -1.313159,5.8744 -1.327317,8.7722 -0.01012,2.0722 0.193073,4.1746 1.105238,6.0675 0.223608,0.464 0.639465,0.8077 0.959195,1.2116 0.319769,0.231 0.616645,0.4975 0.959303,0.693 1.477939,0.8429 3.234725,0.8349 4.839439,0.4388 -1.710087,0.6259 -3.397827,1.3166 -5.130269,1.8777 -0.414128,0.1341 0.79742,-0.3575 1.163522,-0.593 2.683413,-1.7262 4.348896,-4.595 5.998311,-7.2235 0.65051,-1.1876 1.338848,-2.3553 1.951526,-3.5629 4.399469,-8.6713 7.521468,-17.9167 9.366983,-27.4622 1.037366,-5.71411 2.044015,-11.25281 2.647057,-17.03529 0.271937,-2.60755 0.478736,-4.87524 0.500579,-7.46652 0.0048,-0.5733 -0.05217,-1.14546 -0.07825,-1.7182 0,0 6.485921,-2.04855 6.485921,-2.04855 z" />
        <path
           style="fill:#000000"
           id="path3624"
           d="m 19.626275,983.07832 c 1.493929,0.25928 2.688666,1.15301 3.932873,1.96268 2.181141,1.41939 3.054109,1.93476 5.06232,3.82126 1.057444,0.99335 2.014623,2.0883 3.021934,3.13245 5.35641,5.66954 9.179808,12.52209 13.687569,18.83329 0.711467,0.9961 1.480662,1.9497 2.220992,2.9245 1.522194,1.6431 3.002825,3.5053 5.011934,4.6202 3.405945,1.8901 7.067816,2.5371 10.916329,2.9618 6.662626,0.7354 11.22384,0.3652 18.02267,0.1944 10.133219,-0.6304 20.257004,-1.7274 30.258574,-3.4972 2.83215,-0.5012 5.63593,-1.1511 8.4539,-1.7266 0,0 -4.23865,2.2137 -4.23865,2.2137 l 0,0 c -2.73068,0.5221 -5.45012,1.107 -8.19204,1.5665 -10.001833,1.6761 -20.103116,2.7258 -30.217026,3.4177 -7.432529,0.2848 -11.494045,0.7014 -18.744726,0.055 -4.13356,-0.3684 -8.157089,-0.8647 -11.856948,-2.8547 -1.976377,-1.0631 -3.580977,-3.1633 -5.022031,-4.7896 -0.704351,-0.9985 -1.429333,-1.9828 -2.113052,-2.9956 -4.316598,-6.3942 -8.062983,-13.26464 -13.597441,-18.73907 -1.058302,-0.99866 -2.063663,-2.0566 -3.174916,-2.99598 -2.179702,-1.84257 -4.793743,-3.55805 -7.448658,-4.65277 -0.866277,-0.3572 -1.337068,-0.38708 -2.181555,-0.50958 0,0 6.197948,-2.94268 6.197948,-2.94268 z" />
      </g>
    </g>
  </g>
</svg>
