<?xml version="1.0" encoding="UTF-8" standalone="no"?>
<!-- Created with Inkscape (http://www.inkscape.org/) -->

<svg
   xmlns:dc="http://purl.org/dc/elements/1.1/"
   xmlns:cc="http://creativecommons.org/ns#"
   xmlns:rdf="http://www.w3.org/1999/02/22-rdf-syntax-ns#"
   xmlns:svg="http://www.w3.org/2000/svg"
   xmlns="http://www.w3.org/2000/svg"
   xmlns:sodipodi="http://sodipodi.sourceforge.net/DTD/sodipodi-0.dtd"
   xmlns:inkscape="http://www.inkscape.org/namespaces/inkscape"
   width="100"
   height="100"
   id="svg2"
   version="1.1"
   inkscape:version="0.47 r22583"
   sodipodi:docname="a.svg">
  <title
     id="title2813">Aksara Dompu - Mbojo</title>
  <defs
     id="defs4">
    <inkscape:perspective
       sodipodi:type="inkscape:persp3d"
       inkscape:vp_x="0 : 526.18109 : 1"
       inkscape:vp_y="0 : 1000 : 0"
       inkscape:vp_z="744.09448 : 526.18109 : 1"
       inkscape:persp3d-origin="372.04724 : 350.78739 : 1"
       id="perspective10" />
    <inkscape:perspective
       id="perspective10-9"
       inkscape:persp3d-origin="372.04724 : 350.78739 : 1"
       inkscape:vp_z="744.09448 : 526.18109 : 1"
       inkscape:vp_y="0 : 1000 : 0"
       inkscape:vp_x="0 : 526.18109 : 1"
       sodipodi:type="inkscape:persp3d" />
    <inkscape:perspective
       id="perspective10-7"
       inkscape:persp3d-origin="372.04724 : 350.78739 : 1"
       inkscape:vp_z="744.09448 : 526.18109 : 1"
       inkscape:vp_y="0 : 1000 : 0"
       inkscape:vp_x="0 : 526.18109 : 1"
       sodipodi:type="inkscape:persp3d" />
    <inkscape:perspective
       id="perspective10-0"
       inkscape:persp3d-origin="372.04724 : 350.78739 : 1"
       inkscape:vp_z="744.09448 : 526.18109 : 1"
       inkscape:vp_y="0 : 1000 : 0"
       inkscape:vp_x="0 : 526.18109 : 1"
       sodipodi:type="inkscape:persp3d" />
    <inkscape:perspective
       id="perspective10-2"
       inkscape:persp3d-origin="372.04724 : 350.78739 : 1"
       inkscape:vp_z="744.09448 : 526.18109 : 1"
       inkscape:vp_y="0 : 1000 : 0"
       inkscape:vp_x="0 : 526.18109 : 1"
       sodipodi:type="inkscape:persp3d" />
    <inkscape:perspective
       id="perspective10-01"
       inkscape:persp3d-origin="372.04724 : 350.78739 : 1"
       inkscape:vp_z="744.09448 : 526.18109 : 1"
       inkscape:vp_y="0 : 1000 : 0"
       inkscape:vp_x="0 : 526.18109 : 1"
       sodipodi:type="inkscape:persp3d" />
    <inkscape:perspective
       id="perspective10-28"
       inkscape:persp3d-origin="372.04724 : 350.78739 : 1"
       inkscape:vp_z="744.09448 : 526.18109 : 1"
       inkscape:vp_y="0 : 1000 : 0"
       inkscape:vp_x="0 : 526.18109 : 1"
       sodipodi:type="inkscape:persp3d" />
    <inkscape:perspective
       id="perspective10-5"
       inkscape:persp3d-origin="372.04724 : 350.78739 : 1"
       inkscape:vp_z="744.09448 : 526.18109 : 1"
       inkscape:vp_y="0 : 1000 : 0"
       inkscape:vp_x="0 : 526.18109 : 1"
       sodipodi:type="inkscape:persp3d" />
    <inkscape:perspective
       id="perspective10-91"
       inkscape:persp3d-origin="372.04724 : 350.78739 : 1"
       inkscape:vp_z="744.09448 : 526.18109 : 1"
       inkscape:vp_y="0 : 1000 : 0"
       inkscape:vp_x="0 : 526.18109 : 1"
       sodipodi:type="inkscape:persp3d" />
    <inkscape:perspective
       id="perspective10-09"
       inkscape:persp3d-origin="372.04724 : 350.78739 : 1"
       inkscape:vp_z="744.09448 : 526.18109 : 1"
       inkscape:vp_y="0 : 1000 : 0"
       inkscape:vp_x="0 : 526.18109 : 1"
       sodipodi:type="inkscape:persp3d" />
    <inkscape:perspective
       id="perspective10-6"
       inkscape:persp3d-origin="372.04724 : 350.78739 : 1"
       inkscape:vp_z="744.09448 : 526.18109 : 1"
       inkscape:vp_y="0 : 1000 : 0"
       inkscape:vp_x="0 : 526.18109 : 1"
       sodipodi:type="inkscape:persp3d" />
    <inkscape:perspective
       sodipodi:type="inkscape:persp3d"
       inkscape:vp_x="0 : 526.18109 : 1"
       inkscape:vp_y="0 : 1000 : 0"
       inkscape:vp_z="744.09448 : 526.18109 : 1"
       inkscape:persp3d-origin="372.04724 : 350.78739 : 1"
       id="perspective10-97" />
    <inkscape:perspective
       id="perspective10-8"
       inkscape:persp3d-origin="372.04724 : 350.78739 : 1"
       inkscape:vp_z="744.09448 : 526.18109 : 1"
       inkscape:vp_y="0 : 1000 : 0"
       inkscape:vp_x="0 : 526.18109 : 1"
       sodipodi:type="inkscape:persp3d" />
    <inkscape:perspective
       id="perspective10-9-7"
       inkscape:persp3d-origin="372.04724 : 350.78739 : 1"
       inkscape:vp_z="744.09448 : 526.18109 : 1"
       inkscape:vp_y="0 : 1000 : 0"
       inkscape:vp_x="0 : 526.18109 : 1"
       sodipodi:type="inkscape:persp3d" />
    <inkscape:perspective
       id="perspective10-66"
       inkscape:persp3d-origin="372.04724 : 350.78739 : 1"
       inkscape:vp_z="744.09448 : 526.18109 : 1"
       inkscape:vp_y="0 : 1000 : 0"
       inkscape:vp_x="0 : 526.18109 : 1"
       sodipodi:type="inkscape:persp3d" />
    <inkscape:perspective
       id="perspective10-87"
       inkscape:persp3d-origin="372.04724 : 350.78739 : 1"
       inkscape:vp_z="744.09448 : 526.18109 : 1"
       inkscape:vp_y="0 : 1000 : 0"
       inkscape:vp_x="0 : 526.18109 : 1"
       sodipodi:type="inkscape:persp3d" />
  </defs>
  <sodipodi:namedview
     id="base"
     pagecolor="#ffffff"
     bordercolor="#666666"
     borderopacity="1.0"
     inkscape:pageopacity="0.0"
     inkscape:pageshadow="2"
     inkscape:zoom="1"
     inkscape:cx="-64"
     inkscape:cy="28.139785"
     inkscape:document-units="px"
     inkscape:current-layer="layer1"
     showgrid="false"
     inkscape:window-width="1024"
     inkscape:window-height="538"
     inkscape:window-x="0"
     inkscape:window-y="24"
     inkscape:window-maximized="1" />
  <metadata
     id="metadata7">
    <rdf:RDF>
      <cc:Work
         rdf:about="">
        <dc:format>image/svg+xml</dc:format>
        <dc:type
           rdf:resource="http://purl.org/dc/dcmitype/StillImage" />
        <dc:title>Aksara Dompu - Mbojo</dc:title>
        <dc:creator>
          <cc:Agent>
            <dc:title>Farhan Perdana (Black_Claw)</dc:title>
          </cc:Agent>
        </dc:creator>
        <dc:contributor>
          <cc:Agent>
            <dc:title>Farhan Perdana blackdramon@gmail.com</dc:title>
          </cc:Agent>
        </dc:contributor>
      </cc:Work>
    </rdf:RDF>
  </metadata>
  <g
     inkscape:label="Layer 1"
     inkscape:groupmode="layer"
     id="layer1"
     transform="translate(0,-952.36218)">
    <g
       id="layer1-0"
       inkscape:label="Layer 1"
       transform="translate(0.40607,0.471175)">
      <path
         d="m 4.2542107,1019.8273 c 5.8559493,-4.8257 12.5191263,-8.6157 19.3310993,-11.9181 2.859006,-1.2172 5.862482,-2.8817 9.060496,-2.9462 0.485944,-0.014 0.968238,0.086 1.452358,0.1302 2.934508,0.7577 4.901159,3.1302 7.058417,5.0837 1.845672,1.3747 3.25334,3.4458 5.343365,4.4847 0.411782,0.2047 0.860405,0.3249 1.290608,0.4873 0.957914,0.092 1.385776,0.224 2.329082,-0.037 1.942666,-0.5383 12.963562,-7.1012 -3.482202,2.2083 4.047886,-2.8273 8.313571,-5.101 12.680591,-7.5106 1.463266,-0.8073 2.72091,-1.1502 4.264726,-1.8043 0.729219,-0.309 1.439754,-0.6603 2.159632,-0.9904 2.700475,-1.0914 5.581841,-2.7985 8.620701,-2.3011 0.449022,0.073 0.873578,0.2549 1.310368,0.3825 2.859071,1.1884 4.991061,3.5538 7.187276,5.6568 2.772453,2.6651 5.000904,5.7953 7.328353,8.8347 1.89771,2.196 3.157721,4.8197 4.744573,7.2227 0,0 -8.317171,4.8253 -8.317171,4.8253 l 0,0 c -1.380723,-2.4879 -2.6998,-5.0268 -4.505261,-7.2453 -2.296026,-3.0211 -4.61,-6.019 -7.377265,-8.6351 -2.086969,-2.0134 -4.141875,-4.2691 -6.973033,-5.1938 -0.386755,-0.073 -0.767691,-0.1907 -1.160265,-0.2183 -2.896831,-0.2029 -5.578518,1.4746 -8.173934,2.4735 -0.719777,0.316 -1.437431,0.6371 -2.159331,0.9483 -0.763673,0.3292 -1.540307,0.6286 -2.29729,0.973 -0.67939,0.309 -2.639229,1.3879 -2.010174,0.9864 2.080099,-1.3283 4.247724,-2.5144 6.371588,-3.7715 -0.473523,0.3171 -0.948817,0.6316 -1.420565,0.9513 -0.46753,0.3169 -0.931483,0.6389 -1.397224,0.9583 -3.177609,1.8709 -6.340918,3.7661 -9.532828,5.6123 -1.93222,1.1176 -3.966353,1.7382 -6.150662,0.9888 -0.460832,-0.2108 -0.94016,-0.3851 -1.382498,-0.6324 -2.078566,-1.162 -3.576528,-3.1411 -5.409227,-4.6209 -2.023528,-1.8146 -3.893135,-4.0703 -6.724962,-4.5187 -3.622412,-0.014 -6.791228,1.5167 -10.009216,3.0358 -3.243337,1.6237 -5.310499,2.7223 3.542683,-2.2968 0.727356,-0.4123 -1.425007,0.8762 -2.117078,1.3454 -0.283068,0.1919 -2.950249,2.1495 -3.36486,2.4606 -0.382743,0.2872 -0.758725,0.5835 -1.138092,0.8752 0,0 -8.9727783,3.7167 -8.9727783,3.7167 z"
         id="path3001"
         style="fill:#000000" />
      <path
         d="m 25.627722,988.75101 c -1.402078,0.80126 -2.76104,1.68318 -4.206235,2.40377 -0.829343,0.41352 1.566428,-0.99076 2.353493,-1.47997 2.245493,-1.39574 4.464098,-2.83488 6.722835,-4.20908 4.020928,-2.44629 8.679985,-4.87744 12.660773,-7.04933 3.670202,-1.67607 7.359012,-3.33521 11.163134,-4.69036 1.967184,-0.70077 3.593434,-1.24394 5.66235,-1.49293 0.803961,-0.0968 1.618488,-0.0579 2.427733,-0.0869 0.805547,0.13292 1.628749,0.18477 2.416642,0.39878 3.039106,0.82548 5.715344,2.72451 8.172618,4.61201 1.075511,0.82613 2.152468,1.65632 3.149002,2.57618 1.125905,1.03927 2.138844,2.19461 3.208265,3.29192 3.238662,3.21187 6.254415,6.63055 8.94389,10.31619 0.807144,1.1061 1.552809,2.25578 2.329214,3.38368 0,0 -5.092351,2.98638 -5.092351,2.98638 l 0,0 c -0.742981,-1.1338 -1.445412,-2.29524 -2.228945,-3.40141 -2.623373,-3.70359 -5.671869,-7.06038 -8.877248,-10.26469 -1.095527,-1.05595 -2.139419,-2.16824 -3.286583,-3.16785 -3.023385,-2.63451 -7.502538,-5.77299 -11.492734,-6.68572 -0.771775,-0.17653 -1.57109,-0.19718 -2.356635,-0.29578 -0.767389,0.0385 -1.540461,0.0147 -2.302167,0.11553 -1.8702,0.24765 -3.641278,0.80883 -5.414579,1.43051 -3.745415,1.31307 -7.373674,2.93962 -10.967059,4.61621 0.361846,-0.29091 1.503297,-1.07531 1.085537,-0.87273 -2.080908,1.00906 -5.110504,3.06258 -7.074069,4.31501 -1.000258,0.63801 -2.014039,1.25476 -3.010496,1.89869 -0.712257,0.46026 -1.38837,0.97673 -2.115209,1.41361 -2.353496,1.4146 -4.748347,2.75924 -7.12252,4.13886 0,0 5.251344,-4.20058 5.251344,-4.20058 z"
         id="path3015"
         style="fill:#000000" />
    </g>
  </g>
</svg>
