<?xml version="1.0" encoding="UTF-8" standalone="no"?>
<!-- Created with Inkscape (http://www.inkscape.org/) -->

<svg
   xmlns:dc="http://purl.org/dc/elements/1.1/"
   xmlns:cc="http://creativecommons.org/ns#"
   xmlns:rdf="http://www.w3.org/1999/02/22-rdf-syntax-ns#"
   xmlns:svg="http://www.w3.org/2000/svg"
   xmlns="http://www.w3.org/2000/svg"
   xmlns:sodipodi="http://sodipodi.sourceforge.net/DTD/sodipodi-0.dtd"
   xmlns:inkscape="http://www.inkscape.org/namespaces/inkscape"
   width="100"
   height="100"
   id="svg2"
   version="1.1"
   inkscape:version="0.47 r22583"
   sodipodi:docname="b.svg">
  <title
     id="title2813">Aksara Dompu - Mbojo</title>
  <defs
     id="defs4">
    <inkscape:perspective
       sodipodi:type="inkscape:persp3d"
       inkscape:vp_x="0 : 526.18109 : 1"
       inkscape:vp_y="0 : 1000 : 0"
       inkscape:vp_z="744.09448 : 526.18109 : 1"
       inkscape:persp3d-origin="372.04724 : 350.78739 : 1"
       id="perspective10" />
    <inkscape:perspective
       id="perspective10-9"
       inkscape:persp3d-origin="372.04724 : 350.78739 : 1"
       inkscape:vp_z="744.09448 : 526.18109 : 1"
       inkscape:vp_y="0 : 1000 : 0"
       inkscape:vp_x="0 : 526.18109 : 1"
       sodipodi:type="inkscape:persp3d" />
    <inkscape:perspective
       id="perspective10-7"
       inkscape:persp3d-origin="372.04724 : 350.78739 : 1"
       inkscape:vp_z="744.09448 : 526.18109 : 1"
       inkscape:vp_y="0 : 1000 : 0"
       inkscape:vp_x="0 : 526.18109 : 1"
       sodipodi:type="inkscape:persp3d" />
    <inkscape:perspective
       id="perspective10-0"
       inkscape:persp3d-origin="372.04724 : 350.78739 : 1"
       inkscape:vp_z="744.09448 : 526.18109 : 1"
       inkscape:vp_y="0 : 1000 : 0"
       inkscape:vp_x="0 : 526.18109 : 1"
       sodipodi:type="inkscape:persp3d" />
    <inkscape:perspective
       id="perspective10-2"
       inkscape:persp3d-origin="372.04724 : 350.78739 : 1"
       inkscape:vp_z="744.09448 : 526.18109 : 1"
       inkscape:vp_y="0 : 1000 : 0"
       inkscape:vp_x="0 : 526.18109 : 1"
       sodipodi:type="inkscape:persp3d" />
    <inkscape:perspective
       id="perspective10-01"
       inkscape:persp3d-origin="372.04724 : 350.78739 : 1"
       inkscape:vp_z="744.09448 : 526.18109 : 1"
       inkscape:vp_y="0 : 1000 : 0"
       inkscape:vp_x="0 : 526.18109 : 1"
       sodipodi:type="inkscape:persp3d" />
    <inkscape:perspective
       id="perspective10-28"
       inkscape:persp3d-origin="372.04724 : 350.78739 : 1"
       inkscape:vp_z="744.09448 : 526.18109 : 1"
       inkscape:vp_y="0 : 1000 : 0"
       inkscape:vp_x="0 : 526.18109 : 1"
       sodipodi:type="inkscape:persp3d" />
    <inkscape:perspective
       id="perspective10-5"
       inkscape:persp3d-origin="372.04724 : 350.78739 : 1"
       inkscape:vp_z="744.09448 : 526.18109 : 1"
       inkscape:vp_y="0 : 1000 : 0"
       inkscape:vp_x="0 : 526.18109 : 1"
       sodipodi:type="inkscape:persp3d" />
    <inkscape:perspective
       id="perspective10-91"
       inkscape:persp3d-origin="372.04724 : 350.78739 : 1"
       inkscape:vp_z="744.09448 : 526.18109 : 1"
       inkscape:vp_y="0 : 1000 : 0"
       inkscape:vp_x="0 : 526.18109 : 1"
       sodipodi:type="inkscape:persp3d" />
    <inkscape:perspective
       id="perspective10-09"
       inkscape:persp3d-origin="372.04724 : 350.78739 : 1"
       inkscape:vp_z="744.09448 : 526.18109 : 1"
       inkscape:vp_y="0 : 1000 : 0"
       inkscape:vp_x="0 : 526.18109 : 1"
       sodipodi:type="inkscape:persp3d" />
    <inkscape:perspective
       id="perspective10-6"
       inkscape:persp3d-origin="372.04724 : 350.78739 : 1"
       inkscape:vp_z="744.09448 : 526.18109 : 1"
       inkscape:vp_y="0 : 1000 : 0"
       inkscape:vp_x="0 : 526.18109 : 1"
       sodipodi:type="inkscape:persp3d" />
    <inkscape:perspective
       sodipodi:type="inkscape:persp3d"
       inkscape:vp_x="0 : 526.18109 : 1"
       inkscape:vp_y="0 : 1000 : 0"
       inkscape:vp_z="744.09448 : 526.18109 : 1"
       inkscape:persp3d-origin="372.04724 : 350.78739 : 1"
       id="perspective10-97" />
    <inkscape:perspective
       id="perspective10-8"
       inkscape:persp3d-origin="372.04724 : 350.78739 : 1"
       inkscape:vp_z="744.09448 : 526.18109 : 1"
       inkscape:vp_y="0 : 1000 : 0"
       inkscape:vp_x="0 : 526.18109 : 1"
       sodipodi:type="inkscape:persp3d" />
    <inkscape:perspective
       id="perspective10-9-7"
       inkscape:persp3d-origin="372.04724 : 350.78739 : 1"
       inkscape:vp_z="744.09448 : 526.18109 : 1"
       inkscape:vp_y="0 : 1000 : 0"
       inkscape:vp_x="0 : 526.18109 : 1"
       sodipodi:type="inkscape:persp3d" />
    <inkscape:perspective
       id="perspective10-66"
       inkscape:persp3d-origin="372.04724 : 350.78739 : 1"
       inkscape:vp_z="744.09448 : 526.18109 : 1"
       inkscape:vp_y="0 : 1000 : 0"
       inkscape:vp_x="0 : 526.18109 : 1"
       sodipodi:type="inkscape:persp3d" />
    <inkscape:perspective
       id="perspective10-87"
       inkscape:persp3d-origin="372.04724 : 350.78739 : 1"
       inkscape:vp_z="744.09448 : 526.18109 : 1"
       inkscape:vp_y="0 : 1000 : 0"
       inkscape:vp_x="0 : 526.18109 : 1"
       sodipodi:type="inkscape:persp3d" />
    <inkscape:perspective
       id="perspective10-05"
       inkscape:persp3d-origin="372.04724 : 350.78739 : 1"
       inkscape:vp_z="744.09448 : 526.18109 : 1"
       inkscape:vp_y="0 : 1000 : 0"
       inkscape:vp_x="0 : 526.18109 : 1"
       sodipodi:type="inkscape:persp3d" />
  </defs>
  <sodipodi:namedview
     id="base"
     pagecolor="#ffffff"
     bordercolor="#666666"
     borderopacity="1.0"
     inkscape:pageopacity="0.0"
     inkscape:pageshadow="2"
     inkscape:zoom="1"
     inkscape:cx="-64"
     inkscape:cy="28.139785"
     inkscape:document-units="px"
     inkscape:current-layer="layer1"
     showgrid="false"
     inkscape:window-width="1024"
     inkscape:window-height="538"
     inkscape:window-x="0"
     inkscape:window-y="24"
     inkscape:window-maximized="1" />
  <metadata
     id="metadata7">
    <rdf:RDF>
      <cc:Work
         rdf:about="">
        <dc:format>image/svg+xml</dc:format>
        <dc:type
           rdf:resource="http://purl.org/dc/dcmitype/StillImage" />
        <dc:title>Aksara Dompu - Mbojo</dc:title>
        <dc:creator>
          <cc:Agent>
            <dc:title>Farhan Perdana (Black_Claw)</dc:title>
          </cc:Agent>
        </dc:creator>
        <dc:contributor>
          <cc:Agent>
            <dc:title>Farhan Perdana blackdramon@gmail.com</dc:title>
          </cc:Agent>
        </dc:contributor>
      </cc:Work>
    </rdf:RDF>
  </metadata>
  <g
     inkscape:label="Layer 1"
     inkscape:groupmode="layer"
     id="layer1"
     transform="translate(0,-952.36218)">
    <g
       id="layer1-2"
       inkscape:label="Layer 1"
       transform="translate(1.38366,4.343795)">
      <path
         d="m 57.802981,1000.8179 c 0.237855,2.8664 1.481402,5.393 2.724854,7.8114 1.588209,2.4791 3.043129,5.5737 5.494653,7.044 0.411977,0.2473 0.867284,0.3788 1.300922,0.5681 -1.666148,-0.3478 -3.405168,-0.3744 -4.998449,-1.0434 -0.633316,-0.2658 1.348976,-0.064 2.01011,-0.2108 0.734736,-0.1626 1.461428,-0.3966 2.159636,-0.7115 2.9079,-1.2932 5.321757,-3.3993 7.785778,-5.5606 4.619396,-4.4604 8.540495,-9.93069 11.468996,-16.05762 0.530615,-1.11003 0.980939,-2.27039 1.471412,-3.40565 1.327924,-3.96327 2.44902,-8.2341 1.323708,-12.45946 -0.137754,-0.5174 -0.349488,-1.00368 -0.524245,-1.50558 -1.316639,-2.68597 -3.708947,-3.87568 -6.076773,-4.90111 -0.526556,-0.18915 -1.042533,-0.42496 -1.579672,-0.56748 -0.634363,-0.16836 -2.556698,-0.5517 -1.92655,-0.36285 1.308347,0.39211 3.288827,-0.39645 3.965184,0.97382 0.5455,1.10513 -2.1742,0.23244 -3.240018,0.4953 -3.154621,0.7781 -5.600473,1.97495 -8.65472,3.26874 -10.120635,4.63627 -19.390245,11.38414 -28.080449,18.96977 -1.664845,1.45341 -3.272682,2.99443 -4.909056,4.49153 -6.410728,5.95629 -12.47001,12.43779 -17.943963,19.56909 -2.75777,3.5928 -3.489733,4.7701 -5.986428,8.434 -1.866489,3.1955 -5.5007455,8.3903 -5.1785672,12.6414 0.029421,0.3879 0.1750264,0.7517 0.2625575,1.1276 0.972751,2.0934 2.9650847,2.6975 4.8315187,3.0936 -1.55696,-0.3331 -3.180646,-0.3748 -4.6709161,-0.9995 -0.700239,-0.2936 1.4878861,0.012 2.2309801,-0.023 2.58679,-0.123 5.178698,-0.4926 7.658114,-1.407 0.828379,-0.306 1.622533,-0.727 2.433806,-1.0905 2.805337,-1.745 5.686722,-4.0276 6.789743,-7.7067 0.147942,-0.4933 0.211902,-1.016 0.317832,-1.5241 0.272849,-2.6459 -0.56313,-4.9243 -1.645445,-7.1633 -0.691367,-1.3216 -1.436641,-2.3655 -2.50238,-3.2772 0,0 6.698014,0.3967 6.698014,0.3967 l 0,0 c 0.983492,1.0383 1.82259,2.2084 2.464029,3.5767 1.104591,2.4227 1.862584,4.9341 1.486111,7.7304 -0.125406,0.551 -0.20846,1.1177 -0.376254,1.6529 -1.215054,3.8758 -4.209703,6.2788 -7.164794,8.1961 -0.817839,0.3922 -1.616818,0.8434 -2.453461,1.1765 -2.45796,0.979 -5.015047,1.3767 -7.590216,1.6033 -0.71379,0.063 -1.431753,0.2188 -2.144212,0.1386 -2.733001,-0.3115 -5.4414183,-0.8696 -8.1621405,-1.3046 -2.060783,-0.5927 -4.0544503,-1.4583 -4.8248726,-3.9992 -0.054219,-0.4467 -0.1666028,-0.8889 -0.1625481,-1.3402 0.040342,-4.5489 3.9197443,-9.4881 6.0113319,-12.9065 0.9631729,-1.3334 1.9042795,-2.6892 2.8895213,-4.0001 6.559907,-8.7293 13.798036,-16.7339 21.526593,-24.02699 1.671263,-1.49595 3.318639,-3.02938 5.013752,-4.48798 3.4236,-2.94608 7.607266,-6.29143 11.182672,-8.96338 1.903883,-1.4228 3.805553,-2.85496 5.773324,-4.15281 3.145091,-2.07436 7.439564,-4.34195 10.723393,-6.14028 2.97686,-1.39463 5.206139,-2.57386 8.263838,-3.53934 1.004216,-0.31662 2.01929,-0.76739 3.058448,-0.7212 3.787052,0.16831 8.381415,0.87368 12.189158,2.31419 2.479484,1.1627 4.886239,2.55499 6.051441,5.55548 0.153362,0.53911 0.34447,1.06538 0.460183,1.6173 0.9332,4.45064 -0.332248,8.79836 -1.806223,12.8763 -0.509112,1.15025 -0.979005,2.3257 -1.527279,3.45108 -2.961645,6.07893 -6.95803,11.74713 -11.468285,16.32193 -2.96354,2.74 -6.001146,5.5417 -9.708467,6.7299 -0.632081,0.2047 -1.274738,0.5271 -1.927927,0.4588 -2.641403,-0.2755 -5.236495,-0.9865 -7.854766,-1.4797 -0.424355,-0.2433 -0.871832,-0.4375 -1.273042,-0.7298 -2.369728,-1.7265 -3.794485,-4.7653 -5.371627,-7.347 -1.337002,-2.5675 -2.657547,-5.1923 -3.098251,-8.20239 0,0 6.809276,1.03139 6.809276,1.03139 z"
         id="path3074"
         style="fill:#000000" />
    </g>
  </g>
</svg>
