<?xml version="1.0" encoding="UTF-8" standalone="no"?>
<!-- Created with Inkscape (http://www.inkscape.org/) -->

<svg
   xmlns:dc="http://purl.org/dc/elements/1.1/"
   xmlns:cc="http://creativecommons.org/ns#"
   xmlns:rdf="http://www.w3.org/1999/02/22-rdf-syntax-ns#"
   xmlns:svg="http://www.w3.org/2000/svg"
   xmlns="http://www.w3.org/2000/svg"
   xmlns:sodipodi="http://sodipodi.sourceforge.net/DTD/sodipodi-0.dtd"
   xmlns:inkscape="http://www.inkscape.org/namespaces/inkscape"
   width="100"
   height="100"
   id="svg2"
   version="1.1"
   inkscape:version="0.47 r22583"
   sodipodi:docname="c.svg">
  <title
     id="title2813">Aksara Dompu - Mbojo</title>
  <defs
     id="defs4">
    <inkscape:perspective
       sodipodi:type="inkscape:persp3d"
       inkscape:vp_x="0 : 526.18109 : 1"
       inkscape:vp_y="0 : 1000 : 0"
       inkscape:vp_z="744.09448 : 526.18109 : 1"
       inkscape:persp3d-origin="372.04724 : 350.78739 : 1"
       id="perspective10" />
    <inkscape:perspective
       id="perspective10-9"
       inkscape:persp3d-origin="372.04724 : 350.78739 : 1"
       inkscape:vp_z="744.09448 : 526.18109 : 1"
       inkscape:vp_y="0 : 1000 : 0"
       inkscape:vp_x="0 : 526.18109 : 1"
       sodipodi:type="inkscape:persp3d" />
    <inkscape:perspective
       id="perspective10-7"
       inkscape:persp3d-origin="372.04724 : 350.78739 : 1"
       inkscape:vp_z="744.09448 : 526.18109 : 1"
       inkscape:vp_y="0 : 1000 : 0"
       inkscape:vp_x="0 : 526.18109 : 1"
       sodipodi:type="inkscape:persp3d" />
    <inkscape:perspective
       id="perspective10-0"
       inkscape:persp3d-origin="372.04724 : 350.78739 : 1"
       inkscape:vp_z="744.09448 : 526.18109 : 1"
       inkscape:vp_y="0 : 1000 : 0"
       inkscape:vp_x="0 : 526.18109 : 1"
       sodipodi:type="inkscape:persp3d" />
    <inkscape:perspective
       id="perspective10-2"
       inkscape:persp3d-origin="372.04724 : 350.78739 : 1"
       inkscape:vp_z="744.09448 : 526.18109 : 1"
       inkscape:vp_y="0 : 1000 : 0"
       inkscape:vp_x="0 : 526.18109 : 1"
       sodipodi:type="inkscape:persp3d" />
    <inkscape:perspective
       id="perspective10-01"
       inkscape:persp3d-origin="372.04724 : 350.78739 : 1"
       inkscape:vp_z="744.09448 : 526.18109 : 1"
       inkscape:vp_y="0 : 1000 : 0"
       inkscape:vp_x="0 : 526.18109 : 1"
       sodipodi:type="inkscape:persp3d" />
    <inkscape:perspective
       id="perspective10-28"
       inkscape:persp3d-origin="372.04724 : 350.78739 : 1"
       inkscape:vp_z="744.09448 : 526.18109 : 1"
       inkscape:vp_y="0 : 1000 : 0"
       inkscape:vp_x="0 : 526.18109 : 1"
       sodipodi:type="inkscape:persp3d" />
    <inkscape:perspective
       id="perspective10-5"
       inkscape:persp3d-origin="372.04724 : 350.78739 : 1"
       inkscape:vp_z="744.09448 : 526.18109 : 1"
       inkscape:vp_y="0 : 1000 : 0"
       inkscape:vp_x="0 : 526.18109 : 1"
       sodipodi:type="inkscape:persp3d" />
    <inkscape:perspective
       id="perspective10-91"
       inkscape:persp3d-origin="372.04724 : 350.78739 : 1"
       inkscape:vp_z="744.09448 : 526.18109 : 1"
       inkscape:vp_y="0 : 1000 : 0"
       inkscape:vp_x="0 : 526.18109 : 1"
       sodipodi:type="inkscape:persp3d" />
    <inkscape:perspective
       id="perspective10-09"
       inkscape:persp3d-origin="372.04724 : 350.78739 : 1"
       inkscape:vp_z="744.09448 : 526.18109 : 1"
       inkscape:vp_y="0 : 1000 : 0"
       inkscape:vp_x="0 : 526.18109 : 1"
       sodipodi:type="inkscape:persp3d" />
    <inkscape:perspective
       id="perspective10-6"
       inkscape:persp3d-origin="372.04724 : 350.78739 : 1"
       inkscape:vp_z="744.09448 : 526.18109 : 1"
       inkscape:vp_y="0 : 1000 : 0"
       inkscape:vp_x="0 : 526.18109 : 1"
       sodipodi:type="inkscape:persp3d" />
    <inkscape:perspective
       sodipodi:type="inkscape:persp3d"
       inkscape:vp_x="0 : 526.18109 : 1"
       inkscape:vp_y="0 : 1000 : 0"
       inkscape:vp_z="744.09448 : 526.18109 : 1"
       inkscape:persp3d-origin="372.04724 : 350.78739 : 1"
       id="perspective10-97" />
    <inkscape:perspective
       id="perspective10-8"
       inkscape:persp3d-origin="372.04724 : 350.78739 : 1"
       inkscape:vp_z="744.09448 : 526.18109 : 1"
       inkscape:vp_y="0 : 1000 : 0"
       inkscape:vp_x="0 : 526.18109 : 1"
       sodipodi:type="inkscape:persp3d" />
    <inkscape:perspective
       id="perspective10-9-7"
       inkscape:persp3d-origin="372.04724 : 350.78739 : 1"
       inkscape:vp_z="744.09448 : 526.18109 : 1"
       inkscape:vp_y="0 : 1000 : 0"
       inkscape:vp_x="0 : 526.18109 : 1"
       sodipodi:type="inkscape:persp3d" />
    <inkscape:perspective
       id="perspective10-66"
       inkscape:persp3d-origin="372.04724 : 350.78739 : 1"
       inkscape:vp_z="744.09448 : 526.18109 : 1"
       inkscape:vp_y="0 : 1000 : 0"
       inkscape:vp_x="0 : 526.18109 : 1"
       sodipodi:type="inkscape:persp3d" />
    <inkscape:perspective
       id="perspective10-87"
       inkscape:persp3d-origin="372.04724 : 350.78739 : 1"
       inkscape:vp_z="744.09448 : 526.18109 : 1"
       inkscape:vp_y="0 : 1000 : 0"
       inkscape:vp_x="0 : 526.18109 : 1"
       sodipodi:type="inkscape:persp3d" />
    <inkscape:perspective
       id="perspective10-05"
       inkscape:persp3d-origin="372.04724 : 350.78739 : 1"
       inkscape:vp_z="744.09448 : 526.18109 : 1"
       inkscape:vp_y="0 : 1000 : 0"
       inkscape:vp_x="0 : 526.18109 : 1"
       sodipodi:type="inkscape:persp3d" />
    <inkscape:perspective
       id="perspective10-64"
       inkscape:persp3d-origin="372.04724 : 350.78739 : 1"
       inkscape:vp_z="744.09448 : 526.18109 : 1"
       inkscape:vp_y="0 : 1000 : 0"
       inkscape:vp_x="0 : 526.18109 : 1"
       sodipodi:type="inkscape:persp3d" />
  </defs>
  <sodipodi:namedview
     id="base"
     pagecolor="#ffffff"
     bordercolor="#666666"
     borderopacity="1.0"
     inkscape:pageopacity="0.0"
     inkscape:pageshadow="2"
     inkscape:zoom="1"
     inkscape:cx="-64"
     inkscape:cy="28.139785"
     inkscape:document-units="px"
     inkscape:current-layer="layer1"
     showgrid="false"
     inkscape:window-width="1024"
     inkscape:window-height="538"
     inkscape:window-x="0"
     inkscape:window-y="24"
     inkscape:window-maximized="1" />
  <metadata
     id="metadata7">
    <rdf:RDF>
      <cc:Work
         rdf:about="">
        <dc:format>image/svg+xml</dc:format>
        <dc:type
           rdf:resource="http://purl.org/dc/dcmitype/StillImage" />
        <dc:title>Aksara Dompu - Mbojo</dc:title>
        <dc:creator>
          <cc:Agent>
            <dc:title>Farhan Perdana (Black_Claw)</dc:title>
          </cc:Agent>
        </dc:creator>
        <dc:contributor>
          <cc:Agent>
            <dc:title>Farhan Perdana blackdramon@gmail.com</dc:title>
          </cc:Agent>
        </dc:contributor>
      </cc:Work>
    </rdf:RDF>
  </metadata>
  <g
     inkscape:label="Layer 1"
     inkscape:groupmode="layer"
     id="layer1"
     transform="translate(0,-952.36218)">
    <g
       id="layer1-4"
       inkscape:label="Layer 1"
       transform="translate(-0.01073,2.023135)">
      <path
         d="m 9.6567781,1000.6994 c 4.5182129,1.0141 9.2303419,1.0725 13.7984409,0.4457 1.8587,-0.255 3.693575,-0.6926 5.540363,-1.039 5.458774,-1.55972 7.292446,-1.8535 12.616229,-4.36444 2.168414,-1.02272 4.245056,-2.27306 6.351026,-3.44708 0.05259,-0.029 -0.223478,0.0435 -0.1763,0 8.025274,-6.65604 2.5704,-1.59952 9.445853,-8.29715 2.34708,-2.67701 4.850705,-5.404 6.316732,-8.84308 0.09286,-0.21784 0.648814,-1.58362 0.319014,-2.10098 -0.07055,-0.11069 -0.24267,-0.021 -0.364004,-0.0316 -0.861083,0.27272 -1.730644,0.69089 -2.521959,1.16122 -0.347425,0.2065 -1.346136,0.91051 -1.00162,0.69802 6.651406,-4.10227 8.489575,-5.96152 5.571046,-3.19602 -1.534214,2.01182 -2.403496,4.8119 -1.893885,7.46398 0.08234,0.42854 0.257132,0.82827 0.385698,1.24242 0.240723,0.31125 0.408707,0.71767 0.722167,0.93377 0.622392,0.4291 2.602734,0.74991 3.170542,0.79153 3.340242,0.24487 5.927188,-0.68741 9.104131,-1.7365 7.228974,-2.81553 14.000191,-6.84513 20.855226,-10.60254 0,0 -5.948995,5.30138 -5.948995,5.30138 l 0,0 c -7.037153,3.84729 -13.978328,7.99999 -21.396862,10.88551 -1.328227,0.43156 -2.634796,0.95701 -3.984683,1.2947 -2.576942,0.64465 -7.114201,1.09592 -9.43181,-0.83062 -0.377832,-0.31408 -0.582573,-0.82641 -0.873859,-1.23961 -0.151369,-0.48511 -0.35323,-0.95414 -0.454108,-1.45532 -0.569897,-2.83135 0.164676,-5.88871 1.521079,-8.28605 3.256495,-3.68769 0.758757,-1.03474 9.587645,-6.81766 1.28671,-0.8428 2.735238,-1.57513 4.22274,-1.04212 0.234353,0.26321 0.561534,0.45386 0.703058,0.78958 0.696795,1.65293 -1.069021,4.22655 -1.776493,5.32066 -2.034736,3.14673 -3.07806,4.10234 -5.627502,7.03461 -1.454814,1.41171 -2.851902,2.9011 -4.364444,4.23515 -5.886997,5.19226 -10.870424,8.20292 -17.905069,12.47857 -6.067742,3.68797 -12.634891,6.20697 -19.367609,7.86007 -1.920738,0.3744 -3.829677,0.8345 -5.762216,1.1237 -4.907037,0.7346 -10.0151769,0.8486 -14.9103603,-0.034 0,0 7.5307884,-5.7011 7.5307884,-5.7011 z"
         id="path3125"
         style="fill:#000000" />
      <path
         d="m 18.479371,969.90776 c 2.008811,0.43235 4.202282,1.15619 6.017781,2.20795 1.301436,0.75397 2.506371,1.7 3.739443,2.58554 5.397529,3.87625 3.626425,2.5392 8.807292,7.57532 6.378433,7.17766 11.863818,15.36737 15.818029,24.48643 2.138409,4.9315 2.592763,6.927 4.126067,11.994 1.849987,6.2689 2.6135,12.7875 3.350971,19.2996 0.990186,3.5376 0.561848,1.4736 -7.884823,4.57 -0.407629,0.1494 0.33528,-0.8833 0.459589,-1.3416 0.252647,-0.9312 0.448453,-1.8805 0.669875,-2.8217 1.373159,-5.8363 0.524027,-2.7141 2.354896,-8.6575 1.54828,-4.8419 3.342868,-9.5806 4.938909,-14.4022 1.298809,-3.9236 2.537971,-7.8438 3.945608,-11.7221 0.448308,-0.89 0.844159,-1.8157 1.344927,-2.6701 0.531721,-0.9074 1.903568,-2.84237 2.80745,-3.47591 0.464893,-0.32592 6.923669,-6.02742 10.350358,-6.03032 0.436881,-4.5e-4 0.860719,0.16781 1.291079,0.25172 0.377547,0.21523 0.793189,0.3624 1.132643,0.64581 1.895183,1.58261 2.691634,4.42483 3.051836,6.89817 -0.02955,0.43292 -0.0088,0.87383 -0.08865,1.29883 -0.100835,0.5363 -0.510718,1.6769 -0.975199,2.004 -8.031988,5.6547 -5.214392,5.7073 -9.270283,5.3596 0,0 7.251928,-5.9795 7.251928,-5.9795 l 0,0 c 3.258911,-1.0387 1.273663,-0.4779 -6.275775,4.4523 -0.274051,0.179 0.814702,-0.3276 1.241008,-1.4365 0.130433,-0.3393 0.1508,-0.719 0.226199,-1.0785 -0.142631,-2.1259 -0.823032,-4.81817 -2.596116,-6.00625 -0.293123,-0.19637 -0.641973,-0.26287 -0.96296,-0.39431 -0.361653,-0.0112 -0.727431,-0.0826 -1.08496,-0.0212 -1.918328,0.32815 -10.081726,5.30536 4.795127,-3.61757 0.576943,-0.346 -1.072644,0.84766 -1.54843,1.34998 -1.588853,1.67746 -1.84401,2.42291 -3.067152,4.53775 -1.091924,2.7407 -1.808922,4.4542 -2.792469,7.3086 -0.518076,1.5034 -0.966724,3.0357 -1.472633,4.5443 -1.602907,4.78 -3.402938,9.4771 -4.853981,14.3201 -0.441299,1.4398 -0.967562,2.8506 -1.323898,4.3193 -0.454476,1.8734 -0.792931,4.7185 -1.06175,6.7458 -0.0616,0.4645 0.166224,1.1352 -0.185255,1.3935 -2.615186,1.922 -5.470619,3.4199 -8.323777,4.8601 -0.175774,0.089 -0.01784,-0.4302 -0.02677,-0.6452 0.197479,-6.6316 -0.85745,-13.2397 -2.279277,-19.6529 -1.407183,-5.1318 -1.760444,-7.0129 -3.83048,-12.0058 -3.782099,-9.1221 -9.189136,-17.2911 -15.773691,-24.13287 -1.552425,-1.39378 -3.033323,-2.89304 -4.657276,-4.18137 -1.405788,-1.11525 -2.911262,-2.06855 -4.413368,-3.01465 -3.07627,-1.93758 -6.601803,-3.92001 -10.248842,-3.6145 0,0 7.2768,-6.10637 7.2768,-6.10637 z"
         id="path3215"
         style="fill:#000000" />
    </g>
  </g>
</svg>
