<?xml version="1.0" encoding="UTF-8" standalone="no"?>
<!-- Created with Inkscape (http://www.inkscape.org/) -->

<svg
   xmlns:dc="http://purl.org/dc/elements/1.1/"
   xmlns:cc="http://creativecommons.org/ns#"
   xmlns:rdf="http://www.w3.org/1999/02/22-rdf-syntax-ns#"
   xmlns:svg="http://www.w3.org/2000/svg"
   xmlns="http://www.w3.org/2000/svg"
   xmlns:sodipodi="http://sodipodi.sourceforge.net/DTD/sodipodi-0.dtd"
   xmlns:inkscape="http://www.inkscape.org/namespaces/inkscape"
   width="100"
   height="100"
   id="svg2"
   version="1.1"
   inkscape:version="0.47 r22583"
   sodipodi:docname="d.svg">
  <title
     id="title2813">Aksara Dompu - Mbojo</title>
  <defs
     id="defs4">
    <inkscape:perspective
       sodipodi:type="inkscape:persp3d"
       inkscape:vp_x="0 : 526.18109 : 1"
       inkscape:vp_y="0 : 1000 : 0"
       inkscape:vp_z="744.09448 : 526.18109 : 1"
       inkscape:persp3d-origin="372.04724 : 350.78739 : 1"
       id="perspective10" />
    <inkscape:perspective
       id="perspective10-9"
       inkscape:persp3d-origin="372.04724 : 350.78739 : 1"
       inkscape:vp_z="744.09448 : 526.18109 : 1"
       inkscape:vp_y="0 : 1000 : 0"
       inkscape:vp_x="0 : 526.18109 : 1"
       sodipodi:type="inkscape:persp3d" />
    <inkscape:perspective
       id="perspective10-7"
       inkscape:persp3d-origin="372.04724 : 350.78739 : 1"
       inkscape:vp_z="744.09448 : 526.18109 : 1"
       inkscape:vp_y="0 : 1000 : 0"
       inkscape:vp_x="0 : 526.18109 : 1"
       sodipodi:type="inkscape:persp3d" />
    <inkscape:perspective
       id="perspective10-0"
       inkscape:persp3d-origin="372.04724 : 350.78739 : 1"
       inkscape:vp_z="744.09448 : 526.18109 : 1"
       inkscape:vp_y="0 : 1000 : 0"
       inkscape:vp_x="0 : 526.18109 : 1"
       sodipodi:type="inkscape:persp3d" />
    <inkscape:perspective
       id="perspective10-2"
       inkscape:persp3d-origin="372.04724 : 350.78739 : 1"
       inkscape:vp_z="744.09448 : 526.18109 : 1"
       inkscape:vp_y="0 : 1000 : 0"
       inkscape:vp_x="0 : 526.18109 : 1"
       sodipodi:type="inkscape:persp3d" />
    <inkscape:perspective
       id="perspective10-01"
       inkscape:persp3d-origin="372.04724 : 350.78739 : 1"
       inkscape:vp_z="744.09448 : 526.18109 : 1"
       inkscape:vp_y="0 : 1000 : 0"
       inkscape:vp_x="0 : 526.18109 : 1"
       sodipodi:type="inkscape:persp3d" />
    <inkscape:perspective
       id="perspective10-28"
       inkscape:persp3d-origin="372.04724 : 350.78739 : 1"
       inkscape:vp_z="744.09448 : 526.18109 : 1"
       inkscape:vp_y="0 : 1000 : 0"
       inkscape:vp_x="0 : 526.18109 : 1"
       sodipodi:type="inkscape:persp3d" />
    <inkscape:perspective
       id="perspective10-5"
       inkscape:persp3d-origin="372.04724 : 350.78739 : 1"
       inkscape:vp_z="744.09448 : 526.18109 : 1"
       inkscape:vp_y="0 : 1000 : 0"
       inkscape:vp_x="0 : 526.18109 : 1"
       sodipodi:type="inkscape:persp3d" />
    <inkscape:perspective
       id="perspective10-91"
       inkscape:persp3d-origin="372.04724 : 350.78739 : 1"
       inkscape:vp_z="744.09448 : 526.18109 : 1"
       inkscape:vp_y="0 : 1000 : 0"
       inkscape:vp_x="0 : 526.18109 : 1"
       sodipodi:type="inkscape:persp3d" />
    <inkscape:perspective
       id="perspective10-09"
       inkscape:persp3d-origin="372.04724 : 350.78739 : 1"
       inkscape:vp_z="744.09448 : 526.18109 : 1"
       inkscape:vp_y="0 : 1000 : 0"
       inkscape:vp_x="0 : 526.18109 : 1"
       sodipodi:type="inkscape:persp3d" />
    <inkscape:perspective
       id="perspective10-6"
       inkscape:persp3d-origin="372.04724 : 350.78739 : 1"
       inkscape:vp_z="744.09448 : 526.18109 : 1"
       inkscape:vp_y="0 : 1000 : 0"
       inkscape:vp_x="0 : 526.18109 : 1"
       sodipodi:type="inkscape:persp3d" />
    <inkscape:perspective
       sodipodi:type="inkscape:persp3d"
       inkscape:vp_x="0 : 526.18109 : 1"
       inkscape:vp_y="0 : 1000 : 0"
       inkscape:vp_z="744.09448 : 526.18109 : 1"
       inkscape:persp3d-origin="372.04724 : 350.78739 : 1"
       id="perspective10-97" />
    <inkscape:perspective
       id="perspective10-8"
       inkscape:persp3d-origin="372.04724 : 350.78739 : 1"
       inkscape:vp_z="744.09448 : 526.18109 : 1"
       inkscape:vp_y="0 : 1000 : 0"
       inkscape:vp_x="0 : 526.18109 : 1"
       sodipodi:type="inkscape:persp3d" />
    <inkscape:perspective
       id="perspective10-9-7"
       inkscape:persp3d-origin="372.04724 : 350.78739 : 1"
       inkscape:vp_z="744.09448 : 526.18109 : 1"
       inkscape:vp_y="0 : 1000 : 0"
       inkscape:vp_x="0 : 526.18109 : 1"
       sodipodi:type="inkscape:persp3d" />
    <inkscape:perspective
       id="perspective10-66"
       inkscape:persp3d-origin="372.04724 : 350.78739 : 1"
       inkscape:vp_z="744.09448 : 526.18109 : 1"
       inkscape:vp_y="0 : 1000 : 0"
       inkscape:vp_x="0 : 526.18109 : 1"
       sodipodi:type="inkscape:persp3d" />
    <inkscape:perspective
       id="perspective10-87"
       inkscape:persp3d-origin="372.04724 : 350.78739 : 1"
       inkscape:vp_z="744.09448 : 526.18109 : 1"
       inkscape:vp_y="0 : 1000 : 0"
       inkscape:vp_x="0 : 526.18109 : 1"
       sodipodi:type="inkscape:persp3d" />
    <inkscape:perspective
       id="perspective10-05"
       inkscape:persp3d-origin="372.04724 : 350.78739 : 1"
       inkscape:vp_z="744.09448 : 526.18109 : 1"
       inkscape:vp_y="0 : 1000 : 0"
       inkscape:vp_x="0 : 526.18109 : 1"
       sodipodi:type="inkscape:persp3d" />
    <inkscape:perspective
       id="perspective10-64"
       inkscape:persp3d-origin="372.04724 : 350.78739 : 1"
       inkscape:vp_z="744.09448 : 526.18109 : 1"
       inkscape:vp_y="0 : 1000 : 0"
       inkscape:vp_x="0 : 526.18109 : 1"
       sodipodi:type="inkscape:persp3d" />
    <inkscape:perspective
       id="perspective10-96"
       inkscape:persp3d-origin="372.04724 : 350.78739 : 1"
       inkscape:vp_z="744.09448 : 526.18109 : 1"
       inkscape:vp_y="0 : 1000 : 0"
       inkscape:vp_x="0 : 526.18109 : 1"
       sodipodi:type="inkscape:persp3d" />
  </defs>
  <sodipodi:namedview
     id="base"
     pagecolor="#ffffff"
     bordercolor="#666666"
     borderopacity="1.0"
     inkscape:pageopacity="0.0"
     inkscape:pageshadow="2"
     inkscape:zoom="1"
     inkscape:cx="-64"
     inkscape:cy="28.139785"
     inkscape:document-units="px"
     inkscape:current-layer="layer1"
     showgrid="false"
     inkscape:window-width="1024"
     inkscape:window-height="538"
     inkscape:window-x="0"
     inkscape:window-y="24"
     inkscape:window-maximized="1" />
  <metadata
     id="metadata7">
    <rdf:RDF>
      <cc:Work
         rdf:about="">
        <dc:format>image/svg+xml</dc:format>
        <dc:type
           rdf:resource="http://purl.org/dc/dcmitype/StillImage" />
        <dc:title>Aksara Dompu - Mbojo</dc:title>
        <dc:creator>
          <cc:Agent>
            <dc:title>Farhan Perdana (Black_Claw)</dc:title>
          </cc:Agent>
        </dc:creator>
        <dc:contributor>
          <cc:Agent>
            <dc:title>Farhan Perdana blackdramon@gmail.com</dc:title>
          </cc:Agent>
        </dc:contributor>
      </cc:Work>
    </rdf:RDF>
  </metadata>
  <g
     inkscape:label="Layer 1"
     inkscape:groupmode="layer"
     id="layer1"
     transform="translate(0,-952.36218)">
    <g
       id="layer1-1"
       inkscape:label="Layer 1"
       transform="translate(0.06129,0.866641)">
      <path
         d="m 14.893314,963.35951 c 7.834365,4.75363 15.255103,10.21853 21.930169,16.51268 1.983883,1.87069 3.834147,3.87818 5.751221,5.81726 3.657541,4.50039 7.051755,8.34612 10.054161,13.33078 2.290228,3.80217 5.120986,10.06347 6.678448,14.28047 2.026342,5.4865 2.233096,7.158 3.49542,12.678 0.652947,4.3946 1.230018,8.8652 0.830689,13.3171 -0.13434,1.4977 -0.409145,3.0019 -1.058746,4.3712 -0.18445,0.3888 -0.479087,0.715 -0.718633,1.0724 -2.608066,1.3655 -5.041556,3.1356 -7.8242,4.0965 -0.545413,0.1885 -1.083707,-0.4707 -1.491017,-0.8794 -0.699449,-0.7019 -1.240666,-1.5509 -1.767362,-2.3902 -2.938225,-4.6821 -4.093702,-9.3309 -5.619635,-14.5805 -0.299497,-2.1589 -0.762493,-4.3013 -0.89849,-6.4766 -0.143172,-2.29 -0.05275,-4.5916 0.06324,-6.8832 0.29758,-5.8789 1.216723,-11.8101 2.87585,-17.4633 0.414767,-1.41331 0.95842,-2.78542 1.437631,-4.17818 0.543233,-1.20513 1.038423,-2.43314 1.629695,-3.61538 1.88226,-3.76382 4.543308,-8.11134 7.275676,-11.32143 0.720311,-0.84625 1.502292,-1.638 2.253438,-2.45701 2.071187,-2.02546 4.21608,-3.96721 6.41078,-5.85651 0,0 6.998623,-2.82788 6.998623,-2.82788 l 0,0 c -2.279377,1.86812 -4.480933,3.81741 -6.624317,5.84168 -1.515974,1.63483 -2.827384,2.96163 -4.167547,4.74075 -2.911684,3.86538 -5.287491,8.16583 -7.37844,12.51365 -0.542867,1.4009 -1.149855,2.77868 -1.628599,4.20271 -2.497138,7.4281 -3.91112,16.4276 -3.356583,24.2485 0.15098,2.1294 0.638293,4.2215 0.95744,6.3322 1.612316,5.1103 2.846422,9.6157 6.180063,13.9294 0.547179,0.708 1.143076,1.4012 1.862711,1.9331 0.371898,0.2749 1.658822,0.1039 1.322031,0.4206 -1.665774,1.5673 -3.832945,2.4968 -5.749417,3.7452 0.317341,-0.3096 0.701231,-0.563 0.952025,-0.9286 0.855506,-1.2469 1.287784,-2.8712 1.534791,-4.3215 0.759055,-4.4568 0.388172,-9.0017 -0.138751,-13.4568 -1.117067,-5.801 -1.139024,-6.9568 -3.133307,-12.7458 -1.66928,-4.8456 -3.842802,-9.8407 -6.468482,-14.2443 -3.346105,-5.61204 -5.829264,-8.20225 -10.000975,-13.23302 -1.939022,-1.90788 -3.810576,-3.88685 -5.817063,-5.72365 -6.294309,-5.76201 -13.337023,-10.86034 -21.102358,-14.457 -0.7118946,-0.32973 -1.4681423,-0.55373 -2.2022134,-0.83059 0,0 6.6520314,-4.51333 6.6520314,-4.51333 z"
         id="path3284"
         style="fill:#000000" />
      <path
         d="m 76.148337,960.89803 c -1.427337,1.12216 -3.67593,2.90657 3.170259,-2.84922 0.381218,-0.3205 -0.727736,0.68162 -1.064102,1.04893 -1.560677,1.70423 -2.407261,3.2636 -3.470691,5.29989 -0.772161,2.0327 -1.318463,3.16576 -1.666091,5.34746 -0.590054,3.7031 -0.389519,7.61415 0.247457,11.29317 0.2542,1.46817 0.643555,2.90955 0.965287,4.36443 1.858536,7.57928 4.843587,14.79851 7.560309,22.09191 1.055002,3.23 2.289004,6.428 2.941235,9.7736 0.24973,1.2811 0.424461,2.7761 0.593204,4.074 0.114069,1.7258 0.536326,3.7161 -0.279501,5.3547 -0.117232,0.2357 -0.254701,0.4758 -0.457946,0.6429 -1.754886,1.4426 -3.595288,2.778 -5.392941,4.167 -0.347133,-0.1244 -0.715138,-0.2012 -1.041406,-0.3729 -2.776701,-1.4615 -4.380986,-4.4018 -5.904841,-6.991 -0.659167,-1.3112 -1.482665,-2.8329 -1.947787,-4.2315 -0.868856,-2.6124 -1.156687,-5.5191 -0.685975,-8.2433 0.201855,-1.1679 0.608824,-2.291 0.913249,-3.4364 1.493883,-4.4117 3.451013,-8.68468 6.162564,-12.48757 1.366961,-1.91708 1.830206,-2.33543 3.347777,-4.00434 0,0 4.81498,-3.14574 4.81498,-3.14574 l 0,0 c -1.627831,1.69181 -2.093768,2.07923 -3.558527,4.03649 -2.796227,3.73657 -4.832024,7.96666 -6.325034,12.37656 -0.290789,1.0913 -0.678708,2.1613 -0.872369,3.2738 -0.768129,4.413 0.467908,8.2704 2.560811,12.0897 1.361518,2.2572 3.173011,5.4638 5.824565,6.4318 0.270903,0.099 0.571282,0.08 0.856937,0.1193 -1.307376,1.2651 -2.633116,2.5115 -3.922119,3.7952 -0.185239,0.1846 0.444381,-0.2912 0.6084,-0.4949 1.149019,-1.426 0.732286,-3.6043 0.683832,-5.2545 -0.155078,-1.4243 -0.26749,-2.652 -0.511316,-4.0696 -0.578807,-3.365 -1.686101,-6.6108 -2.722889,-9.8539 -2.555413,-7.4156 -5.321574,-14.76929 -7.324797,-22.36226 -0.360845,-1.44634 -0.793269,-2.87663 -1.082426,-4.33907 -0.527464,-2.66739 -0.717733,-5.09593 -0.73089,-7.80462 -0.0055,-1.15627 -0.01109,-2.31844 0.125917,-3.46659 0.235957,-1.97682 0.864077,-3.52651 1.494023,-5.38679 0.3438,-0.72387 0.652209,-1.46562 1.0314,-2.17158 2.082144,-3.87642 5.66105,-6.81264 9.111728,-9.39105 0,0 -4.052313,4.776 -4.052313,4.776 z"
         id="path3340"
         style="fill:#000000" />
    </g>
  </g>
</svg>
