<?xml version="1.0" encoding="UTF-8" standalone="no"?>
<!-- Created with Inkscape (http://www.inkscape.org/) -->

<svg
   xmlns:dc="http://purl.org/dc/elements/1.1/"
   xmlns:cc="http://creativecommons.org/ns#"
   xmlns:rdf="http://www.w3.org/1999/02/22-rdf-syntax-ns#"
   xmlns:svg="http://www.w3.org/2000/svg"
   xmlns="http://www.w3.org/2000/svg"
   xmlns:sodipodi="http://sodipodi.sourceforge.net/DTD/sodipodi-0.dtd"
   xmlns:inkscape="http://www.inkscape.org/namespaces/inkscape"
   width="100"
   height="100"
   id="svg2"
   version="1.1"
   inkscape:version="0.47 r22583"
   sodipodi:docname="f.svg">
  <title
     id="title2813">Aksara Dompu - Mbojo</title>
  <defs
     id="defs4">
    <inkscape:perspective
       sodipodi:type="inkscape:persp3d"
       inkscape:vp_x="0 : 526.18109 : 1"
       inkscape:vp_y="0 : 1000 : 0"
       inkscape:vp_z="744.09448 : 526.18109 : 1"
       inkscape:persp3d-origin="372.04724 : 350.78739 : 1"
       id="perspective10" />
    <inkscape:perspective
       id="perspective10-9"
       inkscape:persp3d-origin="372.04724 : 350.78739 : 1"
       inkscape:vp_z="744.09448 : 526.18109 : 1"
       inkscape:vp_y="0 : 1000 : 0"
       inkscape:vp_x="0 : 526.18109 : 1"
       sodipodi:type="inkscape:persp3d" />
    <inkscape:perspective
       id="perspective10-7"
       inkscape:persp3d-origin="372.04724 : 350.78739 : 1"
       inkscape:vp_z="744.09448 : 526.18109 : 1"
       inkscape:vp_y="0 : 1000 : 0"
       inkscape:vp_x="0 : 526.18109 : 1"
       sodipodi:type="inkscape:persp3d" />
    <inkscape:perspective
       id="perspective10-0"
       inkscape:persp3d-origin="372.04724 : 350.78739 : 1"
       inkscape:vp_z="744.09448 : 526.18109 : 1"
       inkscape:vp_y="0 : 1000 : 0"
       inkscape:vp_x="0 : 526.18109 : 1"
       sodipodi:type="inkscape:persp3d" />
    <inkscape:perspective
       id="perspective10-2"
       inkscape:persp3d-origin="372.04724 : 350.78739 : 1"
       inkscape:vp_z="744.09448 : 526.18109 : 1"
       inkscape:vp_y="0 : 1000 : 0"
       inkscape:vp_x="0 : 526.18109 : 1"
       sodipodi:type="inkscape:persp3d" />
    <inkscape:perspective
       id="perspective10-01"
       inkscape:persp3d-origin="372.04724 : 350.78739 : 1"
       inkscape:vp_z="744.09448 : 526.18109 : 1"
       inkscape:vp_y="0 : 1000 : 0"
       inkscape:vp_x="0 : 526.18109 : 1"
       sodipodi:type="inkscape:persp3d" />
    <inkscape:perspective
       id="perspective10-28"
       inkscape:persp3d-origin="372.04724 : 350.78739 : 1"
       inkscape:vp_z="744.09448 : 526.18109 : 1"
       inkscape:vp_y="0 : 1000 : 0"
       inkscape:vp_x="0 : 526.18109 : 1"
       sodipodi:type="inkscape:persp3d" />
    <inkscape:perspective
       id="perspective10-5"
       inkscape:persp3d-origin="372.04724 : 350.78739 : 1"
       inkscape:vp_z="744.09448 : 526.18109 : 1"
       inkscape:vp_y="0 : 1000 : 0"
       inkscape:vp_x="0 : 526.18109 : 1"
       sodipodi:type="inkscape:persp3d" />
    <inkscape:perspective
       id="perspective10-91"
       inkscape:persp3d-origin="372.04724 : 350.78739 : 1"
       inkscape:vp_z="744.09448 : 526.18109 : 1"
       inkscape:vp_y="0 : 1000 : 0"
       inkscape:vp_x="0 : 526.18109 : 1"
       sodipodi:type="inkscape:persp3d" />
    <inkscape:perspective
       id="perspective10-09"
       inkscape:persp3d-origin="372.04724 : 350.78739 : 1"
       inkscape:vp_z="744.09448 : 526.18109 : 1"
       inkscape:vp_y="0 : 1000 : 0"
       inkscape:vp_x="0 : 526.18109 : 1"
       sodipodi:type="inkscape:persp3d" />
    <inkscape:perspective
       id="perspective10-6"
       inkscape:persp3d-origin="372.04724 : 350.78739 : 1"
       inkscape:vp_z="744.09448 : 526.18109 : 1"
       inkscape:vp_y="0 : 1000 : 0"
       inkscape:vp_x="0 : 526.18109 : 1"
       sodipodi:type="inkscape:persp3d" />
    <inkscape:perspective
       sodipodi:type="inkscape:persp3d"
       inkscape:vp_x="0 : 526.18109 : 1"
       inkscape:vp_y="0 : 1000 : 0"
       inkscape:vp_z="744.09448 : 526.18109 : 1"
       inkscape:persp3d-origin="372.04724 : 350.78739 : 1"
       id="perspective10-97" />
    <inkscape:perspective
       id="perspective10-8"
       inkscape:persp3d-origin="372.04724 : 350.78739 : 1"
       inkscape:vp_z="744.09448 : 526.18109 : 1"
       inkscape:vp_y="0 : 1000 : 0"
       inkscape:vp_x="0 : 526.18109 : 1"
       sodipodi:type="inkscape:persp3d" />
    <inkscape:perspective
       id="perspective10-9-7"
       inkscape:persp3d-origin="372.04724 : 350.78739 : 1"
       inkscape:vp_z="744.09448 : 526.18109 : 1"
       inkscape:vp_y="0 : 1000 : 0"
       inkscape:vp_x="0 : 526.18109 : 1"
       sodipodi:type="inkscape:persp3d" />
    <inkscape:perspective
       id="perspective10-66"
       inkscape:persp3d-origin="372.04724 : 350.78739 : 1"
       inkscape:vp_z="744.09448 : 526.18109 : 1"
       inkscape:vp_y="0 : 1000 : 0"
       inkscape:vp_x="0 : 526.18109 : 1"
       sodipodi:type="inkscape:persp3d" />
    <inkscape:perspective
       id="perspective10-87"
       inkscape:persp3d-origin="372.04724 : 350.78739 : 1"
       inkscape:vp_z="744.09448 : 526.18109 : 1"
       inkscape:vp_y="0 : 1000 : 0"
       inkscape:vp_x="0 : 526.18109 : 1"
       sodipodi:type="inkscape:persp3d" />
    <inkscape:perspective
       id="perspective10-05"
       inkscape:persp3d-origin="372.04724 : 350.78739 : 1"
       inkscape:vp_z="744.09448 : 526.18109 : 1"
       inkscape:vp_y="0 : 1000 : 0"
       inkscape:vp_x="0 : 526.18109 : 1"
       sodipodi:type="inkscape:persp3d" />
    <inkscape:perspective
       id="perspective10-64"
       inkscape:persp3d-origin="372.04724 : 350.78739 : 1"
       inkscape:vp_z="744.09448 : 526.18109 : 1"
       inkscape:vp_y="0 : 1000 : 0"
       inkscape:vp_x="0 : 526.18109 : 1"
       sodipodi:type="inkscape:persp3d" />
    <inkscape:perspective
       id="perspective10-96"
       inkscape:persp3d-origin="372.04724 : 350.78739 : 1"
       inkscape:vp_z="744.09448 : 526.18109 : 1"
       inkscape:vp_y="0 : 1000 : 0"
       inkscape:vp_x="0 : 526.18109 : 1"
       sodipodi:type="inkscape:persp3d" />
    <inkscape:perspective
       id="perspective10-22"
       inkscape:persp3d-origin="372.04724 : 350.78739 : 1"
       inkscape:vp_z="744.09448 : 526.18109 : 1"
       inkscape:vp_y="0 : 1000 : 0"
       inkscape:vp_x="0 : 526.18109 : 1"
       sodipodi:type="inkscape:persp3d" />
  </defs>
  <sodipodi:namedview
     id="base"
     pagecolor="#ffffff"
     bordercolor="#666666"
     borderopacity="1.0"
     inkscape:pageopacity="0.0"
     inkscape:pageshadow="2"
     inkscape:zoom="1"
     inkscape:cx="-64"
     inkscape:cy="28.139785"
     inkscape:document-units="px"
     inkscape:current-layer="layer1"
     showgrid="false"
     inkscape:window-width="1024"
     inkscape:window-height="538"
     inkscape:window-x="0"
     inkscape:window-y="24"
     inkscape:window-maximized="1" />
  <metadata
     id="metadata7">
    <rdf:RDF>
      <cc:Work
         rdf:about="">
        <dc:format>image/svg+xml</dc:format>
        <dc:type
           rdf:resource="http://purl.org/dc/dcmitype/StillImage" />
        <dc:title>Aksara Dompu - Mbojo</dc:title>
        <dc:creator>
          <cc:Agent>
            <dc:title>Farhan Perdana (Black_Claw)</dc:title>
          </cc:Agent>
        </dc:creator>
        <dc:contributor>
          <cc:Agent>
            <dc:title>Farhan Perdana blackdramon@gmail.com</dc:title>
          </cc:Agent>
        </dc:contributor>
      </cc:Work>
    </rdf:RDF>
  </metadata>
  <g
     inkscape:label="Layer 1"
     inkscape:groupmode="layer"
     id="layer1"
     transform="translate(0,-952.36218)">
    <g
       id="layer1-6"
       inkscape:label="Layer 1"
       transform="translate(-1.56868,1.720596)">
      <path
         d="m 9.3571613,1006.6138 c 0.1951074,-0.081 0.3967271,-0.1482 0.5853234,-0.2435 0.3047003,-0.1541 1.1930083,-0.6647 0.8920753,-0.5033 -1.3865124,0.743 -2.650436,1.7702 -4.1489861,2.2484 -0.7335063,0.2342 1.1991075,-0.9677 1.7666639,-1.4881 1.8863002,-1.7292 1.8974422,-1.8993 3.5521932,-3.9317 2.167247,-3.22355 4.147739,-6.90877 4.346266,-10.88264 0.02441,-0.48862 -0.0427,-0.97763 -0.06404,-1.46642 -0.04486,-0.81955 -0.529231,-1.45802 -0.800871,-2.19152 -0.0417,-0.11265 -0.193223,-0.2882 -0.0896,-0.34882 5.932426,-3.47015 4.219882,-4.42058 6.550987,-2.86987 5.168729,1.83592 10.660152,2.63985 16.074982,3.37136 13.292126,1.34388 26.674316,1.43742 40.022242,1.4721 4.476627,0.0596 8.950492,-0.2005 13.426518,-0.18228 0.652261,0.003 2.266115,-0.0116 3.06489,0.22833 0.166559,0.0501 0.291401,0.19001 0.437102,0.28502 -0.03948,0.27841 0.121007,0.68775 -0.118424,0.83517 -2.145838,1.32129 -4.431503,2.41871 -6.754073,3.39647 -0.574841,0.24205 -1.238344,0.15016 -1.857075,0.22868 -0.897807,0.11421 -1.796413,0.22244 -2.692521,0.34923 -3.546867,0.50148 -3.27833,0.49681 -6.994151,1.19295 -6.223246,1.25976 -12.422421,2.72719 -18.422063,4.83024 -3.710383,1.3006 -6.689752,2.6067 -10.306975,4.1186 -1.46907,0.7448 -3.026498,1.3364 -4.407211,2.2343 -0.337441,0.2196 1.402312,-0.4945 1.198594,-0.1473 -0.647995,1.1043 -1.896799,1.7334 -2.709691,2.7226 -1.355462,1.6496 -2.696602,4.0636 -3.397996,6.0932 -0.359747,1.041 -0.52098,2.1403 -0.781469,3.2104 -0.709964,4.8352 -0.236857,9.7264 2.031152,14.108 0.346505,0.6694 0.785531,1.2867 1.178296,1.9301 1.017498,1.2349 1.530814,1.9877 2.78584,2.9971 2.22154,1.7866 4.951855,2.8594 7.589488,3.8494 1.888917,0.5321 3.844937,1.2684 5.842836,1.2303 0.593293,-0.013 1.408856,-0.206 1.990862,-0.3262 0,0 -5.205348,3.9177 -5.205348,3.9177 l 0,0 c -0.81883,0.1104 -1.197509,0.2005 -2.042513,0.1467 -1.991823,-0.1271 -3.90461,-0.8539 -5.77278,-1.4883 -2.664707,-1.0894 -5.464252,-2.213 -7.712641,-4.063 -1.34438,-1.1061 -1.760497,-1.802 -2.819347,-3.1684 -0.394208,-0.6757 -0.840452,-1.3237 -1.182626,-2.0273 -2.205254,-4.5343 -2.69448,-9.5986 -2.00732,-14.5461 0.250435,-1.1067 0.393316,-2.2434 0.751306,-3.3203 0.660521,-1.9868 2.132964,-4.7172 3.428971,-6.3341 3.945528,-4.9226 9.919762,-7.6499 15.46694,-10.35 3.473096,-1.4268 6.780615,-2.83755 10.33037,-4.07911 6.122157,-2.14136 12.430516,-3.71663 18.777922,-5.02014 4.998507,-0.99516 2.56369,-0.54949 7.227967,-1.33791 0.954199,-0.16131 1.910007,-0.31342 2.862559,-0.48421 0.671547,-0.12069 2.497004,-0.86635 2.009404,-0.38916 -1.298936,1.27114 -3.204633,1.76236 -4.601081,2.92558 -0.194963,0.16236 0.454159,0.22647 0.681239,0.33964 -0.535536,-0.50069 -2.242258,-0.53262 -2.732473,-0.57052 -4.192943,-0.3247 -8.407227,-0.23905 -12.606022,-0.40452 -13.531511,-0.20842 -27.083696,-0.1534 -40.587664,-1.14194 -1.476541,-0.16741 -2.95726,-0.30134 -4.429623,-0.50224 -1.702568,-0.23218 -5.303748,-0.88711 -7.055399,-1.22167 -0.245343,-0.0468 -4.00552,-0.79559 -4.554242,-0.93656 -0.335495,-0.0862 -0.654688,-0.22656 -0.982031,-0.33983 -0.14421,-0.0577 -0.560798,-0.0852 -0.432631,-0.17283 1.788063,-1.22336 3.752312,-2.1702 5.573163,-3.3442 0.06848,-0.0441 -0.186818,-0.18222 -0.219478,-0.10758 -0.04138,0.0946 0.336488,1.21212 0.34097,1.22891 0.111611,0.41815 0.199249,0.84235 0.298872,1.26351 0.01051,0.53374 0.06949,1.06872 0.03142,1.60119 -0.291937,4.0836 -2.228478,7.9029 -4.410386,11.27309 -0.55468,0.7276 -1.071033,1.486 -1.664042,2.1827 -0.342913,0.4028 -2.770876,2.9176 -3.32442,3.2894 -2.6964507,1.8114 -5.507945,3.5569 -8.43943,4.998 0,0 5.2092162,-4.1668 5.2092162,-4.1668 z"
         id="path3373"
         style="fill:#000000" />
      <path
         d="m 70.706567,989.57026 c 1.885377,-1.19045 5.073286,-2.69283 -3.864271,2.16574 -0.265801,0.14445 0.498679,-0.34287 0.743069,-0.5212 0.60536,-0.44177 1.225885,-0.93438 1.815032,-1.39413 2.501887,-2.17619 4.683674,-4.68661 6.690351,-7.31824 1.737395,-2.13274 3.118322,-4.50974 4.271169,-6.99934 0.944801,-2.15214 1.38299,-4.47375 1.723929,-6.78585 0.291377,-2.07659 -0.179867,-3.98463 -1.183901,-5.7917 -1.105383,-1.6855 -2.500001,-2.40886 -4.406509,-2.85156 -0.286407,-0.0191 -0.572679,-0.0743 -0.859223,-0.0575 -0.429823,0.0255 -1.090491,0.24019 -1.475357,0.42363 -0.247951,0.11823 -0.954699,0.54365 -0.713492,0.41225 5.172245,-2.81765 6.15155,-4.1381 4.287964,-1.96223 -1.322567,1.92808 -1.836141,4.23533 -2.29409,6.49113 -0.640552,3.15524 -0.634655,3.47797 -1.10659,6.78292 -0.934831,8.8538 -1.422884,17.74876 -2.249021,26.61313 -0.727095,7.89969 -1.376577,15.80549 -2.286767,23.68689 -0.252638,2.0194 -0.579518,4.0282 -0.860303,6.0436 -0.16228,1.1648 -0.291059,1.975 -0.05628,3.1183 0.09965,0.1298 0.16125,0.3003 0.298955,0.3879 0.274528,0.1746 0.602842,-0.083 0.798885,-0.2076 0.196014,-0.1245 0.774795,-0.5092 0.570837,-0.3986 -4.969195,2.6976 -6.337435,4.0278 -3.92031,1.8899 2.381697,-2.6093 4.561218,-5.4687 6.216614,-8.6014 0.407218,-0.7706 0.746755,-1.5752 1.120133,-2.3626 1.561121,-3.8024 2.47321,-7.7613 2.743289,-11.8539 0.02821,-1.3159 0.197362,-2.9249 -0.739852,-4.0131 -0.321363,-0.3732 -0.749664,-0.5691 -1.165405,-0.8073 -0.742791,-0.3528 -1.546477,-0.4715 -2.348939,-0.5973 0,0 5.359996,-3.7501 5.359996,-3.7501 l 0,0 c 0.864446,0.1749 1.723995,0.3494 2.502052,0.7915 0.237154,0.1568 0.491534,0.2903 0.711467,0.4705 1.526835,1.251 1.50739,3.2601 1.36444,5.0631 -0.355418,4.2555 -1.282095,8.1951 -2.883689,12.1687 -0.36338,0.8026 -0.692082,1.6218 -1.090144,2.4078 -1.571584,3.103 -3.626027,5.9512 -5.834136,8.6251 -2.447973,2.654 -0.801791,1.0414 -7.168841,4.6806 -0.996667,0.5698 -1.863078,0.176 -2.31848,-0.8087 -0.243588,-1.3771 -0.105511,-2.0303 0.146625,-3.4204 0.373992,-2.0621 0.821746,-4.1102 1.174083,-6.1764 0.357883,-2.2874 0.681543,-4.2411 0.962642,-6.5588 0.697494,-5.751 1.089828,-11.5355 1.71366,-17.2942 0.838433,-8.82431 1.280495,-17.67827 2.002651,-26.51243 0.318998,-2.80745 0.423231,-3.97149 0.834018,-6.69375 0.339661,-2.2509 0.645505,-4.59251 1.829201,-6.58285 1.829388,-2.91025 0.398704,-0.92035 6.801028,-4.70769 1.009784,-0.59733 2.201272,-0.61834 3.315252,-0.39369 2.01449,0.58741 3.506649,1.50728 4.664566,3.31233 1.061772,1.93037 1.635045,3.9585 1.346922,6.18217 -0.339606,2.3596 -0.747781,4.72966 -1.645605,6.95134 -1.153854,2.56941 -2.565107,5.02221 -4.370461,7.19466 -1.954641,2.63942 -4.105985,5.13689 -6.479483,7.40906 -3.068625,2.44824 -6.325717,4.69559 -9.959673,6.24608 0,0 5.271984,-4.09583 5.271984,-4.09583 z"
         id="path3377"
         style="fill:#000000" />
    </g>
  </g>
</svg>
