<?xml version="1.0" encoding="UTF-8" standalone="no"?>
<!-- Created with Inkscape (http://www.inkscape.org/) -->

<svg
   xmlns:dc="http://purl.org/dc/elements/1.1/"
   xmlns:cc="http://creativecommons.org/ns#"
   xmlns:rdf="http://www.w3.org/1999/02/22-rdf-syntax-ns#"
   xmlns:svg="http://www.w3.org/2000/svg"
   xmlns="http://www.w3.org/2000/svg"
   xmlns:sodipodi="http://sodipodi.sourceforge.net/DTD/sodipodi-0.dtd"
   xmlns:inkscape="http://www.inkscape.org/namespaces/inkscape"
   width="100"
   height="100"
   id="svg2"
   version="1.1"
   inkscape:version="0.47 r22583"
   sodipodi:docname="g.svg">
  <title
     id="title2813">Aksara Dompu - Mbojo</title>
  <defs
     id="defs4">
    <inkscape:perspective
       sodipodi:type="inkscape:persp3d"
       inkscape:vp_x="0 : 526.18109 : 1"
       inkscape:vp_y="0 : 1000 : 0"
       inkscape:vp_z="744.09448 : 526.18109 : 1"
       inkscape:persp3d-origin="372.04724 : 350.78739 : 1"
       id="perspective10" />
    <inkscape:perspective
       id="perspective10-9"
       inkscape:persp3d-origin="372.04724 : 350.78739 : 1"
       inkscape:vp_z="744.09448 : 526.18109 : 1"
       inkscape:vp_y="0 : 1000 : 0"
       inkscape:vp_x="0 : 526.18109 : 1"
       sodipodi:type="inkscape:persp3d" />
    <inkscape:perspective
       id="perspective10-7"
       inkscape:persp3d-origin="372.04724 : 350.78739 : 1"
       inkscape:vp_z="744.09448 : 526.18109 : 1"
       inkscape:vp_y="0 : 1000 : 0"
       inkscape:vp_x="0 : 526.18109 : 1"
       sodipodi:type="inkscape:persp3d" />
    <inkscape:perspective
       id="perspective10-0"
       inkscape:persp3d-origin="372.04724 : 350.78739 : 1"
       inkscape:vp_z="744.09448 : 526.18109 : 1"
       inkscape:vp_y="0 : 1000 : 0"
       inkscape:vp_x="0 : 526.18109 : 1"
       sodipodi:type="inkscape:persp3d" />
    <inkscape:perspective
       id="perspective10-2"
       inkscape:persp3d-origin="372.04724 : 350.78739 : 1"
       inkscape:vp_z="744.09448 : 526.18109 : 1"
       inkscape:vp_y="0 : 1000 : 0"
       inkscape:vp_x="0 : 526.18109 : 1"
       sodipodi:type="inkscape:persp3d" />
    <inkscape:perspective
       id="perspective10-01"
       inkscape:persp3d-origin="372.04724 : 350.78739 : 1"
       inkscape:vp_z="744.09448 : 526.18109 : 1"
       inkscape:vp_y="0 : 1000 : 0"
       inkscape:vp_x="0 : 526.18109 : 1"
       sodipodi:type="inkscape:persp3d" />
    <inkscape:perspective
       id="perspective10-28"
       inkscape:persp3d-origin="372.04724 : 350.78739 : 1"
       inkscape:vp_z="744.09448 : 526.18109 : 1"
       inkscape:vp_y="0 : 1000 : 0"
       inkscape:vp_x="0 : 526.18109 : 1"
       sodipodi:type="inkscape:persp3d" />
    <inkscape:perspective
       id="perspective10-5"
       inkscape:persp3d-origin="372.04724 : 350.78739 : 1"
       inkscape:vp_z="744.09448 : 526.18109 : 1"
       inkscape:vp_y="0 : 1000 : 0"
       inkscape:vp_x="0 : 526.18109 : 1"
       sodipodi:type="inkscape:persp3d" />
    <inkscape:perspective
       id="perspective10-91"
       inkscape:persp3d-origin="372.04724 : 350.78739 : 1"
       inkscape:vp_z="744.09448 : 526.18109 : 1"
       inkscape:vp_y="0 : 1000 : 0"
       inkscape:vp_x="0 : 526.18109 : 1"
       sodipodi:type="inkscape:persp3d" />
    <inkscape:perspective
       id="perspective10-09"
       inkscape:persp3d-origin="372.04724 : 350.78739 : 1"
       inkscape:vp_z="744.09448 : 526.18109 : 1"
       inkscape:vp_y="0 : 1000 : 0"
       inkscape:vp_x="0 : 526.18109 : 1"
       sodipodi:type="inkscape:persp3d" />
    <inkscape:perspective
       id="perspective10-6"
       inkscape:persp3d-origin="372.04724 : 350.78739 : 1"
       inkscape:vp_z="744.09448 : 526.18109 : 1"
       inkscape:vp_y="0 : 1000 : 0"
       inkscape:vp_x="0 : 526.18109 : 1"
       sodipodi:type="inkscape:persp3d" />
    <inkscape:perspective
       sodipodi:type="inkscape:persp3d"
       inkscape:vp_x="0 : 526.18109 : 1"
       inkscape:vp_y="0 : 1000 : 0"
       inkscape:vp_z="744.09448 : 526.18109 : 1"
       inkscape:persp3d-origin="372.04724 : 350.78739 : 1"
       id="perspective10-97" />
    <inkscape:perspective
       id="perspective10-8"
       inkscape:persp3d-origin="372.04724 : 350.78739 : 1"
       inkscape:vp_z="744.09448 : 526.18109 : 1"
       inkscape:vp_y="0 : 1000 : 0"
       inkscape:vp_x="0 : 526.18109 : 1"
       sodipodi:type="inkscape:persp3d" />
    <inkscape:perspective
       id="perspective10-9-7"
       inkscape:persp3d-origin="372.04724 : 350.78739 : 1"
       inkscape:vp_z="744.09448 : 526.18109 : 1"
       inkscape:vp_y="0 : 1000 : 0"
       inkscape:vp_x="0 : 526.18109 : 1"
       sodipodi:type="inkscape:persp3d" />
    <inkscape:perspective
       id="perspective10-66"
       inkscape:persp3d-origin="372.04724 : 350.78739 : 1"
       inkscape:vp_z="744.09448 : 526.18109 : 1"
       inkscape:vp_y="0 : 1000 : 0"
       inkscape:vp_x="0 : 526.18109 : 1"
       sodipodi:type="inkscape:persp3d" />
    <inkscape:perspective
       id="perspective10-87"
       inkscape:persp3d-origin="372.04724 : 350.78739 : 1"
       inkscape:vp_z="744.09448 : 526.18109 : 1"
       inkscape:vp_y="0 : 1000 : 0"
       inkscape:vp_x="0 : 526.18109 : 1"
       sodipodi:type="inkscape:persp3d" />
    <inkscape:perspective
       id="perspective10-05"
       inkscape:persp3d-origin="372.04724 : 350.78739 : 1"
       inkscape:vp_z="744.09448 : 526.18109 : 1"
       inkscape:vp_y="0 : 1000 : 0"
       inkscape:vp_x="0 : 526.18109 : 1"
       sodipodi:type="inkscape:persp3d" />
    <inkscape:perspective
       id="perspective10-64"
       inkscape:persp3d-origin="372.04724 : 350.78739 : 1"
       inkscape:vp_z="744.09448 : 526.18109 : 1"
       inkscape:vp_y="0 : 1000 : 0"
       inkscape:vp_x="0 : 526.18109 : 1"
       sodipodi:type="inkscape:persp3d" />
    <inkscape:perspective
       id="perspective10-96"
       inkscape:persp3d-origin="372.04724 : 350.78739 : 1"
       inkscape:vp_z="744.09448 : 526.18109 : 1"
       inkscape:vp_y="0 : 1000 : 0"
       inkscape:vp_x="0 : 526.18109 : 1"
       sodipodi:type="inkscape:persp3d" />
    <inkscape:perspective
       id="perspective10-22"
       inkscape:persp3d-origin="372.04724 : 350.78739 : 1"
       inkscape:vp_z="744.09448 : 526.18109 : 1"
       inkscape:vp_y="0 : 1000 : 0"
       inkscape:vp_x="0 : 526.18109 : 1"
       sodipodi:type="inkscape:persp3d" />
    <inkscape:perspective
       id="perspective10-3"
       inkscape:persp3d-origin="372.04724 : 350.78739 : 1"
       inkscape:vp_z="744.09448 : 526.18109 : 1"
       inkscape:vp_y="0 : 1000 : 0"
       inkscape:vp_x="0 : 526.18109 : 1"
       sodipodi:type="inkscape:persp3d" />
  </defs>
  <sodipodi:namedview
     id="base"
     pagecolor="#ffffff"
     bordercolor="#666666"
     borderopacity="1.0"
     inkscape:pageopacity="0.0"
     inkscape:pageshadow="2"
     inkscape:zoom="1"
     inkscape:cx="-64"
     inkscape:cy="28.139785"
     inkscape:document-units="px"
     inkscape:current-layer="layer1"
     showgrid="false"
     inkscape:window-width="1024"
     inkscape:window-height="538"
     inkscape:window-x="0"
     inkscape:window-y="24"
     inkscape:window-maximized="1" />
  <metadata
     id="metadata7">
    <rdf:RDF>
      <cc:Work
         rdf:about="">
        <dc:format>image/svg+xml</dc:format>
        <dc:type
           rdf:resource="http://purl.org/dc/dcmitype/StillImage" />
        <dc:title>Aksara Dompu - Mbojo</dc:title>
        <dc:creator>
          <cc:Agent>
            <dc:title>Farhan Perdana (Black_Claw)</dc:title>
          </cc:Agent>
        </dc:creator>
        <dc:contributor>
          <cc:Agent>
            <dc:title>Farhan Perdana blackdramon@gmail.com</dc:title>
          </cc:Agent>
        </dc:contributor>
      </cc:Work>
    </rdf:RDF>
  </metadata>
  <g
     inkscape:label="Layer 1"
     inkscape:groupmode="layer"
     id="layer1"
     transform="translate(0,-952.36218)">
    <g
       id="layer1-9"
       inkscape:label="Layer 1"
       transform="translate(0.25364,1.500443)">
      <path
         d="m 18.652581,1002.7696 c 0.289099,0.015 0.580342,0.093 0.867296,0.041 0.495085,-0.092 0.976792,-0.299 1.461999,-0.4687 1.852665,-0.6477 2.414088,-0.8338 4.271378,-2.0628 0.859389,-0.56869 2.356604,-0.53229 2.518622,-1.88486 0.15987,-1.33455 -1.671878,1.19635 -2.507818,1.79476 3.5403,-3.85179 6.575919,-8.65477 8.719628,-14.30213 1.15182,-3.03431 1.321857,-4.13583 2.09742,-7.3289 0.464698,-3.06529 1.093081,-8.63394 -0.882667,-11.05286 -0.198677,-0.24322 -0.472542,-0.31367 -0.708814,-0.47049 -0.234938,0.0269 -0.485531,-0.0448 -0.704814,0.0808 -0.24722,0.14146 -0.880147,0.85685 -0.640709,0.68939 1.602006,-1.12026 2.984965,-3.13802 4.739285,-3.55554 0.720533,-0.17149 -0.829703,1.75507 -1.158012,2.70325 -1.015016,2.93145 -1.824618,6.6793 -2.554224,9.70705 -3.20143,14.40523 -6.480112,28.77393 -9.98893,43.02733 -1.742166,6.5645 -3.238391,13.4426 -6.247311,19.0558 -0.279133,0.3973 -0.538731,0.826 -0.837399,1.1919 -0.261057,0.3199 -0.539583,0.6142 -0.836456,0.8594 -1.805893,1.4914 -4.644566,5.1766 -7.3794702,5.345 -0.5226306,0.033 -1.3062131,-0.1367 -1.8227734,-0.2252 -1.8820637,-0.7402 -2.9466453,-1.6926 -3.9720584,-4.1263 -0.2124756,-0.8672 -0.5029057,-1.7824 -0.4733936,-2.7383 0.1186497,-3.8426 3.3512426,-7.2606 5.1495061,-9.4402 0.8411619,-0.8815 1.6530836,-1.8251 2.5234865,-2.644 1.002411,-0.9434 2.044788,-1.7953 3.088861,-2.6378 2.841402,-2.2925 5.684822,-4.5818 8.566289,-6.7662 3.43028,-2.6004 7.048609,-4.6248 10.669091,-6.573 1.056027,-0.5529 2.111558,-1.1076 3.168078,-1.6583 2.594215,-1.3525 5.275943,-2.5265 7.783037,-4.2075 0.579396,-0.3884 2.253196,-1.7422 1.694821,-1.2934 -1.411827,1.1349 -2.836946,2.2347 -4.25542,3.3518 1.425574,-1.8368 1.082363,-2.9637 -0.642517,-3.4687 -0.484992,0.081 -0.99789,0.1103 -1.450675,0.4249 -0.272357,0.1884 -1.019128,0.9357 -0.75242,0.7308 1.601573,-1.23 3.107663,-2.7319 4.760554,-3.8088 0.382572,-0.2493 -0.618984,0.8264 -0.892283,1.2887 -0.292508,0.4946 -0.533492,1.0492 -0.800238,1.5737 -1.643409,3.9934 -2.610419,8.4557 -2.67086,13.1278 -0.01438,1.1106 0.06418,2.2196 0.09627,3.3294 0.366052,4.3497 1.169072,8.7672 3.253561,12.0952 1.323556,2.1133 1.896954,2.3246 3.600376,3.74 0.914815,0.4247 1.803974,0.9918 2.744446,1.2741 6.596693,1.9801 14.248184,0.4261 20.670582,-2.0525 2.097784,-0.8098 4.135713,-1.9175 6.20357,-2.8764 4.334068,-2.8213 7.765522,-4.8563 11.87545,-8.3007 0.261672,-0.2191 0.356688,-0.7222 0.592475,-0.9968 1.402971,-1.633 2.873341,-3.1396 4.310012,-4.7093 0,0 4.982033,-2.8817 4.982033,-2.8817 l 0,0 c -1.473058,1.6107 -2.878262,3.3618 -4.419176,4.8321 -6.789244,6.4782 -13.802491,12.2262 -21.357226,16.58 -2.102756,0.9661 -4.175799,2.0816 -6.308266,2.8984 -2.012836,0.7712 -4.059985,1.3536 -6.112186,1.8599 -5.028575,1.2406 -10.325065,1.905 -15.390285,0.5537 -1.012104,-0.2699 -1.9685,-0.8729 -2.952749,-1.3092 -1.74797,-1.4943 -2.433661,-1.8039 -3.785517,-4.0225 -2.121095,-3.481 -2.907285,-8.11 -3.382461,-12.5739 -0.05108,-1.1382 -0.151147,-2.2738 -0.153244,-3.4142 -0.0089,-4.8196 0.80787,-9.1804 2.328461,-13.4315 2.26461,-5.1333 2.664923,-4.2504 7.884877,-8.71352 0.795513,-0.68035 1.645292,-0.81101 2.539297,-0.6111 0.259376,0.13369 0.532737,0.21993 0.778127,0.40097 0.959752,0.7082 1.680395,2.32095 1.091887,3.87265 -0.172293,0.454 -0.465809,0.7856 -0.698713,1.1787 -2.197154,1.9203 -4.369906,3.9009 -6.591458,5.7611 -1.003443,0.8403 -2.719859,1.7635 -3.753227,2.3081 -2.850964,1.5022 -5.745293,2.8323 -8.586195,4.3767 -3.355456,1.8131 -3.537332,1.8186 -6.88755,4.0242 -1.228649,0.8093 -2.367321,1.941 -3.655198,2.5235 -0.544884,0.2464 1.896095,-1.8158 1.371202,-1.4902 -1.854665,1.15 -3.854508,3.3764 -5.498196,5.0652 -1.472752,1.7392 -4.6853006,5.2104 -4.9540435,8.301 -0.078801,0.9063 0.1582,1.5461 0.3623477,2.361 0.9087458,2.1392 1.9483358,2.9039 3.6231418,3.4052 0.632246,0.059 1.080618,0.1555 1.711322,0.015 0.283152,-0.067 1.070074,-0.5514 0.832116,-0.3184 -1.519168,1.4865 -3.147792,2.7217 -4.709369,4.1121 -0.296272,0.2638 0.625969,-0.4465 0.912706,-0.7316 0.328696,-0.3268 0.617442,-0.7317 0.926164,-1.0973 0.315765,-0.5148 0.653428,-1.003 0.947299,-1.5445 2.822763,-5.2017 4.280732,-11.7276 6.097326,-17.7017 3.712445,-14.0919 7.185364,-28.33717 9.885212,-42.91843 0.680335,-3.34274 1.229066,-6.33594 2.084858,-9.56205 0.252481,-0.95181 0.318474,-2.14097 0.856639,-2.79549 1.93337,-2.35138 4.187551,-4.08671 6.350098,-5.96943 0.65259,-0.56814 1.047832,-0.23651 1.701701,-0.013 0.267257,0.27937 0.575659,0.4903 0.801773,0.83806 2.02974,3.12188 1.341964,8.41048 0.811307,12.10463 -0.771744,3.18678 -1.004649,4.53831 -2.138829,7.56687 -2.137127,5.70673 -5.156279,10.6152 -8.63578,14.65316 -5.267836,4.64848 -11.018086,10.98218 -17.51038,11.38858 0,0 5.353307,-5.655 5.353307,-5.655 z"
         id="path3552"
         style="fill:#000000" />
    </g>
  </g>
</svg>
