<?xml version="1.0" encoding="UTF-8" standalone="no"?>
<!-- Created with Inkscape (http://www.inkscape.org/) -->

<svg
   xmlns:dc="http://purl.org/dc/elements/1.1/"
   xmlns:cc="http://creativecommons.org/ns#"
   xmlns:rdf="http://www.w3.org/1999/02/22-rdf-syntax-ns#"
   xmlns:svg="http://www.w3.org/2000/svg"
   xmlns="http://www.w3.org/2000/svg"
   xmlns:sodipodi="http://sodipodi.sourceforge.net/DTD/sodipodi-0.dtd"
   xmlns:inkscape="http://www.inkscape.org/namespaces/inkscape"
   width="100"
   height="100"
   id="svg2"
   version="1.1"
   inkscape:version="0.47 r22583"
   sodipodi:docname="j.svg">
  <title
     id="title2813">Aksara Dompu - Mbojo</title>
  <defs
     id="defs4">
    <inkscape:perspective
       sodipodi:type="inkscape:persp3d"
       inkscape:vp_x="0 : 526.18109 : 1"
       inkscape:vp_y="0 : 1000 : 0"
       inkscape:vp_z="744.09448 : 526.18109 : 1"
       inkscape:persp3d-origin="372.04724 : 350.78739 : 1"
       id="perspective10" />
    <inkscape:perspective
       id="perspective10-9"
       inkscape:persp3d-origin="372.04724 : 350.78739 : 1"
       inkscape:vp_z="744.09448 : 526.18109 : 1"
       inkscape:vp_y="0 : 1000 : 0"
       inkscape:vp_x="0 : 526.18109 : 1"
       sodipodi:type="inkscape:persp3d" />
    <inkscape:perspective
       id="perspective10-7"
       inkscape:persp3d-origin="372.04724 : 350.78739 : 1"
       inkscape:vp_z="744.09448 : 526.18109 : 1"
       inkscape:vp_y="0 : 1000 : 0"
       inkscape:vp_x="0 : 526.18109 : 1"
       sodipodi:type="inkscape:persp3d" />
    <inkscape:perspective
       id="perspective10-0"
       inkscape:persp3d-origin="372.04724 : 350.78739 : 1"
       inkscape:vp_z="744.09448 : 526.18109 : 1"
       inkscape:vp_y="0 : 1000 : 0"
       inkscape:vp_x="0 : 526.18109 : 1"
       sodipodi:type="inkscape:persp3d" />
    <inkscape:perspective
       id="perspective10-2"
       inkscape:persp3d-origin="372.04724 : 350.78739 : 1"
       inkscape:vp_z="744.09448 : 526.18109 : 1"
       inkscape:vp_y="0 : 1000 : 0"
       inkscape:vp_x="0 : 526.18109 : 1"
       sodipodi:type="inkscape:persp3d" />
    <inkscape:perspective
       id="perspective10-01"
       inkscape:persp3d-origin="372.04724 : 350.78739 : 1"
       inkscape:vp_z="744.09448 : 526.18109 : 1"
       inkscape:vp_y="0 : 1000 : 0"
       inkscape:vp_x="0 : 526.18109 : 1"
       sodipodi:type="inkscape:persp3d" />
    <inkscape:perspective
       id="perspective10-28"
       inkscape:persp3d-origin="372.04724 : 350.78739 : 1"
       inkscape:vp_z="744.09448 : 526.18109 : 1"
       inkscape:vp_y="0 : 1000 : 0"
       inkscape:vp_x="0 : 526.18109 : 1"
       sodipodi:type="inkscape:persp3d" />
    <inkscape:perspective
       id="perspective10-5"
       inkscape:persp3d-origin="372.04724 : 350.78739 : 1"
       inkscape:vp_z="744.09448 : 526.18109 : 1"
       inkscape:vp_y="0 : 1000 : 0"
       inkscape:vp_x="0 : 526.18109 : 1"
       sodipodi:type="inkscape:persp3d" />
    <inkscape:perspective
       id="perspective10-91"
       inkscape:persp3d-origin="372.04724 : 350.78739 : 1"
       inkscape:vp_z="744.09448 : 526.18109 : 1"
       inkscape:vp_y="0 : 1000 : 0"
       inkscape:vp_x="0 : 526.18109 : 1"
       sodipodi:type="inkscape:persp3d" />
    <inkscape:perspective
       id="perspective10-09"
       inkscape:persp3d-origin="372.04724 : 350.78739 : 1"
       inkscape:vp_z="744.09448 : 526.18109 : 1"
       inkscape:vp_y="0 : 1000 : 0"
       inkscape:vp_x="0 : 526.18109 : 1"
       sodipodi:type="inkscape:persp3d" />
    <inkscape:perspective
       id="perspective10-6"
       inkscape:persp3d-origin="372.04724 : 350.78739 : 1"
       inkscape:vp_z="744.09448 : 526.18109 : 1"
       inkscape:vp_y="0 : 1000 : 0"
       inkscape:vp_x="0 : 526.18109 : 1"
       sodipodi:type="inkscape:persp3d" />
    <inkscape:perspective
       sodipodi:type="inkscape:persp3d"
       inkscape:vp_x="0 : 526.18109 : 1"
       inkscape:vp_y="0 : 1000 : 0"
       inkscape:vp_z="744.09448 : 526.18109 : 1"
       inkscape:persp3d-origin="372.04724 : 350.78739 : 1"
       id="perspective10-97" />
    <inkscape:perspective
       id="perspective10-8"
       inkscape:persp3d-origin="372.04724 : 350.78739 : 1"
       inkscape:vp_z="744.09448 : 526.18109 : 1"
       inkscape:vp_y="0 : 1000 : 0"
       inkscape:vp_x="0 : 526.18109 : 1"
       sodipodi:type="inkscape:persp3d" />
    <inkscape:perspective
       id="perspective10-9-7"
       inkscape:persp3d-origin="372.04724 : 350.78739 : 1"
       inkscape:vp_z="744.09448 : 526.18109 : 1"
       inkscape:vp_y="0 : 1000 : 0"
       inkscape:vp_x="0 : 526.18109 : 1"
       sodipodi:type="inkscape:persp3d" />
    <inkscape:perspective
       id="perspective10-66"
       inkscape:persp3d-origin="372.04724 : 350.78739 : 1"
       inkscape:vp_z="744.09448 : 526.18109 : 1"
       inkscape:vp_y="0 : 1000 : 0"
       inkscape:vp_x="0 : 526.18109 : 1"
       sodipodi:type="inkscape:persp3d" />
    <inkscape:perspective
       id="perspective10-87"
       inkscape:persp3d-origin="372.04724 : 350.78739 : 1"
       inkscape:vp_z="744.09448 : 526.18109 : 1"
       inkscape:vp_y="0 : 1000 : 0"
       inkscape:vp_x="0 : 526.18109 : 1"
       sodipodi:type="inkscape:persp3d" />
    <inkscape:perspective
       id="perspective10-05"
       inkscape:persp3d-origin="372.04724 : 350.78739 : 1"
       inkscape:vp_z="744.09448 : 526.18109 : 1"
       inkscape:vp_y="0 : 1000 : 0"
       inkscape:vp_x="0 : 526.18109 : 1"
       sodipodi:type="inkscape:persp3d" />
    <inkscape:perspective
       id="perspective10-64"
       inkscape:persp3d-origin="372.04724 : 350.78739 : 1"
       inkscape:vp_z="744.09448 : 526.18109 : 1"
       inkscape:vp_y="0 : 1000 : 0"
       inkscape:vp_x="0 : 526.18109 : 1"
       sodipodi:type="inkscape:persp3d" />
    <inkscape:perspective
       id="perspective10-96"
       inkscape:persp3d-origin="372.04724 : 350.78739 : 1"
       inkscape:vp_z="744.09448 : 526.18109 : 1"
       inkscape:vp_y="0 : 1000 : 0"
       inkscape:vp_x="0 : 526.18109 : 1"
       sodipodi:type="inkscape:persp3d" />
    <inkscape:perspective
       id="perspective10-22"
       inkscape:persp3d-origin="372.04724 : 350.78739 : 1"
       inkscape:vp_z="744.09448 : 526.18109 : 1"
       inkscape:vp_y="0 : 1000 : 0"
       inkscape:vp_x="0 : 526.18109 : 1"
       sodipodi:type="inkscape:persp3d" />
    <inkscape:perspective
       id="perspective10-3"
       inkscape:persp3d-origin="372.04724 : 350.78739 : 1"
       inkscape:vp_z="744.09448 : 526.18109 : 1"
       inkscape:vp_y="0 : 1000 : 0"
       inkscape:vp_x="0 : 526.18109 : 1"
       sodipodi:type="inkscape:persp3d" />
    <inkscape:perspective
       id="perspective10-35"
       inkscape:persp3d-origin="372.04724 : 350.78739 : 1"
       inkscape:vp_z="744.09448 : 526.18109 : 1"
       inkscape:vp_y="0 : 1000 : 0"
       inkscape:vp_x="0 : 526.18109 : 1"
       sodipodi:type="inkscape:persp3d" />
  </defs>
  <sodipodi:namedview
     id="base"
     pagecolor="#ffffff"
     bordercolor="#666666"
     borderopacity="1.0"
     inkscape:pageopacity="0.0"
     inkscape:pageshadow="2"
     inkscape:zoom="1"
     inkscape:cx="-64"
     inkscape:cy="28.139785"
     inkscape:document-units="px"
     inkscape:current-layer="layer1"
     showgrid="false"
     inkscape:window-width="1024"
     inkscape:window-height="538"
     inkscape:window-x="0"
     inkscape:window-y="24"
     inkscape:window-maximized="1" />
  <metadata
     id="metadata7">
    <rdf:RDF>
      <cc:Work
         rdf:about="">
        <dc:format>image/svg+xml</dc:format>
        <dc:type
           rdf:resource="http://purl.org/dc/dcmitype/StillImage" />
        <dc:title>Aksara Dompu - Mbojo</dc:title>
        <dc:creator>
          <cc:Agent>
            <dc:title>Farhan Perdana (Black_Claw)</dc:title>
          </cc:Agent>
        </dc:creator>
        <dc:contributor>
          <cc:Agent>
            <dc:title>Farhan Perdana blackdramon@gmail.com</dc:title>
          </cc:Agent>
        </dc:contributor>
      </cc:Work>
    </rdf:RDF>
  </metadata>
  <g
     inkscape:label="Layer 1"
     inkscape:groupmode="layer"
     id="layer1"
     transform="translate(0,-952.36218)">
    <g
       id="layer1-1"
       inkscape:label="Layer 1"
       transform="translate(-0.53445,-0.041478)">
      <path
         d="m -92.195702,967.71404 c 11.80729,-6.78844 2.23181,-1.27832 1.00117,-0.58717 -0.20609,0.11575 0.40665,-0.24193 0.5998,-0.37815 0.24554,-0.17322 0.48514,-0.35551 0.71488,-0.54919 0.81481,-0.68694 0.95401,-0.88008 1.69948,-1.66787 2.3314,-2.76912 2.7301,-4.61995 7.2552,-5.54679 0.47451,-0.0972 0.0419,0.96781 0.0629,1.45171 -0.61633,3.99952 -1.36981,7.97557 -1.9085,11.98742 -0.401,2.98646 -0.49944,4.204 -0.80256,7.20085 -0.18959,2.85562 -0.31596,5.74488 0.11811,8.58741 0.15656,1.02533 0.41763,2.11062 0.88751,3.04925 0.15318,0.30598 0.37829,0.57031 0.56743,0.85548 0.20368,0.17907 0.37841,0.3978 0.61104,0.53721 1.62413,0.97322 3.81562,-0.23134 5.30114,-0.85218 0.63121,-0.33124 2.45234,-1.43639 1.89362,-0.9937 -0.62704,0.49684 -2.35352,1.91809 -2.10185,1.15868 0.27508,-0.83005 1.48017,-0.93302 2.1943,-1.43765 2.31593,-1.63649 4.3642,-3.54503 6.41414,-5.49361 2.78754,-3.03647 5.48782,-6.27765 7.33354,-9.98907 0.26536,-0.76335 0.38682,-0.9038 0.41578,-1.66022 0.0668,-1.74516 -4.41696,-2.3234 4.34945,-2.26131 0.63165,0.004 -0.30806,1.22518 -0.4621,1.83778 -0.9103,3.96798 -0.63525,2.87139 -1.86774,7.6509 -0.50536,1.95976 -0.97984,3.92818 -1.53586,5.87419 -2.39564,8.38429 -5.32366,16.61489 -8.10883,24.87429 -1.07613,2.9545 -2.14607,5.9113 -3.2284,8.8637 -1.3801,3.7646 -3.98415,10.8231 -5.49558,14.7437 -1.15207,2.9886 -2.4596,6.3091 -3.816,9.2481 -0.43801,0.949 -0.93452,1.8699 -1.40178,2.805 -0.36903,0.6051 -0.67726,1.2517 -1.10709,1.8151 -1.37605,1.8038 -5.43814,3.6625 -6.575,3.8937 -0.65802,0.1338 -1.08169,-0.8463 -1.42593,-1.4229 -0.98748,-1.6539 -1.97782,-5.3967 -2.48651,-7.0798 -0.22638,-1.6173 -0.59334,-3.2209 -0.67913,-4.8516 -0.0971,-1.845 -0.0197,-3.6997 0.13241,-5.5411 0.15723,-1.9035 0.36942,-3.8125 0.79407,-5.6746 0.74097,-3.2495 2.45919,-7.6531 4.08235,-10.5872 0.91599,-1.6557 2.06548,-3.1712 3.09823,-4.7569 3.42564,-3.9798 4.15783,-5.098 8.06,-8.5828 1.43669,-1.2829 2.95815,-2.4686 4.47397,-3.6571 4.1812,-3.27818 8.5622,-6.30132 12.91263,-9.34717 3.6202,-2.69953 7.25522,-5.44079 10.47502,-8.62254 0.65689,-0.64912 1.33499,-1.43572 1.95474,-2.13885 1.49305,-1.44426 3.78295,-4.34859 5.72239,-3.08524 0.47491,0.30936 0.77689,0.89041 1.10252,1.33523 0.14638,0.17442 0.28133,0.35909 0.43914,0.52324 0.51985,0.54073 1.51325,0.94331 1.85655,1.47625 0.0886,0.13762 0.12569,0.30232 0.18853,0.45348 5.1e-4,0.181 0.0224,0.36319 0.002,0.54301 -0.0915,0.79653 -0.68662,2.04752 -0.92901,2.78841 -0.66253,2.02505 -0.63569,2.09119 -1.20024,4.31277 -0.48382,2.41257 -1.01683,4.83924 -1.18313,7.30168 -0.0825,1.22135 -0.12864,2.54028 0.37148,3.70308 0.24337,0.56585 0.6806,1.02675 1.02091,1.54015 0.76076,0.4239 1.46675,0.9662 2.2823,1.2717 2.56329,0.9603 6.5025,1.5675 9.10077,1.8624 3.56258,0.4045 8.74775,0.679 12.31893,0.6094 1.98423,-0.038 3.96159,-0.2459 5.94237,-0.3688 0,0 -3.13094,2.3016 -3.13094,2.3016 l 0,0 c -1.96288,0.098 -3.92349,0.2673 -5.88864,0.2932 -3.0951,0.041 -9.46174,-0.226 -12.54599,-0.5041 -2.3224,-0.2094 -7.3289,-0.83 -9.7238,-1.6275 -0.9239,-0.3077 -1.72373,-0.9066 -2.58559,-1.3598 -0.37433,-0.5623 -0.85335,-1.0676 -1.12299,-1.6869 -0.55806,-1.2819 -0.47902,-2.55248 -0.36008,-3.8998 0.21891,-2.47961 0.80506,-4.91619 1.20682,-7.36733 0.49226,-2.40788 1.00854,-4.81221 1.79036,-7.14622 -0.0247,-0.0921 -0.0262,-0.19374 -0.0742,-0.27611 -0.25865,-0.44421 -0.89751,-0.71225 -1.27195,-1.0226 -0.18913,-0.15677 -0.36546,-0.32903 -0.53553,-0.50629 -0.16459,-0.17154 -0.31149,-0.35922 -0.46723,-0.53884 -0.0687,-0.0857 -0.56363,-0.72313 -0.7035,-0.8379 -0.0734,-0.0603 -0.16389,-0.10806 -0.25798,-0.12044 -0.0681,-0.008 -0.25565,0.0964 -0.19706,0.0606 4.74121,-2.90472 5.35197,-3.42566 3.52405,-1.99231 -0.37649,0.38863 -2.03419,2.10268 -2.24127,2.30014 -3.43192,3.27255 -7.25742,6.114 -11.06564,8.92378 -4.40677,3.06052 -8.84417,6.09667 -13.08673,9.38485 -1.52257,1.17997 -3.05138,2.35637 -4.49675,3.62997 -4.00262,3.5265 -4.56448,4.4525 -8.05408,8.4853 -2.73325,4.1439 -3.65228,5.0721 -5.49157,9.7036 -0.70935,1.7862 -1.34411,3.6129 -1.77287,5.4863 -0.71627,3.1297 -1.03909,7.7903 -0.78507,11.0104 0.12505,1.585 0.5443,3.1328 0.81645,4.6993 0.78366,2.2127 1.41581,4.6433 2.86484,6.5698 0.31362,0.4168 1.53657,0.4828 1.26163,0.9261 -0.67422,1.0873 -2.08205,1.4912 -3.17404,2.1578 -1.11663,0.6817 5.24965,-3.638 2.65554,-2.8897 0.56276,-0.9689 1.16025,-1.9183 1.68829,-2.9065 1.61322,-3.019 3.15719,-6.4155 4.49485,-9.5333 3.35324,-7.8156 6.36297,-15.7777 9.1794,-23.8005 0.97097,-2.9213 1.98324,-5.8293 2.91291,-8.764 2.97978,-9.40657 5.59602,-18.96834 6.91645,-28.76422 0.0577,-0.58956 -0.25157,-1.35579 0.17323,-1.76868 1.35941,-1.32131 5.1731,-5.21234 5.02659,-2.27162 -0.0142,0.28523 -0.0326,0.57321 -0.0987,0.85104 -0.0833,0.34955 -0.2313,0.68039 -0.34695,1.0206 -1.11294,2.1792 -2.48781,4.00651 -3.99176,5.93426 -0.56236,0.72084 -1.10551,1.45746 -1.6945,2.15672 -0.64254,0.76281 -1.33208,1.48478 -1.99813,2.22715 -1.84822,1.81257 -2.27192,2.30696 -4.2264,3.92707 -3.73436,3.09547 -8.01936,5.46141 -12.32612,7.65651 -1.76416,0.7177 -4.04611,1.87114 -5.83368,0.50645 -0.24549,-0.18748 -0.42179,-0.45132 -0.63269,-0.67698 -0.18176,-0.32971 -0.40244,-0.64076 -0.54529,-0.98907 -0.42158,-1.02798 -0.6169,-2.1872 -0.72422,-3.28042 -0.28738,-2.9273 -0.0981,-5.87911 0.12269,-8.80206 0.63082,-6.30549 1.64242,-12.5494 2.15482,-18.86255 0.29783,-2.40218 -0.0927,-0.88626 4.47774,-3.34878 0.19258,-0.10382 -0.30973,0.3095 -0.4531,0.47472 -0.74608,0.85971 -1.3446,1.82952 -2.09458,2.68641 -0.69731,0.79372 -1.40483,1.63114 -2.23797,2.2914 -0.18027,0.14286 -0.38055,0.25901 -0.57863,0.37589 -0.31021,0.18302 -11.635,6.78289 -0.93347,0.54416 0,0 -4.95226,1.93769 -4.95226,1.93769 z"
         id="path2841"
         style="fill:#000000" />
      <path
         d="m 15.30517,976.67095 c 1.31257,-1.0516 2.34501,-2.32504 3.19139,-3.7692 1.02112,-2.1181 6.24751,-5.75545 6.34654,-2.85874 0.0131,0.38245 -0.09671,0.75947 -0.161901,1.13655 -0.391329,2.26326 -0.544999,2.74601 -1.114179,5.21929 -1.2666,5.966 -2.60064,11.9906 -2.95071,18.0994 -0.0466,0.8125 -0.0258,1.6276 -0.0387,2.4414 0.1569,1.5224 0.15972,3.74845 1.78718,4.56005 0.838039,0.4181 1.34898,0.333 2.29096,0.3828 2.20491,-0.4208 4.23754,-1.4194 6.201999,-2.47191 1.05224,-0.56384 2.19012,-1.01584 3.10844,-1.77854 0.36009,-0.29909 -1.66704,0.68771 -1.36485,0.33031 1.088721,-1.28791 2.570111,-2.18411 3.855161,-3.27631 4.998099,-4.6236 9.360819,-9.9275 12.535179,-15.971 1.60999,-3.0651 1.9661,-4.29519 3.13946,-7.43292 0.729801,-2.34386 1.541201,-4.76349 1.4587,-7.25855 -0.0175,-0.53046 -0.146859,-1.56124 -0.57619,-2.03563 -0.11062,-0.12223 -0.30564,-0.12367 -0.45846,-0.1855 -2.42439,1.23115 3.923,-1.99909 4.46413,-2.03298 0.73663,-0.0461 -0.67543,1.31532 -0.94524,2.0023 -0.493549,1.25666 -0.92289,2.53811 -1.34203,3.82149 -1.494539,4.57625 -2.09288,6.96646 -3.43658,11.79779 -4.438339,16.0773 -7.60157,32.46055 -11.013299,48.77495 -0.87813,3.8293 -1.4246,6.5303 -2.511631,10.211 -0.707829,2.3967 -1.52512,5.0478 -3.04942,7.0893 -0.26272,0.3518 -0.605979,0.6357 -0.908969,0.9536 -2.66213,1.6348 -5.13753,4.3814 -8.37515,3.6828 -0.514371,-0.111 -1.41449,-0.415 -1.84866,-0.7158 -0.34065,-0.2361 -0.61357,-0.5572 -0.92036,-0.8359 -0.26863,-0.3526 -0.60465,-0.663 -0.80591,-1.058 -0.28208,-0.5537 -0.46341,-1.1561 -0.62746,-1.7554 -0.81661,-2.9835 -0.5391,-5.9057 0.25469,-8.8803 0.38286,-1.4348 0.94833,-2.8145 1.4225,-4.2218 4.64476,-10.8477 12.210379,-19.9757 19.782469,-28.8827 3.02246,-3.54115 6.431341,-6.71894 9.52091,-10.19775 1.783671,-2.0084 3.37673,-4.1533 5.00131,-6.2878 2.72891,-3.3532 4.57316,-4.0516 9.21699,-6.1562 0.302281,-0.137 1.738361,0.1873 2.00304,0.23781 1.784171,0.76219 4.02852,0.85849 5.53343,2.20109 0.18923,0.1688 0.31362,0.3986 0.47042,0.5979 0.0618,0.2324 0.16941,0.4573 0.18523,0.6973 0.0779,1.1815 -1.18133,2.68201 -1.78978,3.6268 -0.66321,1.15 -1.6836,2.42781 -1.53482,3.8494 0.0196,0.1877 0.10288,0.3631 0.15432,0.5446 0.10749,0.159 0.17668,0.3522 0.3225,0.4769 0.76578,0.655 2.7388,1.0256 3.63673,1.187 2.22643,0.4001 3.74631,0.4687 6.0808,0.6737 1.79854,0.069 3.597069,0.1378 5.3956,0.2068 0,0 -4.277031,3.0987 -4.277031,3.0987 l 0,0 c -1.938089,0.019 -3.876179,0.038 -5.814269,0.058 -2.26902,-0.1133 -4.28998,-0.144 -6.51656,-0.4791 -1.20813,-0.1818 -3.20871,-0.5347 -4.148879,-1.4397 -0.184211,-0.1775 -0.279351,-0.4285 -0.419021,-0.6426 -0.0756,-0.2412 -0.18581,-0.4741 -0.22679,-0.7234 -0.25147,-1.5303 0.68072,-2.9535 1.4195,-4.2009 0.36999,-0.5891 1.79906,-2.5692 1.92494,-3.1507 0.0315,-0.1456 -0.0161,-0.2975 -0.0241,-0.4462 -0.100197,-0.149 -0.16987,-0.324 -0.30059,-0.4472 -1.33846,-1.2615 -3.67672,-1.4099 -5.35015,-1.9684 -0.31909,-0.031 -0.63665,-0.095 -0.95727,-0.094 -2.28369,0.0102 -3.8931,2.083 3.82019,-2.7864 0.30212,-0.1908 -0.65315,0.2995 -0.94535,0.5051 -0.86088,0.6057 -1.48566,1.3809 -2.195019,2.1499 -1.790961,2.1957 -3.516581,4.4358 -5.433501,6.5265 -3.23637,3.53 -6.783709,6.7581 -9.953379,10.35183 -2.387321,2.76922 -5.5405,6.35772 -7.77476,9.23472 -4.62923,5.961 -8.832471,12.3072 -11.74119,19.2979 -0.434951,1.3577 -0.96713,2.6877 -1.30485,4.0727 -0.77341,3.1717 -1.00955,6.937 0.67549,9.8933 0.19835,0.3481 0.506339,0.6209 0.75951,0.9314 0.87423,0.6661 1.4763,1.0618 2.59811,1.1821 2.28403,0.2447 5.670299,-2.6065 -2.78632,2.4969 0.36178,-0.2906 0.76895,-0.5324 1.08533,-0.8719 0.98231,-1.0542 1.82711,-2.6053 2.41078,-3.8687 2.03579,-4.4067 3.234039,-9.1441 4.486779,-13.8115 1.40693,-5.9589 2.16041,-9.0629 3.508751,-15.155 2.47684,-11.1912 4.62182,-22.45705 7.39147,-33.58215 2.045,-8.88079 0.824389,-3.7982 2.765849,-11.50441 0.95539,-3.7922 1.92484,-11.34939 8.508431,-9.75642 0.194689,0.17848 0.443479,0.31185 0.58408,0.53544 0.399659,0.63551 0.49888,1.75505 0.487809,2.42814 -0.0434,2.63994 -0.967689,5.16125 -1.81238,7.62279 -1.25423,3.16981 -1.69408,4.51557 -3.33242,7.61826 -3.203789,6.0675 -7.553999,11.43 -12.50729,16.1553 -5.76841,5.1124 -3.072809,3.0582 -12.023149,8.62585 -2.30681,1.4351 -5.51753,3.2768 -8.18072,4.0016 -0.59047,0.1608 -1.20684,0.2035 -1.810261,0.3054 -1.10005,-0.1292 -1.657899,-0.054 -2.596729,-0.6513 -1.72926,-1.0988 -1.6673,-3.471 -1.73167,-5.24481 0.42059,-6.97284 1.88527,-13.82364 3.08137,-20.69284 0.16594,-0.9833 0.364099,-1.9618 0.49783,-2.95 0.0894,-0.6605 0.11598,-1.3279 0.17089,-1.99211 0.0254,-0.30715 -0.002,-0.62242 0.07,-0.92193 0.0118,-0.0484 0.103361,0.0513 0.146941,0.0271 1.89963,-1.05066 3.742819,-2.20212 5.652359,-3.23466 0.136991,-0.0741 -0.208369,0.2315 -0.312549,0.34725 -0.87021,1.40682 -1.70834,2.8525 -3.04476,3.87997 0,0 -6.1112,2.53137 -6.1112,2.53137 z"
         id="path2849"
         style="fill:#000000" />
    </g>
  </g>
</svg>
