<?xml version="1.0" encoding="UTF-8" standalone="no"?>
<!-- Created with Inkscape (http://www.inkscape.org/) -->

<svg
   xmlns:dc="http://purl.org/dc/elements/1.1/"
   xmlns:cc="http://creativecommons.org/ns#"
   xmlns:rdf="http://www.w3.org/1999/02/22-rdf-syntax-ns#"
   xmlns:svg="http://www.w3.org/2000/svg"
   xmlns="http://www.w3.org/2000/svg"
   xmlns:sodipodi="http://sodipodi.sourceforge.net/DTD/sodipodi-0.dtd"
   xmlns:inkscape="http://www.inkscape.org/namespaces/inkscape"
   width="100"
   height="100"
   id="svg2"
   version="1.1"
   inkscape:version="0.47 r22583"
   sodipodi:docname="j.svg">
  <title
     id="title2813">Aksara Dompu - Mbojo</title>
  <defs
     id="defs4">
    <inkscape:perspective
       sodipodi:type="inkscape:persp3d"
       inkscape:vp_x="0 : 526.18109 : 1"
       inkscape:vp_y="0 : 1000 : 0"
       inkscape:vp_z="744.09448 : 526.18109 : 1"
       inkscape:persp3d-origin="372.04724 : 350.78739 : 1"
       id="perspective10" />
    <inkscape:perspective
       id="perspective10-9"
       inkscape:persp3d-origin="372.04724 : 350.78739 : 1"
       inkscape:vp_z="744.09448 : 526.18109 : 1"
       inkscape:vp_y="0 : 1000 : 0"
       inkscape:vp_x="0 : 526.18109 : 1"
       sodipodi:type="inkscape:persp3d" />
    <inkscape:perspective
       id="perspective10-7"
       inkscape:persp3d-origin="372.04724 : 350.78739 : 1"
       inkscape:vp_z="744.09448 : 526.18109 : 1"
       inkscape:vp_y="0 : 1000 : 0"
       inkscape:vp_x="0 : 526.18109 : 1"
       sodipodi:type="inkscape:persp3d" />
    <inkscape:perspective
       id="perspective10-0"
       inkscape:persp3d-origin="372.04724 : 350.78739 : 1"
       inkscape:vp_z="744.09448 : 526.18109 : 1"
       inkscape:vp_y="0 : 1000 : 0"
       inkscape:vp_x="0 : 526.18109 : 1"
       sodipodi:type="inkscape:persp3d" />
    <inkscape:perspective
       id="perspective10-2"
       inkscape:persp3d-origin="372.04724 : 350.78739 : 1"
       inkscape:vp_z="744.09448 : 526.18109 : 1"
       inkscape:vp_y="0 : 1000 : 0"
       inkscape:vp_x="0 : 526.18109 : 1"
       sodipodi:type="inkscape:persp3d" />
    <inkscape:perspective
       id="perspective10-01"
       inkscape:persp3d-origin="372.04724 : 350.78739 : 1"
       inkscape:vp_z="744.09448 : 526.18109 : 1"
       inkscape:vp_y="0 : 1000 : 0"
       inkscape:vp_x="0 : 526.18109 : 1"
       sodipodi:type="inkscape:persp3d" />
    <inkscape:perspective
       id="perspective10-28"
       inkscape:persp3d-origin="372.04724 : 350.78739 : 1"
       inkscape:vp_z="744.09448 : 526.18109 : 1"
       inkscape:vp_y="0 : 1000 : 0"
       inkscape:vp_x="0 : 526.18109 : 1"
       sodipodi:type="inkscape:persp3d" />
    <inkscape:perspective
       id="perspective10-5"
       inkscape:persp3d-origin="372.04724 : 350.78739 : 1"
       inkscape:vp_z="744.09448 : 526.18109 : 1"
       inkscape:vp_y="0 : 1000 : 0"
       inkscape:vp_x="0 : 526.18109 : 1"
       sodipodi:type="inkscape:persp3d" />
    <inkscape:perspective
       id="perspective10-91"
       inkscape:persp3d-origin="372.04724 : 350.78739 : 1"
       inkscape:vp_z="744.09448 : 526.18109 : 1"
       inkscape:vp_y="0 : 1000 : 0"
       inkscape:vp_x="0 : 526.18109 : 1"
       sodipodi:type="inkscape:persp3d" />
    <inkscape:perspective
       id="perspective10-09"
       inkscape:persp3d-origin="372.04724 : 350.78739 : 1"
       inkscape:vp_z="744.09448 : 526.18109 : 1"
       inkscape:vp_y="0 : 1000 : 0"
       inkscape:vp_x="0 : 526.18109 : 1"
       sodipodi:type="inkscape:persp3d" />
    <inkscape:perspective
       id="perspective10-6"
       inkscape:persp3d-origin="372.04724 : 350.78739 : 1"
       inkscape:vp_z="744.09448 : 526.18109 : 1"
       inkscape:vp_y="0 : 1000 : 0"
       inkscape:vp_x="0 : 526.18109 : 1"
       sodipodi:type="inkscape:persp3d" />
    <inkscape:perspective
       sodipodi:type="inkscape:persp3d"
       inkscape:vp_x="0 : 526.18109 : 1"
       inkscape:vp_y="0 : 1000 : 0"
       inkscape:vp_z="744.09448 : 526.18109 : 1"
       inkscape:persp3d-origin="372.04724 : 350.78739 : 1"
       id="perspective10-97" />
    <inkscape:perspective
       id="perspective10-8"
       inkscape:persp3d-origin="372.04724 : 350.78739 : 1"
       inkscape:vp_z="744.09448 : 526.18109 : 1"
       inkscape:vp_y="0 : 1000 : 0"
       inkscape:vp_x="0 : 526.18109 : 1"
       sodipodi:type="inkscape:persp3d" />
    <inkscape:perspective
       id="perspective10-9-7"
       inkscape:persp3d-origin="372.04724 : 350.78739 : 1"
       inkscape:vp_z="744.09448 : 526.18109 : 1"
       inkscape:vp_y="0 : 1000 : 0"
       inkscape:vp_x="0 : 526.18109 : 1"
       sodipodi:type="inkscape:persp3d" />
    <inkscape:perspective
       id="perspective10-66"
       inkscape:persp3d-origin="372.04724 : 350.78739 : 1"
       inkscape:vp_z="744.09448 : 526.18109 : 1"
       inkscape:vp_y="0 : 1000 : 0"
       inkscape:vp_x="0 : 526.18109 : 1"
       sodipodi:type="inkscape:persp3d" />
    <inkscape:perspective
       id="perspective10-87"
       inkscape:persp3d-origin="372.04724 : 350.78739 : 1"
       inkscape:vp_z="744.09448 : 526.18109 : 1"
       inkscape:vp_y="0 : 1000 : 0"
       inkscape:vp_x="0 : 526.18109 : 1"
       sodipodi:type="inkscape:persp3d" />
    <inkscape:perspective
       id="perspective10-05"
       inkscape:persp3d-origin="372.04724 : 350.78739 : 1"
       inkscape:vp_z="744.09448 : 526.18109 : 1"
       inkscape:vp_y="0 : 1000 : 0"
       inkscape:vp_x="0 : 526.18109 : 1"
       sodipodi:type="inkscape:persp3d" />
    <inkscape:perspective
       id="perspective10-64"
       inkscape:persp3d-origin="372.04724 : 350.78739 : 1"
       inkscape:vp_z="744.09448 : 526.18109 : 1"
       inkscape:vp_y="0 : 1000 : 0"
       inkscape:vp_x="0 : 526.18109 : 1"
       sodipodi:type="inkscape:persp3d" />
    <inkscape:perspective
       id="perspective10-96"
       inkscape:persp3d-origin="372.04724 : 350.78739 : 1"
       inkscape:vp_z="744.09448 : 526.18109 : 1"
       inkscape:vp_y="0 : 1000 : 0"
       inkscape:vp_x="0 : 526.18109 : 1"
       sodipodi:type="inkscape:persp3d" />
    <inkscape:perspective
       id="perspective10-22"
       inkscape:persp3d-origin="372.04724 : 350.78739 : 1"
       inkscape:vp_z="744.09448 : 526.18109 : 1"
       inkscape:vp_y="0 : 1000 : 0"
       inkscape:vp_x="0 : 526.18109 : 1"
       sodipodi:type="inkscape:persp3d" />
    <inkscape:perspective
       id="perspective10-3"
       inkscape:persp3d-origin="372.04724 : 350.78739 : 1"
       inkscape:vp_z="744.09448 : 526.18109 : 1"
       inkscape:vp_y="0 : 1000 : 0"
       inkscape:vp_x="0 : 526.18109 : 1"
       sodipodi:type="inkscape:persp3d" />
    <inkscape:perspective
       id="perspective10-35"
       inkscape:persp3d-origin="372.04724 : 350.78739 : 1"
       inkscape:vp_z="744.09448 : 526.18109 : 1"
       inkscape:vp_y="0 : 1000 : 0"
       inkscape:vp_x="0 : 526.18109 : 1"
       sodipodi:type="inkscape:persp3d" />
    <inkscape:perspective
       id="perspective10-06"
       inkscape:persp3d-origin="372.04724 : 350.78739 : 1"
       inkscape:vp_z="744.09448 : 526.18109 : 1"
       inkscape:vp_y="0 : 1000 : 0"
       inkscape:vp_x="0 : 526.18109 : 1"
       sodipodi:type="inkscape:persp3d" />
  </defs>
  <sodipodi:namedview
     id="base"
     pagecolor="#ffffff"
     bordercolor="#666666"
     borderopacity="1.0"
     inkscape:pageopacity="0.0"
     inkscape:pageshadow="2"
     inkscape:zoom="1"
     inkscape:cx="-64"
     inkscape:cy="28.139785"
     inkscape:document-units="px"
     inkscape:current-layer="layer1"
     showgrid="false"
     inkscape:window-width="1024"
     inkscape:window-height="538"
     inkscape:window-x="0"
     inkscape:window-y="24"
     inkscape:window-maximized="1" />
  <metadata
     id="metadata7">
    <rdf:RDF>
      <cc:Work
         rdf:about="">
        <dc:format>image/svg+xml</dc:format>
        <dc:type
           rdf:resource="http://purl.org/dc/dcmitype/StillImage" />
        <dc:title>Aksara Dompu - Mbojo</dc:title>
        <dc:creator>
          <cc:Agent>
            <dc:title>Farhan Perdana (Black_Claw)</dc:title>
          </cc:Agent>
        </dc:creator>
        <dc:contributor>
          <cc:Agent>
            <dc:title>Farhan Perdana blackdramon@gmail.com</dc:title>
          </cc:Agent>
        </dc:contributor>
      </cc:Work>
    </rdf:RDF>
  </metadata>
  <g
     inkscape:label="Layer 1"
     inkscape:groupmode="layer"
     id="layer1"
     transform="translate(0,-952.36218)">
    <g
       id="layer1-6"
       inkscape:label="Layer 1"
       transform="translate(-0.24106,0.81632)">
      <path
         id="path4618"
         d="m 45.998068,955.89581 c -0.3387,0.008 -0.70767,0.0228 -1.008822,0.17793 -6.331274,3.2631 -5.123074,2.36384 -7.892552,4.68806 -0.270214,0.34337 -0.536319,0.64053 -0.771452,1.00882 -2.372703,3.71634 -2.464314,8.6238 -3.145152,12.81798 -0.237009,2.12486 -0.422389,4.28084 -0.593425,6.40899 -10.670751,2.12275 -8.987139,-1.30626 -23.0842303,3.97594 -0.0601,0.004 -0.117825,-0.004 -0.178028,0 -0.161901,-0.006 -0.324133,-0.0596 -0.47474,0 -0.444153,0.17585 -0.03202,0.22883 0,0.23737 -0.02355,0.0133 -0.03579,0.046 -0.05934,0.0593 -1.9241723,0.73313 -4.0906727,1.53377 -6.6463592,2.61107 0.013768,0.17508 -0.026434,0.38078 0.059343,0.53408 0.1258706,0.22499 0.3107477,0.4053 0.5340824,0.53409 0.7183708,0.41425 3.3969808,0.25028 4.1539745,0.23737 7.4028856,-0.004 17.7368026,6.97937 24.5677926,14.18289 -0.07609,2.1989 -0.149904,4.3876 -0.23737,6.587 -0.389036,8.1504 -0.288881,7.0543 -0.23737,6.0529 -0.01348,0.5723 -0.06189,2.3432 -0.23737,6.6464 -0.07491,1.8372 -0.440787,8.8186 -0.534083,10.919 -0.0598,1.346 -0.10731,2.6899 -0.178027,4.0352 -0.802567,-1.4325 -1.534922,-2.9115 -2.076987,-4.4506 l -6.349647,3.5011 c 1.306376,2.6101 2.842331,5.158 4.450687,7.5959 3.053823,4.2734 3.150256,3.9162 9.316771,-1.2461 0.468023,-0.3918 0.191548,-1.2309 0.23737,-1.8397 0.06322,-0.84 0.07127,-1.6514 0.118685,-2.4924 0.02417,-9.7422 0.231377,-19.5185 0.534083,-29.2558 0.987586,1.7844 1.839812,3.7091 2.017644,5.7562 0.03223,0.3709 -0.04571,0.7551 -0.05934,1.1275 -0.0014,0.039 7.57e-4,0.08 0,0.1187 0.07186,1.0186 -0.315157,2.0686 -0.23737,3.0858 0.0636,0.8316 0.237996,1.3801 0.415397,2.1957 0.729366,2.4409 1.862682,3.9058 4.094632,5.1034 1.230963,0.4604 2.58153,0.9068 3.916605,0.8308 1.001933,-0.057 1.81326,-0.3516 2.789097,-0.5934 2.737821,-0.9083 5.238034,-2.2811 7.714524,-3.7386 1.239985,-0.7297 2.736067,-1.5405 4.153975,-2.3737 -0.187105,0.5154 -0.396049,0.9534 -0.652768,1.6616 -0.861471,2.7343 -1.097,5.4913 1.364877,7.4772 0.30169,0.2432 0.622031,0.4454 0.94948,0.6528 0.480105,0.1405 0.927796,0.3546 1.42422,0.4153 3.034447,0.3764 6.214988,-0.409 9.138744,-1.0681 4.57001,-1.0298 3.864871,-0.9164 8.545319,-2.4331 2.697974,-1.0501 5.511239,-2.0514 8.070579,-3.4418 2.843802,-1.5448 5.623671,-3.2482 8.426634,-4.8661 l -6.052934,2.3143 c 7.978653,-4.3527 -5.117704,2.7565 -5.578195,2.1957 -1.448002,0.4687 -2.867919,1.0086 -4.332002,1.4242 -1.988896,0.5646 -5.447678,1.2635 -7.536496,1.6023 -1.749719,0.2896 -3.122764,0.4809 -4.866085,0.2967 -0.433845,-0.046 -0.881747,-0.1923 -1.305534,-0.2967 -0.302803,-0.1595 -0.608313,-0.2805 -0.890138,-0.4748 -2.255975,-1.5548 -1.95909,-4.3294 -1.246192,-6.6463 0.448652,-1.237 0.716436,-2.0598 1.068165,-2.9078 0.38874,-0.2628 0.817323,-0.5089 1.18685,-0.7714 0.986861,-0.7013 1.942922,-1.4644 2.907782,-2.1957 2.215028,-1.8323 4.50205,-3.6479 6.408989,-5.8156 0.525389,-0.5972 1.274925,-1.5252 1.483562,-2.3737 0.06601,-0.2689 0.0053,-0.5541 0,-0.8308 -0.353364,-0.5095 -0.447666,-0.8393 -1.127507,-0.9495 -1.026995,-0.1667 -2.147049,0.4497 -2.967125,0.9495 -2.375953,1.4476 -4.759138,2.9803 -7.121099,4.4507 -2.295242,2.4829 -4.349313,5.1616 -5.874907,8.1893 -0.305709,0.6067 -0.45146,1.0242 -0.652767,1.4835 -0.780945,0.439 -1.580514,0.8453 -2.195672,1.4836 -0.434332,0.4506 1.220417,-0.5888 2.017644,-1.0682 -0.02123,0.051 -0.03876,0.1278 -0.05934,0.178 -0.766688,0.5419 -1.66013,0.8654 -2.492385,1.3055 -1.716207,0.9075 -2.658253,1.2675 -4.391344,1.9583 -0.465143,0.1238 -2.0015,0.5232 -2.551727,0.5934 -1.255651,0.1595 -2.547668,-0.1874 -3.738577,-0.5341 -2.15272,-0.9737 -3.164239,-2.2786 -3.79792,-4.5693 -0.32852,-1.747 -0.235222,-3.3354 -0.118685,-5.1035 -0.0014,-0.02 0.0012,-0.039 0,-0.059 -0.02613,-0.4162 0.0025,-0.834 -0.05934,-1.2462 -2.327892,-3.6117 -4.985334,-7.4435 -7.892552,-11.0377 0.242146,-6.63839 0.440648,-13.26287 1.008822,-19.87976 3.238849,-1.10529 6.396992,-2.55127 9.316772,-4.45069 2.641084,-1.71873 4.116743,-2.66733 6.646359,-4.45068 2.128341,-1.50047 4.275331,-3.1086 5.518852,-5.45951 0.80916,-2.40893 0.763418,-3.86285 -0.830795,-5.93425 -0.3044,-0.27529 -0.56556,-0.57962 -0.890138,-0.8308 -2.028772,-1.56998 -4.597189,-2.32863 -7.002414,-3.08581 -1.359324,-0.4039 -2.88568,-0.92477 -4.332002,-0.89013 z m -4.153974,4.332 c 0.931119,0.0853 1.822675,0.31198 2.729755,0.53408 2.335857,0.71055 4.85624,1.38886 6.824386,2.90778 0.29575,0.22824 0.554504,0.52 0.830795,0.77146 1.354258,1.78826 1.248766,3.23419 0.415398,5.22213 -1.330797,2.07752 -3.300484,3.52248 -5.281482,4.92543 -3.268583,2.31481 -2.789625,1.94013 -6.349647,4.27266 -1.227704,0.36403 -2.334496,0.66895 -3.382522,0.94948 0.09578,-1.02105 0.23665,-2.06643 0.356055,-3.08581 0.189364,-1.61658 0.480777,-3.19564 0.71211,-4.80674 0.687465,-3.53051 1.219005,-8.316 3.145152,-11.69047 z M 32.46798,982.4219 c -0.323888,4.34814 -0.539796,8.69817 -0.71211,13.05535 -4.844977,-4.89018 -10.339467,-8.72092 -16.43787,-10.02888 5.509754,-0.84662 11.38872,-1.60187 17.14998,-3.02647 z m 39.5221,25.814 c -0.664976,0.3601 -1.345166,0.7223 -2.017645,1.0682 -0.367693,0.1889 0.707297,-0.4511 1.068165,-0.6528 0.113995,-0.064 0.54691,-0.2484 0.94948,-0.4154 z m 1.068165,0.2967 c -0.186269,0.812 -0.677672,1.4789 -1.246192,2.1364 -0.643193,0.7438 -1.358979,1.4073 -2.076988,2.077 0.968694,-1.5108 2.105127,-2.8947 3.32318,-4.2134 z"
         style="fill:#000000" />
    </g>
  </g>
</svg>
