<?xml version="1.0" encoding="UTF-8" standalone="no"?>
<!-- Created with Inkscape (http://www.inkscape.org/) -->

<svg
   xmlns:dc="http://purl.org/dc/elements/1.1/"
   xmlns:cc="http://creativecommons.org/ns#"
   xmlns:rdf="http://www.w3.org/1999/02/22-rdf-syntax-ns#"
   xmlns:svg="http://www.w3.org/2000/svg"
   xmlns="http://www.w3.org/2000/svg"
   xmlns:sodipodi="http://sodipodi.sourceforge.net/DTD/sodipodi-0.dtd"
   xmlns:inkscape="http://www.inkscape.org/namespaces/inkscape"
   width="100"
   height="100"
   id="svg2"
   version="1.1"
   inkscape:version="0.47 r22583"
   sodipodi:docname="k.svg">
  <title
     id="title2813">Aksara Dompu - Mbojo</title>
  <defs
     id="defs4">
    <inkscape:perspective
       sodipodi:type="inkscape:persp3d"
       inkscape:vp_x="0 : 526.18109 : 1"
       inkscape:vp_y="0 : 1000 : 0"
       inkscape:vp_z="744.09448 : 526.18109 : 1"
       inkscape:persp3d-origin="372.04724 : 350.78739 : 1"
       id="perspective10" />
    <inkscape:perspective
       id="perspective10-9"
       inkscape:persp3d-origin="372.04724 : 350.78739 : 1"
       inkscape:vp_z="744.09448 : 526.18109 : 1"
       inkscape:vp_y="0 : 1000 : 0"
       inkscape:vp_x="0 : 526.18109 : 1"
       sodipodi:type="inkscape:persp3d" />
    <inkscape:perspective
       id="perspective10-7"
       inkscape:persp3d-origin="372.04724 : 350.78739 : 1"
       inkscape:vp_z="744.09448 : 526.18109 : 1"
       inkscape:vp_y="0 : 1000 : 0"
       inkscape:vp_x="0 : 526.18109 : 1"
       sodipodi:type="inkscape:persp3d" />
    <inkscape:perspective
       id="perspective10-0"
       inkscape:persp3d-origin="372.04724 : 350.78739 : 1"
       inkscape:vp_z="744.09448 : 526.18109 : 1"
       inkscape:vp_y="0 : 1000 : 0"
       inkscape:vp_x="0 : 526.18109 : 1"
       sodipodi:type="inkscape:persp3d" />
    <inkscape:perspective
       id="perspective10-2"
       inkscape:persp3d-origin="372.04724 : 350.78739 : 1"
       inkscape:vp_z="744.09448 : 526.18109 : 1"
       inkscape:vp_y="0 : 1000 : 0"
       inkscape:vp_x="0 : 526.18109 : 1"
       sodipodi:type="inkscape:persp3d" />
    <inkscape:perspective
       id="perspective10-01"
       inkscape:persp3d-origin="372.04724 : 350.78739 : 1"
       inkscape:vp_z="744.09448 : 526.18109 : 1"
       inkscape:vp_y="0 : 1000 : 0"
       inkscape:vp_x="0 : 526.18109 : 1"
       sodipodi:type="inkscape:persp3d" />
    <inkscape:perspective
       id="perspective10-28"
       inkscape:persp3d-origin="372.04724 : 350.78739 : 1"
       inkscape:vp_z="744.09448 : 526.18109 : 1"
       inkscape:vp_y="0 : 1000 : 0"
       inkscape:vp_x="0 : 526.18109 : 1"
       sodipodi:type="inkscape:persp3d" />
    <inkscape:perspective
       id="perspective10-5"
       inkscape:persp3d-origin="372.04724 : 350.78739 : 1"
       inkscape:vp_z="744.09448 : 526.18109 : 1"
       inkscape:vp_y="0 : 1000 : 0"
       inkscape:vp_x="0 : 526.18109 : 1"
       sodipodi:type="inkscape:persp3d" />
    <inkscape:perspective
       id="perspective10-91"
       inkscape:persp3d-origin="372.04724 : 350.78739 : 1"
       inkscape:vp_z="744.09448 : 526.18109 : 1"
       inkscape:vp_y="0 : 1000 : 0"
       inkscape:vp_x="0 : 526.18109 : 1"
       sodipodi:type="inkscape:persp3d" />
    <inkscape:perspective
       id="perspective10-09"
       inkscape:persp3d-origin="372.04724 : 350.78739 : 1"
       inkscape:vp_z="744.09448 : 526.18109 : 1"
       inkscape:vp_y="0 : 1000 : 0"
       inkscape:vp_x="0 : 526.18109 : 1"
       sodipodi:type="inkscape:persp3d" />
    <inkscape:perspective
       id="perspective10-6"
       inkscape:persp3d-origin="372.04724 : 350.78739 : 1"
       inkscape:vp_z="744.09448 : 526.18109 : 1"
       inkscape:vp_y="0 : 1000 : 0"
       inkscape:vp_x="0 : 526.18109 : 1"
       sodipodi:type="inkscape:persp3d" />
    <inkscape:perspective
       sodipodi:type="inkscape:persp3d"
       inkscape:vp_x="0 : 526.18109 : 1"
       inkscape:vp_y="0 : 1000 : 0"
       inkscape:vp_z="744.09448 : 526.18109 : 1"
       inkscape:persp3d-origin="372.04724 : 350.78739 : 1"
       id="perspective10-97" />
    <inkscape:perspective
       id="perspective10-8"
       inkscape:persp3d-origin="372.04724 : 350.78739 : 1"
       inkscape:vp_z="744.09448 : 526.18109 : 1"
       inkscape:vp_y="0 : 1000 : 0"
       inkscape:vp_x="0 : 526.18109 : 1"
       sodipodi:type="inkscape:persp3d" />
    <inkscape:perspective
       id="perspective10-9-7"
       inkscape:persp3d-origin="372.04724 : 350.78739 : 1"
       inkscape:vp_z="744.09448 : 526.18109 : 1"
       inkscape:vp_y="0 : 1000 : 0"
       inkscape:vp_x="0 : 526.18109 : 1"
       sodipodi:type="inkscape:persp3d" />
    <inkscape:perspective
       id="perspective10-66"
       inkscape:persp3d-origin="372.04724 : 350.78739 : 1"
       inkscape:vp_z="744.09448 : 526.18109 : 1"
       inkscape:vp_y="0 : 1000 : 0"
       inkscape:vp_x="0 : 526.18109 : 1"
       sodipodi:type="inkscape:persp3d" />
    <inkscape:perspective
       id="perspective10-87"
       inkscape:persp3d-origin="372.04724 : 350.78739 : 1"
       inkscape:vp_z="744.09448 : 526.18109 : 1"
       inkscape:vp_y="0 : 1000 : 0"
       inkscape:vp_x="0 : 526.18109 : 1"
       sodipodi:type="inkscape:persp3d" />
    <inkscape:perspective
       id="perspective10-05"
       inkscape:persp3d-origin="372.04724 : 350.78739 : 1"
       inkscape:vp_z="744.09448 : 526.18109 : 1"
       inkscape:vp_y="0 : 1000 : 0"
       inkscape:vp_x="0 : 526.18109 : 1"
       sodipodi:type="inkscape:persp3d" />
    <inkscape:perspective
       id="perspective10-64"
       inkscape:persp3d-origin="372.04724 : 350.78739 : 1"
       inkscape:vp_z="744.09448 : 526.18109 : 1"
       inkscape:vp_y="0 : 1000 : 0"
       inkscape:vp_x="0 : 526.18109 : 1"
       sodipodi:type="inkscape:persp3d" />
    <inkscape:perspective
       id="perspective10-96"
       inkscape:persp3d-origin="372.04724 : 350.78739 : 1"
       inkscape:vp_z="744.09448 : 526.18109 : 1"
       inkscape:vp_y="0 : 1000 : 0"
       inkscape:vp_x="0 : 526.18109 : 1"
       sodipodi:type="inkscape:persp3d" />
    <inkscape:perspective
       id="perspective10-22"
       inkscape:persp3d-origin="372.04724 : 350.78739 : 1"
       inkscape:vp_z="744.09448 : 526.18109 : 1"
       inkscape:vp_y="0 : 1000 : 0"
       inkscape:vp_x="0 : 526.18109 : 1"
       sodipodi:type="inkscape:persp3d" />
    <inkscape:perspective
       id="perspective10-3"
       inkscape:persp3d-origin="372.04724 : 350.78739 : 1"
       inkscape:vp_z="744.09448 : 526.18109 : 1"
       inkscape:vp_y="0 : 1000 : 0"
       inkscape:vp_x="0 : 526.18109 : 1"
       sodipodi:type="inkscape:persp3d" />
    <inkscape:perspective
       id="perspective10-35"
       inkscape:persp3d-origin="372.04724 : 350.78739 : 1"
       inkscape:vp_z="744.09448 : 526.18109 : 1"
       inkscape:vp_y="0 : 1000 : 0"
       inkscape:vp_x="0 : 526.18109 : 1"
       sodipodi:type="inkscape:persp3d" />
    <inkscape:perspective
       id="perspective10-06"
       inkscape:persp3d-origin="372.04724 : 350.78739 : 1"
       inkscape:vp_z="744.09448 : 526.18109 : 1"
       inkscape:vp_y="0 : 1000 : 0"
       inkscape:vp_x="0 : 526.18109 : 1"
       sodipodi:type="inkscape:persp3d" />
    <inkscape:perspective
       id="perspective10-76"
       inkscape:persp3d-origin="372.04724 : 350.78739 : 1"
       inkscape:vp_z="744.09448 : 526.18109 : 1"
       inkscape:vp_y="0 : 1000 : 0"
       inkscape:vp_x="0 : 526.18109 : 1"
       sodipodi:type="inkscape:persp3d" />
  </defs>
  <sodipodi:namedview
     id="base"
     pagecolor="#ffffff"
     bordercolor="#666666"
     borderopacity="1.0"
     inkscape:pageopacity="0.0"
     inkscape:pageshadow="2"
     inkscape:zoom="1"
     inkscape:cx="-64"
     inkscape:cy="28.139785"
     inkscape:document-units="px"
     inkscape:current-layer="layer1"
     showgrid="false"
     inkscape:window-width="1024"
     inkscape:window-height="538"
     inkscape:window-x="0"
     inkscape:window-y="24"
     inkscape:window-maximized="1" />
  <metadata
     id="metadata7">
    <rdf:RDF>
      <cc:Work
         rdf:about="">
        <dc:format>image/svg+xml</dc:format>
        <dc:type
           rdf:resource="http://purl.org/dc/dcmitype/StillImage" />
        <dc:title>Aksara Dompu - Mbojo</dc:title>
        <dc:creator>
          <cc:Agent>
            <dc:title>Farhan Perdana (Black_Claw)</dc:title>
          </cc:Agent>
        </dc:creator>
        <dc:contributor>
          <cc:Agent>
            <dc:title>Farhan Perdana blackdramon@gmail.com</dc:title>
          </cc:Agent>
        </dc:contributor>
      </cc:Work>
    </rdf:RDF>
  </metadata>
  <g
     inkscape:label="Layer 1"
     inkscape:groupmode="layer"
     id="layer1"
     transform="translate(0,-952.36218)">
    <g
       id="layer1-1"
       inkscape:label="Layer 1"
       transform="translate(1.20881,-1.824067)">
      <path
         d="m 11.231034,964.63557 c 1.387877,-0.47264 2.818066,-0.81243 4.13777,-1.46994 0.67877,-0.33819 1.321805,-0.74399 1.989815,-1.10296 0.254615,-0.0811 0.888281,-0.40142 1.211775,-0.13863 0.188721,0.15331 0.322734,0.38971 0.371045,0.62801 0.22182,1.09415 -0.517705,3.97983 -0.700722,4.9332 -1.112762,5.73566 -1.966028,11.50242 -2.436387,17.32581 -0.04319,2.28162 -0.271048,4.90284 1.216967,6.84016 0.653532,0.85088 1.07975,0.99488 1.9733,1.53462 2.919664,1.00179 6.019322,0.99272 9.06554,0.79766 1.14711,-0.0735 2.297659,-0.14218 3.433823,-0.31649 1.295313,-0.19874 2.56598,-0.53392 3.848971,-0.80087 4.337067,-0.95433 8.282931,-2.63136 12.180273,-4.7277 0.06518,-0.0351 -0.278209,0.005 -0.218671,-0.0386 17.221902,-12.72195 -8.039503,6.42684 8.485647,-6.16311 6.224791,-5.02048 11.888352,-10.71088 16.810436,-17.01062 0.572746,-0.90593 2.550633,-3.26881 2.14828,-4.55773 -0.09581,-0.30693 -0.439231,-0.30231 -0.674213,-0.35619 -1.932365,-0.004 -3.292214,0.50859 -4.925518,1.51089 1.396484,-0.76424 2.711813,-1.70042 4.189452,-2.29272 0.543003,-0.21766 -0.918869,0.72904 -1.329045,1.14616 -0.506685,0.51525 -1.010073,1.04412 -1.414031,1.6433 -2.106786,3.12501 -3.037439,6.80707 -4.092877,10.36455 -1.82335,7.34143 -2.694562,14.85593 -3.683226,22.33933 -1.572603,11.9033 -0.02416,-0.26475 -1.433024,10.933 -0.939711,5.8089 -1.708982,11.7245 -4.257546,17.0975 -1.495691,3.1533 -2.005867,3.5537 -4.087158,6.3683 -0.886765,0.9464 -1.70746,1.9595 -2.660295,2.8395 -3.185327,2.9416 -7.012463,5.3223 -10.752997,7.4791 -8.241484,4.7522 -6.199567,3.6768 -12.208242,6.5496 -2.875589,1.2524 -5.717835,2.6546 -8.742409,3.5298 -1.213991,0.3512 -2.381404,0.5964 -3.647574,0.5321 -0.448234,-0.023 -0.884369,-0.1536 -1.326552,-0.2305 -0.360656,-0.2448 -0.783307,-0.4171 -1.08197,-0.7347 -1.567748,-1.667 -1.752706,-5.4398 -1.28853,-7.5284 0.195573,-0.88 0.59401,-1.7023 0.891014,-2.5535 1.761432,-4.1389 4.450735,-7.7343 7.828761,-10.697 2.152639,-1.888 5.087601,-3.9555 7.377533,-5.6327 4.564831,-3.1277 9.263051,-6.0545 13.878817,-9.1038 4.198217,-2.7736 8.285572,-5.7156 12.412292,-8.5934 4.145783,-2.8849 8.175132,-5.93184 12.313707,-8.82688 3.421192,-2.2315 6.99443,-4.22618 10.656094,-6.03399 1.736326,-0.65922 3.420566,-1.45017 5.158984,-2.10145 1.747717,-0.76713 3.527728,-1.45537 5.186823,-2.4059 0.271162,-0.13867 1.07649,-0.56964 0.813484,-0.41604 -1.617615,0.94466 -6.521266,3.68981 -4.878346,2.78987 1.697166,-0.92964 6.112151,-5.77526 6.581659,-2.10093 -0.08307,2.30442 -0.16249,4.60994 -0.220733,6.91595 -0.03343,3.32171 -0.04475,6.6543 -0.741172,9.91437 -0.608573,2.9311 -1.916647,4.1754 -4.223243,5.9106 -3.094097,2.0952 -1.485073,1.0454 -7.648469,4.5419 -1.340603,0.7606 -2.765863,1.2341 -4.256535,1.5879 -2.125755,0.2601 -3.377213,-0.2263 -4.714837,-1.8723 -1.232837,-1.999 -0.492546,-3.6654 0.784878,-5.3916 1.8265,-1.7718 3.922939,-3.2233 5.879212,-4.8389 0,0 5.844033,-2.3658 5.844033,-2.3658 l 0,0 c -0.927734,0.812 -1.92749,1.4831 -2.893211,2.2456 -0.06891,0.054 -2.008787,1.6966 -2.08182,1.7558 -0.305641,0.2479 -0.622196,0.4821 -0.933295,0.7232 -1.156947,1.3008 -2.197913,2.9018 -1.119849,4.583 1.220595,1.4344 2.437268,1.666 4.263684,1.3102 1.039621,-0.2892 2.020837,-0.6211 2.994253,-1.0952 0.370815,-0.1807 1.448882,-0.7879 1.096265,-0.5739 -7.025159,4.2631 -4.834995,2.8694 -3.011019,1.6877 2.117049,-1.5074 3.810296,-2.8233 4.385122,-5.5019 0.851091,-3.2003 0.954388,-6.52115 0.860712,-9.81848 -0.0053,-2.24133 0.02628,-4.48274 -0.01233,-6.72381 -0.0034,-0.11127 -0.02789,-0.22396 -0.01028,-0.33393 0.0034,-0.0212 0.06017,0.003 0.05987,0.0241 -6.08e-4,0.0423 -0.09871,0.1321 -0.06181,0.11127 1.732742,-0.98114 6.911293,-3.95815 5.165221,-3.00094 -2.047084,1.12222 -4.040499,2.33976 -6.068498,3.49612 -0.261617,0.14917 -0.533214,0.28011 -0.799821,0.42017 -1.705016,0.87302 -3.467909,1.61362 -5.237865,2.3439 -1.717935,0.69087 -3.427347,1.40753 -5.124378,2.14754 -0.597512,0.2986 -1.06335,0.52833 -1.655845,0.83665 -0.27712,0.14421 -1.096762,0.59826 -0.828109,0.43883 8.795481,-5.21967 4.507121,-2.62572 2.592353,-1.48568 -4.438568,2.94047 -8.699717,6.14066 -13.103925,9.13196 -2.73538,1.8839 -5.447522,3.8015 -8.183023,5.6852 -5.968161,4.1099 -12.139474,7.9129 -18.122189,12.0021 -3.413778,2.5046 -6.970829,4.9199 -9.860226,8.0517 -2.102871,2.2793 -3.729208,4.9237 -4.9751,7.7529 -0.292373,0.7915 -0.685236,1.5527 -0.877119,2.3743 -0.43171,1.8485 -0.305062,5.3757 1.195543,6.8101 0.256534,0.2452 0.613811,0.3564 0.920717,0.5345 0.395446,0.056 0.787109,0.1572 1.186339,0.1673 3.862461,0.099 8.275433,-2.5057 11.752127,-3.8621 1.199192,-0.5762 2.363677,-1.2311 3.597575,-1.7286 0.324087,-0.1302 -1.150541,0.7903 -0.846018,0.6191 3.624412,-2.04 7.589994,-4.5053 10.688497,-7.2945 0.954791,-0.8594 1.783143,-1.8497 2.674714,-2.7747 1.991602,-2.6176 2.713115,-3.3104 4.188119,-6.2614 2.670585,-5.3428 3.610509,-11.2876 4.613223,-17.1107 0.577557,-3.9895 1.018706,-6.9698 1.559779,-10.99201 0.999952,-7.43339 1.817698,-14.90306 3.341572,-22.25452 0.866984,-3.48415 1.627304,-7.17785 3.448303,-10.33445 1.939131,-3.36138 5.891798,-4.96644 9.002338,-6.82099 1.669916,-0.87468 3.50107,-1.56862 5.408052,-1.12149 0.204987,0.12525 0.443822,0.20712 0.614958,0.37569 1.550255,1.52694 -1.266715,4.63404 -2.02516,5.77818 -5.174269,6.36244 -11.001495,12.18284 -17.347342,17.3808 -2.39323,1.83146 -5.898675,4.59852 -8.445738,6.20511 -2.914372,1.83828 -5.881052,3.59537 -8.885959,5.2816 -1.456523,0.81733 -2.957304,1.56018 -4.489765,2.22431 -3.094046,1.34088 -4.75886,1.67131 -7.962327,2.53712 -1.329931,0.27627 -2.647744,0.61919 -3.989793,0.82883 -1.166827,0.18226 -2.348275,0.2586 -3.526074,0.34518 -3.254998,0.2393 -6.550316,0.31643 -9.655968,-0.83769 -0.95222,-0.64356 -1.432435,-0.84395 -2.114984,-1.81273 -1.503093,-2.13342 -1.22898,-4.86641 -1.09467,-7.31454 0.600861,-5.79743 1.379603,-11.56315 2.326214,-17.31454 0.497669,-4.04616 0.110911,-0.60644 0.378425,-3.64413 0.02065,-0.23443 0.05577,-0.46736 0.0817,-0.70125 0.0021,-0.019 0.02155,-0.0578 0.0025,-0.0574 -0.268344,0.007 -0.711844,0.23491 -0.894671,0.3114 -2.056966,1.07681 -4.1280006,1.94619 -6.3886758,2.51327 0,0 5.2027898,-3.91294 5.2027898,-3.91294 z"
         id="path4670"
         style="fill:#000000" />
    </g>
  </g>
</svg>
