<?xml version="1.0" encoding="UTF-8" standalone="no"?>
<!-- Created with Inkscape (http://www.inkscape.org/) -->

<svg
   xmlns:dc="http://purl.org/dc/elements/1.1/"
   xmlns:cc="http://creativecommons.org/ns#"
   xmlns:rdf="http://www.w3.org/1999/02/22-rdf-syntax-ns#"
   xmlns:svg="http://www.w3.org/2000/svg"
   xmlns="http://www.w3.org/2000/svg"
   xmlns:sodipodi="http://sodipodi.sourceforge.net/DTD/sodipodi-0.dtd"
   xmlns:inkscape="http://www.inkscape.org/namespaces/inkscape"
   width="100"
   height="100"
   id="svg2"
   version="1.1"
   inkscape:version="0.47 r22583"
   sodipodi:docname="l.svg">
  <title
     id="title2813">Aksara Dompu - Mbojo</title>
  <defs
     id="defs4">
    <inkscape:perspective
       sodipodi:type="inkscape:persp3d"
       inkscape:vp_x="0 : 526.18109 : 1"
       inkscape:vp_y="0 : 1000 : 0"
       inkscape:vp_z="744.09448 : 526.18109 : 1"
       inkscape:persp3d-origin="372.04724 : 350.78739 : 1"
       id="perspective10" />
    <inkscape:perspective
       id="perspective10-9"
       inkscape:persp3d-origin="372.04724 : 350.78739 : 1"
       inkscape:vp_z="744.09448 : 526.18109 : 1"
       inkscape:vp_y="0 : 1000 : 0"
       inkscape:vp_x="0 : 526.18109 : 1"
       sodipodi:type="inkscape:persp3d" />
    <inkscape:perspective
       id="perspective10-7"
       inkscape:persp3d-origin="372.04724 : 350.78739 : 1"
       inkscape:vp_z="744.09448 : 526.18109 : 1"
       inkscape:vp_y="0 : 1000 : 0"
       inkscape:vp_x="0 : 526.18109 : 1"
       sodipodi:type="inkscape:persp3d" />
    <inkscape:perspective
       id="perspective10-0"
       inkscape:persp3d-origin="372.04724 : 350.78739 : 1"
       inkscape:vp_z="744.09448 : 526.18109 : 1"
       inkscape:vp_y="0 : 1000 : 0"
       inkscape:vp_x="0 : 526.18109 : 1"
       sodipodi:type="inkscape:persp3d" />
    <inkscape:perspective
       id="perspective10-2"
       inkscape:persp3d-origin="372.04724 : 350.78739 : 1"
       inkscape:vp_z="744.09448 : 526.18109 : 1"
       inkscape:vp_y="0 : 1000 : 0"
       inkscape:vp_x="0 : 526.18109 : 1"
       sodipodi:type="inkscape:persp3d" />
    <inkscape:perspective
       id="perspective10-01"
       inkscape:persp3d-origin="372.04724 : 350.78739 : 1"
       inkscape:vp_z="744.09448 : 526.18109 : 1"
       inkscape:vp_y="0 : 1000 : 0"
       inkscape:vp_x="0 : 526.18109 : 1"
       sodipodi:type="inkscape:persp3d" />
    <inkscape:perspective
       id="perspective10-28"
       inkscape:persp3d-origin="372.04724 : 350.78739 : 1"
       inkscape:vp_z="744.09448 : 526.18109 : 1"
       inkscape:vp_y="0 : 1000 : 0"
       inkscape:vp_x="0 : 526.18109 : 1"
       sodipodi:type="inkscape:persp3d" />
    <inkscape:perspective
       id="perspective10-5"
       inkscape:persp3d-origin="372.04724 : 350.78739 : 1"
       inkscape:vp_z="744.09448 : 526.18109 : 1"
       inkscape:vp_y="0 : 1000 : 0"
       inkscape:vp_x="0 : 526.18109 : 1"
       sodipodi:type="inkscape:persp3d" />
    <inkscape:perspective
       id="perspective10-91"
       inkscape:persp3d-origin="372.04724 : 350.78739 : 1"
       inkscape:vp_z="744.09448 : 526.18109 : 1"
       inkscape:vp_y="0 : 1000 : 0"
       inkscape:vp_x="0 : 526.18109 : 1"
       sodipodi:type="inkscape:persp3d" />
    <inkscape:perspective
       id="perspective10-09"
       inkscape:persp3d-origin="372.04724 : 350.78739 : 1"
       inkscape:vp_z="744.09448 : 526.18109 : 1"
       inkscape:vp_y="0 : 1000 : 0"
       inkscape:vp_x="0 : 526.18109 : 1"
       sodipodi:type="inkscape:persp3d" />
    <inkscape:perspective
       id="perspective10-6"
       inkscape:persp3d-origin="372.04724 : 350.78739 : 1"
       inkscape:vp_z="744.09448 : 526.18109 : 1"
       inkscape:vp_y="0 : 1000 : 0"
       inkscape:vp_x="0 : 526.18109 : 1"
       sodipodi:type="inkscape:persp3d" />
    <inkscape:perspective
       sodipodi:type="inkscape:persp3d"
       inkscape:vp_x="0 : 526.18109 : 1"
       inkscape:vp_y="0 : 1000 : 0"
       inkscape:vp_z="744.09448 : 526.18109 : 1"
       inkscape:persp3d-origin="372.04724 : 350.78739 : 1"
       id="perspective10-97" />
    <inkscape:perspective
       id="perspective10-8"
       inkscape:persp3d-origin="372.04724 : 350.78739 : 1"
       inkscape:vp_z="744.09448 : 526.18109 : 1"
       inkscape:vp_y="0 : 1000 : 0"
       inkscape:vp_x="0 : 526.18109 : 1"
       sodipodi:type="inkscape:persp3d" />
    <inkscape:perspective
       id="perspective10-9-7"
       inkscape:persp3d-origin="372.04724 : 350.78739 : 1"
       inkscape:vp_z="744.09448 : 526.18109 : 1"
       inkscape:vp_y="0 : 1000 : 0"
       inkscape:vp_x="0 : 526.18109 : 1"
       sodipodi:type="inkscape:persp3d" />
    <inkscape:perspective
       id="perspective10-66"
       inkscape:persp3d-origin="372.04724 : 350.78739 : 1"
       inkscape:vp_z="744.09448 : 526.18109 : 1"
       inkscape:vp_y="0 : 1000 : 0"
       inkscape:vp_x="0 : 526.18109 : 1"
       sodipodi:type="inkscape:persp3d" />
    <inkscape:perspective
       id="perspective10-87"
       inkscape:persp3d-origin="372.04724 : 350.78739 : 1"
       inkscape:vp_z="744.09448 : 526.18109 : 1"
       inkscape:vp_y="0 : 1000 : 0"
       inkscape:vp_x="0 : 526.18109 : 1"
       sodipodi:type="inkscape:persp3d" />
    <inkscape:perspective
       id="perspective10-05"
       inkscape:persp3d-origin="372.04724 : 350.78739 : 1"
       inkscape:vp_z="744.09448 : 526.18109 : 1"
       inkscape:vp_y="0 : 1000 : 0"
       inkscape:vp_x="0 : 526.18109 : 1"
       sodipodi:type="inkscape:persp3d" />
    <inkscape:perspective
       id="perspective10-64"
       inkscape:persp3d-origin="372.04724 : 350.78739 : 1"
       inkscape:vp_z="744.09448 : 526.18109 : 1"
       inkscape:vp_y="0 : 1000 : 0"
       inkscape:vp_x="0 : 526.18109 : 1"
       sodipodi:type="inkscape:persp3d" />
    <inkscape:perspective
       id="perspective10-96"
       inkscape:persp3d-origin="372.04724 : 350.78739 : 1"
       inkscape:vp_z="744.09448 : 526.18109 : 1"
       inkscape:vp_y="0 : 1000 : 0"
       inkscape:vp_x="0 : 526.18109 : 1"
       sodipodi:type="inkscape:persp3d" />
    <inkscape:perspective
       id="perspective10-22"
       inkscape:persp3d-origin="372.04724 : 350.78739 : 1"
       inkscape:vp_z="744.09448 : 526.18109 : 1"
       inkscape:vp_y="0 : 1000 : 0"
       inkscape:vp_x="0 : 526.18109 : 1"
       sodipodi:type="inkscape:persp3d" />
    <inkscape:perspective
       id="perspective10-3"
       inkscape:persp3d-origin="372.04724 : 350.78739 : 1"
       inkscape:vp_z="744.09448 : 526.18109 : 1"
       inkscape:vp_y="0 : 1000 : 0"
       inkscape:vp_x="0 : 526.18109 : 1"
       sodipodi:type="inkscape:persp3d" />
    <inkscape:perspective
       id="perspective10-35"
       inkscape:persp3d-origin="372.04724 : 350.78739 : 1"
       inkscape:vp_z="744.09448 : 526.18109 : 1"
       inkscape:vp_y="0 : 1000 : 0"
       inkscape:vp_x="0 : 526.18109 : 1"
       sodipodi:type="inkscape:persp3d" />
    <inkscape:perspective
       id="perspective10-06"
       inkscape:persp3d-origin="372.04724 : 350.78739 : 1"
       inkscape:vp_z="744.09448 : 526.18109 : 1"
       inkscape:vp_y="0 : 1000 : 0"
       inkscape:vp_x="0 : 526.18109 : 1"
       sodipodi:type="inkscape:persp3d" />
    <inkscape:perspective
       id="perspective10-76"
       inkscape:persp3d-origin="372.04724 : 350.78739 : 1"
       inkscape:vp_z="744.09448 : 526.18109 : 1"
       inkscape:vp_y="0 : 1000 : 0"
       inkscape:vp_x="0 : 526.18109 : 1"
       sodipodi:type="inkscape:persp3d" />
    <inkscape:perspective
       id="perspective10-872"
       inkscape:persp3d-origin="372.04724 : 350.78739 : 1"
       inkscape:vp_z="744.09448 : 526.18109 : 1"
       inkscape:vp_y="0 : 1000 : 0"
       inkscape:vp_x="0 : 526.18109 : 1"
       sodipodi:type="inkscape:persp3d" />
  </defs>
  <sodipodi:namedview
     id="base"
     pagecolor="#ffffff"
     bordercolor="#666666"
     borderopacity="1.0"
     inkscape:pageopacity="0.0"
     inkscape:pageshadow="2"
     inkscape:zoom="1"
     inkscape:cx="-64"
     inkscape:cy="28.139785"
     inkscape:document-units="px"
     inkscape:current-layer="layer1"
     showgrid="false"
     inkscape:window-width="1024"
     inkscape:window-height="538"
     inkscape:window-x="0"
     inkscape:window-y="24"
     inkscape:window-maximized="1" />
  <metadata
     id="metadata7">
    <rdf:RDF>
      <cc:Work
         rdf:about="">
        <dc:format>image/svg+xml</dc:format>
        <dc:type
           rdf:resource="http://purl.org/dc/dcmitype/StillImage" />
        <dc:title>Aksara Dompu - Mbojo</dc:title>
        <dc:creator>
          <cc:Agent>
            <dc:title>Farhan Perdana (Black_Claw)</dc:title>
          </cc:Agent>
        </dc:creator>
        <dc:contributor>
          <cc:Agent>
            <dc:title>Farhan Perdana blackdramon@gmail.com</dc:title>
          </cc:Agent>
        </dc:contributor>
      </cc:Work>
    </rdf:RDF>
  </metadata>
  <g
     inkscape:label="Layer 1"
     inkscape:groupmode="layer"
     id="layer1"
     transform="translate(0,-952.36218)">
    <g
       id="layer1-6"
       inkscape:label="Layer 1"
       transform="translate(-2.91731,0.019186)">
      <path
         d="m 71.745525,997.01709 c -0.701056,1.39929 -1.652765,2.70574 -2.83217,3.93491 -3.865062,3.1361 -8.503678,4.5998 -13.717684,6.6667 -2.546841,0.6603 -5.417398,1.1018 -8.124275,0.6185 -0.931851,-0.1664 -1.807366,-0.4603 -2.711033,-0.6903 -2.757406,-1.1477 -4.397551,-1.7257 -6.898736,-3.2436 -4.413967,-2.6789 -8.070918,-5.94774 -11.251275,-9.35318 -1.123001,-1.20255 -2.132954,-2.45474 -3.19943,-3.6821 -0.867306,-1.32849 -1.850555,-2.62292 -2.601919,-3.98548 -0.765038,-1.38737 -1.361442,-2.81866 -1.939199,-4.24961 -1.451925,-3.59607 -2.561947,-7.31449 -2.022869,-11.07286 0.140502,-0.97938 0.531621,-1.93321 0.797449,-2.89981 1.292742,-2.03023 1.668125,-3.06044 3.774409,-4.72701 1.544758,-1.22228 3.745356,-2.31937 5.79355,-3.08582 9.754798,-3.65026 6.507529,-2.94011 13.258102,-3.96353 1.243983,-0.0265 2.491851,-0.15302 3.731969,-0.0795 6.29603,0.37321 12.838797,2.65634 17.642267,5.43871 1.551877,0.8989 2.919229,1.94291 4.378852,2.91435 1.32774,1.21983 2.765819,2.38466 3.98322,3.65947 3.994407,4.18274 6.991175,8.91873 9.135608,13.70678 1.726846,3.85562 2.266318,6.22954 3.406059,10.16226 1.472429,7.06663 1.104062,14.22713 -0.635386,21.25143 -0.854568,3.4509 -2.03629,6.5901 -3.222184,9.9856 -2.740034,6.7076 -5.352325,13.5082 -9.785231,19.7872 -2.663398,3.0678 -4.103794,3.1585 -9.992338,5.3103 -0.551172,0.2014 -1.681632,0 -2.171562,-0.1881 -0.361709,-0.1432 -0.643816,-0.3678 -0.965725,-0.5517 -3.211113,-3.1362 -4.235319,-7.087 -5.331498,-10.7897 -1.002204,-4.4196 -1.452027,-8.5055 -0.247706,-12.94 0.694737,-2.5582 1.287208,-3.5291 2.447062,-5.9307 1.084631,-2.0397 2.652788,-3.9145 4.648919,-5.5821 0.612225,-0.5114 1.966549,-1.5059 2.842796,-1.8825 2.653538,-1.1402 5.390781,-2.1824 8.08618,-3.2737 4.510939,-1.1436 9.341931,-1.4923 14.102144,-1.7079 2.465778,0.058 1.332832,-0.012 3.402313,0.1605 0,0 -6.411615,3.1662 -6.411615,3.1662 l 0,0 c -1.855291,-0.197 -0.825599,-0.1202 -3.095255,-0.1848 -4.770023,0.2144 -9.628689,0.6024 -14.039184,1.9719 1.711792,-0.7113 3.386441,-1.4683 5.135341,-2.1341 0.539745,-0.2055 -1.028123,0.4742 -1.49944,0.75 -0.566771,0.3316 -1.105442,0.6883 -1.607361,1.0674 -2.155654,1.6283 -3.89725,3.4882 -5.108689,5.5411 -1.240289,2.3209 -1.964915,3.411 -2.678981,5.8968 -1.214061,4.2263 -0.739085,8.4962 0.36004,12.7048 1.153757,3.5286 2.318959,7.3358 5.67299,10.2041 0.662005,0.2848 0.85002,0.4761 1.654144,0.4269 0.317395,-0.019 1.186217,-0.3017 0.921105,-0.1782 -12.496674,5.8204 -5.433935,2.4588 -4.26485,1.5396 0.496657,-0.3907 0.890928,-0.8394 1.336374,-1.259 0.484992,-0.5947 1.007535,-1.1754 1.454956,-1.7844 4.231999,-5.7605 6.839385,-12.0286 9.404076,-18.2207 1.15144,-3.1746 2.535364,-6.7569 3.357897,-9.9807 1.776933,-6.9644 2.156387,-14.0864 0.654886,-21.09333 -1.162051,-4.21263 -1.472531,-5.98595 -3.340356,-10.10955 -2.145607,-4.73682 -5.171838,-9.41173 -9.231813,-13.50725 -1.231449,-1.24221 -2.692673,-2.36513 -4.039011,-3.54769 -1.487518,-0.93272 -2.889953,-1.93627 -4.462521,-2.79814 -5.016624,-2.74942 -11.288794,-4.81008 -17.738966,-5.00531 -1.22675,-0.0371 -2.450843,0.1089 -3.676263,0.16342 -9.699399,1.63873 0.659313,0.24559 -0.680195,-0.95091 -0.73561,-0.65707 -2.11318,0.78562 -3.090298,1.26489 -3.350711,1.64353 -5.32426,3.58059 -6.861133,6.21852 -0.918772,2.72475 -1.33835,3.23548 -1.243388,6.15032 0.12738,3.9088 1.73669,8.34125 3.749681,11.96652 0.746714,1.34478 1.723663,2.62144 2.585485,3.93216 1.043655,1.2226 2.004952,2.48145 3.130951,3.66782 3.18073,3.35119 7.004136,6.5368 11.527662,9.04863 2.84518,1.5798 4.019816,1.8639 7.122667,2.9511 0.925653,0.1715 1.833167,0.401 2.77694,0.5144 2.727518,0.3276 5.542505,-0.1767 8.020952,-0.9387 -1.838515,0.7614 -3.677029,1.5226 -5.515544,2.2839 0.413787,-0.1774 0.840926,-0.3404 1.241345,-0.5322 1.678684,-0.8042 3.152034,-1.8187 4.626115,-2.7909 1.207898,-1.135 2.189545,-2.3621 2.750799,-3.72962 0,0 7.319778,-2.40248 7.319778,-2.40248 z"
         id="path4749"
         style="fill:#000000" />
    </g>
  </g>
</svg>
