<?xml version="1.0" encoding="UTF-8" standalone="no"?>
<!-- Created with Inkscape (http://www.inkscape.org/) -->

<svg
   xmlns:dc="http://purl.org/dc/elements/1.1/"
   xmlns:cc="http://creativecommons.org/ns#"
   xmlns:rdf="http://www.w3.org/1999/02/22-rdf-syntax-ns#"
   xmlns:svg="http://www.w3.org/2000/svg"
   xmlns="http://www.w3.org/2000/svg"
   xmlns:sodipodi="http://sodipodi.sourceforge.net/DTD/sodipodi-0.dtd"
   xmlns:inkscape="http://www.inkscape.org/namespaces/inkscape"
   width="100"
   height="100"
   id="svg2"
   version="1.1"
   inkscape:version="0.47 r22583"
   sodipodi:docname="m.svg">
  <title
     id="title2813">Aksara Dompu - Mbojo</title>
  <defs
     id="defs4">
    <inkscape:perspective
       sodipodi:type="inkscape:persp3d"
       inkscape:vp_x="0 : 526.18109 : 1"
       inkscape:vp_y="0 : 1000 : 0"
       inkscape:vp_z="744.09448 : 526.18109 : 1"
       inkscape:persp3d-origin="372.04724 : 350.78739 : 1"
       id="perspective10" />
    <inkscape:perspective
       id="perspective10-9"
       inkscape:persp3d-origin="372.04724 : 350.78739 : 1"
       inkscape:vp_z="744.09448 : 526.18109 : 1"
       inkscape:vp_y="0 : 1000 : 0"
       inkscape:vp_x="0 : 526.18109 : 1"
       sodipodi:type="inkscape:persp3d" />
    <inkscape:perspective
       id="perspective10-7"
       inkscape:persp3d-origin="372.04724 : 350.78739 : 1"
       inkscape:vp_z="744.09448 : 526.18109 : 1"
       inkscape:vp_y="0 : 1000 : 0"
       inkscape:vp_x="0 : 526.18109 : 1"
       sodipodi:type="inkscape:persp3d" />
    <inkscape:perspective
       id="perspective10-0"
       inkscape:persp3d-origin="372.04724 : 350.78739 : 1"
       inkscape:vp_z="744.09448 : 526.18109 : 1"
       inkscape:vp_y="0 : 1000 : 0"
       inkscape:vp_x="0 : 526.18109 : 1"
       sodipodi:type="inkscape:persp3d" />
    <inkscape:perspective
       id="perspective10-2"
       inkscape:persp3d-origin="372.04724 : 350.78739 : 1"
       inkscape:vp_z="744.09448 : 526.18109 : 1"
       inkscape:vp_y="0 : 1000 : 0"
       inkscape:vp_x="0 : 526.18109 : 1"
       sodipodi:type="inkscape:persp3d" />
    <inkscape:perspective
       id="perspective10-01"
       inkscape:persp3d-origin="372.04724 : 350.78739 : 1"
       inkscape:vp_z="744.09448 : 526.18109 : 1"
       inkscape:vp_y="0 : 1000 : 0"
       inkscape:vp_x="0 : 526.18109 : 1"
       sodipodi:type="inkscape:persp3d" />
    <inkscape:perspective
       id="perspective10-28"
       inkscape:persp3d-origin="372.04724 : 350.78739 : 1"
       inkscape:vp_z="744.09448 : 526.18109 : 1"
       inkscape:vp_y="0 : 1000 : 0"
       inkscape:vp_x="0 : 526.18109 : 1"
       sodipodi:type="inkscape:persp3d" />
    <inkscape:perspective
       id="perspective10-5"
       inkscape:persp3d-origin="372.04724 : 350.78739 : 1"
       inkscape:vp_z="744.09448 : 526.18109 : 1"
       inkscape:vp_y="0 : 1000 : 0"
       inkscape:vp_x="0 : 526.18109 : 1"
       sodipodi:type="inkscape:persp3d" />
    <inkscape:perspective
       id="perspective10-91"
       inkscape:persp3d-origin="372.04724 : 350.78739 : 1"
       inkscape:vp_z="744.09448 : 526.18109 : 1"
       inkscape:vp_y="0 : 1000 : 0"
       inkscape:vp_x="0 : 526.18109 : 1"
       sodipodi:type="inkscape:persp3d" />
    <inkscape:perspective
       id="perspective10-09"
       inkscape:persp3d-origin="372.04724 : 350.78739 : 1"
       inkscape:vp_z="744.09448 : 526.18109 : 1"
       inkscape:vp_y="0 : 1000 : 0"
       inkscape:vp_x="0 : 526.18109 : 1"
       sodipodi:type="inkscape:persp3d" />
    <inkscape:perspective
       id="perspective10-6"
       inkscape:persp3d-origin="372.04724 : 350.78739 : 1"
       inkscape:vp_z="744.09448 : 526.18109 : 1"
       inkscape:vp_y="0 : 1000 : 0"
       inkscape:vp_x="0 : 526.18109 : 1"
       sodipodi:type="inkscape:persp3d" />
    <inkscape:perspective
       sodipodi:type="inkscape:persp3d"
       inkscape:vp_x="0 : 526.18109 : 1"
       inkscape:vp_y="0 : 1000 : 0"
       inkscape:vp_z="744.09448 : 526.18109 : 1"
       inkscape:persp3d-origin="372.04724 : 350.78739 : 1"
       id="perspective10-97" />
    <inkscape:perspective
       id="perspective10-8"
       inkscape:persp3d-origin="372.04724 : 350.78739 : 1"
       inkscape:vp_z="744.09448 : 526.18109 : 1"
       inkscape:vp_y="0 : 1000 : 0"
       inkscape:vp_x="0 : 526.18109 : 1"
       sodipodi:type="inkscape:persp3d" />
    <inkscape:perspective
       id="perspective10-9-7"
       inkscape:persp3d-origin="372.04724 : 350.78739 : 1"
       inkscape:vp_z="744.09448 : 526.18109 : 1"
       inkscape:vp_y="0 : 1000 : 0"
       inkscape:vp_x="0 : 526.18109 : 1"
       sodipodi:type="inkscape:persp3d" />
    <inkscape:perspective
       id="perspective10-66"
       inkscape:persp3d-origin="372.04724 : 350.78739 : 1"
       inkscape:vp_z="744.09448 : 526.18109 : 1"
       inkscape:vp_y="0 : 1000 : 0"
       inkscape:vp_x="0 : 526.18109 : 1"
       sodipodi:type="inkscape:persp3d" />
    <inkscape:perspective
       id="perspective10-87"
       inkscape:persp3d-origin="372.04724 : 350.78739 : 1"
       inkscape:vp_z="744.09448 : 526.18109 : 1"
       inkscape:vp_y="0 : 1000 : 0"
       inkscape:vp_x="0 : 526.18109 : 1"
       sodipodi:type="inkscape:persp3d" />
    <inkscape:perspective
       id="perspective10-05"
       inkscape:persp3d-origin="372.04724 : 350.78739 : 1"
       inkscape:vp_z="744.09448 : 526.18109 : 1"
       inkscape:vp_y="0 : 1000 : 0"
       inkscape:vp_x="0 : 526.18109 : 1"
       sodipodi:type="inkscape:persp3d" />
    <inkscape:perspective
       id="perspective10-64"
       inkscape:persp3d-origin="372.04724 : 350.78739 : 1"
       inkscape:vp_z="744.09448 : 526.18109 : 1"
       inkscape:vp_y="0 : 1000 : 0"
       inkscape:vp_x="0 : 526.18109 : 1"
       sodipodi:type="inkscape:persp3d" />
    <inkscape:perspective
       id="perspective10-96"
       inkscape:persp3d-origin="372.04724 : 350.78739 : 1"
       inkscape:vp_z="744.09448 : 526.18109 : 1"
       inkscape:vp_y="0 : 1000 : 0"
       inkscape:vp_x="0 : 526.18109 : 1"
       sodipodi:type="inkscape:persp3d" />
    <inkscape:perspective
       id="perspective10-22"
       inkscape:persp3d-origin="372.04724 : 350.78739 : 1"
       inkscape:vp_z="744.09448 : 526.18109 : 1"
       inkscape:vp_y="0 : 1000 : 0"
       inkscape:vp_x="0 : 526.18109 : 1"
       sodipodi:type="inkscape:persp3d" />
    <inkscape:perspective
       id="perspective10-3"
       inkscape:persp3d-origin="372.04724 : 350.78739 : 1"
       inkscape:vp_z="744.09448 : 526.18109 : 1"
       inkscape:vp_y="0 : 1000 : 0"
       inkscape:vp_x="0 : 526.18109 : 1"
       sodipodi:type="inkscape:persp3d" />
    <inkscape:perspective
       id="perspective10-35"
       inkscape:persp3d-origin="372.04724 : 350.78739 : 1"
       inkscape:vp_z="744.09448 : 526.18109 : 1"
       inkscape:vp_y="0 : 1000 : 0"
       inkscape:vp_x="0 : 526.18109 : 1"
       sodipodi:type="inkscape:persp3d" />
    <inkscape:perspective
       id="perspective10-06"
       inkscape:persp3d-origin="372.04724 : 350.78739 : 1"
       inkscape:vp_z="744.09448 : 526.18109 : 1"
       inkscape:vp_y="0 : 1000 : 0"
       inkscape:vp_x="0 : 526.18109 : 1"
       sodipodi:type="inkscape:persp3d" />
    <inkscape:perspective
       id="perspective10-76"
       inkscape:persp3d-origin="372.04724 : 350.78739 : 1"
       inkscape:vp_z="744.09448 : 526.18109 : 1"
       inkscape:vp_y="0 : 1000 : 0"
       inkscape:vp_x="0 : 526.18109 : 1"
       sodipodi:type="inkscape:persp3d" />
    <inkscape:perspective
       id="perspective10-872"
       inkscape:persp3d-origin="372.04724 : 350.78739 : 1"
       inkscape:vp_z="744.09448 : 526.18109 : 1"
       inkscape:vp_y="0 : 1000 : 0"
       inkscape:vp_x="0 : 526.18109 : 1"
       sodipodi:type="inkscape:persp3d" />
    <inkscape:perspective
       id="perspective10-72"
       inkscape:persp3d-origin="372.04724 : 350.78739 : 1"
       inkscape:vp_z="744.09448 : 526.18109 : 1"
       inkscape:vp_y="0 : 1000 : 0"
       inkscape:vp_x="0 : 526.18109 : 1"
       sodipodi:type="inkscape:persp3d" />
  </defs>
  <sodipodi:namedview
     id="base"
     pagecolor="#ffffff"
     bordercolor="#666666"
     borderopacity="1.0"
     inkscape:pageopacity="0.0"
     inkscape:pageshadow="2"
     inkscape:zoom="1.6292135"
     inkscape:cx="56.5"
     inkscape:cy="44"
     inkscape:document-units="px"
     inkscape:current-layer="layer1"
     showgrid="false"
     inkscape:window-width="1024"
     inkscape:window-height="538"
     inkscape:window-x="0"
     inkscape:window-y="24"
     inkscape:window-maximized="1" />
  <metadata
     id="metadata7">
    <rdf:RDF>
      <cc:Work
         rdf:about="">
        <dc:format>image/svg+xml</dc:format>
        <dc:type
           rdf:resource="http://purl.org/dc/dcmitype/StillImage" />
        <dc:title>Aksara Dompu - Mbojo</dc:title>
        <dc:creator>
          <cc:Agent>
            <dc:title>Farhan Perdana (Black_Claw)</dc:title>
          </cc:Agent>
        </dc:creator>
        <dc:contributor>
          <cc:Agent>
            <dc:title>Farhan Perdana blackdramon@gmail.com</dc:title>
          </cc:Agent>
        </dc:contributor>
      </cc:Work>
    </rdf:RDF>
  </metadata>
  <g
     inkscape:label="Layer 1"
     inkscape:groupmode="layer"
     id="layer1"
     transform="translate(0,-952.36218)">
    <g
       id="layer1-7"
       inkscape:label="Layer 1"
       transform="translate(0.60219621,0.68779)">
      <path
         d="m 26.064129,967.89985 c 1.170232,0.0251 2.345188,0.12904 3.515559,0.0448 1.13309,-0.0815 2.139817,-0.28317 3.262396,-0.47509 1.033995,-0.25115 2.204437,-0.49347 3.204686,-0.8989 0.465465,-0.18867 1.790526,-0.93958 1.353693,-0.68067 -4.622415,2.73986 -2.780919,1.89685 -1.79956,0.3352 0.272469,-0.43358 0.441373,-0.93611 0.662059,-1.40416 0.09867,-0.46222 0.248674,-0.91466 0.29602,-1.38663 0.16536,-1.6484 -0.477733,-3.14554 -1.635224,-4.1644 -0.236121,-0.20784 -0.507257,-0.36201 -0.760886,-0.54301 -0.719213,-0.37601 -1.484589,-0.7119 -2.295639,-0.71377 -1.604453,-0.003 -4.956889,2.59464 2.255623,-1.84922 -0.202938,0.27322 -0.445308,0.51596 -0.608815,0.81967 -0.998592,1.85485 -1.129158,4.39869 -1.217191,6.45646 -0.149083,3.48479 0.03396,5.26009 0.213884,8.8606 0.624385,7.74272 1.620918,15.44666 2.196337,23.19481 0.365704,4.92426 0.37005,6.87686 0.513315,11.75696 -0.0423,6.5033 -0.112283,13.027 -1.310096,19.421 -0.546971,2.9199 -1.03784,4.526 -1.79821,7.3348 -1.138977,3.4877 -2.47789,7.1426 -4.889107,9.8306 -0.250844,0.2797 -0.53519,0.5203 -0.802786,0.7803 -2.056331,1.4804 -2.031427,1.4975 -5.662177,3.4259 -0.56321,0.2991 -2.521868,0.3046 -3.213306,0.313 -1.189841,-0.14 -2.457352,-0.1678 -3.592658,-0.6394 -0.296273,-0.1231 -0.574322,-0.2941 -0.861482,-0.4411 -1.745649,-1.1977 -3.5488356,-2.4913 -4.8201813,-4.3161 -0.2052577,-0.2946 -0.3606934,-0.6276 -0.5410412,-0.9414 0,0 4.0902445,-2.6175 4.0902445,-2.6175 l 0,0 c 0.153395,0.2952 0.279445,0.6099 0.460186,0.8856 1.192676,1.8193 2.982808,3.0625 4.751487,4.0868 0.284446,0.117 0.562784,0.2539 0.853338,0.3509 1.133986,0.3785 2.351925,0.4496 3.525187,0.5219 0.767665,-0.023 1.536411,-0.042 2.292934,-0.2073 0.269776,-0.059 1.021457,-0.4026 0.800074,-0.2225 -1.028653,0.8365 -2.187227,1.4597 -3.261063,2.224 -0.261131,0.1859 0.547385,-0.3248 0.821076,-0.4871 0.294552,-0.2479 0.607081,-0.4718 0.883656,-0.7437 1.799617,-1.7692 3.311324,-4.4697 4.318114,-6.8477 0.414843,-0.9799 0.736734,-2.0045 1.105101,-3.0067 0.849997,-2.8757 1.351422,-4.3618 1.970646,-7.3645 1.319064,-6.3962 1.548763,-12.9675 1.631568,-19.5021 -0.03232,-1.9133 -0.02498,-3.828 -0.09697,-5.74 -0.367376,-9.75636 -1.728299,-19.4096 -2.780698,-29.09148 -0.414845,-4.45804 -0.514599,-4.53213 -0.58593,-8.71572 -0.04414,-2.58884 -0.06637,-5.16307 1.124944,-7.4729 3.804027,-2.37363 4.897366,-4.29035 8.521277,-2.15323 0.263423,0.21219 0.545914,0.39821 0.790271,0.63655 1.214871,1.18497 1.926965,2.84955 1.78641,4.65956 -0.03972,0.51154 -0.186733,1.00593 -0.280101,1.50889 -0.204285,0.50724 -0.351803,1.04723 -0.612855,1.52172 -1.314895,2.38993 -4.027718,3.51083 -6.045421,4.79201 -0.424536,0.26956 -0.898516,0.43469 -1.36364,0.60414 -1.06114,0.38659 -2.124945,0.58753 -3.216812,0.83318 -2.398214,0.39942 -4.700532,0.62803 -7.12422,0.6139 0,0 3.975991,-3.18701 3.975991,-3.18701 z"
         id="path4812"
         style="fill:#000000" />
      <path
         d="m 5.5192458,981.52603 c 1.0188321,1.56763 2.7364385,1.82803 4.3468692,2.18759 1.668049,0.22651 3.259305,0.50916 4.954207,0.43613 3.389826,-0.14618 7.196416,-1.37902 10.354135,-2.65796 1.327265,-0.53745 2.612166,-1.19461 3.918248,-1.79197 1.238596,-0.6793 2.477192,-1.35859 3.715787,-2.03777 -0.09001,0.0308 -0.34547,0.1553 -0.270047,0.0924 0.788626,-0.65283 1.635117,-1.21778 2.421493,-1.87391 1.317393,-1.09911 2.350351,-2.11799 3.308982,-3.5717 0.0074,-0.0235 0.304502,-0.60908 0.08053,-0.75009 -0.25642,-0.16145 -1.520886,0.58972 -1.739235,0.71603 1.174337,-0.71088 2.299448,-1.53124 3.523012,-2.13264 0.23425,-0.11514 -0.358661,0.40926 -0.498805,0.64621 -0.408557,0.69075 -0.648835,1.63676 -0.614065,2.46082 0.01228,0.29098 0.09054,0.57397 0.135817,0.86107 0.220146,0.60159 0.55303,1.60142 0.89178,2.11582 1.650015,2.50562 4.789583,2.74297 7.293918,3.14281 1.377641,0.0582 2.75428,0.18349 4.132921,0.1755 9.838747,-0.0571 19.660181,-1.83351 29.205315,-4.372 2.358479,-0.62714 4.684565,-1.3943 7.026837,-2.09151 7.333308,-2.66162 3.914523,-1.30751 10.278098,-3.99486 0,0 -2.994322,2.58292 -2.994322,2.58292 l 0,0 c -6.025041,2.34319 -2.772125,1.14937 -9.7769,3.52057 -2.293226,0.64928 -4.573813,1.35562 -6.879698,1.94785 -5.381288,1.3821 -10.327023,2.41079 -15.796883,3.30005 -4.497965,0.73133 -9.626607,1.40709 -14.212768,1.6207 -1.462754,0.0685 -2.928067,-0.0183 -4.392099,-0.0274 -1.077979,-0.1302 -2.169126,-0.16409 -3.233938,-0.39059 -0.721809,-0.15348 -1.422746,-0.42769 -2.099699,-0.74388 -2.046509,-0.95567 -2.820511,-2.1504 -3.640107,-4.31072 -0.0644,-0.32407 -0.162857,-0.64198 -0.193189,-0.97199 -0.08349,-0.90831 0.132063,-1.91567 0.489667,-2.73235 0.119901,-0.27377 0.206419,-0.60401 0.433009,-0.77717 1.500989,-1.14699 3.12268,-2.08867 4.684019,-3.13301 0.644627,-0.30091 1.682724,-0.83315 2.242932,-0.0178 0.110799,0.16126 0.183855,0.37071 0.181574,0.57305 -0.0028,0.25051 -0.130767,0.47982 -0.196151,0.71974 -0.218134,0.32131 -0.409037,0.66749 -0.654403,0.96395 -0.805007,0.9726 -2.183897,2.23521 -3.077982,2.97293 -3.961551,3.26878 -8.352175,5.87162 -12.827636,8.1707 -1.326148,0.59965 -2.632207,1.25658 -3.978443,1.79905 -1.983788,0.79934 -5.478417,1.95219 -7.600988,2.3809 -2.772264,0.55994 -5.5498824,0.38797 -8.3316085,0.0582 -1.814955,-0.35911 -3.6665054,-0.64906 -4.8636943,-2.34598 0,0 4.2535054,-2.71992 4.2535054,-2.71992 z"
         id="path4846"
         style="fill:#000000" />
      <path
         d="m 13.070825,1033.3236 c 1.023114,-2.6285 1.928943,-5.3081 2.990612,-7.9185 1.365221,-3.0222 2.957346,-5.9793 5.201556,-8.316 0.323084,-0.3364 0.677389,-0.6343 1.016083,-0.9514 2.138269,-1.5448 4.228115,-3.5166 6.799288,-3.9649 1.245907,-0.2172 2.51311,0.019 3.757014,0.14 6.348585,0.1892 12.638347,-1.1705 18.806341,-2.6831 3.628328,-0.9763 7.246236,-2.1079 10.663539,-3.7915 1.225786,-0.6039 1.982104,-1.0562 3.159763,-1.7266 3.744209,-2.2985 -1.256216,0.7721 -1.341325,0.8176 -0.420244,0.2245 0.790099,-0.5495 1.17771,-0.8367 0.794025,-0.5883 1.491517,-1.2051 2.155846,-1.9594 0,0 4.400003,-2.0338 4.400003,-2.0338 l 0,0 c -1.013085,1.2728 -2.130144,2.1211 -3.447327,2.9941 -4.680932,3.1023 -3.64774,2.4637 -6.499488,4.1587 -1.183705,0.65 -1.858809,1.0456 -3.09572,1.6177 -3.338865,1.5442 -6.868328,2.5165 -10.378932,3.4484 -5.683064,1.3618 -11.458411,2.5993 -17.281121,2.9302 -0.684301,0.039 -1.370391,0.011 -2.055586,0.014 -1.009424,-0.064 -1.825935,-0.1549 -2.830316,-0.073 -0.318937,0.026 -0.636264,0.084 -0.947864,0.1637 -0.297651,0.075 -1.123258,0.4971 -0.874972,0.3008 0.08918,-0.071 5.262004,-3.4977 2.129208,-1.4214 -0.362395,0.3091 -0.741339,0.5961 -1.087185,0.9275 -2.323719,2.2269 -3.974921,5.1381 -5.307468,8.1663 -1.021771,2.5091 -1.881851,5.0826 -2.664186,7.6941 0,0 -4.445473,2.3033 -4.445473,2.3033 z"
         id="path4884"
         style="fill:#000000" />
    </g>
  </g>
</svg>
