<?xml version="1.0" encoding="UTF-8" standalone="no"?>
<!-- Created with Inkscape (http://www.inkscape.org/) -->

<svg
   xmlns:dc="http://purl.org/dc/elements/1.1/"
   xmlns:cc="http://creativecommons.org/ns#"
   xmlns:rdf="http://www.w3.org/1999/02/22-rdf-syntax-ns#"
   xmlns:svg="http://www.w3.org/2000/svg"
   xmlns="http://www.w3.org/2000/svg"
   xmlns:sodipodi="http://sodipodi.sourceforge.net/DTD/sodipodi-0.dtd"
   xmlns:inkscape="http://www.inkscape.org/namespaces/inkscape"
   width="100"
   height="100"
   id="svg2"
   version="1.1"
   inkscape:version="0.47 r22583"
   sodipodi:docname="n.svg">
  <title
     id="title2813">Aksara Dompu - Mbojo</title>
  <defs
     id="defs4">
    <inkscape:perspective
       sodipodi:type="inkscape:persp3d"
       inkscape:vp_x="0 : 526.18109 : 1"
       inkscape:vp_y="0 : 1000 : 0"
       inkscape:vp_z="744.09448 : 526.18109 : 1"
       inkscape:persp3d-origin="372.04724 : 350.78739 : 1"
       id="perspective10" />
    <inkscape:perspective
       id="perspective10-9"
       inkscape:persp3d-origin="372.04724 : 350.78739 : 1"
       inkscape:vp_z="744.09448 : 526.18109 : 1"
       inkscape:vp_y="0 : 1000 : 0"
       inkscape:vp_x="0 : 526.18109 : 1"
       sodipodi:type="inkscape:persp3d" />
    <inkscape:perspective
       id="perspective10-7"
       inkscape:persp3d-origin="372.04724 : 350.78739 : 1"
       inkscape:vp_z="744.09448 : 526.18109 : 1"
       inkscape:vp_y="0 : 1000 : 0"
       inkscape:vp_x="0 : 526.18109 : 1"
       sodipodi:type="inkscape:persp3d" />
    <inkscape:perspective
       id="perspective10-0"
       inkscape:persp3d-origin="372.04724 : 350.78739 : 1"
       inkscape:vp_z="744.09448 : 526.18109 : 1"
       inkscape:vp_y="0 : 1000 : 0"
       inkscape:vp_x="0 : 526.18109 : 1"
       sodipodi:type="inkscape:persp3d" />
    <inkscape:perspective
       id="perspective10-2"
       inkscape:persp3d-origin="372.04724 : 350.78739 : 1"
       inkscape:vp_z="744.09448 : 526.18109 : 1"
       inkscape:vp_y="0 : 1000 : 0"
       inkscape:vp_x="0 : 526.18109 : 1"
       sodipodi:type="inkscape:persp3d" />
    <inkscape:perspective
       id="perspective10-01"
       inkscape:persp3d-origin="372.04724 : 350.78739 : 1"
       inkscape:vp_z="744.09448 : 526.18109 : 1"
       inkscape:vp_y="0 : 1000 : 0"
       inkscape:vp_x="0 : 526.18109 : 1"
       sodipodi:type="inkscape:persp3d" />
    <inkscape:perspective
       id="perspective10-28"
       inkscape:persp3d-origin="372.04724 : 350.78739 : 1"
       inkscape:vp_z="744.09448 : 526.18109 : 1"
       inkscape:vp_y="0 : 1000 : 0"
       inkscape:vp_x="0 : 526.18109 : 1"
       sodipodi:type="inkscape:persp3d" />
    <inkscape:perspective
       id="perspective10-5"
       inkscape:persp3d-origin="372.04724 : 350.78739 : 1"
       inkscape:vp_z="744.09448 : 526.18109 : 1"
       inkscape:vp_y="0 : 1000 : 0"
       inkscape:vp_x="0 : 526.18109 : 1"
       sodipodi:type="inkscape:persp3d" />
    <inkscape:perspective
       id="perspective10-91"
       inkscape:persp3d-origin="372.04724 : 350.78739 : 1"
       inkscape:vp_z="744.09448 : 526.18109 : 1"
       inkscape:vp_y="0 : 1000 : 0"
       inkscape:vp_x="0 : 526.18109 : 1"
       sodipodi:type="inkscape:persp3d" />
    <inkscape:perspective
       id="perspective10-09"
       inkscape:persp3d-origin="372.04724 : 350.78739 : 1"
       inkscape:vp_z="744.09448 : 526.18109 : 1"
       inkscape:vp_y="0 : 1000 : 0"
       inkscape:vp_x="0 : 526.18109 : 1"
       sodipodi:type="inkscape:persp3d" />
    <inkscape:perspective
       id="perspective10-6"
       inkscape:persp3d-origin="372.04724 : 350.78739 : 1"
       inkscape:vp_z="744.09448 : 526.18109 : 1"
       inkscape:vp_y="0 : 1000 : 0"
       inkscape:vp_x="0 : 526.18109 : 1"
       sodipodi:type="inkscape:persp3d" />
    <inkscape:perspective
       sodipodi:type="inkscape:persp3d"
       inkscape:vp_x="0 : 526.18109 : 1"
       inkscape:vp_y="0 : 1000 : 0"
       inkscape:vp_z="744.09448 : 526.18109 : 1"
       inkscape:persp3d-origin="372.04724 : 350.78739 : 1"
       id="perspective10-97" />
    <inkscape:perspective
       id="perspective10-8"
       inkscape:persp3d-origin="372.04724 : 350.78739 : 1"
       inkscape:vp_z="744.09448 : 526.18109 : 1"
       inkscape:vp_y="0 : 1000 : 0"
       inkscape:vp_x="0 : 526.18109 : 1"
       sodipodi:type="inkscape:persp3d" />
    <inkscape:perspective
       id="perspective10-9-7"
       inkscape:persp3d-origin="372.04724 : 350.78739 : 1"
       inkscape:vp_z="744.09448 : 526.18109 : 1"
       inkscape:vp_y="0 : 1000 : 0"
       inkscape:vp_x="0 : 526.18109 : 1"
       sodipodi:type="inkscape:persp3d" />
    <inkscape:perspective
       id="perspective10-66"
       inkscape:persp3d-origin="372.04724 : 350.78739 : 1"
       inkscape:vp_z="744.09448 : 526.18109 : 1"
       inkscape:vp_y="0 : 1000 : 0"
       inkscape:vp_x="0 : 526.18109 : 1"
       sodipodi:type="inkscape:persp3d" />
    <inkscape:perspective
       id="perspective10-87"
       inkscape:persp3d-origin="372.04724 : 350.78739 : 1"
       inkscape:vp_z="744.09448 : 526.18109 : 1"
       inkscape:vp_y="0 : 1000 : 0"
       inkscape:vp_x="0 : 526.18109 : 1"
       sodipodi:type="inkscape:persp3d" />
    <inkscape:perspective
       id="perspective10-05"
       inkscape:persp3d-origin="372.04724 : 350.78739 : 1"
       inkscape:vp_z="744.09448 : 526.18109 : 1"
       inkscape:vp_y="0 : 1000 : 0"
       inkscape:vp_x="0 : 526.18109 : 1"
       sodipodi:type="inkscape:persp3d" />
    <inkscape:perspective
       id="perspective10-64"
       inkscape:persp3d-origin="372.04724 : 350.78739 : 1"
       inkscape:vp_z="744.09448 : 526.18109 : 1"
       inkscape:vp_y="0 : 1000 : 0"
       inkscape:vp_x="0 : 526.18109 : 1"
       sodipodi:type="inkscape:persp3d" />
    <inkscape:perspective
       id="perspective10-96"
       inkscape:persp3d-origin="372.04724 : 350.78739 : 1"
       inkscape:vp_z="744.09448 : 526.18109 : 1"
       inkscape:vp_y="0 : 1000 : 0"
       inkscape:vp_x="0 : 526.18109 : 1"
       sodipodi:type="inkscape:persp3d" />
    <inkscape:perspective
       id="perspective10-22"
       inkscape:persp3d-origin="372.04724 : 350.78739 : 1"
       inkscape:vp_z="744.09448 : 526.18109 : 1"
       inkscape:vp_y="0 : 1000 : 0"
       inkscape:vp_x="0 : 526.18109 : 1"
       sodipodi:type="inkscape:persp3d" />
    <inkscape:perspective
       id="perspective10-3"
       inkscape:persp3d-origin="372.04724 : 350.78739 : 1"
       inkscape:vp_z="744.09448 : 526.18109 : 1"
       inkscape:vp_y="0 : 1000 : 0"
       inkscape:vp_x="0 : 526.18109 : 1"
       sodipodi:type="inkscape:persp3d" />
    <inkscape:perspective
       id="perspective10-35"
       inkscape:persp3d-origin="372.04724 : 350.78739 : 1"
       inkscape:vp_z="744.09448 : 526.18109 : 1"
       inkscape:vp_y="0 : 1000 : 0"
       inkscape:vp_x="0 : 526.18109 : 1"
       sodipodi:type="inkscape:persp3d" />
    <inkscape:perspective
       id="perspective10-06"
       inkscape:persp3d-origin="372.04724 : 350.78739 : 1"
       inkscape:vp_z="744.09448 : 526.18109 : 1"
       inkscape:vp_y="0 : 1000 : 0"
       inkscape:vp_x="0 : 526.18109 : 1"
       sodipodi:type="inkscape:persp3d" />
    <inkscape:perspective
       id="perspective10-76"
       inkscape:persp3d-origin="372.04724 : 350.78739 : 1"
       inkscape:vp_z="744.09448 : 526.18109 : 1"
       inkscape:vp_y="0 : 1000 : 0"
       inkscape:vp_x="0 : 526.18109 : 1"
       sodipodi:type="inkscape:persp3d" />
    <inkscape:perspective
       id="perspective10-872"
       inkscape:persp3d-origin="372.04724 : 350.78739 : 1"
       inkscape:vp_z="744.09448 : 526.18109 : 1"
       inkscape:vp_y="0 : 1000 : 0"
       inkscape:vp_x="0 : 526.18109 : 1"
       sodipodi:type="inkscape:persp3d" />
    <inkscape:perspective
       id="perspective10-72"
       inkscape:persp3d-origin="372.04724 : 350.78739 : 1"
       inkscape:vp_z="744.09448 : 526.18109 : 1"
       inkscape:vp_y="0 : 1000 : 0"
       inkscape:vp_x="0 : 526.18109 : 1"
       sodipodi:type="inkscape:persp3d" />
    <inkscape:perspective
       id="perspective10-919"
       inkscape:persp3d-origin="372.04724 : 350.78739 : 1"
       inkscape:vp_z="744.09448 : 526.18109 : 1"
       inkscape:vp_y="0 : 1000 : 0"
       inkscape:vp_x="0 : 526.18109 : 1"
       sodipodi:type="inkscape:persp3d" />
  </defs>
  <sodipodi:namedview
     id="base"
     pagecolor="#ffffff"
     bordercolor="#666666"
     borderopacity="1.0"
     inkscape:pageopacity="0.0"
     inkscape:pageshadow="2"
     inkscape:zoom="1.6292135"
     inkscape:cx="56.5"
     inkscape:cy="44"
     inkscape:document-units="px"
     inkscape:current-layer="layer1"
     showgrid="false"
     inkscape:window-width="1024"
     inkscape:window-height="538"
     inkscape:window-x="0"
     inkscape:window-y="24"
     inkscape:window-maximized="1" />
  <metadata
     id="metadata7">
    <rdf:RDF>
      <cc:Work
         rdf:about="">
        <dc:format>image/svg+xml</dc:format>
        <dc:type
           rdf:resource="http://purl.org/dc/dcmitype/StillImage" />
        <dc:title>Aksara Dompu - Mbojo</dc:title>
        <dc:creator>
          <cc:Agent>
            <dc:title>Farhan Perdana (Black_Claw)</dc:title>
          </cc:Agent>
        </dc:creator>
        <dc:contributor>
          <cc:Agent>
            <dc:title>Farhan Perdana blackdramon@gmail.com</dc:title>
          </cc:Agent>
        </dc:contributor>
      </cc:Work>
    </rdf:RDF>
  </metadata>
  <g
     inkscape:label="Layer 1"
     inkscape:groupmode="layer"
     id="layer1"
     transform="translate(0,-952.36218)">
    <g
       id="layer1-0"
       inkscape:label="Layer 1"
       transform="translate(0.00354621,-0.11820831)">
      <path
         sodipodi:nodetypes="cssscscsscscscssscscssssccsccccsssccccccsscccsscccsscscscscscscscsscscc"
         d="m 9.5026551,979.51698 c -1.6147139,0.89601 -3.1183652,2.03085 -4.8441451,2.68803 -0.9896529,0.3768 1.7532795,-1.19003 2.5955825,-1.83177 1.07272,-0.8175 2.1242626,-1.66374 3.1464725,-2.54349 3.519929,-3.02936 6.658345,-6.39576 9.82324,-9.78337 4.53,-5.21888 7.033172,-8.89573 13.963497,-11.61809 0.389812,-0.15276 0.388828,0.74194 0.583242,1.11283 -0.05394,0.5744 -0.07043,1.15356 -0.161841,1.7232 -0.318741,1.9865 -0.821736,3.94047 -1.143553,5.92665 -0.663342,4.09372 -1.038747,8.20504 -1.375956,12.33524 -0.02132,3.74747 -0.594961,9.15524 1.782665,12.42655 0.229981,0.31635 0.545381,0.56076 0.818072,0.84131 0.327082,0.1429 0.636839,0.33393 0.981249,0.42673 2.288564,0.61645 4.701327,-0.44151 6.777291,-1.24866 -0.790326,0.94069 6.326757,-3.53756 4.922703,-2.37628 -0.910213,0.75295 -3.169959,2.8899 -3.103428,1.71055 0.07245,-1.28414 2.12639,-1.45152 3.133925,-2.25111 2.831663,-2.24701 3.489932,-3.08783 5.995596,-5.66335 2.97376,-3.68358 5.211781,-7.91611 6.564214,-12.45548 0.535026,-1.79563 0.586942,-2.49618 0.861462,-4.27457 0.08835,-1.06339 0.219283,-1.82849 0.09612,-2.86395 -0.02582,-0.21698 0.01281,-0.51675 -0.172444,-0.63271 -0.13344,-0.0838 -0.246443,0.52282 -0.101509,0.46123 2.146043,-0.9103 3.99071,-2.63137 6.278017,-3.08126 0.680842,-0.13469 -0.437624,1.317 -0.656438,1.97549 -16.264391,44.9672 0.370281,54.1088 -5.443737,75.2087 -3.338626,5.9615 -6.642549,7.6463 -9.073235,9.1659 -11.962879,7.4789 -18.319163,2.8823 -22.196384,2.1867 -6.204911,-3.3036 -6.080508,-11.7286 -3.968433,-17.9296 1.129585,-2.6214 2.60711,-4.3511 4.28733,-6.665 14.67035,-18.1046 36.906189,-48.49607 56.29147,-60.87168 3.49003,-2.75144 3.395636,-2.93787 9.428459,-5.04986 0.214886,-0.0756 0.0509,0.45515 0.03403,0.68232 -0.02081,0.27989 -0.09758,0.55288 -0.146384,0.82949 -0.506894,2.72712 -0.285409,5.49745 0.131092,8.21735 0.281844,0.81914 0.513591,2.88152 1.51511,3.22432 0,0 -6.600531,4.15253 -6.600531,4.15253 l 0,0 c -0.937263,-1.06995 -1.155044,-2.54381 -1.527131,-3.87543 -0.451176,-2.74815 -0.779344,-5.53983 -0.42366,-8.32132 0.340803,-3.33142 2.175254,-1.95316 7.161619,-4.51603 0.141128,-0.0723 -0.310151,0.087 -0.442604,0.17526 -0.853125,0.56274 -1.503448,1.40536 -2.431482,1.86758 -20.012438,14.45313 -49.011768,43.76197 -60.822685,67.10667 -7.630421,21.2649 23.498064,25.0958 26.509945,-9.7571 -1.418391,41.352 -21.78066,26.1323 -27.302641,29.6893 -0.395789,0.2549 0.865362,-0.3943 1.233969,-0.687 2.098688,-1.6673 16.305438,2.7436 17.858165,-4.9811 12.57824,-23.6099 -0.210011,-37.3063 4.441179,-55.75363 1.762362,-6.93189 3.489954,-13.88005 4.831711,-20.90788 0.735898,-4.55085 -0.0874,-2.55466 7.367705,-6.66382 0.21577,-0.11827 0.448575,0.25968 0.564451,0.47716 0.452271,0.8487 -0.09804,3.05169 -0.0905,3.8958 -0.335504,1.8771 -0.405988,2.59638 -1.010727,4.48876 -1.479315,4.62938 -3.786965,8.98132 -6.71997,12.84821 -2.388583,2.51343 -3.21002,3.52721 -5.882178,5.74432 -5.124702,4.25207 -11.176664,7.27601 -17.206052,10.02547 -2.262195,0.83836 -4.913411,1.87875 -7.320227,0.85889 -0.398433,-0.16869 -0.74123,-0.44661 -1.111845,-0.66999 -0.282888,-0.34658 -0.613593,-0.65899 -0.848667,-1.03957 -2.245801,-3.63579 -1.44709,-9.08692 -1.385116,-13.09573 0.351297,-4.10292 0.706393,-8.20141 1.181509,-12.29237 0.128497,-1.10625 0.270809,-2.21103 0.406213,-3.31663 0.109394,-0.78596 0.233237,-1.56995 0.328198,-2.35772 0.05266,-0.43692 0.07634,-0.87679 0.114535,-1.31519 2.391205,-0.65308 -0.886562,0.25722 6.061199,-3.56795 0.420041,-0.23127 -0.765903,0.57851 -1.12651,0.89453 -2.360401,2.06863 -4.387068,4.47316 -6.467742,6.81215 -4.033957,4.27968 -8.015874,8.58842 -12.587763,12.31044 -3.618787,2.94608 -5.2679095,3.51982 -10.349403,6.54753 0,0 5.9736841,-4.7785 5.9736841,-4.7785 z"
         id="path5057"
         style="fill:#000000" />
    </g>
  </g>
</svg>
