<?xml version="1.0" encoding="UTF-8" standalone="no"?>
<!-- Created with Inkscape (http://www.inkscape.org/) -->

<svg
   xmlns:dc="http://purl.org/dc/elements/1.1/"
   xmlns:cc="http://creativecommons.org/ns#"
   xmlns:rdf="http://www.w3.org/1999/02/22-rdf-syntax-ns#"
   xmlns:svg="http://www.w3.org/2000/svg"
   xmlns="http://www.w3.org/2000/svg"
   xmlns:sodipodi="http://sodipodi.sourceforge.net/DTD/sodipodi-0.dtd"
   xmlns:inkscape="http://www.inkscape.org/namespaces/inkscape"
   width="100"
   height="100"
   id="svg2"
   version="1.1"
   inkscape:version="0.47 r22583"
   sodipodi:docname="p.svg">
  <title
     id="title2813">Aksara Dompu - Mbojo</title>
  <defs
     id="defs4">
    <inkscape:perspective
       sodipodi:type="inkscape:persp3d"
       inkscape:vp_x="0 : 526.18109 : 1"
       inkscape:vp_y="0 : 1000 : 0"
       inkscape:vp_z="744.09448 : 526.18109 : 1"
       inkscape:persp3d-origin="372.04724 : 350.78739 : 1"
       id="perspective10" />
    <inkscape:perspective
       id="perspective10-9"
       inkscape:persp3d-origin="372.04724 : 350.78739 : 1"
       inkscape:vp_z="744.09448 : 526.18109 : 1"
       inkscape:vp_y="0 : 1000 : 0"
       inkscape:vp_x="0 : 526.18109 : 1"
       sodipodi:type="inkscape:persp3d" />
    <inkscape:perspective
       id="perspective10-7"
       inkscape:persp3d-origin="372.04724 : 350.78739 : 1"
       inkscape:vp_z="744.09448 : 526.18109 : 1"
       inkscape:vp_y="0 : 1000 : 0"
       inkscape:vp_x="0 : 526.18109 : 1"
       sodipodi:type="inkscape:persp3d" />
    <inkscape:perspective
       id="perspective10-0"
       inkscape:persp3d-origin="372.04724 : 350.78739 : 1"
       inkscape:vp_z="744.09448 : 526.18109 : 1"
       inkscape:vp_y="0 : 1000 : 0"
       inkscape:vp_x="0 : 526.18109 : 1"
       sodipodi:type="inkscape:persp3d" />
    <inkscape:perspective
       id="perspective10-2"
       inkscape:persp3d-origin="372.04724 : 350.78739 : 1"
       inkscape:vp_z="744.09448 : 526.18109 : 1"
       inkscape:vp_y="0 : 1000 : 0"
       inkscape:vp_x="0 : 526.18109 : 1"
       sodipodi:type="inkscape:persp3d" />
    <inkscape:perspective
       id="perspective10-01"
       inkscape:persp3d-origin="372.04724 : 350.78739 : 1"
       inkscape:vp_z="744.09448 : 526.18109 : 1"
       inkscape:vp_y="0 : 1000 : 0"
       inkscape:vp_x="0 : 526.18109 : 1"
       sodipodi:type="inkscape:persp3d" />
    <inkscape:perspective
       id="perspective10-28"
       inkscape:persp3d-origin="372.04724 : 350.78739 : 1"
       inkscape:vp_z="744.09448 : 526.18109 : 1"
       inkscape:vp_y="0 : 1000 : 0"
       inkscape:vp_x="0 : 526.18109 : 1"
       sodipodi:type="inkscape:persp3d" />
    <inkscape:perspective
       id="perspective10-5"
       inkscape:persp3d-origin="372.04724 : 350.78739 : 1"
       inkscape:vp_z="744.09448 : 526.18109 : 1"
       inkscape:vp_y="0 : 1000 : 0"
       inkscape:vp_x="0 : 526.18109 : 1"
       sodipodi:type="inkscape:persp3d" />
    <inkscape:perspective
       id="perspective10-91"
       inkscape:persp3d-origin="372.04724 : 350.78739 : 1"
       inkscape:vp_z="744.09448 : 526.18109 : 1"
       inkscape:vp_y="0 : 1000 : 0"
       inkscape:vp_x="0 : 526.18109 : 1"
       sodipodi:type="inkscape:persp3d" />
    <inkscape:perspective
       id="perspective10-09"
       inkscape:persp3d-origin="372.04724 : 350.78739 : 1"
       inkscape:vp_z="744.09448 : 526.18109 : 1"
       inkscape:vp_y="0 : 1000 : 0"
       inkscape:vp_x="0 : 526.18109 : 1"
       sodipodi:type="inkscape:persp3d" />
    <inkscape:perspective
       id="perspective10-6"
       inkscape:persp3d-origin="372.04724 : 350.78739 : 1"
       inkscape:vp_z="744.09448 : 526.18109 : 1"
       inkscape:vp_y="0 : 1000 : 0"
       inkscape:vp_x="0 : 526.18109 : 1"
       sodipodi:type="inkscape:persp3d" />
    <inkscape:perspective
       sodipodi:type="inkscape:persp3d"
       inkscape:vp_x="0 : 526.18109 : 1"
       inkscape:vp_y="0 : 1000 : 0"
       inkscape:vp_z="744.09448 : 526.18109 : 1"
       inkscape:persp3d-origin="372.04724 : 350.78739 : 1"
       id="perspective10-97" />
    <inkscape:perspective
       id="perspective10-8"
       inkscape:persp3d-origin="372.04724 : 350.78739 : 1"
       inkscape:vp_z="744.09448 : 526.18109 : 1"
       inkscape:vp_y="0 : 1000 : 0"
       inkscape:vp_x="0 : 526.18109 : 1"
       sodipodi:type="inkscape:persp3d" />
    <inkscape:perspective
       id="perspective10-9-7"
       inkscape:persp3d-origin="372.04724 : 350.78739 : 1"
       inkscape:vp_z="744.09448 : 526.18109 : 1"
       inkscape:vp_y="0 : 1000 : 0"
       inkscape:vp_x="0 : 526.18109 : 1"
       sodipodi:type="inkscape:persp3d" />
    <inkscape:perspective
       id="perspective10-66"
       inkscape:persp3d-origin="372.04724 : 350.78739 : 1"
       inkscape:vp_z="744.09448 : 526.18109 : 1"
       inkscape:vp_y="0 : 1000 : 0"
       inkscape:vp_x="0 : 526.18109 : 1"
       sodipodi:type="inkscape:persp3d" />
    <inkscape:perspective
       id="perspective10-87"
       inkscape:persp3d-origin="372.04724 : 350.78739 : 1"
       inkscape:vp_z="744.09448 : 526.18109 : 1"
       inkscape:vp_y="0 : 1000 : 0"
       inkscape:vp_x="0 : 526.18109 : 1"
       sodipodi:type="inkscape:persp3d" />
    <inkscape:perspective
       id="perspective10-05"
       inkscape:persp3d-origin="372.04724 : 350.78739 : 1"
       inkscape:vp_z="744.09448 : 526.18109 : 1"
       inkscape:vp_y="0 : 1000 : 0"
       inkscape:vp_x="0 : 526.18109 : 1"
       sodipodi:type="inkscape:persp3d" />
    <inkscape:perspective
       id="perspective10-64"
       inkscape:persp3d-origin="372.04724 : 350.78739 : 1"
       inkscape:vp_z="744.09448 : 526.18109 : 1"
       inkscape:vp_y="0 : 1000 : 0"
       inkscape:vp_x="0 : 526.18109 : 1"
       sodipodi:type="inkscape:persp3d" />
    <inkscape:perspective
       id="perspective10-96"
       inkscape:persp3d-origin="372.04724 : 350.78739 : 1"
       inkscape:vp_z="744.09448 : 526.18109 : 1"
       inkscape:vp_y="0 : 1000 : 0"
       inkscape:vp_x="0 : 526.18109 : 1"
       sodipodi:type="inkscape:persp3d" />
    <inkscape:perspective
       id="perspective10-22"
       inkscape:persp3d-origin="372.04724 : 350.78739 : 1"
       inkscape:vp_z="744.09448 : 526.18109 : 1"
       inkscape:vp_y="0 : 1000 : 0"
       inkscape:vp_x="0 : 526.18109 : 1"
       sodipodi:type="inkscape:persp3d" />
    <inkscape:perspective
       id="perspective10-3"
       inkscape:persp3d-origin="372.04724 : 350.78739 : 1"
       inkscape:vp_z="744.09448 : 526.18109 : 1"
       inkscape:vp_y="0 : 1000 : 0"
       inkscape:vp_x="0 : 526.18109 : 1"
       sodipodi:type="inkscape:persp3d" />
    <inkscape:perspective
       id="perspective10-35"
       inkscape:persp3d-origin="372.04724 : 350.78739 : 1"
       inkscape:vp_z="744.09448 : 526.18109 : 1"
       inkscape:vp_y="0 : 1000 : 0"
       inkscape:vp_x="0 : 526.18109 : 1"
       sodipodi:type="inkscape:persp3d" />
    <inkscape:perspective
       id="perspective10-06"
       inkscape:persp3d-origin="372.04724 : 350.78739 : 1"
       inkscape:vp_z="744.09448 : 526.18109 : 1"
       inkscape:vp_y="0 : 1000 : 0"
       inkscape:vp_x="0 : 526.18109 : 1"
       sodipodi:type="inkscape:persp3d" />
    <inkscape:perspective
       id="perspective10-76"
       inkscape:persp3d-origin="372.04724 : 350.78739 : 1"
       inkscape:vp_z="744.09448 : 526.18109 : 1"
       inkscape:vp_y="0 : 1000 : 0"
       inkscape:vp_x="0 : 526.18109 : 1"
       sodipodi:type="inkscape:persp3d" />
    <inkscape:perspective
       id="perspective10-872"
       inkscape:persp3d-origin="372.04724 : 350.78739 : 1"
       inkscape:vp_z="744.09448 : 526.18109 : 1"
       inkscape:vp_y="0 : 1000 : 0"
       inkscape:vp_x="0 : 526.18109 : 1"
       sodipodi:type="inkscape:persp3d" />
    <inkscape:perspective
       id="perspective10-72"
       inkscape:persp3d-origin="372.04724 : 350.78739 : 1"
       inkscape:vp_z="744.09448 : 526.18109 : 1"
       inkscape:vp_y="0 : 1000 : 0"
       inkscape:vp_x="0 : 526.18109 : 1"
       sodipodi:type="inkscape:persp3d" />
    <inkscape:perspective
       id="perspective10-919"
       inkscape:persp3d-origin="372.04724 : 350.78739 : 1"
       inkscape:vp_z="744.09448 : 526.18109 : 1"
       inkscape:vp_y="0 : 1000 : 0"
       inkscape:vp_x="0 : 526.18109 : 1"
       sodipodi:type="inkscape:persp3d" />
    <inkscape:perspective
       id="perspective10-38"
       inkscape:persp3d-origin="372.04724 : 350.78739 : 1"
       inkscape:vp_z="744.09448 : 526.18109 : 1"
       inkscape:vp_y="0 : 1000 : 0"
       inkscape:vp_x="0 : 526.18109 : 1"
       sodipodi:type="inkscape:persp3d" />
  </defs>
  <sodipodi:namedview
     id="base"
     pagecolor="#ffffff"
     bordercolor="#666666"
     borderopacity="1.0"
     inkscape:pageopacity="0.0"
     inkscape:pageshadow="2"
     inkscape:zoom="1.6292135"
     inkscape:cx="56.5"
     inkscape:cy="44"
     inkscape:document-units="px"
     inkscape:current-layer="layer1"
     showgrid="false"
     inkscape:window-width="1024"
     inkscape:window-height="538"
     inkscape:window-x="0"
     inkscape:window-y="24"
     inkscape:window-maximized="1" />
  <metadata
     id="metadata7">
    <rdf:RDF>
      <cc:Work
         rdf:about="">
        <dc:format>image/svg+xml</dc:format>
        <dc:type
           rdf:resource="http://purl.org/dc/dcmitype/StillImage" />
        <dc:title>Aksara Dompu - Mbojo</dc:title>
        <dc:creator>
          <cc:Agent>
            <dc:title>Farhan Perdana (Black_Claw)</dc:title>
          </cc:Agent>
        </dc:creator>
        <dc:contributor>
          <cc:Agent>
            <dc:title>Farhan Perdana blackdramon@gmail.com</dc:title>
          </cc:Agent>
        </dc:contributor>
      </cc:Work>
    </rdf:RDF>
  </metadata>
  <g
     inkscape:label="Layer 1"
     inkscape:groupmode="layer"
     id="layer1"
     transform="translate(0,-952.36218)">
    <g
       id="layer1-1"
       inkscape:label="Layer 1"
       transform="translate(0.76597172,-0.19166714)">
      <path
         sodipodi:nodetypes="cscssscscsscscsscsscscsscsscsscsscscscccccscscsccsssssscsscscsscsscscsssscscsscsccc"
         d="m 12.048197,962.33708 c 4.838538,2.34326 9.706491,4.70013 13.889762,8.44847 1.482335,1.32822 2.831003,2.84489 4.246506,4.26734 1.406731,1.64649 2.882056,3.21817 4.220193,4.93948 1.402085,1.80357 2.702992,3.7106 3.991763,5.62396 3.542593,5.25943 6.743713,10.8389 9.013865,16.99547 0.662872,1.7977 1.138017,3.6804 1.707024,5.5206 1.29007,6.0192 2.327408,12.3105 1.33436,18.5066 -0.513496,3.2039 -0.847726,3.5357 -2.035189,6.3572 -0.50787,0.7711 -0.952216,1.6042 -1.52361,2.3134 -2.40883,2.9893 -7.741843,5.8544 -9.793365,7.1751 -1.999894,1.2876 -4.182092,1.9467 -6.375873,2.6115 -2.72211,0.7298 -5.62076,0.8866 -8.398826,0.4625 -1.851564,-0.2827 -3.035914,-0.7336 -4.836907,-1.3019 -1.656211,-0.7752 -3.36176,-1.4256 -4.815885,-2.6848 -2.101149,-1.8194 -3.8053066,-4.648 -4.6924057,-7.4895 -0.3240453,-1.0379 -0.4721108,-2.1385 -0.7081656,-3.2079 -0.068267,-1.1964 -0.2313199,-2.3908 -0.2048114,-3.5895 0.08937,-4.0418 1.1287345,-8.2851 2.6774981,-11.8932 1.3957246,-3.2518 2.7217356,-5.0306 4.5935876,-7.9377 5.609505,-7.87978 12.934288,-13.64949 19.608381,-20.1938 1.180027,-1.15709 2.317059,-2.3716 3.47559,-3.5574 2.864769,-2.68021 5.347979,-6.12195 8.590124,-8.2529 2.562594,-1.68433 5.120581,-3.38646 7.763355,-4.89588 0.514329,-0.29376 1.111803,-0.32714 1.667703,-0.49071 0.641309,-0.056 1.281151,-0.14328 1.92393,-0.16827 2.756795,-0.10723 5.5238,0.11699 8.27943,0.16209 2.092818,0.0342 3.990002,-0.004 6.079114,-0.0309 1.764648,0.0454 3.52174,-0.24146 5.285911,-0.17853 0.206751,0.007 1.632462,0.0875 0.843492,0.7826 -2.101491,1.85129 -4.466191,3.26427 -6.699287,4.89642 -3.192531,1.93333 2.879344,-2.01088 4.37597,-2.89445 0.529664,-0.31272 -0.993656,0.75806 -1.466005,1.17595 -2.007833,1.77638 -3.543233,3.92662 -5.12773,6.18354 -2.156091,3.40391 -4.482594,7.27234 -5.05624,11.55466 -0.06682,0.49882 -0.04267,1.00835 -0.064,1.51253 0.169555,0.87358 0.123333,1.24419 0.653246,1.89959 1.055931,1.30597 4.423246,1.09543 5.703035,1.11869 4.919522,-0.10863 16.669933,-8.66681 24.34545,-10.34493 0,0 -5.328538,4.63833 -5.328538,4.63833 l 0,0 c -6.365005,2.11367 -19.641647,10.16697 -24.654961,10.44017 -2.241417,0.012 -5.97624,0.5435 -6.966418,-2.61605 -0.136419,-0.4352 -0.16036,-0.90724 -0.24054,-1.36085 0.02756,-0.56676 0.0031,-1.14018 0.08269,-1.70032 0.608935,-4.286 2.991485,-8.57622 5.172946,-11.99721 1.066312,-1.59987 2.107047,-3.25887 3.322264,-4.71916 3.084108,-3.7061 7.37599,-5.69028 11.091148,-8.34779 -1.985371,1.47199 -3.970741,2.94399 -5.956112,4.416 0.120682,0.14194 0.360533,0.22675 0.362053,0.42584 0.001,0.14138 -0.237948,-0.0684 -0.35944,-0.0836 -0.312007,-0.0393 -0.625371,-0.0666 -0.939012,-0.08 -0.626288,-0.0264 -3.604248,-0.0452 -3.93382,-0.048 -2.241004,-3e-5 -3.796256,0.004 -6.053049,-0.0144 -2.815583,-0.0237 -5.661326,-0.16856 -8.471262,0.12873 -0.637584,0.0675 -1.267306,0.21201 -1.900958,0.31801 -3.272919,1.16272 -2.050453,0.90058 2.898659,-2.67515 0.569105,-0.41119 -1.15558,0.79168 -1.708003,1.23226 -2.697559,2.15138 -5.099269,4.75103 -7.574511,7.21906 -4.311273,4.35158 -3.129841,3.24515 -7.818046,7.60061 -5.334143,4.95554 -10.787552,9.8288 -15.191641,15.94722 -1.778096,2.7182 -3.213096,4.6517 -4.552091,7.6969 -1.523452,3.4648 -2.56584,7.5891 -2.658043,11.4913 -0.02704,1.1443 0.134427,2.284 0.201645,3.4261 0.225772,1.0154 0.368813,2.0603 0.677315,3.0462 0.853265,2.7267 2.438703,5.3538 4.480475,7.0641 1.581068,1.3243 2.923498,1.7278 4.734369,2.4999 0.805813,0.2331 1.603244,0.5091 2.417441,0.6993 3.509614,0.8197 7.186917,0.7105 10.66193,-0.2519 1.850701,-0.6071 2.469705,-0.7363 4.256128,-1.6251 0.681687,-0.3393 2.603358,-1.6302 2.001017,-1.1287 -1.259772,1.0487 -2.573514,2.0403 -3.986979,2.7818 -0.723533,0.3795 1.312557,-1.0489 1.888985,-1.6814 0.607833,-0.6669 1.097259,-1.4647 1.645887,-2.197 1.291695,-2.6983 1.669821,-3.0611 2.286776,-6.1885 1.205176,-6.1089 0.324154,-12.4056 -0.833454,-18.4159 -0.527944,-1.8342 -0.958142,-3.71 -1.58383,-5.5025 -2.868145,-8.21709 -7.590532,-16.0206 -12.777627,-22.4953 -1.35338,-1.68934 -2.847982,-3.21957 -4.271972,-4.82936 -1.461283,-1.35304 -2.856708,-2.8072 -4.383851,-4.05913 -4.423978,-3.62674 -9.536197,-5.91654 -14.7182337,-7.61458 0,0 6.2096727,-4.83523 6.2096727,-4.83523 l 7e-6,-8e-5 z"
         id="path5295"
         style="fill:#000000" />
    </g>
  </g>
</svg>
