<?xml version="1.0" encoding="UTF-8" standalone="no"?>
<!-- Created with Inkscape (http://www.inkscape.org/) -->

<svg
   xmlns:dc="http://purl.org/dc/elements/1.1/"
   xmlns:cc="http://creativecommons.org/ns#"
   xmlns:rdf="http://www.w3.org/1999/02/22-rdf-syntax-ns#"
   xmlns:svg="http://www.w3.org/2000/svg"
   xmlns="http://www.w3.org/2000/svg"
   xmlns:sodipodi="http://sodipodi.sourceforge.net/DTD/sodipodi-0.dtd"
   xmlns:inkscape="http://www.inkscape.org/namespaces/inkscape"
   width="100"
   height="100"
   id="svg2"
   version="1.1"
   inkscape:version="0.47 r22583"
   sodipodi:docname="r.svg">
  <title
     id="title2813">Aksara Dompu - Mbojo</title>
  <defs
     id="defs4">
    <inkscape:perspective
       sodipodi:type="inkscape:persp3d"
       inkscape:vp_x="0 : 526.18109 : 1"
       inkscape:vp_y="0 : 1000 : 0"
       inkscape:vp_z="744.09448 : 526.18109 : 1"
       inkscape:persp3d-origin="372.04724 : 350.78739 : 1"
       id="perspective10" />
    <inkscape:perspective
       id="perspective10-9"
       inkscape:persp3d-origin="372.04724 : 350.78739 : 1"
       inkscape:vp_z="744.09448 : 526.18109 : 1"
       inkscape:vp_y="0 : 1000 : 0"
       inkscape:vp_x="0 : 526.18109 : 1"
       sodipodi:type="inkscape:persp3d" />
    <inkscape:perspective
       id="perspective10-7"
       inkscape:persp3d-origin="372.04724 : 350.78739 : 1"
       inkscape:vp_z="744.09448 : 526.18109 : 1"
       inkscape:vp_y="0 : 1000 : 0"
       inkscape:vp_x="0 : 526.18109 : 1"
       sodipodi:type="inkscape:persp3d" />
    <inkscape:perspective
       id="perspective10-0"
       inkscape:persp3d-origin="372.04724 : 350.78739 : 1"
       inkscape:vp_z="744.09448 : 526.18109 : 1"
       inkscape:vp_y="0 : 1000 : 0"
       inkscape:vp_x="0 : 526.18109 : 1"
       sodipodi:type="inkscape:persp3d" />
    <inkscape:perspective
       id="perspective10-2"
       inkscape:persp3d-origin="372.04724 : 350.78739 : 1"
       inkscape:vp_z="744.09448 : 526.18109 : 1"
       inkscape:vp_y="0 : 1000 : 0"
       inkscape:vp_x="0 : 526.18109 : 1"
       sodipodi:type="inkscape:persp3d" />
    <inkscape:perspective
       id="perspective10-01"
       inkscape:persp3d-origin="372.04724 : 350.78739 : 1"
       inkscape:vp_z="744.09448 : 526.18109 : 1"
       inkscape:vp_y="0 : 1000 : 0"
       inkscape:vp_x="0 : 526.18109 : 1"
       sodipodi:type="inkscape:persp3d" />
    <inkscape:perspective
       id="perspective10-28"
       inkscape:persp3d-origin="372.04724 : 350.78739 : 1"
       inkscape:vp_z="744.09448 : 526.18109 : 1"
       inkscape:vp_y="0 : 1000 : 0"
       inkscape:vp_x="0 : 526.18109 : 1"
       sodipodi:type="inkscape:persp3d" />
    <inkscape:perspective
       id="perspective10-5"
       inkscape:persp3d-origin="372.04724 : 350.78739 : 1"
       inkscape:vp_z="744.09448 : 526.18109 : 1"
       inkscape:vp_y="0 : 1000 : 0"
       inkscape:vp_x="0 : 526.18109 : 1"
       sodipodi:type="inkscape:persp3d" />
    <inkscape:perspective
       id="perspective10-91"
       inkscape:persp3d-origin="372.04724 : 350.78739 : 1"
       inkscape:vp_z="744.09448 : 526.18109 : 1"
       inkscape:vp_y="0 : 1000 : 0"
       inkscape:vp_x="0 : 526.18109 : 1"
       sodipodi:type="inkscape:persp3d" />
    <inkscape:perspective
       id="perspective10-09"
       inkscape:persp3d-origin="372.04724 : 350.78739 : 1"
       inkscape:vp_z="744.09448 : 526.18109 : 1"
       inkscape:vp_y="0 : 1000 : 0"
       inkscape:vp_x="0 : 526.18109 : 1"
       sodipodi:type="inkscape:persp3d" />
    <inkscape:perspective
       id="perspective10-6"
       inkscape:persp3d-origin="372.04724 : 350.78739 : 1"
       inkscape:vp_z="744.09448 : 526.18109 : 1"
       inkscape:vp_y="0 : 1000 : 0"
       inkscape:vp_x="0 : 526.18109 : 1"
       sodipodi:type="inkscape:persp3d" />
    <inkscape:perspective
       sodipodi:type="inkscape:persp3d"
       inkscape:vp_x="0 : 526.18109 : 1"
       inkscape:vp_y="0 : 1000 : 0"
       inkscape:vp_z="744.09448 : 526.18109 : 1"
       inkscape:persp3d-origin="372.04724 : 350.78739 : 1"
       id="perspective10-97" />
    <inkscape:perspective
       id="perspective10-8"
       inkscape:persp3d-origin="372.04724 : 350.78739 : 1"
       inkscape:vp_z="744.09448 : 526.18109 : 1"
       inkscape:vp_y="0 : 1000 : 0"
       inkscape:vp_x="0 : 526.18109 : 1"
       sodipodi:type="inkscape:persp3d" />
    <inkscape:perspective
       id="perspective10-9-7"
       inkscape:persp3d-origin="372.04724 : 350.78739 : 1"
       inkscape:vp_z="744.09448 : 526.18109 : 1"
       inkscape:vp_y="0 : 1000 : 0"
       inkscape:vp_x="0 : 526.18109 : 1"
       sodipodi:type="inkscape:persp3d" />
    <inkscape:perspective
       id="perspective10-66"
       inkscape:persp3d-origin="372.04724 : 350.78739 : 1"
       inkscape:vp_z="744.09448 : 526.18109 : 1"
       inkscape:vp_y="0 : 1000 : 0"
       inkscape:vp_x="0 : 526.18109 : 1"
       sodipodi:type="inkscape:persp3d" />
    <inkscape:perspective
       id="perspective10-87"
       inkscape:persp3d-origin="372.04724 : 350.78739 : 1"
       inkscape:vp_z="744.09448 : 526.18109 : 1"
       inkscape:vp_y="0 : 1000 : 0"
       inkscape:vp_x="0 : 526.18109 : 1"
       sodipodi:type="inkscape:persp3d" />
    <inkscape:perspective
       id="perspective10-05"
       inkscape:persp3d-origin="372.04724 : 350.78739 : 1"
       inkscape:vp_z="744.09448 : 526.18109 : 1"
       inkscape:vp_y="0 : 1000 : 0"
       inkscape:vp_x="0 : 526.18109 : 1"
       sodipodi:type="inkscape:persp3d" />
    <inkscape:perspective
       id="perspective10-64"
       inkscape:persp3d-origin="372.04724 : 350.78739 : 1"
       inkscape:vp_z="744.09448 : 526.18109 : 1"
       inkscape:vp_y="0 : 1000 : 0"
       inkscape:vp_x="0 : 526.18109 : 1"
       sodipodi:type="inkscape:persp3d" />
    <inkscape:perspective
       id="perspective10-96"
       inkscape:persp3d-origin="372.04724 : 350.78739 : 1"
       inkscape:vp_z="744.09448 : 526.18109 : 1"
       inkscape:vp_y="0 : 1000 : 0"
       inkscape:vp_x="0 : 526.18109 : 1"
       sodipodi:type="inkscape:persp3d" />
    <inkscape:perspective
       id="perspective10-22"
       inkscape:persp3d-origin="372.04724 : 350.78739 : 1"
       inkscape:vp_z="744.09448 : 526.18109 : 1"
       inkscape:vp_y="0 : 1000 : 0"
       inkscape:vp_x="0 : 526.18109 : 1"
       sodipodi:type="inkscape:persp3d" />
    <inkscape:perspective
       id="perspective10-3"
       inkscape:persp3d-origin="372.04724 : 350.78739 : 1"
       inkscape:vp_z="744.09448 : 526.18109 : 1"
       inkscape:vp_y="0 : 1000 : 0"
       inkscape:vp_x="0 : 526.18109 : 1"
       sodipodi:type="inkscape:persp3d" />
    <inkscape:perspective
       id="perspective10-35"
       inkscape:persp3d-origin="372.04724 : 350.78739 : 1"
       inkscape:vp_z="744.09448 : 526.18109 : 1"
       inkscape:vp_y="0 : 1000 : 0"
       inkscape:vp_x="0 : 526.18109 : 1"
       sodipodi:type="inkscape:persp3d" />
    <inkscape:perspective
       id="perspective10-06"
       inkscape:persp3d-origin="372.04724 : 350.78739 : 1"
       inkscape:vp_z="744.09448 : 526.18109 : 1"
       inkscape:vp_y="0 : 1000 : 0"
       inkscape:vp_x="0 : 526.18109 : 1"
       sodipodi:type="inkscape:persp3d" />
    <inkscape:perspective
       id="perspective10-76"
       inkscape:persp3d-origin="372.04724 : 350.78739 : 1"
       inkscape:vp_z="744.09448 : 526.18109 : 1"
       inkscape:vp_y="0 : 1000 : 0"
       inkscape:vp_x="0 : 526.18109 : 1"
       sodipodi:type="inkscape:persp3d" />
    <inkscape:perspective
       id="perspective10-872"
       inkscape:persp3d-origin="372.04724 : 350.78739 : 1"
       inkscape:vp_z="744.09448 : 526.18109 : 1"
       inkscape:vp_y="0 : 1000 : 0"
       inkscape:vp_x="0 : 526.18109 : 1"
       sodipodi:type="inkscape:persp3d" />
    <inkscape:perspective
       id="perspective10-72"
       inkscape:persp3d-origin="372.04724 : 350.78739 : 1"
       inkscape:vp_z="744.09448 : 526.18109 : 1"
       inkscape:vp_y="0 : 1000 : 0"
       inkscape:vp_x="0 : 526.18109 : 1"
       sodipodi:type="inkscape:persp3d" />
    <inkscape:perspective
       id="perspective10-919"
       inkscape:persp3d-origin="372.04724 : 350.78739 : 1"
       inkscape:vp_z="744.09448 : 526.18109 : 1"
       inkscape:vp_y="0 : 1000 : 0"
       inkscape:vp_x="0 : 526.18109 : 1"
       sodipodi:type="inkscape:persp3d" />
    <inkscape:perspective
       id="perspective10-38"
       inkscape:persp3d-origin="372.04724 : 350.78739 : 1"
       inkscape:vp_z="744.09448 : 526.18109 : 1"
       inkscape:vp_y="0 : 1000 : 0"
       inkscape:vp_x="0 : 526.18109 : 1"
       sodipodi:type="inkscape:persp3d" />
    <inkscape:perspective
       id="perspective10-30"
       inkscape:persp3d-origin="372.04724 : 350.78739 : 1"
       inkscape:vp_z="744.09448 : 526.18109 : 1"
       inkscape:vp_y="0 : 1000 : 0"
       inkscape:vp_x="0 : 526.18109 : 1"
       sodipodi:type="inkscape:persp3d" />
  </defs>
  <sodipodi:namedview
     id="base"
     pagecolor="#ffffff"
     bordercolor="#666666"
     borderopacity="1.0"
     inkscape:pageopacity="0.0"
     inkscape:pageshadow="2"
     inkscape:zoom="1.6292135"
     inkscape:cx="56.5"
     inkscape:cy="44"
     inkscape:document-units="px"
     inkscape:current-layer="layer1"
     showgrid="false"
     inkscape:window-width="1024"
     inkscape:window-height="538"
     inkscape:window-x="0"
     inkscape:window-y="24"
     inkscape:window-maximized="1" />
  <metadata
     id="metadata7">
    <rdf:RDF>
      <cc:Work
         rdf:about="">
        <dc:format>image/svg+xml</dc:format>
        <dc:type
           rdf:resource="http://purl.org/dc/dcmitype/StillImage" />
        <dc:title>Aksara Dompu - Mbojo</dc:title>
        <dc:creator>
          <cc:Agent>
            <dc:title>Farhan Perdana (Black_Claw)</dc:title>
          </cc:Agent>
        </dc:creator>
        <dc:contributor>
          <cc:Agent>
            <dc:title>Farhan Perdana blackdramon@gmail.com</dc:title>
          </cc:Agent>
        </dc:contributor>
      </cc:Work>
    </rdf:RDF>
  </metadata>
  <g
     inkscape:label="Layer 1"
     inkscape:groupmode="layer"
     id="layer1"
     transform="translate(0,-952.36218)">
    <g
       id="layer1-3"
       inkscape:label="Layer 1"
       transform="translate(1.1858169,-1.0382786)">
      <path
         d="m 20.466601,956.70135 c 0.05197,1.98762 0.851856,3.70124 2.039289,5.25379 1.886965,1.84073 3.395279,2.38741 6.000116,2.3914 1.021095,-0.1953 1.593749,-0.24202 2.559363,-0.6937 0.434084,-0.20305 1.657746,-0.96182 1.235641,-0.73492 -7.659439,4.11743 -6.430604,4.00364 -3.473513,1.14775 2.490826,-2.08164 6.356022,-6.7022 9.070118,-4.15131 0.860618,0.80886 1.28045,2.0382 1.73125,3.08803 1.368634,2.65158 2.411539,4.50748 5.081696,5.9758 2.117943,0.92098 3.952121,0.86969 5.988161,-0.19117 -10.641818,6.16956 -6.809785,4.70251 -5.135323,2.09719 0.727506,-1.13196 1.375907,-2.32315 2.054897,-3.48439 0.168739,-0.35696 0.363297,-0.70283 0.506209,-1.0709 0.280477,-0.72237 0.172106,-0.59476 0.234495,-1.17544 0.0032,-0.0317 -0.02187,0.10878 0.0071,0.0954 2.447135,-1.1371 4.721774,-2.7065 7.303264,-3.49222 0.419206,-0.12759 -0.08537,0.87222 -0.128057,1.30832 -0.155414,2.82311 0.649248,5.50969 1.675365,8.11168 0.482855,1.22441 0.980405,2.44974 1.611598,3.6047 1.318137,2.41191 3.176431,4.70859 4.822896,6.89072 3.497113,3.95445 7.406065,8.038 12.417925,10.04292 0.536307,0.21454 1.100881,0.35025 1.651321,0.52533 1.334782,0.0921 1.106086,0.22865 2.26564,-0.20653 0.298785,-0.1121 1.147147,-0.55766 0.870283,-0.39897 -10.74294,6.15819 -7.059222,4.40239 -4.866674,2.26517 0.787114,-0.85515 1.420019,-1.82992 2.060885,-2.79415 0,0 7.397208,-3.25097 7.397208,-3.25097 l 0,0 c -0.613986,0.98659 -1.221111,1.98021 -1.934167,2.90016 -2.547138,2.96678 -4.700137,3.49529 -9.082959,5.90298 -0.470163,0.25827 -1.518257,0.37014 -2.022058,0.31967 -0.437752,-0.0436 -0.858645,-0.19212 -1.287968,-0.28822 -0.538034,-0.22428 -1.093497,-0.41061 -1.614094,-0.67284 -4.839089,-2.43725 -8.66678,-6.57528 -12.153531,-10.60588 -1.475,-1.96864 -3.730745,-4.85604 -4.957346,-6.99263 -0.663723,-1.15611 -1.185896,-2.38892 -1.724516,-3.60835 -1.133133,-2.5654 -2.239116,-5.22338 -2.300079,-8.06845 -0.06552,-0.46584 -0.569509,-1.11078 -0.19657,-1.39751 6.31267,-4.85357 9.080852,-6.36766 6.787903,-1.21171 -0.662494,1.15006 -1.296833,2.30876 -1.935608,3.47105 -0.03098,0.0564 -0.92723,1.59728 -1.012649,1.65316 -2.503811,1.63795 -5.144592,3.05628 -7.716892,4.58442 -2.289907,0.75995 -4.214685,0.67245 -6.386857,-0.45875 -0.347286,-0.22121 -0.713079,-0.41575 -1.041866,-0.66363 -1.946328,-1.46736 -3.079144,-3.68228 -4.261966,-5.74996 -0.212701,-0.43698 -0.718031,-1.54998 -1.053885,-1.99649 -0.145408,-0.19331 -0.312927,-0.38139 -0.520367,-0.50583 -0.137945,-0.0827 -0.60806,-0.002 -0.473989,-0.0906 2.11231,-1.40049 4.34477,-2.61072 6.517156,-3.91608 -0.260552,0.17883 -0.521104,0.35766 -0.781664,0.53649 -0.323891,0.30244 -0.65321,0.59917 -0.971682,0.90732 -0.383484,0.37106 -0.686753,0.83883 -1.133909,1.13004 -1.333602,0.86853 -7.409163,5.27574 -10.888784,5.90739 -0.443147,0.0804 -0.89672,0.0854 -1.34508,0.12814 -2.781935,-0.2009 -4.479096,-0.92832 -6.422777,-2.9687 -1.238358,-1.63949 -2.147113,-3.44298 -2.39617,-5.50938 0,0 7.331247,-3.88927 7.331247,-3.88927 z"
         id="path5346"
         style="fill:#000000" />
      <path
         d="m 86.382643,955.26919 c -0.406419,0.45279 -1.151759,1.25903 -1.481798,1.73761 -0.899224,1.30396 -1.796863,3.028 -2.517342,4.3836 -1.660654,3.12454 -3.295695,6.26263 -4.953449,9.38871 -4.539162,8.69245 -8.729192,17.5669 -12.467741,26.63386 -1.245314,3.02023 -3.96951,10.12523 -5.158797,13.20513 -3.60775,9.4025 -6.480839,19.0781 -10.224751,28.4274 -1.109271,2.1331 -2.049169,5.032 -4.326874,6.2816 -8.102713,4.4454 -5.135704,4.7367 -9.21814,4.0091 -3.288413,-1.5204 -4.822459,-4.9053 -6.615512,-7.8408 -2.448275,-4.3018 -4.921117,-8.6403 -6.311997,-13.4143 -0.117901,-1.0429 -0.340149,-2.0708 -0.0818,-3.12 1.116828,-4.5359 11.550597,-9.0892 13.514116,-10.2241 7.070385,-3.248 14.78345,-4.5209 22.40361,-5.7468 5.041847,-0.7737 10.115312,-1.3205 15.210706,-1.5534 2.478641,-0.1999 4.942381,0.1108 7.409257,0.3018 0.366593,0.023 0.733194,0.046 1.099788,0.069 0,0 -6.602076,4.7294 -6.602076,4.7294 l 0,0 c -0.368178,-0.026 -0.736364,-0.052 -1.104541,-0.079 -2.412323,-0.2029 -4.823664,-0.4478 -7.248679,-0.3001 -4.914937,0.1471 -9.820115,0.5464 -14.68465,1.2795 -7.652444,1.2285 -15.393555,2.5907 -22.397787,6.0758 1.262165,-0.7634 2.402578,-1.7797 3.786502,-2.2902 0.835259,-0.3081 -1.416968,1.0802 -2.089065,1.6641 -2.022668,1.7571 -2.514427,2.7374 -2.235352,5.4071 1.134788,4.7799 3.458491,9.1361 6.014638,13.3029 1.361313,2.0385 3.255504,5.4608 5.540434,6.6589 0.319138,0.1673 0.679814,0.2393 1.019724,0.359 3.280539,-0.027 0.968141,-0.1719 -4.926401,3.6345 -0.379729,0.2452 0.843379,-0.3525 1.202042,-0.6276 1.771234,-1.3585 2.743701,-3.5385 3.785813,-5.4246 4.249322,-9.3713 7.323894,-19.227 11.082201,-28.7974 1.499686,-3.8368 3.685294,-9.4829 5.253802,-13.2734 3.715162,-8.97802 7.856081,-17.76748 12.091665,-26.5093 4.919683,-10.25664 0.37042,-0.67395 4.24765,-9.07253 0.672295,-1.45627 1.283754,-2.94591 2.07048,-4.34369 0.317521,-0.56414 0.86324,-1.17163 1.287683,-1.67325 0,0 7.62664,-3.2584 7.62664,-3.2584 z"
         id="path5350"
         style="fill:#000000" />
    </g>
  </g>
</svg>
