<?xml version="1.0" encoding="UTF-8" standalone="no"?>
<!-- Created with Inkscape (http://www.inkscape.org/) -->

<svg
   xmlns:dc="http://purl.org/dc/elements/1.1/"
   xmlns:cc="http://creativecommons.org/ns#"
   xmlns:rdf="http://www.w3.org/1999/02/22-rdf-syntax-ns#"
   xmlns:svg="http://www.w3.org/2000/svg"
   xmlns="http://www.w3.org/2000/svg"
   xmlns:sodipodi="http://sodipodi.sourceforge.net/DTD/sodipodi-0.dtd"
   xmlns:inkscape="http://www.inkscape.org/namespaces/inkscape"
   width="100"
   height="100"
   id="svg2"
   version="1.1"
   inkscape:version="0.47 r22583"
   sodipodi:docname="v.svg">
  <title
     id="title2813">Aksara Dompu - Mbojo</title>
  <defs
     id="defs4">
    <inkscape:perspective
       sodipodi:type="inkscape:persp3d"
       inkscape:vp_x="0 : 526.18109 : 1"
       inkscape:vp_y="0 : 1000 : 0"
       inkscape:vp_z="744.09448 : 526.18109 : 1"
       inkscape:persp3d-origin="372.04724 : 350.78739 : 1"
       id="perspective10" />
    <inkscape:perspective
       id="perspective10-9"
       inkscape:persp3d-origin="372.04724 : 350.78739 : 1"
       inkscape:vp_z="744.09448 : 526.18109 : 1"
       inkscape:vp_y="0 : 1000 : 0"
       inkscape:vp_x="0 : 526.18109 : 1"
       sodipodi:type="inkscape:persp3d" />
    <inkscape:perspective
       id="perspective10-7"
       inkscape:persp3d-origin="372.04724 : 350.78739 : 1"
       inkscape:vp_z="744.09448 : 526.18109 : 1"
       inkscape:vp_y="0 : 1000 : 0"
       inkscape:vp_x="0 : 526.18109 : 1"
       sodipodi:type="inkscape:persp3d" />
    <inkscape:perspective
       id="perspective10-0"
       inkscape:persp3d-origin="372.04724 : 350.78739 : 1"
       inkscape:vp_z="744.09448 : 526.18109 : 1"
       inkscape:vp_y="0 : 1000 : 0"
       inkscape:vp_x="0 : 526.18109 : 1"
       sodipodi:type="inkscape:persp3d" />
    <inkscape:perspective
       id="perspective10-2"
       inkscape:persp3d-origin="372.04724 : 350.78739 : 1"
       inkscape:vp_z="744.09448 : 526.18109 : 1"
       inkscape:vp_y="0 : 1000 : 0"
       inkscape:vp_x="0 : 526.18109 : 1"
       sodipodi:type="inkscape:persp3d" />
    <inkscape:perspective
       id="perspective10-01"
       inkscape:persp3d-origin="372.04724 : 350.78739 : 1"
       inkscape:vp_z="744.09448 : 526.18109 : 1"
       inkscape:vp_y="0 : 1000 : 0"
       inkscape:vp_x="0 : 526.18109 : 1"
       sodipodi:type="inkscape:persp3d" />
    <inkscape:perspective
       id="perspective10-28"
       inkscape:persp3d-origin="372.04724 : 350.78739 : 1"
       inkscape:vp_z="744.09448 : 526.18109 : 1"
       inkscape:vp_y="0 : 1000 : 0"
       inkscape:vp_x="0 : 526.18109 : 1"
       sodipodi:type="inkscape:persp3d" />
    <inkscape:perspective
       id="perspective10-5"
       inkscape:persp3d-origin="372.04724 : 350.78739 : 1"
       inkscape:vp_z="744.09448 : 526.18109 : 1"
       inkscape:vp_y="0 : 1000 : 0"
       inkscape:vp_x="0 : 526.18109 : 1"
       sodipodi:type="inkscape:persp3d" />
    <inkscape:perspective
       id="perspective10-91"
       inkscape:persp3d-origin="372.04724 : 350.78739 : 1"
       inkscape:vp_z="744.09448 : 526.18109 : 1"
       inkscape:vp_y="0 : 1000 : 0"
       inkscape:vp_x="0 : 526.18109 : 1"
       sodipodi:type="inkscape:persp3d" />
    <inkscape:perspective
       id="perspective10-09"
       inkscape:persp3d-origin="372.04724 : 350.78739 : 1"
       inkscape:vp_z="744.09448 : 526.18109 : 1"
       inkscape:vp_y="0 : 1000 : 0"
       inkscape:vp_x="0 : 526.18109 : 1"
       sodipodi:type="inkscape:persp3d" />
    <inkscape:perspective
       id="perspective10-6"
       inkscape:persp3d-origin="372.04724 : 350.78739 : 1"
       inkscape:vp_z="744.09448 : 526.18109 : 1"
       inkscape:vp_y="0 : 1000 : 0"
       inkscape:vp_x="0 : 526.18109 : 1"
       sodipodi:type="inkscape:persp3d" />
    <inkscape:perspective
       sodipodi:type="inkscape:persp3d"
       inkscape:vp_x="0 : 526.18109 : 1"
       inkscape:vp_y="0 : 1000 : 0"
       inkscape:vp_z="744.09448 : 526.18109 : 1"
       inkscape:persp3d-origin="372.04724 : 350.78739 : 1"
       id="perspective10-97" />
    <inkscape:perspective
       id="perspective10-8"
       inkscape:persp3d-origin="372.04724 : 350.78739 : 1"
       inkscape:vp_z="744.09448 : 526.18109 : 1"
       inkscape:vp_y="0 : 1000 : 0"
       inkscape:vp_x="0 : 526.18109 : 1"
       sodipodi:type="inkscape:persp3d" />
    <inkscape:perspective
       id="perspective10-9-7"
       inkscape:persp3d-origin="372.04724 : 350.78739 : 1"
       inkscape:vp_z="744.09448 : 526.18109 : 1"
       inkscape:vp_y="0 : 1000 : 0"
       inkscape:vp_x="0 : 526.18109 : 1"
       sodipodi:type="inkscape:persp3d" />
    <inkscape:perspective
       id="perspective10-66"
       inkscape:persp3d-origin="372.04724 : 350.78739 : 1"
       inkscape:vp_z="744.09448 : 526.18109 : 1"
       inkscape:vp_y="0 : 1000 : 0"
       inkscape:vp_x="0 : 526.18109 : 1"
       sodipodi:type="inkscape:persp3d" />
    <inkscape:perspective
       id="perspective10-87"
       inkscape:persp3d-origin="372.04724 : 350.78739 : 1"
       inkscape:vp_z="744.09448 : 526.18109 : 1"
       inkscape:vp_y="0 : 1000 : 0"
       inkscape:vp_x="0 : 526.18109 : 1"
       sodipodi:type="inkscape:persp3d" />
    <inkscape:perspective
       id="perspective10-05"
       inkscape:persp3d-origin="372.04724 : 350.78739 : 1"
       inkscape:vp_z="744.09448 : 526.18109 : 1"
       inkscape:vp_y="0 : 1000 : 0"
       inkscape:vp_x="0 : 526.18109 : 1"
       sodipodi:type="inkscape:persp3d" />
    <inkscape:perspective
       id="perspective10-64"
       inkscape:persp3d-origin="372.04724 : 350.78739 : 1"
       inkscape:vp_z="744.09448 : 526.18109 : 1"
       inkscape:vp_y="0 : 1000 : 0"
       inkscape:vp_x="0 : 526.18109 : 1"
       sodipodi:type="inkscape:persp3d" />
    <inkscape:perspective
       id="perspective10-96"
       inkscape:persp3d-origin="372.04724 : 350.78739 : 1"
       inkscape:vp_z="744.09448 : 526.18109 : 1"
       inkscape:vp_y="0 : 1000 : 0"
       inkscape:vp_x="0 : 526.18109 : 1"
       sodipodi:type="inkscape:persp3d" />
    <inkscape:perspective
       id="perspective10-22"
       inkscape:persp3d-origin="372.04724 : 350.78739 : 1"
       inkscape:vp_z="744.09448 : 526.18109 : 1"
       inkscape:vp_y="0 : 1000 : 0"
       inkscape:vp_x="0 : 526.18109 : 1"
       sodipodi:type="inkscape:persp3d" />
    <inkscape:perspective
       id="perspective10-3"
       inkscape:persp3d-origin="372.04724 : 350.78739 : 1"
       inkscape:vp_z="744.09448 : 526.18109 : 1"
       inkscape:vp_y="0 : 1000 : 0"
       inkscape:vp_x="0 : 526.18109 : 1"
       sodipodi:type="inkscape:persp3d" />
    <inkscape:perspective
       id="perspective10-35"
       inkscape:persp3d-origin="372.04724 : 350.78739 : 1"
       inkscape:vp_z="744.09448 : 526.18109 : 1"
       inkscape:vp_y="0 : 1000 : 0"
       inkscape:vp_x="0 : 526.18109 : 1"
       sodipodi:type="inkscape:persp3d" />
    <inkscape:perspective
       id="perspective10-06"
       inkscape:persp3d-origin="372.04724 : 350.78739 : 1"
       inkscape:vp_z="744.09448 : 526.18109 : 1"
       inkscape:vp_y="0 : 1000 : 0"
       inkscape:vp_x="0 : 526.18109 : 1"
       sodipodi:type="inkscape:persp3d" />
    <inkscape:perspective
       id="perspective10-76"
       inkscape:persp3d-origin="372.04724 : 350.78739 : 1"
       inkscape:vp_z="744.09448 : 526.18109 : 1"
       inkscape:vp_y="0 : 1000 : 0"
       inkscape:vp_x="0 : 526.18109 : 1"
       sodipodi:type="inkscape:persp3d" />
    <inkscape:perspective
       id="perspective10-872"
       inkscape:persp3d-origin="372.04724 : 350.78739 : 1"
       inkscape:vp_z="744.09448 : 526.18109 : 1"
       inkscape:vp_y="0 : 1000 : 0"
       inkscape:vp_x="0 : 526.18109 : 1"
       sodipodi:type="inkscape:persp3d" />
    <inkscape:perspective
       id="perspective10-72"
       inkscape:persp3d-origin="372.04724 : 350.78739 : 1"
       inkscape:vp_z="744.09448 : 526.18109 : 1"
       inkscape:vp_y="0 : 1000 : 0"
       inkscape:vp_x="0 : 526.18109 : 1"
       sodipodi:type="inkscape:persp3d" />
    <inkscape:perspective
       id="perspective10-919"
       inkscape:persp3d-origin="372.04724 : 350.78739 : 1"
       inkscape:vp_z="744.09448 : 526.18109 : 1"
       inkscape:vp_y="0 : 1000 : 0"
       inkscape:vp_x="0 : 526.18109 : 1"
       sodipodi:type="inkscape:persp3d" />
    <inkscape:perspective
       id="perspective10-38"
       inkscape:persp3d-origin="372.04724 : 350.78739 : 1"
       inkscape:vp_z="744.09448 : 526.18109 : 1"
       inkscape:vp_y="0 : 1000 : 0"
       inkscape:vp_x="0 : 526.18109 : 1"
       sodipodi:type="inkscape:persp3d" />
    <inkscape:perspective
       id="perspective10-30"
       inkscape:persp3d-origin="372.04724 : 350.78739 : 1"
       inkscape:vp_z="744.09448 : 526.18109 : 1"
       inkscape:vp_y="0 : 1000 : 0"
       inkscape:vp_x="0 : 526.18109 : 1"
       sodipodi:type="inkscape:persp3d" />
    <inkscape:perspective
       id="perspective10-98"
       inkscape:persp3d-origin="372.04724 : 350.78739 : 1"
       inkscape:vp_z="744.09448 : 526.18109 : 1"
       inkscape:vp_y="0 : 1000 : 0"
       inkscape:vp_x="0 : 526.18109 : 1"
       sodipodi:type="inkscape:persp3d" />
    <inkscape:perspective
       id="perspective10-973"
       inkscape:persp3d-origin="372.04724 : 350.78739 : 1"
       inkscape:vp_z="744.09448 : 526.18109 : 1"
       inkscape:vp_y="0 : 1000 : 0"
       inkscape:vp_x="0 : 526.18109 : 1"
       sodipodi:type="inkscape:persp3d" />
    <inkscape:perspective
       id="perspective10-68"
       inkscape:persp3d-origin="372.04724 : 350.78739 : 1"
       inkscape:vp_z="744.09448 : 526.18109 : 1"
       inkscape:vp_y="0 : 1000 : 0"
       inkscape:vp_x="0 : 526.18109 : 1"
       sodipodi:type="inkscape:persp3d" />
  </defs>
  <sodipodi:namedview
     id="base"
     pagecolor="#ffffff"
     bordercolor="#666666"
     borderopacity="1.0"
     inkscape:pageopacity="0.0"
     inkscape:pageshadow="2"
     inkscape:zoom="1.6292135"
     inkscape:cx="56.5"
     inkscape:cy="44"
     inkscape:document-units="px"
     inkscape:current-layer="layer1"
     showgrid="false"
     inkscape:window-width="1024"
     inkscape:window-height="538"
     inkscape:window-x="0"
     inkscape:window-y="24"
     inkscape:window-maximized="1" />
  <metadata
     id="metadata7">
    <rdf:RDF>
      <cc:Work
         rdf:about="">
        <dc:format>image/svg+xml</dc:format>
        <dc:type
           rdf:resource="http://purl.org/dc/dcmitype/StillImage" />
        <dc:title>Aksara Dompu - Mbojo</dc:title>
        <dc:creator>
          <cc:Agent>
            <dc:title>Farhan Perdana (Black_Claw)</dc:title>
          </cc:Agent>
        </dc:creator>
        <dc:contributor>
          <cc:Agent>
            <dc:title>Farhan Perdana blackdramon@gmail.com</dc:title>
          </cc:Agent>
        </dc:contributor>
      </cc:Work>
    </rdf:RDF>
  </metadata>
  <g
     inkscape:label="Layer 1"
     inkscape:groupmode="layer"
     id="layer1"
     transform="translate(0,-952.36218)">
    <g
       id="layer1-7"
       inkscape:label="Layer 1"
       transform="translate(0.37932207,0.67511393)">
      <path
         d="m 27.192867,960.00168 c -12.70673,5.81985 -4.494663,2.12221 -1.99473,0.39297 0.647378,-0.4478 1.840086,-1.40194 2.481196,-1.90744 2.610055,-1.84892 3.602048,-2.69443 9.006444,-3.13897 0.802915,-0.0661 0.57614,1.18299 0.703417,1.80333 0.224767,1.0955 0.243237,2.2107 0.34718,3.31711 0.496815,5.28818 0.370216,4.27234 0.628948,10.21638 0.322951,10.40044 1.407151,20.77557 1.757292,31.17584 0.238051,7.0708 0.112026,8.2207 -0.05291,15.2372 -0.04583,5.6925 -0.49625,11.3735 -0.903247,17.0545 -0.116396,1.6247 -0.255206,4.4968 -0.511518,6.2378 -0.09362,0.6358 -0.264845,1.2634 -0.397268,1.8951 -0.178623,0.439 -0.304513,0.8932 -0.535869,1.317 -0.258595,0.4738 -0.846239,1.2092 -1.467982,1.4884 -5.741082,2.5775 -6.10808,3.6555 -10.741644,3.4858 -0.776775,-0.1274 -2.160641,-0.3251 -2.891385,-0.5665 -1.723884,-0.5697 -3.561582,-1.6922 -4.559859,-2.9267 -0.677237,-0.8376 -1.128352,-1.7736 -1.692531,-2.6604 -1.190282,-2.8422 -2.198663,-4.9567 -2.913157,-7.9322 -1.101154,-4.586 -1.521167,-9.8345 -0.648506,-14.4601 0.325854,-1.7272 0.956028,-3.4113 1.434042,-5.1169 2.872393,-7.3509 7.761999,-13.7913 14.56586,-19.35501 4.941672,-4.04096 7.282178,-5.31599 12.794193,-8.83523 9.989871,-5.63315 20.323003,-10.88162 30.805924,-15.93869 1.880033,-1.01341 3.900875,-1.86082 5.772761,-2.88367 0.527197,-0.28809 1.172807,-0.63153 1.516809,-1.08187 -0.03824,0.0472 -0.04758,0.122 -0.114725,0.14164 -0.154745,0.0453 -0.332559,0.008 -0.493764,0.0364 -0.507659,0.0899 -1.010666,0.2025 -1.496306,0.3485 -0.368472,0.11079 -1.419352,0.56825 -1.74275,0.70531 2.029674,-0.87569 3.965596,-1.89828 6.089023,-2.62707 0.650154,-0.22315 -1.089444,0.71094 -1.607868,1.08907 -0.660701,0.48188 -1.295739,0.98484 -1.92761,1.48959 -2.772554,2.21475 -5.402983,4.50243 -7.977122,6.85683 -2.727186,2.70369 -5.072751,5.63855 -7.107666,8.68719 -0.940222,1.40863 -1.844407,2.90649 -2.406742,4.44278 -0.191623,0.52348 -0.2684,1.06838 -0.4026,1.60259 -0.0886,1.57456 0.296964,3.30155 2.382508,3.97264 0.339714,0.10931 0.706122,0.15946 1.059183,0.23915 2.484342,0.52174 5.111198,0.0747 7.601262,0.42861 0.160664,0.0635 0.37453,0.0779 0.481994,0.19045 0.872366,0.91357 -1.003822,2.02616 -1.621052,2.57506 -0.481846,0.42852 -0.953813,0.86363 -1.43072,1.29551 -4.511101,4.09982 -7.413308,8.98472 -9.261412,14.15932 -0.502319,1.4064 -0.86666,2.8405 -1.29999,4.2609 -1.375852,4.9763 -1.786524,10.2609 0.313718,15.1699 0.941445,2.2005 1.53874,2.5701 3.205441,4.3494 2.051803,1.7013 4.66003,2.9626 7.663592,3.3278 1.336203,0.1625 2.877305,0.089 4.216297,0.067 3.624357,-0.1545 7.013737,-1.1583 10.312638,-2.2519 1.574788,-0.5307 3.119072,-1.1134 4.661341,-1.6983 0,0 -6.439196,3.9964 -6.439196,3.9964 l 0,0 c -1.536767,0.5733 -3.077142,1.1418 -4.652989,1.648 -3.307249,1.0478 -6.748381,1.8972 -10.351021,1.9691 -1.55116,-0.01 -2.845894,0.049 -4.37974,-0.1933 -3.10328,-0.4903 -5.716171,-1.947 -7.726447,-3.7979 -0.58206,-0.6811 -1.261911,-1.3172 -1.746191,-2.0432 -2.57305,-3.857 -3.021366,-9.7681 -2.455484,-13.9942 0.186997,-1.3965 0.641998,-2.7634 0.962998,-4.145 0.402808,-1.4245 0.740633,-2.8612 1.208436,-4.2736 1.681094,-5.0758 4.164349,-9.9801 8.395511,-14.1089 0.828137,-0.81962 1.687271,-1.85882 2.692616,-2.57532 0.118375,-0.084 0.255769,-0.1675 0.412981,-0.1927 0.09525,-0.015 0.237916,0.1537 0.271695,0.083 0.03379,-0.071 -0.180426,-0.056 -0.27064,-0.085 -2.514398,-0.28561 -5.124893,0.017 -7.5955,-0.55853 -0.399633,-0.11847 -0.820078,-0.20104 -1.198903,-0.35549 -2.275399,-0.92759 -2.764769,-2.92467 -2.610351,-4.74942 0.16654,-0.57979 0.272008,-1.1723 0.499631,-1.73941 0.632858,-1.57669 1.664271,-3.19317 2.655518,-4.63449 2.104037,-3.05937 4.462886,-6.02504 7.126878,-8.80849 2.428606,-2.32051 4.940055,-4.55372 7.535196,-6.76196 0.01454,-0.0125 2.880981,-2.41874 3.152221,-2.55889 2.607768,-1.34735 5.358564,-2.51913 8.037847,-3.77869 1.066023,-0.39458 3.203523,-1.19639 4.372318,-0.61629 0.23313,0.11571 0.373796,0.31713 0.560695,0.4757 0.01247,0.17447 0.111294,0.35834 0.03758,0.52341 -0.200579,0.44923 -1.206397,1.00343 -1.5795,1.21137 -1.990527,1.10941 -4.206261,1.94488 -6.210808,3.0383 -10.905099,5.10276 -21.645537,10.42459 -31.971684,16.21682 -5.775787,3.6438 -7.510995,4.49669 -12.635282,8.68788 -6.656169,5.44418 -11.68646,11.8232 -14.477218,19.0379 -0.462697,1.672 -1.068441,3.324 -1.3881,5.016 -1.138854,6.0286 -0.279516,12.5661 2.16498,18.3422 0.506696,1.1971 1.183119,2.3468 1.774675,3.5203 0.630293,0.7963 1.166146,1.643 1.890874,2.3891 1.765004,1.8173 4.470153,2.7861 7.31979,2.9529 3.943413,-0.1118 4.897803,-1.4609 -3.612726,2.6565 -0.310659,0.1503 0.67251,-0.2423 0.949479,-0.4282 0.962094,-0.646 1.082151,-1.1616 1.619561,-2.0774 0.215007,-0.6434 0.474739,-1.2788 0.645031,-1.9303 0.574923,-2.1996 0.784745,-4.1912 1.106768,-6.4443 0.824323,-5.7674 1.594969,-11.5435 1.753782,-17.3514 0.221317,-6.7604 0.370394,-8.4586 0.211427,-15.2699 -0.240923,-10.32285 -1.40011,-20.61265 -2.401443,-30.90249 -0.484289,-4.08646 -0.789311,-8.88684 -2.075233,-12.90346 -0.147313,-0.46014 -1.095308,-0.9818 -0.672067,-1.32302 1.804112,-1.45447 4.305385,-2.26367 6.485158,-3.36347 0.347174,-0.17515 -0.656371,0.39214 -0.984564,0.58819 -0.850005,0.64407 -1.640395,1.33504 -2.499595,1.97169 -3.479119,2.57794 -8.090848,4.16957 -12.098616,6.06559 0,0 6.589472,-4.10097 6.589472,-4.10097 z"
         id="path5503"
         style="fill:#000000" />
    </g>
  </g>
</svg>
