<?xml version="1.0" encoding="UTF-8" standalone="no"?>
<!-- Created with Inkscape (http://www.inkscape.org/) -->

<svg
   xmlns:dc="http://purl.org/dc/elements/1.1/"
   xmlns:cc="http://creativecommons.org/ns#"
   xmlns:rdf="http://www.w3.org/1999/02/22-rdf-syntax-ns#"
   xmlns:svg="http://www.w3.org/2000/svg"
   xmlns="http://www.w3.org/2000/svg"
   xmlns:sodipodi="http://sodipodi.sourceforge.net/DTD/sodipodi-0.dtd"
   xmlns:inkscape="http://www.inkscape.org/namespaces/inkscape"
   width="100"
   height="100"
   id="svg2"
   version="1.1"
   inkscape:version="0.47 r22583"
   sodipodi:docname="y.svg">
  <title
     id="title2813">Aksara Dompu - Mbojo</title>
  <defs
     id="defs4">
    <inkscape:perspective
       sodipodi:type="inkscape:persp3d"
       inkscape:vp_x="0 : 526.18109 : 1"
       inkscape:vp_y="0 : 1000 : 0"
       inkscape:vp_z="744.09448 : 526.18109 : 1"
       inkscape:persp3d-origin="372.04724 : 350.78739 : 1"
       id="perspective10" />
    <inkscape:perspective
       id="perspective10-9"
       inkscape:persp3d-origin="372.04724 : 350.78739 : 1"
       inkscape:vp_z="744.09448 : 526.18109 : 1"
       inkscape:vp_y="0 : 1000 : 0"
       inkscape:vp_x="0 : 526.18109 : 1"
       sodipodi:type="inkscape:persp3d" />
    <inkscape:perspective
       id="perspective10-7"
       inkscape:persp3d-origin="372.04724 : 350.78739 : 1"
       inkscape:vp_z="744.09448 : 526.18109 : 1"
       inkscape:vp_y="0 : 1000 : 0"
       inkscape:vp_x="0 : 526.18109 : 1"
       sodipodi:type="inkscape:persp3d" />
    <inkscape:perspective
       id="perspective10-0"
       inkscape:persp3d-origin="372.04724 : 350.78739 : 1"
       inkscape:vp_z="744.09448 : 526.18109 : 1"
       inkscape:vp_y="0 : 1000 : 0"
       inkscape:vp_x="0 : 526.18109 : 1"
       sodipodi:type="inkscape:persp3d" />
    <inkscape:perspective
       id="perspective10-2"
       inkscape:persp3d-origin="372.04724 : 350.78739 : 1"
       inkscape:vp_z="744.09448 : 526.18109 : 1"
       inkscape:vp_y="0 : 1000 : 0"
       inkscape:vp_x="0 : 526.18109 : 1"
       sodipodi:type="inkscape:persp3d" />
    <inkscape:perspective
       id="perspective10-01"
       inkscape:persp3d-origin="372.04724 : 350.78739 : 1"
       inkscape:vp_z="744.09448 : 526.18109 : 1"
       inkscape:vp_y="0 : 1000 : 0"
       inkscape:vp_x="0 : 526.18109 : 1"
       sodipodi:type="inkscape:persp3d" />
    <inkscape:perspective
       id="perspective10-28"
       inkscape:persp3d-origin="372.04724 : 350.78739 : 1"
       inkscape:vp_z="744.09448 : 526.18109 : 1"
       inkscape:vp_y="0 : 1000 : 0"
       inkscape:vp_x="0 : 526.18109 : 1"
       sodipodi:type="inkscape:persp3d" />
    <inkscape:perspective
       id="perspective10-5"
       inkscape:persp3d-origin="372.04724 : 350.78739 : 1"
       inkscape:vp_z="744.09448 : 526.18109 : 1"
       inkscape:vp_y="0 : 1000 : 0"
       inkscape:vp_x="0 : 526.18109 : 1"
       sodipodi:type="inkscape:persp3d" />
    <inkscape:perspective
       id="perspective10-91"
       inkscape:persp3d-origin="372.04724 : 350.78739 : 1"
       inkscape:vp_z="744.09448 : 526.18109 : 1"
       inkscape:vp_y="0 : 1000 : 0"
       inkscape:vp_x="0 : 526.18109 : 1"
       sodipodi:type="inkscape:persp3d" />
    <inkscape:perspective
       id="perspective10-09"
       inkscape:persp3d-origin="372.04724 : 350.78739 : 1"
       inkscape:vp_z="744.09448 : 526.18109 : 1"
       inkscape:vp_y="0 : 1000 : 0"
       inkscape:vp_x="0 : 526.18109 : 1"
       sodipodi:type="inkscape:persp3d" />
    <inkscape:perspective
       id="perspective10-6"
       inkscape:persp3d-origin="372.04724 : 350.78739 : 1"
       inkscape:vp_z="744.09448 : 526.18109 : 1"
       inkscape:vp_y="0 : 1000 : 0"
       inkscape:vp_x="0 : 526.18109 : 1"
       sodipodi:type="inkscape:persp3d" />
    <inkscape:perspective
       sodipodi:type="inkscape:persp3d"
       inkscape:vp_x="0 : 526.18109 : 1"
       inkscape:vp_y="0 : 1000 : 0"
       inkscape:vp_z="744.09448 : 526.18109 : 1"
       inkscape:persp3d-origin="372.04724 : 350.78739 : 1"
       id="perspective10-97" />
    <inkscape:perspective
       id="perspective10-8"
       inkscape:persp3d-origin="372.04724 : 350.78739 : 1"
       inkscape:vp_z="744.09448 : 526.18109 : 1"
       inkscape:vp_y="0 : 1000 : 0"
       inkscape:vp_x="0 : 526.18109 : 1"
       sodipodi:type="inkscape:persp3d" />
    <inkscape:perspective
       id="perspective10-9-7"
       inkscape:persp3d-origin="372.04724 : 350.78739 : 1"
       inkscape:vp_z="744.09448 : 526.18109 : 1"
       inkscape:vp_y="0 : 1000 : 0"
       inkscape:vp_x="0 : 526.18109 : 1"
       sodipodi:type="inkscape:persp3d" />
    <inkscape:perspective
       id="perspective10-66"
       inkscape:persp3d-origin="372.04724 : 350.78739 : 1"
       inkscape:vp_z="744.09448 : 526.18109 : 1"
       inkscape:vp_y="0 : 1000 : 0"
       inkscape:vp_x="0 : 526.18109 : 1"
       sodipodi:type="inkscape:persp3d" />
    <inkscape:perspective
       id="perspective10-87"
       inkscape:persp3d-origin="372.04724 : 350.78739 : 1"
       inkscape:vp_z="744.09448 : 526.18109 : 1"
       inkscape:vp_y="0 : 1000 : 0"
       inkscape:vp_x="0 : 526.18109 : 1"
       sodipodi:type="inkscape:persp3d" />
    <inkscape:perspective
       id="perspective10-05"
       inkscape:persp3d-origin="372.04724 : 350.78739 : 1"
       inkscape:vp_z="744.09448 : 526.18109 : 1"
       inkscape:vp_y="0 : 1000 : 0"
       inkscape:vp_x="0 : 526.18109 : 1"
       sodipodi:type="inkscape:persp3d" />
    <inkscape:perspective
       id="perspective10-64"
       inkscape:persp3d-origin="372.04724 : 350.78739 : 1"
       inkscape:vp_z="744.09448 : 526.18109 : 1"
       inkscape:vp_y="0 : 1000 : 0"
       inkscape:vp_x="0 : 526.18109 : 1"
       sodipodi:type="inkscape:persp3d" />
    <inkscape:perspective
       id="perspective10-96"
       inkscape:persp3d-origin="372.04724 : 350.78739 : 1"
       inkscape:vp_z="744.09448 : 526.18109 : 1"
       inkscape:vp_y="0 : 1000 : 0"
       inkscape:vp_x="0 : 526.18109 : 1"
       sodipodi:type="inkscape:persp3d" />
    <inkscape:perspective
       id="perspective10-22"
       inkscape:persp3d-origin="372.04724 : 350.78739 : 1"
       inkscape:vp_z="744.09448 : 526.18109 : 1"
       inkscape:vp_y="0 : 1000 : 0"
       inkscape:vp_x="0 : 526.18109 : 1"
       sodipodi:type="inkscape:persp3d" />
    <inkscape:perspective
       id="perspective10-3"
       inkscape:persp3d-origin="372.04724 : 350.78739 : 1"
       inkscape:vp_z="744.09448 : 526.18109 : 1"
       inkscape:vp_y="0 : 1000 : 0"
       inkscape:vp_x="0 : 526.18109 : 1"
       sodipodi:type="inkscape:persp3d" />
    <inkscape:perspective
       id="perspective10-35"
       inkscape:persp3d-origin="372.04724 : 350.78739 : 1"
       inkscape:vp_z="744.09448 : 526.18109 : 1"
       inkscape:vp_y="0 : 1000 : 0"
       inkscape:vp_x="0 : 526.18109 : 1"
       sodipodi:type="inkscape:persp3d" />
    <inkscape:perspective
       id="perspective10-06"
       inkscape:persp3d-origin="372.04724 : 350.78739 : 1"
       inkscape:vp_z="744.09448 : 526.18109 : 1"
       inkscape:vp_y="0 : 1000 : 0"
       inkscape:vp_x="0 : 526.18109 : 1"
       sodipodi:type="inkscape:persp3d" />
    <inkscape:perspective
       id="perspective10-76"
       inkscape:persp3d-origin="372.04724 : 350.78739 : 1"
       inkscape:vp_z="744.09448 : 526.18109 : 1"
       inkscape:vp_y="0 : 1000 : 0"
       inkscape:vp_x="0 : 526.18109 : 1"
       sodipodi:type="inkscape:persp3d" />
    <inkscape:perspective
       id="perspective10-872"
       inkscape:persp3d-origin="372.04724 : 350.78739 : 1"
       inkscape:vp_z="744.09448 : 526.18109 : 1"
       inkscape:vp_y="0 : 1000 : 0"
       inkscape:vp_x="0 : 526.18109 : 1"
       sodipodi:type="inkscape:persp3d" />
    <inkscape:perspective
       id="perspective10-72"
       inkscape:persp3d-origin="372.04724 : 350.78739 : 1"
       inkscape:vp_z="744.09448 : 526.18109 : 1"
       inkscape:vp_y="0 : 1000 : 0"
       inkscape:vp_x="0 : 526.18109 : 1"
       sodipodi:type="inkscape:persp3d" />
    <inkscape:perspective
       id="perspective10-919"
       inkscape:persp3d-origin="372.04724 : 350.78739 : 1"
       inkscape:vp_z="744.09448 : 526.18109 : 1"
       inkscape:vp_y="0 : 1000 : 0"
       inkscape:vp_x="0 : 526.18109 : 1"
       sodipodi:type="inkscape:persp3d" />
    <inkscape:perspective
       id="perspective10-38"
       inkscape:persp3d-origin="372.04724 : 350.78739 : 1"
       inkscape:vp_z="744.09448 : 526.18109 : 1"
       inkscape:vp_y="0 : 1000 : 0"
       inkscape:vp_x="0 : 526.18109 : 1"
       sodipodi:type="inkscape:persp3d" />
    <inkscape:perspective
       id="perspective10-30"
       inkscape:persp3d-origin="372.04724 : 350.78739 : 1"
       inkscape:vp_z="744.09448 : 526.18109 : 1"
       inkscape:vp_y="0 : 1000 : 0"
       inkscape:vp_x="0 : 526.18109 : 1"
       sodipodi:type="inkscape:persp3d" />
    <inkscape:perspective
       id="perspective10-98"
       inkscape:persp3d-origin="372.04724 : 350.78739 : 1"
       inkscape:vp_z="744.09448 : 526.18109 : 1"
       inkscape:vp_y="0 : 1000 : 0"
       inkscape:vp_x="0 : 526.18109 : 1"
       sodipodi:type="inkscape:persp3d" />
    <inkscape:perspective
       id="perspective10-973"
       inkscape:persp3d-origin="372.04724 : 350.78739 : 1"
       inkscape:vp_z="744.09448 : 526.18109 : 1"
       inkscape:vp_y="0 : 1000 : 0"
       inkscape:vp_x="0 : 526.18109 : 1"
       sodipodi:type="inkscape:persp3d" />
    <inkscape:perspective
       id="perspective10-68"
       inkscape:persp3d-origin="372.04724 : 350.78739 : 1"
       inkscape:vp_z="744.09448 : 526.18109 : 1"
       inkscape:vp_y="0 : 1000 : 0"
       inkscape:vp_x="0 : 526.18109 : 1"
       sodipodi:type="inkscape:persp3d" />
    <inkscape:perspective
       id="perspective10-61"
       inkscape:persp3d-origin="372.04724 : 350.78739 : 1"
       inkscape:vp_z="744.09448 : 526.18109 : 1"
       inkscape:vp_y="0 : 1000 : 0"
       inkscape:vp_x="0 : 526.18109 : 1"
       sodipodi:type="inkscape:persp3d" />
  </defs>
  <sodipodi:namedview
     id="base"
     pagecolor="#ffffff"
     bordercolor="#666666"
     borderopacity="1.0"
     inkscape:pageopacity="0.0"
     inkscape:pageshadow="2"
     inkscape:zoom="1.6292135"
     inkscape:cx="56.5"
     inkscape:cy="44"
     inkscape:document-units="px"
     inkscape:current-layer="layer1"
     showgrid="false"
     inkscape:window-width="1024"
     inkscape:window-height="538"
     inkscape:window-x="0"
     inkscape:window-y="24"
     inkscape:window-maximized="1" />
  <metadata
     id="metadata7">
    <rdf:RDF>
      <cc:Work
         rdf:about="">
        <dc:format>image/svg+xml</dc:format>
        <dc:type
           rdf:resource="http://purl.org/dc/dcmitype/StillImage" />
        <dc:title>Aksara Dompu - Mbojo</dc:title>
        <dc:creator>
          <cc:Agent>
            <dc:title>Farhan Perdana (Black_Claw)</dc:title>
          </cc:Agent>
        </dc:creator>
        <dc:contributor>
          <cc:Agent>
            <dc:title>Farhan Perdana blackdramon@gmail.com</dc:title>
          </cc:Agent>
        </dc:contributor>
      </cc:Work>
    </rdf:RDF>
  </metadata>
  <g
     inkscape:label="Layer 1"
     inkscape:groupmode="layer"
     id="layer1"
     transform="translate(0,-952.36218)">
    <g
       id="layer1-6"
       inkscape:label="Layer 1"
       transform="translate(-2.5096983,0.30437503)">
      <path
         sodipodi:nodetypes="cscsscsscscssccsscssscsscsssccssscsscsscscccscsscsscssssccssscsscssscssscssscsssscsscscsscsccc"
         d="m 17.545921,955.10979 c -0.486793,2.85778 -0.932816,5.73313 -0.8418,8.65652 0.03006,0.96647 0.159279,1.92613 0.238918,2.88915 0.258154,0.92854 0.422641,1.89556 0.774462,2.78561 1.25457,3.17384 3.421453,5.60584 6.094088,7.35502 2.624658,1.71781 3.85943,1.93479 6.793069,2.95959 1.395572,0.1952 2.781802,0.50768 4.186714,0.58558 4.46821,0.24764 9.019427,-0.60089 13.215948,-2.29285 2.267073,-0.91407 5.620831,-2.95402 2.598419,-1.15402 3.01508,-2.15871 5.551929,-4.93903 7.490725,-8.27487 0.752484,-1.29473 0.58492,-0.8983 0.899016,-1.94502 0.352439,2.51295 -0.3559,-1.37015 4.458466,-1.6399 0.762272,-0.0425 -0.946327,1.32724 -1.379731,2.02261 -2.760012,4.42843 -5.13749,9.15405 -7.574655,13.801 -7.804952,14.99242 -14.525203,30.62309 -21.55379,46.06589 -2.343493,4.9276 -4.26965,10.1199 -6.954992,14.846 -0.386362,0.6801 -1.850822,3.1647 -2.787385,3.6833 -2.037429,1.1283 -4.210686,1.9269 -6.316031,2.8904 -0.584926,-0.9338 -1.255395,-1.8086 -1.754773,-2.8013 -1.02564,-2.039 -2.7527,-6.7554 -3.428619,-8.8762 -0.822904,-2.5822 -1.8759829,-6.4866 -2.2231505,-9.2355 -0.1845039,-1.4609 -0.1557391,-2.9449 -0.2336058,-4.4174 0.2476439,-3.2642 0.1222586,-4.8161 1.2969773,-7.8665 1.450588,-3.7671 4.40348,-7.5617 7.132142,-10.2529 1.059487,-1.045 2.221349,-1.9554 3.332027,-2.9331 1.207051,-0.8948 2.393421,-1.8246 3.621159,-2.68429 1.271333,-0.89011 2.568741,-1.73451 3.873593,-2.56311 5.134033,-3.26007 7.429675,-4.8533 12.212892,-7.22884 2.862135,-1.42142 4.53497,-2.0618 7.433138,-3.2656 4.355962,-2.0016 9.078999,-2.89318 13.362072,-5.08641 0.513939,0.47681 0.662811,-0.60127 1.049809,-0.56159 0.336188,0.0343 0.394882,0.91534 0.364528,1.00875 -0.08564,0.26338 -0.382088,0.37215 -0.536336,0.59402 -0.222723,0.32035 -0.39204,0.6821 -0.588059,1.02314 -0.856204,1.87943 -1.6994,3.90542 -1.773819,6.05007 -0.01663,0.47909 -0.0486,0.98291 0.09731,1.4343 0.154965,0.47942 0.516578,0.8427 0.77487,1.26401 0.494816,0.40955 0.931427,0.92371 1.484456,1.22869 3.395413,1.87238 8.78714,2.35084 12.444959,2.5948 5.718385,0.38149 8.542308,0.20104 14.36768,0.098 6.544107,-0.24084 -5.040628,0.79599 1.458157,-0.0524 2.34697,-0.30633 4.671375,-0.7964 7.007067,-1.19459 0,0 -3.442158,2.85266 -3.442158,2.85266 l 0,0 c -2.281339,0.34182 -4.545321,0.88587 -6.844007,1.02544 -1.349115,0.0819 -0.206351,0.0354 -1.519822,0.0677 -6.842746,0.20674 -13.683512,0.54703 -20.509018,-0.25146 -2.351226,-0.27501 -5.423267,-0.6713 -7.67972,-1.83104 -0.625871,-0.32167 -1.117791,-0.89596 -1.676684,-1.34394 -0.319429,-0.51027 -0.757888,-0.95107 -0.958277,-1.53088 -0.169044,-0.48913 -0.11997,-1.04258 -0.112065,-1.5662 0.03298,-2.18434 0.804592,-4.25286 1.576655,-6.22422 0.158482,-0.3542 0.311559,-0.71145 0.475438,-1.06265 0.110663,-0.2371 0.115677,-0.63048 0.347994,-0.70192 0.190888,-0.059 0.285731,0.30429 0.419808,0.4657 0.05123,0.0615 0.166966,0.12638 0.134856,0.20218 -0.135682,0.3206 -0.999152,-0.24288 -0.896783,0.37781 -4.194555,1.83435 -8.671823,2.74701 -12.861221,4.61341 -2.827358,1.16615 -4.482134,1.79117 -7.268818,3.18668 -1.351603,0.67682 -2.650106,1.47937 -4.004452,2.14948 -0.116259,0.0578 0.37942,-0.36993 0.268355,-0.30099 -3.443402,2.13774 -4.191016,2.77348 -7.457607,5.15474 -1.109697,0.95425 -2.270991,1.83915 -3.32909,2.86265 -2.661833,2.5749 -5.620112,6.3267 -7.09448,9.9288 -1.245643,3.0434 -1.144571,4.4565 -1.475812,7.747 0.0498,1.4556 -0.0081,2.9205 0.14944,4.3666 0.297974,2.7352 1.271315,6.6347 2.105762,9.1944 0.842909,2.5856 2.272189,6.1968 3.718486,8.5005 0.506945,0.8077 1.215002,1.435 1.822504,2.1526 -1.186548,1.0431 -2.387971,2.0659 -3.559649,3.1296 -0.493555,0.448 1.075768,-0.7801 1.524691,-1.2823 0.670378,-0.7502 1.255792,-1.592 1.810915,-2.4497 3.085387,-4.7667 5.289216,-10.1421 7.851157,-15.2473 1.198378,-2.5251 2.421946,-5.0355 3.595138,-7.5749 3.783553,-8.1898 7.252841,-16.5508 11.043501,-24.73622 1.087977,-2.34931 2.231945,-4.66631 3.347476,-6.99974 1.045523,-2.18703 2.090457,-4.37434 3.135688,-6.56149 1.691943,-3.40783 3.362919,-6.82843 5.066813,-10.22895 0.538159,-1.07401 1.073709,-2.15012 1.639733,-3.20642 0.355881,-0.66419 0.579127,-1.47265 1.125071,-1.9534 1.823805,-1.60593 3.808111,-3.00125 5.869161,-4.20542 0.18366,-0.10737 0.226755,0.38516 0.340133,0.57776 -0.470567,1.33422 -0.176741,0.68458 -1.131456,2.23431 -0.387429,0.62883 -0.750292,1.2781 -1.173754,1.87784 -1.872575,2.65208 -4.09834,4.95307 -6.627812,6.82501 -4.091865,2.59154 -7.071996,4.92937 -11.335078,6.54623 -5.70067,2.16213 -11.751222,2.71792 -17.678034,1.5302 -1.255464,-0.43048 -2.542385,-0.76143 -3.7664,-1.29132 -4.094457,-1.77269 -7.781345,-4.80219 -9.645263,-9.32327 -0.379065,-0.91946 -0.557728,-1.92477 -0.836592,-2.88715 -0.09746,-0.97598 -0.233004,-1.94814 -0.292398,-2.92784 -0.172101,-2.83894 0.103832,-5.64511 0.292839,-8.46909 0,0 5.398923,-2.92152 5.398923,-2.92152 l 0,-8e-5 z"
         id="path5587"
         style="fill:#000000" />
    </g>
  </g>
</svg>
